<svg width="45" height="45" viewBox="0 0 45 45" fill="none" xmlns="http://www.w3.org/2000/svg">
<path d="M38.4375 25.314V10.314H20.7338C19.4973 10.3551 18.3526 9.66445 17.8125 8.55146C17.3021 7.34682 16.1208 6.56419 14.8125 6.56396H7.5C6.98223 6.56396 6.5625 6.9837 6.5625 7.50146V25.314" stroke="black" stroke-width="1.00065" stroke-linecap="round" stroke-linejoin="round"/>
<path d="M34.6885 6.56445H22.5835C21.3195 6.56433 20.1694 5.83366 19.6322 4.68945C19.0955 3.54832 17.9495 2.81839 16.6885 2.81445H10.3135" stroke="black" stroke-width="1.00065" stroke-linecap="round" stroke-linejoin="round"/>
<path d="M0.9375 29.0669L2.51078 21.1911C2.68917 20.3172 3.45842 19.6898 4.35034 19.6909H6.56306" stroke="black" stroke-width="1.00065" stroke-linecap="round" stroke-linejoin="round"/>
<path d="M44.0631 29.0654L42.4898 21.1896C42.3114 20.3157 41.5421 19.6884 40.6502 19.6895H38.4375" stroke="black" stroke-width="1.00065" stroke-linecap="round" stroke-linejoin="round"/>
<path fill-rule="evenodd" clip-rule="evenodd" d="M22.4997 20.6263C24.3117 20.6263 25.7806 19.1574 25.7806 17.3454C25.7806 15.5334 24.3117 14.0645 22.4997 14.0645C20.6877 14.0645 19.2188 15.5334 19.2188 17.3454C19.2188 19.1574 20.6877 20.6263 22.4997 20.6263Z" stroke="black" stroke-width="1.00065" stroke-linecap="round" stroke-linejoin="round"/>
<path fill-rule="evenodd" clip-rule="evenodd" d="M29.0638 27.1904C28.2988 24.1903 25.5968 22.0908 22.5007 22.0908C19.4045 22.0908 16.7025 24.1903 15.9375 27.1904H29.0638Z" stroke="black" stroke-width="1.00065" stroke-linecap="round" stroke-linejoin="round"/>
<path fill-rule="evenodd" clip-rule="evenodd" d="M34.6875 29.064C33.9284 29.0637 33.2014 29.3703 32.6718 29.9141C32.1421 30.4578 31.8548 31.1926 31.875 31.9515C31.822 33.5138 30.5143 34.7385 28.9519 34.689H16.0462C14.4845 34.7374 13.178 33.5131 13.125 31.9515C13.1452 31.1926 12.8579 30.4578 12.3282 29.9141C11.7986 29.3703 11.0716 29.0637 10.3125 29.064H0.9375V40.314C0.9375 41.3495 1.77697 42.189 2.8125 42.189H42.1875C43.223 42.189 44.0625 41.3495 44.0625 40.314V29.064H34.6875Z" stroke="black" stroke-width="1.00065" stroke-linecap="round" stroke-linejoin="round"/>
</svg>
