<svg width="45" height="45" viewBox="0 0 45 45" fill="none" xmlns="http://www.w3.org/2000/svg">
<path fill-rule="evenodd" clip-rule="evenodd" d="M14.7749 32.8133C17.6229 32.8133 19.9317 30.5045 19.9317 27.6565C19.9317 24.8085 17.6229 22.4998 14.7749 22.4998C11.9269 22.4998 9.61816 24.8085 9.61816 27.6565C9.61816 30.5045 11.9269 32.8133 14.7749 32.8133Z" stroke="black" stroke-width="1.00065" stroke-linecap="round" stroke-linejoin="round"/>
<path d="M23.1452 42.1873C22.6791 37.9156 19.0713 34.6801 14.7743 34.6801C10.4772 34.6801 6.86944 37.9156 6.40332 42.1873" stroke="black" stroke-width="1.00065" stroke-linecap="round" stroke-linejoin="round"/>
<path d="M0.9375 17.8123H44.0625" stroke="black" stroke-width="1.00065" stroke-linecap="round" stroke-linejoin="round"/>
<path d="M27.1875 10.3132H42.1875C43.223 10.3132 44.0625 11.1527 44.0625 12.1882V40.3132C44.0625 41.3488 43.223 42.1882 42.1875 42.1882H2.8125C1.77697 42.1882 0.9375 41.3488 0.9375 40.3132V12.1882C0.9375 11.1527 1.77697 10.3132 2.8125 10.3132H17.8125" stroke="black" stroke-width="1.00065" stroke-linecap="round" stroke-linejoin="round"/>
<path d="M22.5002 6.56226C22.7592 6.56226 22.9691 6.77221 22.9691 7.03119C22.9691 7.29018 22.7592 7.50013 22.5002 7.50013C22.2412 7.50013 22.0312 7.29018 22.0312 7.03119C22.0312 6.77221 22.2412 6.56226 22.5002 6.56226" stroke="black" stroke-width="1.00065" stroke-linecap="round" stroke-linejoin="round"/>
<path d="M28.125 27.1873H39.3761" stroke="black" stroke-width="1.00065" stroke-linecap="round" stroke-linejoin="round"/>
<path d="M28.125 32.8123H34.6868" stroke="black" stroke-width="1.00065" stroke-linecap="round" stroke-linejoin="round"/>
<path fill-rule="evenodd" clip-rule="evenodd" d="M27.1884 13.1258C27.1884 13.6436 26.7687 14.0634 26.2508 14.0634H18.7501C18.2323 14.0634 17.8125 13.6436 17.8125 13.1258V7.50022C17.8125 4.91113 19.9114 2.81226 22.5005 2.81226C25.0896 2.81226 27.1884 4.91113 27.1884 7.50022V13.1258Z" stroke="black" stroke-width="1.00065" stroke-linecap="round" stroke-linejoin="round"/>
</svg>
