<svg width="45" height="45" viewBox="0 0 45 45" fill="none" xmlns="http://www.w3.org/2000/svg">
<path d="M31.8955 13.1643L37.7206 7.37671" stroke="white" stroke-width="1.00065" stroke-linecap="round" stroke-linejoin="round"/>
<path fill-rule="evenodd" clip-rule="evenodd" d="M40.3334 8.44057C42.4047 8.44057 44.0838 6.76147 44.0838 4.69019C44.0838 2.61892 42.4047 0.939819 40.3334 0.939819C38.2621 0.939819 36.583 2.61892 36.583 4.69019C36.583 6.76147 38.2621 8.44057 40.3334 8.44057Z" stroke="white" stroke-width="1.00065" stroke-linecap="round" stroke-linejoin="round"/>
<path d="M33.7002 33.7128L37.6643 37.7032" stroke="white" stroke-width="1.00065" stroke-linecap="round" stroke-linejoin="round"/>
<path fill-rule="evenodd" clip-rule="evenodd" d="M40.351 44.0654C42.4222 44.0654 44.1013 42.3863 44.1013 40.3151C44.1013 38.2438 42.4222 36.5647 40.351 36.5647C38.2797 36.5647 36.6006 38.2438 36.6006 40.3151C36.6006 42.3863 38.2797 44.0654 40.351 44.0654Z" stroke="white" stroke-width="1.00065" stroke-linecap="round" stroke-linejoin="round"/>
<path d="M13.1453 13.1649L7.31836 7.37732" stroke="white" stroke-width="1.00065" stroke-linecap="round" stroke-linejoin="round"/>
<path fill-rule="evenodd" clip-rule="evenodd" d="M4.70838 8.4402C6.77966 8.4402 8.45876 6.7611 8.45876 4.68983C8.45876 2.61855 6.77966 0.939453 4.70838 0.939453C2.63711 0.939453 0.958008 2.61855 0.958008 4.68983C0.958008 6.7611 2.63711 8.4402 4.70838 8.4402Z" stroke="white" stroke-width="1.00065" stroke-linecap="round" stroke-linejoin="round"/>
<path d="M11.342 33.7128L7.37598 37.7032" stroke="white" stroke-width="1.00065" stroke-linecap="round" stroke-linejoin="round"/>
<path fill-rule="evenodd" clip-rule="evenodd" d="M4.68788 44.0654C6.75915 44.0654 8.43825 42.3863 8.43825 40.3151C8.43825 38.2438 6.75915 36.5647 4.68788 36.5647C2.6166 36.5647 0.9375 38.2438 0.9375 40.3151C0.9375 42.3863 2.6166 44.0654 4.68788 44.0654Z" stroke="white" stroke-width="1.00065" stroke-linecap="round" stroke-linejoin="round"/>
<path d="M30.958 21.5645H36.5824" stroke="white" stroke-width="1.00065" stroke-linecap="round" stroke-linejoin="round"/>
<path fill-rule="evenodd" clip-rule="evenodd" d="M40.3334 25.3152C42.4047 25.3152 44.0838 23.6361 44.0838 21.5648C44.0838 19.4936 42.4047 17.8145 40.3334 17.8145C38.2621 17.8145 36.583 19.4936 36.583 21.5648C36.583 23.6361 38.2621 25.3152 40.3334 25.3152Z" stroke="white" stroke-width="1.00065" stroke-linecap="round" stroke-linejoin="round"/>
<path d="M14.0824 21.5645H8.45801" stroke="white" stroke-width="1.00065" stroke-linecap="round" stroke-linejoin="round"/>
<path fill-rule="evenodd" clip-rule="evenodd" d="M4.70838 25.3152C6.77966 25.3152 8.45876 23.6361 8.45876 21.5648C8.45876 19.4936 6.77966 17.8145 4.70838 17.8145C2.63711 17.8145 0.958008 19.4936 0.958008 21.5648C0.958008 23.6361 2.63711 25.3152 4.70838 25.3152Z" stroke="white" stroke-width="1.00065" stroke-linecap="round" stroke-linejoin="round"/>
<path d="M22.5383 31.8752C22.7973 31.8752 23.0072 32.0852 23.0072 32.3442C23.0072 32.6032 22.7973 32.8131 22.5383 32.8131C22.2793 32.8131 22.0693 32.6032 22.0693 32.3442C22.0688 32.2197 22.1181 32.1001 22.2061 32.012C22.2942 31.924 22.4138 31.8747 22.5383 31.8752" stroke="white" stroke-width="1.00065" stroke-linecap="round" stroke-linejoin="round"/>
<path d="M16.9131 18.7502C16.9135 15.9409 18.9865 13.5627 21.7695 13.1788C24.5524 12.795 27.1919 14.5232 27.9528 17.2274C28.7137 19.9317 27.3628 22.7828 24.7881 23.9065C23.4209 24.5032 22.5374 25.8535 22.5381 27.3452V28.1252" stroke="white" stroke-width="1.00065" stroke-linecap="round" stroke-linejoin="round"/>
</svg>
