<svg width="45" height="45" viewBox="0 0 45 45" fill="none" xmlns="http://www.w3.org/2000/svg">
<path d="M16.876 14.0639H9.6891C8.85981 14.0639 8.06451 14.3935 7.47829 14.98C6.89207 15.5666 6.56298 16.3621 6.56348 17.1914V38.4389" stroke="black" stroke-width="1.00065" stroke-linecap="round" stroke-linejoin="round"/>
<path d="M38.4375 38.4406V26.2519" stroke="black" stroke-width="1.00065" stroke-linecap="round" stroke-linejoin="round"/>
<path fill-rule="evenodd" clip-rule="evenodd" d="M44.0625 38.4375C44.0625 41.5441 41.5441 44.0625 38.4375 44.0625H6.5625C3.4559 44.0625 0.9375 41.5441 0.9375 38.4375H44.0625Z" stroke="black" stroke-width="1.00065" stroke-linecap="round" stroke-linejoin="round"/>
<path d="M30 10.3122C30 8.75904 31.2591 7.49997 32.8122 7.49997C34.3654 7.49997 35.6244 8.75904 35.6244 10.3122C35.6244 11.8653 34.3654 13.1244 32.8122 13.1244" stroke="black" stroke-width="1.00065" stroke-linecap="round" stroke-linejoin="round"/>
<path d="M32.8127 15.9375C33.0717 15.9375 33.2816 16.1474 33.2816 16.4064C33.2816 16.6654 33.0717 16.8753 32.8127 16.8753C32.5537 16.8753 32.3438 16.6654 32.3438 16.4064C32.3438 16.1474 32.5537 15.9375 32.8127 15.9375" stroke="black" stroke-width="1.00065" stroke-linecap="round" stroke-linejoin="round"/>
<path fill-rule="evenodd" clip-rule="evenodd" d="M32.6869 0.937463C29.6958 0.947474 26.8339 2.15733 24.7426 4.29582C22.6514 6.43431 21.5057 9.32255 21.5625 12.3131C21.4781 14.4067 21.9857 16.4817 23.0269 18.3L19.6875 25.3125L26.7019 21.9712C30.8021 24.513 36.06 24.1906 39.819 21.167C43.578 18.1433 45.0197 13.0766 43.4157 8.52691C41.8116 3.9772 37.5111 0.935033 32.6869 0.937463V0.937463Z" stroke="black" stroke-width="1.00065" stroke-linecap="round" stroke-linejoin="round"/>
</svg>
