<svg width="45" height="45" viewBox="0 0 45 45" fill="none" xmlns="http://www.w3.org/2000/svg">
<path fill-rule="evenodd" clip-rule="evenodd" d="M10.3122 37.4996C11.8654 37.4996 13.1244 36.2405 13.1244 34.6873C13.1244 33.1342 11.8654 31.8751 10.3122 31.8751C8.75907 31.8751 7.5 33.1342 7.5 34.6873C7.5 36.2405 8.75907 37.4996 10.3122 37.4996Z" stroke="white" stroke-width="1.00065" stroke-linecap="round" stroke-linejoin="round"/>
<path fill-rule="evenodd" clip-rule="evenodd" d="M38.4387 0.938477L20.0974 19.2816C14.3497 16.3074 7.29184 17.9668 3.47148 23.1905C-0.348877 28.4143 0.208638 35.6431 4.78481 40.2192C9.36098 44.7954 16.5898 45.3529 21.8135 41.5326C27.0373 37.7122 28.6966 30.6544 25.7224 24.9066L31.8762 18.751H34.6887V15.9385L35.6262 15.001H38.4387V12.1885L39.3762 11.251H42.1887V8.43848L44.0637 6.56348V0.938477H38.4387Z" stroke="white" stroke-width="1.00065" stroke-linecap="round" stroke-linejoin="round"/>
</svg>
