<svg width="45" height="45" viewBox="0 0 45 45" fill="none" xmlns="http://www.w3.org/2000/svg">
<path fill-rule="evenodd" clip-rule="evenodd" d="M14.0625 44.0625L15 32.8125H19.6875V26.25C19.6875 21.0723 15.4902 16.875 10.3125 16.875C5.13483 16.875 0.9375 21.0723 0.9375 26.25V32.8125H5.625L6.5625 44.0625H14.0625Z" stroke="white" stroke-width="1.00065" stroke-linecap="round" stroke-linejoin="round"/>
<path fill-rule="evenodd" clip-rule="evenodd" d="M10.3132 14.0638C13.9379 14.0638 16.8763 11.1254 16.8763 7.50066C16.8763 3.87592 13.9379 0.9375 10.3132 0.9375C6.68843 0.9375 3.75 3.87592 3.75 7.50066C3.75 11.1254 6.68843 14.0638 10.3132 14.0638Z" stroke="white" stroke-width="1.00065" stroke-linecap="round" stroke-linejoin="round"/>
<path d="M38.4375 21.5636L44.0631 15.9381L38.4375 10.3125" stroke="white" stroke-width="1.00065" stroke-linecap="round" stroke-linejoin="round"/>
<path d="M25.3125 15.9385H44.0625" stroke="white" stroke-width="1.00065" stroke-linecap="round" stroke-linejoin="round"/>
</svg>
