<svg width="45" height="45" viewBox="0 0 45 45" fill="none" xmlns="http://www.w3.org/2000/svg">
<path fill-rule="evenodd" clip-rule="evenodd" d="M0.939453 1.93949C0.939453 1.38685 1.38746 0.938843 1.9401 0.938843H43.0638C43.6164 0.938843 44.0645 1.38685 44.0645 1.93949V26.1882C44.0645 26.7408 43.6164 27.1888 43.0638 27.1888H1.94011C1.38746 27.1888 0.939453 26.7408 0.939453 26.1882V1.93949Z" stroke="black" stroke-width="1.00065" stroke-linecap="round" stroke-linejoin="round"/>
<path fill-rule="evenodd" clip-rule="evenodd" d="M40.9633 42.8982C41.0331 43.1782 40.9701 43.4748 40.7925 43.7022C40.6149 43.9296 40.3425 44.0625 40.0539 44.0626H4.9558C4.66725 44.0625 4.39481 43.9296 4.2172 43.7022C4.03959 43.4748 3.9766 43.1782 4.04643 42.8982L6.39018 33.5232C6.49431 33.1058 6.86927 32.8127 7.29955 32.8126H37.7102C38.1405 32.8127 38.5154 33.1058 38.6196 33.5232L40.9633 42.8982Z" stroke="black" stroke-width="1.00065" stroke-linecap="round" stroke-linejoin="round"/>
<path d="M0.9375 21.5625H44.0625" stroke="black" stroke-width="1.00065" stroke-linecap="round" stroke-linejoin="round"/>
<path d="M10.3125 36.5627H12.1883" stroke="black" stroke-width="1.00065" stroke-linecap="round" stroke-linejoin="round"/>
<path d="M8.4375 40.3125H10.3133" stroke="black" stroke-width="1.00065" stroke-linecap="round" stroke-linejoin="round"/>
<path d="M15.9375 36.5627H17.8133" stroke="black" stroke-width="1.00065" stroke-linecap="round" stroke-linejoin="round"/>
<path d="M21.5625 36.5627H23.4382" stroke="black" stroke-width="1.00065" stroke-linecap="round" stroke-linejoin="round"/>
<path d="M27.1875 36.5627H29.0632" stroke="black" stroke-width="1.00065" stroke-linecap="round" stroke-linejoin="round"/>
<path d="M32.8125 36.5627H34.6883" stroke="black" stroke-width="1.00065" stroke-linecap="round" stroke-linejoin="round"/>
<path d="M14.0625 40.3125H30.9375" stroke="black" stroke-width="1.00065" stroke-linecap="round" stroke-linejoin="round"/>
<path d="M34.6875 40.3125H36.5633" stroke="black" stroke-width="1.00065" stroke-linecap="round" stroke-linejoin="round"/>
</svg>
