<svg width="60" height="60" viewBox="0 0 60 60" fill="none" xmlns="http://www.w3.org/2000/svg">
<path fill-rule="evenodd" clip-rule="evenodd" d="M13.75 58.7502C20.6536 58.7502 26.25 53.1538 26.25 46.2502C26.25 39.3467 20.6536 33.7502 13.75 33.7502C6.84644 33.7502 1.25 39.3467 1.25 46.2502C1.25 53.1538 6.84644 58.7502 13.75 58.7502Z" stroke="black" stroke-width="1.00065" stroke-linecap="round" stroke-linejoin="round"/>
<path d="M26.2529 17.5012V7.50118C24.1046 5.62591 20.9013 5.62591 18.7529 7.50118L15.0029 17.5012L11.2529 21.2512L3.75293 38.7512" stroke="black" stroke-width="1.00065" stroke-linecap="round" stroke-linejoin="round"/>
<path fill-rule="evenodd" clip-rule="evenodd" d="M46.25 58.7502C53.1536 58.7502 58.75 53.1538 58.75 46.2502C58.75 39.3467 53.1536 33.7502 46.25 33.7502C39.3464 33.7502 33.75 39.3467 33.75 46.2502C33.75 53.1538 39.3464 58.7502 46.25 58.7502Z" stroke="black" stroke-width="1.00065" stroke-linecap="round" stroke-linejoin="round"/>
<path d="M33.75 17.5002V7.65768C35.8983 5.7824 39.1017 5.7824 41.25 7.65768L45 17.5002L48.75 21.2502L56.25 38.7502" stroke="black" stroke-width="1.00065" stroke-linecap="round" stroke-linejoin="round"/>
<path d="M20 27.5002C20 24.7502 24.4775 22.5002 30 22.5002C35.5225 22.5002 40 24.7377 40 27.5002" stroke="black" stroke-width="1.00065" stroke-linecap="round" stroke-linejoin="round"/>
<path d="M26.25 46.25V22.8625" stroke="black" stroke-width="1.00065" stroke-linecap="round" stroke-linejoin="round"/>
<path d="M33.75 46.25V22.8625" stroke="black" stroke-width="1.00065" stroke-linecap="round" stroke-linejoin="round"/>
</svg>
