<svg width="45" height="45" viewBox="0 0 45 45" fill="none" xmlns="http://www.w3.org/2000/svg">
<path fill-rule="evenodd" clip-rule="evenodd" d="M10.3132 14.0636C13.9379 14.0636 16.8763 11.1251 16.8763 7.50041C16.8763 3.87568 13.9379 0.937256 10.3132 0.937256C6.68843 0.937256 3.75 3.87568 3.75 7.50041C3.75 11.1251 6.68843 14.0636 10.3132 14.0636Z" stroke="black" stroke-width="1.00065" stroke-linecap="round" stroke-linejoin="round"/>
<path d="M16.875 19.5571C14.1794 16.9149 10.1622 16.147 6.6822 17.6086C3.20214 19.0702 0.938039 22.4763 0.9375 26.2509V32.8134H5.625L6.5625 44.0634H14.0625L15 32.8134H16.875" stroke="black" stroke-width="1.00065" stroke-linecap="round" stroke-linejoin="round"/>
<path fill-rule="evenodd" clip-rule="evenodd" d="M21.5625 22.5634C21.5625 22.0108 22.0105 21.5627 22.5632 21.5627H43.0619C43.6145 21.5627 44.0625 22.0108 44.0625 22.5634V43.0621C44.0625 43.6147 43.6145 44.0627 43.0619 44.0627H22.5632C22.0105 44.0627 21.5625 43.6147 21.5625 43.0621V22.5634Z" stroke="black" stroke-width="1.00065" stroke-linecap="round" stroke-linejoin="round"/>
<path d="M27.1895 27.189H38.4406" stroke="black" stroke-width="1.00065" stroke-linecap="round" stroke-linejoin="round"/>
<path d="M27.1895 32.8145H38.4406" stroke="black" stroke-width="1.00065" stroke-linecap="round" stroke-linejoin="round"/>
<path d="M27.1875 38.438H31.4067" stroke="black" stroke-width="1.00065" stroke-linecap="round" stroke-linejoin="round"/>
</svg>
