<svg width="45" height="45" viewBox="0 0 45 45" fill="none" xmlns="http://www.w3.org/2000/svg">
<path d="M7.5 44.0626H2.8125C1.77697 44.0626 0.9375 43.2231 0.9375 42.1876V16.5001C0.937469 15.8862 1.23793 15.3112 1.74187 14.9607L21.4294 1.27322C22.0729 0.825594 22.9271 0.825594 23.5706 1.27322L43.2581 14.9607C43.7621 15.3112 44.0625 15.8862 44.0625 16.5001V42.1876C44.0625 43.2231 43.223 44.0626 42.1875 44.0626H37.5" stroke="white" stroke-width="0.98425" stroke-linecap="round" stroke-linejoin="round"/>
<path fill-rule="evenodd" clip-rule="evenodd" d="M30.9379 23.4354C33.2681 23.4354 35.1571 21.5464 35.1571 19.2162C35.1571 16.8861 33.2681 14.9971 30.9379 14.9971C28.6077 14.9971 26.7188 16.8861 26.7188 19.2162C26.7188 21.5464 28.6077 23.4354 30.9379 23.4354Z" stroke="white" stroke-width="0.98425" stroke-linecap="round" stroke-linejoin="round"/>
<path fill-rule="evenodd" clip-rule="evenodd" d="M30.9375 25.3105C27.8309 25.3105 25.3125 27.8289 25.3125 30.9355V35.6231H28.125L29.0625 44.0606H32.8125L33.75 35.6231H36.5625V30.9355C36.5625 27.8289 34.0441 25.3105 30.9375 25.3105Z" stroke="white" stroke-width="0.98425" stroke-linecap="round" stroke-linejoin="round"/>
<path fill-rule="evenodd" clip-rule="evenodd" d="M14.0629 23.4354C16.3931 23.4354 18.2821 21.5464 18.2821 19.2162C18.2821 16.8861 16.3931 14.9971 14.0629 14.9971C11.7327 14.9971 9.84375 16.8861 9.84375 19.2162C9.84375 21.5464 11.7327 23.4354 14.0629 23.4354Z" stroke="white" stroke-width="0.98425" stroke-linecap="round" stroke-linejoin="round"/>
<path fill-rule="evenodd" clip-rule="evenodd" d="M14.0625 25.3105C10.9559 25.3105 8.4375 27.8289 8.4375 30.9355V35.623H11.25L12.1875 44.0605H15.9375L16.875 35.623H19.6875V30.9355C19.6875 27.8289 17.1691 25.3105 14.0625 25.3105Z" stroke="white" stroke-width="0.98425" stroke-linecap="round" stroke-linejoin="round"/>
</svg>
