<svg width="45" height="45" viewBox="0 0 45 45" fill="none" xmlns="http://www.w3.org/2000/svg">
<path d="M8.4375 23.4375H2.8125C1.77697 23.4375 0.9375 22.598 0.9375 21.5625V8.4375C0.9375 7.40197 1.77697 6.5625 2.8125 6.5625H42.1875C43.223 6.5625 44.0625 7.40197 44.0625 8.4375V21.5625C44.0625 22.598 43.223 23.4375 42.1875 23.4375H21.5625" stroke="black" stroke-linecap="round" stroke-linejoin="round"/>
<path d="M39.375 11.25L31.875 18.75L28.125 15" stroke="black" stroke-linecap="round" stroke-linejoin="round"/>
<path d="M10.5995 44.0625L3.46323 35.4769C2.4686 34.2824 2.63062 32.5078 3.82511 31.5131C5.0196 30.5185 6.79423 30.6805 7.78886 31.875L12.1876 37.1738V18.75C12.1876 17.1967 13.4468 15.9375 15.0001 15.9375C16.5534 15.9375 17.8126 17.1967 17.8126 18.75V30.9375H23.4376C27.5797 30.9375 30.9376 34.2954 30.9376 38.4375V44.0625" stroke="black" stroke-linecap="round" stroke-linejoin="round"/>
</svg>
