<svg width="45" height="45" viewBox="0 0 45 45" fill="none" xmlns="http://www.w3.org/2000/svg">
<path d="M13.1258 9.37305L7.50028 14.9986L4.6875 12.1858" stroke="black" stroke-width="1.00065" stroke-linecap="round" stroke-linejoin="round"/>
<path d="M13.1258 19.6855L7.50028 25.3111L4.6875 22.4983" stroke="black" stroke-width="1.00065" stroke-linecap="round" stroke-linejoin="round"/>
<path fill-rule="evenodd" clip-rule="evenodd" d="M17.8125 40.3125H2.8125C1.77697 40.3125 0.9375 39.473 0.9375 38.4375V6.5625C0.9375 5.52697 1.77697 4.6875 2.8125 4.6875H25.3125C26.348 4.6875 27.1875 5.52697 27.1875 6.5625V30.9375L17.8125 40.3125Z" stroke="black" stroke-width="1.00065" stroke-linecap="round" stroke-linejoin="round"/>
<path d="M17.8135 40.3115V30.9355H27.1894" stroke="black" stroke-width="1.00065" stroke-linecap="round" stroke-linejoin="round"/>
<path fill-rule="evenodd" clip-rule="evenodd" d="M32.8096 15.9355H40.3114V35.623H32.8096V15.9355Z" stroke="black" stroke-width="1.00065" stroke-linecap="round" stroke-linejoin="round"/>
<path d="M40.3125 2.81055C42.3836 2.81055 44.0625 4.48948 44.0625 6.56055V21.5605" stroke="black" stroke-width="1.00065" stroke-linecap="round" stroke-linejoin="round"/>
<path d="M36.5625 39.3721V44.06" stroke="black" stroke-width="1.00065" stroke-linecap="round" stroke-linejoin="round"/>
<path fill-rule="evenodd" clip-rule="evenodd" d="M32.8115 0.935547H40.3115V15.9355H32.8115V0.935547Z" stroke="black" stroke-width="1.00065" stroke-linecap="round" stroke-linejoin="round"/>
<path fill-rule="evenodd" clip-rule="evenodd" d="M34.6875 35.623H38.4379V39.3734H34.6875V35.623Z" stroke="black" stroke-width="1.00065" stroke-linecap="round" stroke-linejoin="round"/>
<path d="M15.9375 14.0596H22.4993" stroke="black" stroke-width="1.00065" stroke-linecap="round" stroke-linejoin="round"/>
<path d="M15.9385 23.4355H22.5003" stroke="black" stroke-width="1.00065" stroke-linecap="round" stroke-linejoin="round"/>
</svg>
