<svg width="45" height="45" viewBox="0 0 45 45" fill="none" xmlns="http://www.w3.org/2000/svg">
<path d="M34.6875 35.6245V42.187C34.6875 43.2226 33.848 44.062 32.8125 44.062H2.8125C1.77697 44.062 0.9375 43.2226 0.9375 42.187V8.43701C0.9375 7.40148 1.77697 6.56201 2.8125 6.56201H8.4375" stroke="black" stroke-width="1.00065" stroke-linecap="round" stroke-linejoin="round"/>
<path d="M27.1875 6.5625H32.8131C33.8487 6.5625 34.6883 7.40205 34.6883 8.43769V15.0008" stroke="black" stroke-width="1.00065" stroke-linecap="round" stroke-linejoin="round"/>
<path fill-rule="evenodd" clip-rule="evenodd" d="M17.8122 6.55998C19.3654 6.55998 20.6244 5.30091 20.6244 3.74777C20.6244 2.19462 19.3654 0.935547 17.8122 0.935547C16.2591 0.935547 15 2.19462 15 3.74777C15 5.30091 16.2591 6.55998 17.8122 6.55998Z" stroke="black" stroke-width="1.00065" stroke-linecap="round" stroke-linejoin="round"/>
<path d="M20.4666 4.6875H25.3135C26.349 4.6875 27.1885 5.52697 27.1885 6.5625V8.4375C27.1885 9.47303 26.349 10.3125 25.3135 10.3125H10.3135C9.27794 10.3125 8.43848 9.47303 8.43848 8.4375V6.5625C8.43848 5.52697 9.27794 4.6875 10.3135 4.6875H15.1604" stroke="black" stroke-width="1.00065" stroke-linecap="round" stroke-linejoin="round"/>
<path d="M6.5625 17.8096H29.0625" stroke="black" stroke-width="1.00065" stroke-linecap="round" stroke-linejoin="round"/>
<path d="M6.5625 25.3105H24.3112" stroke="black" stroke-width="1.00065" stroke-linecap="round" stroke-linejoin="round"/>
<path d="M6.5625 32.8125H21.5321" stroke="black" stroke-width="1.00065" stroke-linecap="round" stroke-linejoin="round"/>
<path fill-rule="evenodd" clip-rule="evenodd" d="M31.875 32.8125L25.3125 34.6875L27.1875 28.125L38.4037 16.9088C39.7041 15.65 41.7737 15.6668 43.0535 16.9465C44.3332 18.2263 44.3501 20.2959 43.0912 21.5963L31.875 32.8125Z" stroke="black" stroke-width="1.00065" stroke-linecap="round" stroke-linejoin="round"/>
</svg>
