<svg width="45" height="45" viewBox="0 0 45 45" fill="none" xmlns="http://www.w3.org/2000/svg">
<path fill-rule="evenodd" clip-rule="evenodd" d="M14.0625 44.0625L15 32.8125H19.6875V26.25C19.6875 21.0723 15.4902 16.875 10.3125 16.875C5.13483 16.875 0.9375 21.0723 0.9375 26.25V32.8125H5.625L6.5625 44.0625H14.0625Z" stroke="white" stroke-width="0.98425" stroke-linecap="round" stroke-linejoin="round"/>
<path fill-rule="evenodd" clip-rule="evenodd" d="M10.3132 14.0638C13.9379 14.0638 16.8763 11.1254 16.8763 7.50066C16.8763 3.87593 13.9379 0.9375 10.3132 0.9375C6.68843 0.9375 3.75 3.87593 3.75 7.50066C3.75 11.1254 6.68843 14.0638 10.3132 14.0638Z" stroke="white" stroke-width="0.98425" stroke-linecap="round" stroke-linejoin="round"/>
<path d="M32.6994 19.4437C29.8998 16.7931 25.7642 16.1238 22.2715 17.756" stroke="white" stroke-width="0.98425" stroke-linecap="round" stroke-linejoin="round"/>
<path fill-rule="evenodd" clip-rule="evenodd" d="M26.2515 14.0617C29.3585 14.0617 31.8771 11.543 31.8771 8.43611C31.8771 5.3292 29.3585 2.81055 26.2515 2.81055C23.1446 2.81055 20.626 5.3292 20.626 8.43611C20.626 11.543 23.1446 14.0617 26.2515 14.0617Z" stroke="white" stroke-width="0.98425" stroke-linecap="round" stroke-linejoin="round"/>
<path fill-rule="evenodd" clip-rule="evenodd" d="M42.1885 25.3125H27.1885C26.1529 25.3125 25.3135 26.152 25.3135 27.1875V38.4375C25.3135 39.473 26.1529 40.3125 27.1885 40.3125H29.0635V43.6256C29.0663 43.7105 29.1149 43.7872 29.1903 43.8261C29.2658 43.865 29.3564 43.8601 29.4272 43.8131L34.6885 40.3125H42.1885C43.224 40.3125 44.0635 39.473 44.0635 38.4375V27.1875C44.0635 26.152 43.224 25.3125 42.1885 25.3125Z" stroke="white" stroke-width="0.98425" stroke-linecap="round" stroke-linejoin="round"/>
<path d="M30.9375 30.9375H38.4368" stroke="white" stroke-width="0.98425" stroke-linecap="round" stroke-linejoin="round"/>
<path d="M30.9375 34.6875H36.5619" stroke="white" stroke-width="0.98425" stroke-linecap="round" stroke-linejoin="round"/>
</svg>
