<svg width="45" height="45" viewBox="0 0 45 45" fill="none" xmlns="http://www.w3.org/2000/svg">
<path d="M0.9375 29.0625H4.6875C5.72303 29.0625 6.5625 29.902 6.5625 30.9375V42.1875C6.5625 43.223 5.72303 44.0625 4.6875 44.0625H0.9375" stroke="black" stroke-linecap="round" stroke-linejoin="round"/>
<path d="M6.5625 42.1875H34.6875C34.6875 39.0809 32.1691 36.5625 29.0625 36.5625H15.9375" stroke="black" stroke-linecap="round" stroke-linejoin="round"/>
<path d="M6.5625 30.9375H15.9375C19.0441 30.9375 21.5625 33.4559 21.5625 36.5625V36.5625" stroke="black" stroke-linecap="round" stroke-linejoin="round"/>
<path d="M2.34375 39.375C2.60263 39.375 2.8125 39.5849 2.8125 39.8438C2.8125 40.1026 2.60263 40.3125 2.34375 40.3125C2.08487 40.3125 1.875 40.1026 1.875 39.8438C1.875 39.5849 2.08487 39.375 2.34375 39.375" stroke="black" stroke-linecap="round" stroke-linejoin="round"/>
<path fill-rule="evenodd" clip-rule="evenodd" d="M21.5625 2.49938C21.5625 1.63678 22.2618 0.9375 23.1244 0.9375H38.1244C38.5861 0.938045 39.0315 1.10896 39.375 1.4175L43.4419 5.0625C43.8373 5.4184 44.0629 5.92551 44.0625 6.4575V27.5006C44.0625 28.3632 43.3632 29.0625 42.5006 29.0625H23.1244C22.2618 29.0625 21.5625 28.3632 21.5625 27.5006L21.5625 2.49938Z" stroke="black" stroke-linecap="round" stroke-linejoin="round"/>
</svg>
