<svg width="60" height="60" viewBox="0 0 60 60" fill="none" xmlns="http://www.w3.org/2000/svg">
<path fill-rule="evenodd" clip-rule="evenodd" d="M58.75 48.7524C58.75 51.5139 56.5114 53.7524 53.75 53.7524H6.25C3.48858 53.7524 1.25 51.5139 1.25 48.7524V46.2524H58.75V48.7524Z" stroke="white" stroke-width="1.00065" stroke-linecap="round" stroke-linejoin="round"/>
<path d="M6.25 53.752V58.7525" stroke="white" stroke-width="1.00065" stroke-linecap="round" stroke-linejoin="round"/>
<path d="M53.75 53.752V58.7525" stroke="white" stroke-width="1.00065" stroke-linecap="round" stroke-linejoin="round"/>
<path fill-rule="evenodd" clip-rule="evenodd" d="M30.002 46.2505H17.502V3.75049C17.502 2.36978 18.6212 1.25049 20.002 1.25049H27.502C28.8827 1.25049 30.002 2.36978 30.002 3.75049V46.2505Z" stroke="white" stroke-width="1.00065" stroke-linecap="round" stroke-linejoin="round"/>
<path d="M42.8595 46.2504L37.8895 5.23536C37.7234 3.86509 38.6993 2.61951 40.0695 2.45286L47.5145 1.55036C48.1729 1.47064 48.8361 1.65583 49.3579 2.06515C49.8798 2.47448 50.2176 3.0744 50.297 3.73286L55.4495 46.2504" stroke="white" stroke-width="1.00065" stroke-linecap="round" stroke-linejoin="round"/>
<path fill-rule="evenodd" clip-rule="evenodd" d="M37.5 46.2524H30V8.75244H35C36.3807 8.75244 37.5 9.87173 37.5 11.2524V46.2524Z" stroke="white" stroke-width="1.00065" stroke-linecap="round" stroke-linejoin="round"/>
<path fill-rule="evenodd" clip-rule="evenodd" d="M17.5 46.2505H5V3.75049C5 2.36978 6.11929 1.25049 7.5 1.25049H15C16.3807 1.25049 17.5 2.36978 17.5 3.75049V46.2505Z" stroke="white" stroke-width="1.00065" stroke-linecap="round" stroke-linejoin="round"/>
<path d="M22.5 38.75H25.0026" stroke="white" stroke-width="1.00065" stroke-linecap="round" stroke-linejoin="round"/>
<path d="M10 38.75H12.5026" stroke="white" stroke-width="1.00065" stroke-linecap="round" stroke-linejoin="round"/>
<path d="M11.251 8.75244V31.2524" stroke="white" stroke-width="1.00065" stroke-linecap="round" stroke-linejoin="round"/>
<path d="M23.75 8.75244V31.2524" stroke="white" stroke-width="1.00065" stroke-linecap="round" stroke-linejoin="round"/>
<path fill-rule="evenodd" clip-rule="evenodd" d="M47.5003 36.2525C48.8811 36.2525 50.0005 35.1331 50.0005 33.7522C50.0005 32.3714 48.8811 31.252 47.5003 31.252C46.1194 31.252 45 32.3714 45 33.7522C45 35.1331 46.1194 36.2525 47.5003 36.2525Z" stroke="white" stroke-width="1.00065" stroke-linecap="round" stroke-linejoin="round"/>
</svg>
