<svg width="45" height="45" viewBox="0 0 45 45" fill="none" xmlns="http://www.w3.org/2000/svg">
<path fill-rule="evenodd" clip-rule="evenodd" d="M38.4375 37.4367C38.4375 37.9894 37.9895 38.4374 37.4368 38.4374H26.3132C25.7605 38.4374 25.3125 37.9894 25.3125 37.4367V22.563C25.3125 22.0104 25.7605 21.5624 26.3132 21.5624H37.4368C37.9895 21.5624 38.4375 22.0104 38.4375 22.563V37.4367Z" stroke="black" stroke-width="1.00065" stroke-linecap="round" stroke-linejoin="round"/>
<path fill-rule="evenodd" clip-rule="evenodd" d="M38.4375 14.9367C38.4375 15.4893 37.9895 15.9373 37.4368 15.9373L26.3118 15.9373C25.7592 15.9373 25.3112 15.4893 25.3112 14.9367V7.56203C25.3112 7.00939 25.7592 6.56138 26.3118 6.56138L37.4368 6.56138C37.9895 6.56138 38.4375 7.00939 38.4375 7.56203V14.9367Z" stroke="black" stroke-width="1.00065" stroke-linecap="round" stroke-linejoin="round"/>
<path fill-rule="evenodd" clip-rule="evenodd" d="M6.5625 7.56376C6.5625 7.01112 7.01051 6.56311 7.56315 6.56311H18.6868C19.2395 6.56311 19.6875 7.01112 19.6875 7.56376V22.4375C19.6875 22.9901 19.2395 23.4381 18.6868 23.4381H7.56315C7.01051 23.4381 6.5625 22.9901 6.5625 22.4375V7.56376Z" stroke="black" stroke-width="1.00065" stroke-linecap="round" stroke-linejoin="round"/>
<path fill-rule="evenodd" clip-rule="evenodd" d="M6.56152 30.0631C6.56152 29.5105 7.00953 29.0625 7.56217 29.0625H18.6872C19.2398 29.0625 19.6878 29.5105 19.6878 30.0632V37.4378C19.6878 37.9904 19.2398 38.4384 18.6872 38.4384H7.56217C7.00953 38.4384 6.56152 37.9904 6.56152 37.4378V30.0631Z" stroke="black" stroke-width="1.00065" stroke-linecap="round" stroke-linejoin="round"/>
<path fill-rule="evenodd" clip-rule="evenodd" d="M0.938477 1.93962C0.938477 1.38697 1.38648 0.938965 1.93913 0.938965H43.0628C43.6155 0.938965 44.0635 1.38697 44.0635 1.93962V43.0633C44.0635 43.616 43.6155 44.064 43.0628 44.064H1.93913C1.38649 44.064 0.938477 43.616 0.938477 43.0633V1.93962Z" stroke="black" stroke-width="1.00065" stroke-linecap="round" stroke-linejoin="round"/>
</svg>
