<svg width="45" height="45" viewBox="0 0 45 45" fill="none" xmlns="http://www.w3.org/2000/svg">
<path fill-rule="evenodd" clip-rule="evenodd" d="M31.8757 19.6888C35.5004 19.6888 38.4388 16.7504 38.4388 13.1257C38.4388 9.50092 35.5004 6.5625 31.8757 6.5625C28.2509 6.5625 25.3125 9.50092 25.3125 13.1257C25.3125 16.7504 28.2509 19.6888 31.8757 19.6888Z" stroke="black" stroke-width="1.00065" stroke-linecap="round" stroke-linejoin="round"/>
<path d="M6.5625 38.4401L10.6879 32.6589C10.8344 32.4538 11.0574 32.3163 11.3065 32.2775C11.5556 32.2387 11.8098 32.3018 12.0118 32.4526L14.2508 34.1272C14.665 34.4378 15.2527 34.3539 15.5634 33.9396L20.6264 27.189" stroke="black" stroke-width="1.00065" stroke-linecap="round" stroke-linejoin="round"/>
<path d="M33.282 6.71484L31.874 13.1248L38.3871 12.328" stroke="black" stroke-width="1.00065" stroke-linecap="round" stroke-linejoin="round"/>
<path fill-rule="evenodd" clip-rule="evenodd" d="M27.1885 25.8138C27.1885 25.5375 27.4125 25.3135 27.6888 25.3135H37.9393C38.2156 25.3135 38.4396 25.5375 38.4396 25.8138V37.9395C38.4396 38.2158 38.2156 38.4398 37.9393 38.4398H27.6888C27.4125 38.4398 27.1885 38.2158 27.1885 37.9395V25.8138Z" stroke="black" stroke-width="1.00065" stroke-linecap="round" stroke-linejoin="round"/>
<path d="M30.9365 30.9375H34.6869" stroke="black" stroke-width="1.00065" stroke-linecap="round" stroke-linejoin="round"/>
<path d="M30.9365 34.6875H32.8123" stroke="black" stroke-width="1.00065" stroke-linecap="round" stroke-linejoin="round"/>
<path fill-rule="evenodd" clip-rule="evenodd" d="M6.5625 7.0638C6.5625 6.78748 6.7865 6.56348 7.06283 6.56348H17.3133C17.5896 6.56348 17.8136 6.78748 17.8136 7.0638V19.1895C17.8136 19.4658 17.5896 19.6898 17.3133 19.6898H7.06282C6.7865 19.6898 6.5625 19.4658 6.5625 19.1895V7.0638Z" stroke="black" stroke-width="1.00065" stroke-linecap="round" stroke-linejoin="round"/>
<path d="M10.3125 10.314H14.0629" stroke="black" stroke-width="1.00065" stroke-linecap="round" stroke-linejoin="round"/>
<path d="M10.3125 14.0645H12.1883" stroke="black" stroke-width="1.00065" stroke-linecap="round" stroke-linejoin="round"/>
<path fill-rule="evenodd" clip-rule="evenodd" d="M0.9375 1.93815C0.9375 1.38551 1.38551 0.9375 1.93815 0.9375H43.0618C43.6145 0.9375 44.0625 1.38551 44.0625 1.93815V43.0618C44.0625 43.6145 43.6145 44.0625 43.0619 44.0625H1.93815C1.38551 44.0625 0.9375 43.6145 0.9375 43.0618V1.93815Z" stroke="black" stroke-width="1.00065" stroke-linecap="round" stroke-linejoin="round"/>
</svg>
