<svg width="45" height="45" viewBox="0 0 45 45" fill="none" xmlns="http://www.w3.org/2000/svg">
<path fill-rule="evenodd" clip-rule="evenodd" d="M21.5631 35.6276C24.67 35.6276 27.1886 33.1089 27.1886 30.002C27.1886 26.8951 24.67 24.3765 21.5631 24.3765C18.4562 24.3765 15.9375 26.8951 15.9375 30.002C15.9375 33.1089 18.4562 35.6276 21.5631 35.6276Z" stroke="white" stroke-width="1.00065" stroke-linecap="round" stroke-linejoin="round"/>
<path d="M34.6875 11.25V9.375C34.6875 7.30393 33.0086 5.625 30.9375 5.625H4.6875C2.61643 5.625 0.9375 7.30393 0.9375 9.375V26.25C0.9375 28.3211 2.61643 30 4.6875 30H6.5625" stroke="white" stroke-width="1.00065" stroke-linecap="round" stroke-linejoin="round"/>
<path fill-rule="evenodd" clip-rule="evenodd" d="M10.3125 17.0028C10.3125 15.8975 11.2085 15.0015 12.3138 15.0015H42.0612C43.1665 15.0015 44.0625 15.8975 44.0625 17.0028V37.3752C44.0625 38.4804 43.1665 39.3765 42.0612 39.3765H12.3138C11.2085 39.3765 10.3125 38.4804 10.3125 37.3752V17.0028Z" stroke="white" stroke-width="1.00065" stroke-linecap="round" stroke-linejoin="round"/>
<path d="M29.0621 35.6251H36.5621C37.2151 35.6255 37.8211 35.2861 38.1621 34.7293C38.5031 34.1725 38.5298 33.4784 38.2328 32.897L31.3665 19.5845C31.1029 19.0727 30.5754 18.751 29.9996 18.751C29.4239 18.751 28.8964 19.0727 28.6328 19.5845L27.2021 22.3708" stroke="white" stroke-width="1.00065" stroke-linecap="round" stroke-linejoin="round"/>
</svg>
