<svg width="45" height="45" viewBox="0 0 45 45" fill="none" xmlns="http://www.w3.org/2000/svg">
<path fill-rule="evenodd" clip-rule="evenodd" d="M34.3652 10.6329C32.9586 9.22626 31.0509 8.43604 29.0617 8.43604C27.0725 8.43604 25.1648 9.22626 23.7583 10.6329C21.6958 12.6954 19.0877 21.311 17.9777 25.601C17.8742 26.0009 17.9899 26.4257 18.282 26.7179C18.5741 27.01 18.999 27.1257 19.3989 27.0222C23.6889 25.9122 32.2952 23.3097 34.3652 21.2397C35.7718 19.8332 36.562 17.9255 36.562 15.9363C36.562 13.9471 35.7718 12.0394 34.3652 10.6329Z" stroke="white" stroke-width="1.00065" stroke-linecap="round" stroke-linejoin="round"/>
<path fill-rule="evenodd" clip-rule="evenodd" d="M29.0627 17.8114C30.0983 17.8114 30.9379 16.9719 30.9379 15.9362C30.9379 14.9006 30.0983 14.061 29.0627 14.061C28.0271 14.061 27.1875 14.9006 27.1875 15.9362C27.1875 16.9719 28.0271 17.8114 29.0627 17.8114Z" stroke="white" stroke-width="1.00065" stroke-linecap="round" stroke-linejoin="round"/>
<path d="M27.7434 17.2583L18.2812 26.7205" stroke="white" stroke-width="1.00065" stroke-linecap="round" stroke-linejoin="round"/>
<path fill-rule="evenodd" clip-rule="evenodd" d="M36.5628 0.9375L44.0635 8.43825L39.3756 11.251L33.75 5.62547L36.5628 0.9375V0.9375Z" stroke="white" stroke-width="1.00065" stroke-linecap="round" stroke-linejoin="round"/>
<path d="M32.8125 9.37507L34.6872 6.56299" stroke="white" stroke-width="1.00065" stroke-linecap="round" stroke-linejoin="round"/>
<path d="M38.4371 10.313L35.625 12.1877" stroke="white" stroke-width="1.00065" stroke-linecap="round" stroke-linejoin="round"/>
<path d="M15 29.0625H8.4375C6.36643 29.0625 4.6875 30.7414 4.6875 32.8125C4.6875 34.8836 6.36643 36.5625 8.4375 36.5625H30.9375C33.0086 36.5625 34.6875 38.2414 34.6875 40.3125C34.6875 42.3836 33.0086 44.0625 30.9375 44.0625H0.9375" stroke="white" stroke-width="1.00065" stroke-linecap="round" stroke-linejoin="round"/>
</svg>
