<svg width="60" height="60" viewBox="0 0 60 60" fill="none" xmlns="http://www.w3.org/2000/svg">
<path d="M22.501 43.7331L18.3435 38.7331C17.8448 38.1353 17.0961 37.804 16.3184 37.8368C15.5406 37.8697 14.8225 38.2629 14.376 38.9006L7.50098 48.7331H40.001L32.251 33.2056C31.8276 32.3584 30.9618 31.8232 30.0147 31.8232C29.0676 31.8232 28.2019 32.3584 27.7785 33.2056L20.001 48.7331" stroke="white" stroke-width="1.00065" stroke-linecap="round" stroke-linejoin="round"/>
<path d="M46.25 32.502V53.7519C46.25 55.1327 45.1307 56.2519 43.75 56.2519H3.75C2.36929 56.2519 1.25 55.1327 1.25 53.7519V16.252C1.25 14.8712 2.36929 13.752 3.75 13.752H20" stroke="white" stroke-width="1.00065" stroke-linecap="round" stroke-linejoin="round"/>
<path fill-rule="evenodd" clip-rule="evenodd" d="M12.5094 28.7327C14.5803 28.7327 16.259 27.0539 16.259 24.983C16.259 22.9122 14.5803 21.2334 12.5094 21.2334C10.4385 21.2334 8.75977 22.9122 8.75977 24.983C8.75977 27.0539 10.4385 28.7327 12.5094 28.7327Z" stroke="white" stroke-width="1.00065" stroke-linecap="round" stroke-linejoin="round"/>
<path d="M58.7402 36.2519L36.4102 13.9219" stroke="white" stroke-width="1.00065" stroke-linecap="round" stroke-linejoin="round"/>
<path d="M29.3389 6.84961L32.8765 10.3848" stroke="white" stroke-width="1.00065" stroke-linecap="round" stroke-linejoin="round"/>
<path d="M39.4878 3.77246L38.5127 8.67545" stroke="white" stroke-width="1.00065" stroke-linecap="round" stroke-linejoin="round"/>
<path d="M47.6878 10.501L43.0674 12.4162" stroke="white" stroke-width="1.00065" stroke-linecap="round" stroke-linejoin="round"/>
<path d="M26.2607 17.0005L31.1637 16.0254" stroke="white" stroke-width="1.00065" stroke-linecap="round" stroke-linejoin="round"/>
<path d="M32.9893 25.2005L34.9045 20.5801" stroke="white" stroke-width="1.00065" stroke-linecap="round" stroke-linejoin="round"/>
</svg>
