<svg width="45" height="45" viewBox="0 0 45 45" fill="none" xmlns="http://www.w3.org/2000/svg">
<path fill-rule="evenodd" clip-rule="evenodd" d="M22.5 44.0615C34.4086 44.0615 44.0625 34.4077 44.0625 22.499C44.0625 10.5904 34.4086 0.936523 22.5 0.936523C10.5914 0.936523 0.9375 10.5904 0.9375 22.499C0.9375 34.4077 10.5914 44.0615 22.5 44.0615Z" stroke="white" stroke-width="1.00065" stroke-linecap="round" stroke-linejoin="round"/>
<path d="M20.625 23.4385H30.0009" stroke="white" stroke-width="1.00065" stroke-linecap="round" stroke-linejoin="round"/>
<path d="M16.8757 27.1865H26.8132C21.5632 31.9528 15.2182 32.6465 13.302 30.749C11.0913 28.5384 13.3845 21.749 18.8763 16.2646C21.2653 13.7952 24.0812 11.7784 27.1882 10.3115V16.874" stroke="white" stroke-width="1.00065" stroke-linecap="round" stroke-linejoin="round"/>
<path d="M24.375 19.6882H32.3438C34.4906 15.9382 34.7513 12.7244 33.0525 11.0088L10.3125 33.7507" stroke="white" stroke-width="1.00065" stroke-linecap="round" stroke-linejoin="round"/>
</svg>
