<svg width="45" height="45" viewBox="0 0 45 45" fill="none" xmlns="http://www.w3.org/2000/svg">
<path d="M15.1387 19.1482C13.5844 16.0356 10.0937 14.4005 6.70746 15.199C3.32126 15.9974 0.928711 19.0197 0.928711 22.4988C0.928711 25.9778 3.32126 29.0001 6.70746 29.7986C10.0937 30.597 13.5844 28.962 15.1387 25.8494" stroke="white" stroke-linecap="round" stroke-linejoin="round"/>
<path d="M36.5622 15.938C39.9258 15.9462 42.8856 13.7194 43.8099 10.4853C44.7342 7.25116 43.398 3.79662 40.538 2.02622C37.678 0.255826 33.9901 0.600351 31.5075 2.86985C29.0249 5.13936 28.3517 8.78162 29.859 11.7886" stroke="white" stroke-linecap="round" stroke-linejoin="round"/>
<path d="M29.8587 33.21C28.3598 36.2095 29.0341 39.8396 31.5102 42.1007C33.9863 44.3619 37.6624 44.7047 40.5139 42.9404C43.3654 41.176 44.6993 37.7333 43.7809 34.5083C42.8625 31.2834 39.915 29.0599 36.5618 29.0625" stroke="white" stroke-linecap="round" stroke-linejoin="round"/>
<path d="M36.5624 15.9384C33.7227 15.9359 31.1279 14.3297 29.8593 11.7891L15.1387 19.1484C16.2037 21.2559 16.2037 23.7441 15.1387 25.8516L29.8593 33.2128C31.1279 30.6722 33.7227 29.066 36.5624 29.0634" stroke="white" stroke-linecap="round" stroke-linejoin="round"/>
</svg>
