<svg width="45" height="45" viewBox="0 0 45 45" fill="none" xmlns="http://www.w3.org/2000/svg">
<path d="M25.3135 44.0625H42.1885C43.224 44.0625 44.0635 43.223 44.0635 42.1875V12.1406C44.0635 5.95331 39.0477 0.9375 32.8604 0.9375H10.3135C9.27794 0.9375 8.43848 1.77697 8.43848 2.8125V15.9375" stroke="black" stroke-width="1.00065" stroke-linecap="round" stroke-linejoin="round"/>
<path d="M34.6875 1.08691V8.43765C34.6875 9.47329 35.5271 10.3128 36.5627 10.3128H43.9134" stroke="black" stroke-width="1.00065" stroke-linecap="round" stroke-linejoin="round"/>
<path fill-rule="evenodd" clip-rule="evenodd" d="M12.1875 44.0625C18.4007 44.0625 23.4375 39.0257 23.4375 32.8125C23.4375 26.5993 18.4007 21.5625 12.1875 21.5625C5.9743 21.5625 0.9375 26.5993 0.9375 32.8125C0.9375 39.0257 5.9743 44.0625 12.1875 44.0625Z" stroke="black" stroke-width="1.00065" stroke-linecap="round" stroke-linejoin="round"/>
<path fill-rule="evenodd" clip-rule="evenodd" d="M12.188 35.6259C14.7771 35.6259 16.8759 33.5271 16.8759 30.938C16.8759 28.3489 14.7771 26.25 12.188 26.25C9.59887 26.25 7.5 28.3489 7.5 30.938C7.5 33.5271 9.59887 35.6259 12.188 35.6259Z" stroke="black" stroke-width="1.00065" stroke-linecap="round" stroke-linejoin="round"/>
<path d="M5.01855 41.4842C6.55795 39.0049 9.2691 37.4971 12.1874 37.4971C15.1057 37.4971 17.8168 39.0049 19.3562 41.4842" stroke="black" stroke-width="1.00065" stroke-linecap="round" stroke-linejoin="round"/>
</svg>
