<svg width="45" height="45" viewBox="0 0 45 45" fill="none" xmlns="http://www.w3.org/2000/svg">
<path fill-rule="evenodd" clip-rule="evenodd" d="M44.0272 22.875C44.1399 22.323 43.9983 21.7495 43.6417 21.3133C43.2851 20.8771 42.7513 20.6243 42.1878 20.625H19.1253C18.2335 20.6261 17.4643 19.9988 17.2859 19.125L16.7647 16.5C16.5863 15.6262 15.8172 14.9989 14.9253 15H2.81282C2.24939 14.9993 1.71552 15.2521 1.35891 15.6883C1.0023 16.1245 0.860759 16.698 0.973446 17.25L5.84845 41.625C6.02681 42.4988 6.79599 43.1261 7.68782 43.125H38.4378C39.3289 43.1252 40.0971 42.4981 40.2753 41.625C41.0497 37.7513 43.1122 27.4444 44.0272 22.875Z" stroke="white" stroke-linecap="round" stroke-linejoin="round"/>
<path d="M10.3125 11.25V3.75C10.3125 2.71447 11.152 1.875 12.1875 1.875H36.5625C37.598 1.875 38.4375 2.71447 38.4375 3.75V16.875" stroke="white" stroke-linecap="round" stroke-linejoin="round"/>
<path d="M15.9375 7.5H31.875" stroke="white" stroke-linecap="round" stroke-linejoin="round"/>
<path d="M23.4375 13.125H31.875" stroke="white" stroke-linecap="round" stroke-linejoin="round"/>
</svg>
