<svg width="60" height="60" viewBox="0 0 60 60" fill="none" xmlns="http://www.w3.org/2000/svg">
<path fill-rule="evenodd" clip-rule="evenodd" d="M58.749 12.4971C58.749 11.1164 57.6297 9.99707 56.249 9.99707H44.044C43.0974 9.99657 42.2322 9.46139 41.809 8.61457L40.689 6.37957C40.2659 5.53275 39.4007 4.99758 38.454 4.99707H33.749C32.3683 4.99707 31.249 6.11636 31.249 7.49707V24.9971C31.249 26.3778 32.3683 27.4971 33.749 27.4971H56.249C57.6297 27.4971 58.749 26.3778 58.749 24.9971V12.4971Z" stroke="black" stroke-width="1.00065" stroke-linecap="round" stroke-linejoin="round"/>
<path fill-rule="evenodd" clip-rule="evenodd" d="M58.749 42.4971C58.749 41.1164 57.6297 39.9971 56.249 39.9971H44.044C43.0974 39.9966 42.2322 39.4614 41.809 38.6146L40.689 36.3796C40.2659 35.5327 39.4007 34.9976 38.454 34.9971H33.749C32.3683 34.9971 31.249 36.1164 31.249 37.4971V54.9971C31.249 56.3778 32.3683 57.4971 33.749 57.4971H56.249C57.6297 57.4971 58.749 56.3778 58.749 54.9971V42.4971Z" stroke="black" stroke-width="1.00065" stroke-linecap="round" stroke-linejoin="round"/>
<path d="M1.25 2.50098V7.50148" stroke="black" stroke-width="1.00065" stroke-linecap="round" stroke-linejoin="round"/>
<path d="M1.24902 14.999V19.9995" stroke="black" stroke-width="1.00065" stroke-linecap="round" stroke-linejoin="round"/>
<path d="M1.24902 27.4971V32.4976" stroke="black" stroke-width="1.00065" stroke-linecap="round" stroke-linejoin="round"/>
<path d="M1.24902 39.9971V42.4973C1.24902 43.8782 2.36842 44.9976 3.74927 44.9976H6.24952" stroke="black" stroke-width="1.00065" stroke-linecap="round" stroke-linejoin="round"/>
<path d="M1.24902 17.499H6.24952" stroke="black" stroke-width="1.00065" stroke-linecap="round" stroke-linejoin="round"/>
<path d="M13.75 17.499H18.7505" stroke="black" stroke-width="1.00065" stroke-linecap="round" stroke-linejoin="round"/>
<path d="M26.25 17.498H31.2505" stroke="black" stroke-width="1.00065" stroke-linecap="round" stroke-linejoin="round"/>
<path d="M13.75 45H18.7505" stroke="black" stroke-width="1.00065" stroke-linecap="round" stroke-linejoin="round"/>
<path d="M26.25 45H31.2505" stroke="black" stroke-width="1.00065" stroke-linecap="round" stroke-linejoin="round"/>
</svg>
