<svg width="88" height="45" viewBox="0 0 88 45" fill="none" xmlns="http://www.w3.org/2000/svg">
<path d="M28.0622 0.168296L34.722 0.149596L43.4237 31.3488L44.6881 36.846L46.0812 31.3413L55.0214 0.0925986L61.1689 0.0753375L70.1908 31.2737L71.6479 36.9928L73.0084 31.2657L81.5964 0.0179803L88 0L74.6144 44.2976L68.4669 44.3148L58.9969 13.1814L57.929 9.20988L56.9158 13.1872L47.7193 44.3731L41.5718 44.3904L28.0622 0.168296Z" fill="url(#paint0_linear)"/>
<path d="M32.2743 44.4277C30.1611 44.8092 27.3115 45 23.7255 45C20.1608 45 16.9376 44.5125 14.056 43.5374C11.1957 42.5623 8.73028 41.1209 6.65978 39.2132C2.21993 35.1221 0 29.42 0 22.107C0 17.3376 1.14198 13.2041 3.42594 9.70661C6.52103 4.97962 11.2704 1.96962 17.674 0.676586C19.6378 0.295036 21.9751 0.104261 24.686 0.104261C27.4182 0.104261 29.6061 0.252641 31.2497 0.549402V6.62241C29.7555 6.15607 27.4396 5.9229 24.3018 5.9229C21.1853 5.9229 18.5385 6.30445 16.3613 7.06755C14.184 7.83065 12.3804 8.92231 10.9502 10.3425C8.08992 13.1194 6.65978 17.0408 6.65978 22.107C6.65978 27.2155 8.06858 31.2642 10.8862 34.253C13.9386 37.475 18.3251 39.086 24.0456 39.086C27.3969 39.086 30.1398 38.8316 32.2743 38.3229V44.4277Z" fill="url(#paint1_linear)"/>
<path d="M25.1478 23.9258C25.1478 26.1735 23.3129 27.9957 21.0494 27.9957C18.786 27.9957 16.9511 26.1735 16.9511 23.9258C16.9511 21.6781 18.786 19.8559 21.0494 19.8559C23.3129 19.8559 25.1478 21.6781 25.1478 23.9258Z" fill="url(#paint2_linear)"/>
<defs>
<linearGradient id="paint0_linear" x1="-5.5" y1="-2.5" x2="60.5" y2="50.5" gradientUnits="userSpaceOnUse">
<stop stop-color="#FF6373"/>
<stop offset="1" stop-color="#FF946D"/>
</linearGradient>
<linearGradient id="paint1_linear" x1="-5.5" y1="-2.5" x2="60.5" y2="50.5" gradientUnits="userSpaceOnUse">
<stop stop-color="#FF6373"/>
<stop offset="1" stop-color="#FF946D"/>
</linearGradient>
<linearGradient id="paint2_linear" x1="-5.5" y1="-2.5" x2="60.5" y2="50.5" gradientUnits="userSpaceOnUse">
<stop stop-color="#FF6373"/>
<stop offset="1" stop-color="#FF946D"/>
</linearGradient>
</defs>
</svg>
