<svg width="30" height="16" viewBox="0 0 30 16" fill="none" xmlns="http://www.w3.org/2000/svg">
<path d="M9.56667 0.0573735L11.837 0.0509987L14.8036 10.6871L15.2346 12.5611L15.7095 10.6846L18.7573 0.0315677L20.853 0.0256832L23.9287 10.6615L24.4254 12.6112L24.8892 10.6588L27.817 0.00612965L30 0L25.4367 15.1014L23.341 15.1073L20.1126 4.49365L19.7485 3.13973L19.4031 4.49564L16.2679 15.1272L14.1722 15.1331L9.56667 0.0573735Z" fill="url(#paint0_linear)"/>
<path d="M11.0026 15.1458C10.2822 15.2759 9.31073 15.3409 8.08822 15.3409C6.87299 15.3409 5.77418 15.1747 4.79181 14.8423C3.81671 14.5099 2.97623 14.0185 2.27038 13.3681C0.756793 11.9734 0 10.0296 0 7.53647C0 5.91055 0.389312 4.50141 1.16794 3.30907C2.22308 1.6976 3.84218 0.67146 6.02524 0.230654C6.69471 0.10058 7.49152 0.0355434 8.41568 0.0355434C9.34712 0.0355434 10.093 0.0861277 10.6533 0.187296V2.25764C10.1439 2.09866 9.3544 2.01917 8.2847 2.01917C7.22228 2.01917 6.31995 2.14924 5.57771 2.40939C4.83547 2.66954 4.22058 3.0417 3.73303 3.52586C2.75793 4.47251 2.27038 5.80938 2.27038 7.53647C2.27038 9.27802 2.75065 10.6582 3.7112 11.6772C4.75179 12.7756 6.24718 13.3248 8.19738 13.3248C9.33984 13.3248 10.2749 13.238 11.0026 13.0646V15.1458Z" fill="url(#paint1_linear)"/>
<path d="M8.5731 8.15652C8.5731 8.9228 7.94757 9.54398 7.17594 9.54398C6.40432 9.54398 5.77879 8.9228 5.77879 8.15652C5.77879 7.39025 6.40432 6.76907 7.17594 6.76907C7.94757 6.76907 8.5731 7.39025 8.5731 8.15652Z" fill="url(#paint2_linear)"/>
<defs>
<linearGradient id="paint0_linear" x1="-1.875" y1="-0.852273" x2="20.625" y2="17.2159" gradientUnits="userSpaceOnUse">
<stop stop-color="#FF6373"/>
<stop offset="1" stop-color="#FF946D"/>
</linearGradient>
<linearGradient id="paint1_linear" x1="-1.875" y1="-0.852273" x2="20.625" y2="17.2159" gradientUnits="userSpaceOnUse">
<stop stop-color="#FF6373"/>
<stop offset="1" stop-color="#FF946D"/>
</linearGradient>
<linearGradient id="paint2_linear" x1="-1.875" y1="-0.852273" x2="20.625" y2="17.2159" gradientUnits="userSpaceOnUse">
<stop stop-color="#FF6373"/>
<stop offset="1" stop-color="#FF946D"/>
</linearGradient>
</defs>
</svg>
