<svg width="24" height="24" viewBox="0 0 24 24" fill="none" xmlns="http://www.w3.org/2000/svg">
<g clip-path="url(#clip0_211_9320)">
<mask id="mask0_211_9320" style="mask-type:luminance" maskUnits="userSpaceOnUse" x="0" y="0" width="24" height="24">
<path d="M24 0H0V24H24V0Z" fill="white"/>
</mask>
<g mask="url(#mask0_211_9320)">
<path d="M16 22.0014V18.1314C16.0375 17.6546 15.9731 17.1752 15.811 16.7252C15.6489 16.2752 15.3929 15.8648 15.06 15.5214C18.2 15.1714 21.5 13.9814 21.5 8.5214C21.4997 7.12522 20.9627 5.78259 20 4.7714C20.4559 3.5499 20.4236 2.19975 19.91 1.0014C19.91 1.0014 18.73 0.651399 16 2.4814C13.708 1.86022 11.292 1.86022 9 2.4814C6.27 0.651399 5.09 1.0014 5.09 1.0014C4.57638 2.19975 4.54414 3.5499 5 4.7714C4.03013 5.7901 3.49252 7.14486 3.5 8.5514C3.5 13.9714 6.8 15.1614 9.94 15.5514C9.611 15.8914 9.35726 16.2968 9.19531 16.7413C9.03335 17.1859 8.96681 17.6595 9 18.1314V22.0014M9 19.0014C4 20.5014 4 16.5014 2 16.0014L9 19.0014Z" stroke="#303030" stroke-width="2" stroke-linecap="round" stroke-linejoin="round"/>
</g>
</g>
<defs>
<clipPath id="clip0_211_9320">
<rect width="24" height="24" fill="white"/>
</clipPath>
</defs>
</svg>
