<svg width="32" height="31" viewBox="0 0 32 31" fill="none" xmlns="http://www.w3.org/2000/svg">
<path d="M15.9948 1.00002C12.4349 0.996663 8.99024 2.2611 6.27796 4.56674C3.56569 6.87238 1.7631 10.0685 1.19323 13.5825C0.623359 17.0964 1.32344 20.6984 3.16803 23.7431C5.01262 26.7877 7.88115 29.076 11.2596 30.1979C12.0073 30.3281 12.2444 29.8891 12.2444 29.4931C12.2444 29.1349 12.2522 28.1423 12.2444 26.8878C8.07589 27.7919 7.21483 24.9143 7.21483 24.9143C6.94 24.009 6.35043 23.2318 5.55263 22.7232C4.19266 21.7931 5.65424 21.8113 5.65424 21.8113C6.12907 21.8765 6.58272 22.0494 6.98053 22.3167C7.37833 22.584 7.70978 22.9387 7.94953 23.3537C8.15234 23.7233 8.42642 24.0489 8.7559 24.3119C9.08538 24.5749 9.46374 24.7699 9.86907 24.8857C10.2744 25.0015 10.6987 25.0358 11.1174 24.9866C11.536 24.9374 11.9408 24.8057 12.3082 24.599C12.3773 23.8418 12.7146 23.1341 13.2592 22.6034C9.93348 22.223 6.43584 20.9386 6.43584 15.1964C6.41472 13.7078 6.96751 12.2683 7.97949 11.1764C7.52093 9.88481 7.57312 8.46681 8.12539 7.21241C8.12539 7.21241 9.38506 6.80989 12.2444 8.74955C14.7001 8.07566 17.292 8.07566 19.7477 8.74955C22.6136 6.81119 23.8628 7.21241 23.8628 7.21241C24.4153 8.46663 24.4684 9.88438 24.0113 11.1764C25.0236 12.269 25.5756 13.7098 25.5524 15.199C25.5524 20.9568 22.0495 22.2217 18.7121 22.5903C19.0706 22.9505 19.3476 23.3835 19.5245 23.8599C19.7013 24.3363 19.7739 24.8451 19.7373 25.352V29.4996C19.7373 29.8996 19.9796 30.3425 20.7404 30.1979C24.1197 29.0757 26.9888 26.7866 28.8333 23.7408C30.6778 20.6951 31.3772 17.0919 30.8059 13.5773C30.2347 10.0627 28.4302 6.86646 25.7161 4.56165C23.0019 2.25684 19.5555 0.994175 15.9948 1.00002V1.00002Z" stroke="white" stroke-linecap="round" stroke-linejoin="round"/>
</svg>
