<svg width="32" height="32" viewBox="0 0 32 32" fill="none" xmlns="http://www.w3.org/2000/svg">
<path d="M4.92857 1C2.76311 1 1 2.76311 1 4.92857C1 7.09403 2.76311 8.85714 4.92857 8.85714C7.09403 8.85714 8.85714 7.09403 8.85714 4.92857C8.85714 2.76311 7.09403 1 4.92857 1ZM4.92857 1.71429C6.708 1.71429 8.14286 3.14914 8.14286 4.92857C8.14286 6.708 6.708 8.14286 4.92857 8.14286C3.14914 8.14286 1.71429 6.708 1.71429 4.92857C1.71429 3.14914 3.14914 1.71429 4.92857 1.71429ZM23.5 10.2857C20.8896 10.2857 19.3191 11.5803 18.1429 12.9085V11.3571C18.1428 11.1701 17.9727 11 17.7857 11H12.0714C11.8844 11 11.7143 11.1701 11.7143 11.3571V30.6429C11.7143 30.8299 11.8844 31 12.0714 31H18.1429C18.3299 31 18.5 30.8299 18.5 30.6429V19.9286C18.5 18.9522 18.8028 18.0354 19.2701 17.3839C19.7374 16.7324 20.3463 16.3571 21 16.3571H21.7143C22.368 16.3571 22.9769 16.7324 23.4442 17.3839C23.9115 18.0354 24.2143 18.9522 24.2143 19.9286V30.6429C24.2143 30.8299 24.3844 31 24.5714 31H30.6429C30.8299 31 31 30.8299 31 30.6429V18.1429C31 15.8075 30.552 13.8357 29.3594 12.4397C28.1668 11.0438 26.2559 10.2857 23.5 10.2857ZM2.00446 11C1.84075 11.0312 1.71135 11.1905 1.71429 11.3571V30.6429C1.7143 30.8299 1.88443 31 2.07143 31H8.14286C8.32985 31 8.49998 30.8299 8.5 30.6429V11.3571C8.49998 11.1701 8.32985 11 8.14286 11C6.09889 11 4.04328 11 2.00446 11ZM23.5 11C26.1267 11 27.7905 11.6992 28.8237 12.9085C29.8568 14.1178 30.2857 15.8991 30.2857 18.1429V30.2857H24.9286V19.9286C24.9286 18.8076 24.5901 17.7483 24.0246 16.9598C23.459 16.1714 22.6434 15.6429 21.7143 15.6429H21C20.0708 15.6429 19.2553 16.1714 18.6897 16.9598C18.1242 17.7483 17.7857 18.8076 17.7857 19.9286V24.5714C17.8047 24.5714 17.7667 24.5714 17.7857 24.5714V24.9286C17.7857 24.9286 17.7857 25.1071 17.7857 25.2857V27.4286C17.7857 27.6379 17.7857 27.25 17.7857 27.4286C17.7857 27.6071 17.7857 27.6071 17.7857 27.7857C17.7857 27.9643 17.7857 27.7857 17.7857 27.9643V28.1429V30.2857H12.4286V11.7143H17.4286V13.8571C17.4284 14.1509 17.8813 14.3098 18.0647 14.0804C19.2749 12.5716 20.6843 11 23.5 11ZM2.42857 11.7143H7.78571V24.5714C7.77897 24.8364 7.78571 23.9503 7.78571 24.5714C7.78571 24.75 7.78571 24.75 7.78571 24.9286C7.78571 25.1071 7.78571 24.9286 7.78571 25.2857V27.4286C7.78571 27.0714 7.78571 27.1841 7.78571 27.4286C7.78571 27.6071 7.78571 27.6071 7.78571 27.7857C7.78571 27.9643 7.78571 27.9643 7.78571 28.1429V30.2857H2.42857V11.7143Z" fill="white"/>
<path d="M17.7857 24.5714V19.9286C17.7857 18.8076 18.1242 17.7483 18.6897 16.9598C19.2553 16.1714 20.0708 15.6429 21 15.6429H21.7143C22.6434 15.6429 23.459 16.1714 24.0246 16.9598C24.5901 17.7483 24.9286 18.8076 24.9286 19.9286V30.2857H30.2857V18.1429C30.2857 15.8991 29.8568 14.1178 28.8237 12.9085C27.7905 11.6992 26.1267 11 23.5 11C20.6843 11 19.2749 12.5716 18.0647 14.0804C17.8813 14.3098 17.4284 14.1509 17.4286 13.8571V11.7143H12.4286V30.2857H17.7857V28.1429V27.9643C17.7857 27.7857 17.7857 27.9643 17.7857 27.7857C17.7857 27.6071 17.7857 27.6071 17.7857 27.4286M17.7857 24.5714C17.7667 24.5714 17.8047 24.5714 17.7857 24.5714ZM17.7857 24.5714V24.9286C17.7857 24.9286 17.7857 25.1071 17.7857 25.2857V27.4286M17.7857 27.4286C17.7857 27.25 17.7857 27.6379 17.7857 27.4286ZM7.78571 24.5714V11.7143H2.42857V30.2857H7.78571V28.1429C7.78571 27.9643 7.78571 27.9643 7.78571 27.7857C7.78571 27.6071 7.78571 27.6071 7.78571 27.4286M7.78571 24.5714C7.78571 23.9503 7.77897 24.8364 7.78571 24.5714ZM7.78571 24.5714C7.78571 24.75 7.78571 24.75 7.78571 24.9286C7.78571 25.1071 7.78571 24.9286 7.78571 25.2857V27.4286M7.78571 27.4286C7.78571 27.1841 7.78571 27.0714 7.78571 27.4286ZM4.92857 1C2.76311 1 1 2.76311 1 4.92857C1 7.09403 2.76311 8.85714 4.92857 8.85714C7.09403 8.85714 8.85714 7.09403 8.85714 4.92857C8.85714 2.76311 7.09403 1 4.92857 1ZM4.92857 1.71429C6.708 1.71429 8.14286 3.14914 8.14286 4.92857C8.14286 6.708 6.708 8.14286 4.92857 8.14286C3.14914 8.14286 1.71429 6.708 1.71429 4.92857C1.71429 3.14914 3.14914 1.71429 4.92857 1.71429ZM23.5 10.2857C20.8896 10.2857 19.3191 11.5803 18.1429 12.9085V11.3571C18.1428 11.1701 17.9727 11 17.7857 11H12.0714C11.8844 11 11.7143 11.1701 11.7143 11.3571V30.6429C11.7143 30.8299 11.8844 31 12.0714 31H18.1429C18.3299 31 18.5 30.8299 18.5 30.6429V19.9286C18.5 18.9523 18.8028 18.0354 19.2701 17.3839C19.7374 16.7324 20.3463 16.3571 21 16.3571H21.7143C22.368 16.3571 22.9769 16.7324 23.4442 17.3839C23.9115 18.0354 24.2143 18.9523 24.2143 19.9286V30.6429C24.2143 30.8299 24.3844 31 24.5714 31H30.6429C30.8299 31 31 30.8299 31 30.6429V18.1429C31 15.8075 30.552 13.8357 29.3594 12.4397C28.1668 11.0438 26.2559 10.2857 23.5 10.2857ZM2.00446 11C1.84075 11.0312 1.71135 11.1905 1.71429 11.3571V30.6429C1.7143 30.8299 1.88443 31 2.07143 31H8.14286C8.32985 31 8.49998 30.8299 8.5 30.6429V11.3571C8.49998 11.1701 8.32985 11 8.14286 11C6.09889 11 4.04328 11 2.00446 11Z" stroke="white" stroke-width="0.3"/>
</svg>
