<svg width="25" height="25" viewBox="0 0 25 25" fill="none" xmlns="http://www.w3.org/2000/svg">
<path d="M16.1895 8.95605C17.7808 8.95605 19.3069 9.5882 20.4321 10.7134C21.5573 11.8386 22.1895 13.3648 22.1895 14.9561V21.9561H18.1895V14.9561C18.1895 14.4256 17.9787 13.9169 17.6037 13.5418C17.2286 13.1668 16.7199 12.9561 16.1895 12.9561C15.659 12.9561 15.1503 13.1668 14.7752 13.5418C14.4002 13.9169 14.1895 14.4256 14.1895 14.9561V21.9561H10.1895V14.9561C10.1895 13.3648 10.8216 11.8386 11.9468 10.7134C13.072 9.5882 14.5982 8.95605 16.1895 8.95605V8.95605Z" stroke="white" stroke-width="2" stroke-linecap="round" stroke-linejoin="round"/>
<path d="M6.18945 9.95605H2.18945V21.9561H6.18945V9.95605Z" stroke="white" stroke-width="2" stroke-linecap="round" stroke-linejoin="round"/>
<path d="M4.18945 6.95605C5.29402 6.95605 6.18945 6.06062 6.18945 4.95605C6.18945 3.85149 5.29402 2.95605 4.18945 2.95605C3.08488 2.95605 2.18945 3.85149 2.18945 4.95605C2.18945 6.06062 3.08488 6.95605 4.18945 6.95605Z" stroke="white" stroke-width="2" stroke-linecap="round" stroke-linejoin="round"/>
</svg>
