<svg width="25" height="25" viewBox="0 0 25 25" fill="none" xmlns="http://www.w3.org/2000/svg">
<path d="M16.1895 8.95508C17.7808 8.95508 19.3069 9.58723 20.4321 10.7124C21.5573 11.8376 22.1895 13.3638 22.1895 14.9551V21.9551H18.1895V14.9551C18.1895 14.4246 17.9787 13.9159 17.6037 13.5408C17.2286 13.1658 16.7199 12.9551 16.1895 12.9551C15.659 12.9551 15.1503 13.1658 14.7752 13.5408C14.4002 13.9159 14.1895 14.4246 14.1895 14.9551V21.9551H10.1895V14.9551C10.1895 13.3638 10.8216 11.8376 11.9468 10.7124C13.072 9.58723 14.5982 8.95508 16.1895 8.95508Z" stroke="#303030" stroke-width="2" stroke-linecap="round" stroke-linejoin="round"/>
<path d="M6.18945 9.95508H2.18945V21.9551H6.18945V9.95508Z" stroke="#303030" stroke-width="2" stroke-linecap="round" stroke-linejoin="round"/>
<path d="M4.18945 6.95508C5.29402 6.95508 6.18945 6.05965 6.18945 4.95508C6.18945 3.85052 5.29402 2.95508 4.18945 2.95508C3.08488 2.95508 2.18945 3.85052 2.18945 4.95508C2.18945 6.05965 3.08488 6.95508 4.18945 6.95508Z" stroke="#303030" stroke-width="2" stroke-linecap="round" stroke-linejoin="round"/>
</svg>
