<svg width="45" height="45" viewBox="0 0 45 45" fill="none" xmlns="http://www.w3.org/2000/svg">
<path fill-rule="evenodd" clip-rule="evenodd" d="M22.4999 15.9375C23.2599 15.9377 23.9141 15.4005 24.0618 14.655L26.1411 4.20563C26.2448 3.68627 26.124 3.14729 25.8086 2.72185C25.4932 2.29642 25.0126 2.02421 24.4855 1.9725C23.8293 1.905 23.1693 1.875 22.4999 1.875C21.8305 1.875 21.1686 1.90875 20.5161 1.9725C19.9891 2.02421 19.5084 2.29642 19.193 2.72185C18.8776 3.14729 18.7568 3.68627 18.8605 4.20563L20.9418 14.6588C21.0888 15.4026 21.7416 15.9384 22.4999 15.9375V15.9375Z" stroke="black" stroke-linecap="round" stroke-linejoin="round"/>
<path fill-rule="evenodd" clip-rule="evenodd" d="M17.8578 17.8557C18.3945 17.3185 18.4769 16.4769 18.0547 15.8457L12.1353 6.98637C11.8413 6.54282 11.3726 6.24513 10.8461 6.16752C10.3196 6.08991 9.7849 6.23968 9.37534 6.5795C8.87534 6.99575 8.38534 7.4395 7.90534 7.91075C7.42534 8.382 6.98347 8.87012 6.57972 9.37512C6.24268 9.78457 6.09479 10.3176 6.17269 10.8422C6.25059 11.3667 6.54699 11.8338 6.98847 12.1276L15.8497 18.0526C16.4803 18.4745 17.3212 18.3921 17.8578 17.8557Z" stroke="black" stroke-linecap="round" stroke-linejoin="round"/>
<path fill-rule="evenodd" clip-rule="evenodd" d="M15.9375 22.5001C15.9386 21.7393 15.4012 21.0842 14.655 20.9363L4.20188 18.8569C3.68195 18.7527 3.14217 18.8734 2.71623 19.1893C2.29029 19.5052 2.01803 19.9866 1.96687 20.5144C1.905 21.1669 1.875 21.8269 1.875 22.5001C1.875 23.1732 1.90687 23.8294 1.97062 24.4819C2.02178 25.0098 2.29404 25.4912 2.71998 25.8071C3.14592 26.123 3.6857 26.2437 4.20563 26.1394L14.6625 24.0582C15.4045 23.909 15.9381 23.2569 15.9375 22.5001V22.5001Z" stroke="black" stroke-linecap="round" stroke-linejoin="round"/>
<path fill-rule="evenodd" clip-rule="evenodd" d="M17.8576 27.1389C17.3161 26.6043 16.4728 26.5259 15.842 26.9514L6.98821 32.8614C6.54761 33.1555 6.25201 33.6223 6.17449 34.1464C6.09697 34.6705 6.24476 35.2029 6.58134 35.612C6.99759 36.1183 7.44134 36.6089 7.91259 37.0839C8.38384 37.5589 8.87446 38.0033 9.38446 38.417C9.79382 38.7534 10.3264 38.9009 10.8505 38.823C11.3746 38.7451 11.8412 38.4491 12.1351 38.0083L18.0545 29.1451C18.4761 28.5151 18.3936 27.6749 17.8576 27.1389Z" stroke="black" stroke-linecap="round" stroke-linejoin="round"/>
<path fill-rule="evenodd" clip-rule="evenodd" d="M22.5005 29.0625C21.7397 29.0614 21.0845 29.5988 20.9367 30.345L18.8611 40.785C18.752 41.306 18.8695 41.8488 19.1843 42.278C19.4991 42.7072 19.9814 42.9824 20.5111 43.035C21.1655 43.1006 21.8236 43.1325 22.4986 43.1325C23.1736 43.1325 23.8336 43.1006 24.488 43.035C25.0173 42.9819 25.4991 42.7065 25.8135 42.2773C26.1279 41.8482 26.2451 41.3057 26.1361 40.785L24.0548 30.3394C23.9087 29.5968 23.2572 29.0617 22.5005 29.0625V29.0625Z" stroke="black" stroke-linecap="round" stroke-linejoin="round"/>
<path fill-rule="evenodd" clip-rule="evenodd" d="M27.1392 27.139C26.6049 27.6798 26.5264 28.5225 26.9517 29.1527L32.8692 38.0083C33.1633 38.4495 33.6305 38.7455 34.155 38.8231C34.6796 38.9006 35.2124 38.7524 35.6217 38.4152C36.1279 37.999 36.6179 37.5552 37.0917 37.084C37.5654 36.6127 38.0104 36.1221 38.4267 35.6121C38.763 35.2027 38.9105 34.6702 38.8327 34.1461C38.7548 33.622 38.4588 33.1553 38.0179 32.8615L29.151 26.944C28.5195 26.5218 27.6779 26.6033 27.1392 27.139Z" stroke="black" stroke-linecap="round" stroke-linejoin="round"/>
<path fill-rule="evenodd" clip-rule="evenodd" d="M29.0625 22.4996C29.0623 23.2597 29.5995 23.9138 30.345 24.0615L40.7963 26.139C41.3162 26.2433 41.856 26.1226 42.2819 25.8067C42.7078 25.4908 42.9801 25.0093 43.0313 24.4815C43.0931 23.829 43.1269 23.169 43.1269 22.5034V22.5034C43.1282 21.8416 43.0963 21.1801 43.0313 20.5215C42.9795 19.9944 42.7073 19.5138 42.2819 19.1984C41.8565 18.883 41.3175 18.7622 40.7981 18.8659L30.3375 20.9415C29.5947 21.0894 29.0605 21.7423 29.0625 22.4996Z" stroke="black" stroke-linecap="round" stroke-linejoin="round"/>
<path fill-rule="evenodd" clip-rule="evenodd" d="M27.1413 17.8558C27.6778 18.3937 28.5199 18.477 29.1513 18.0545L38.0107 12.1333C38.4537 11.8392 38.7509 11.3709 38.8285 10.8449C38.9061 10.3189 38.7567 9.78464 38.4176 9.37517C37.9994 8.86892 37.5569 8.37954 37.0844 7.90704C36.6167 7.4363 36.1254 6.98948 35.6126 6.56829C35.203 6.23208 34.6702 6.0849 34.1461 6.16314C33.622 6.24138 33.1555 6.53774 32.862 6.97892L26.9426 15.8477C26.5212 16.4787 26.6044 17.3196 27.1413 17.8558V17.8558Z" stroke="black" stroke-linecap="round" stroke-linejoin="round"/>
</svg>
