<svg width="48" height="50" viewBox="0 0 48 50" fill="none" xmlns="http://www.w3.org/2000/svg">
<path d="M25.9913 1.51094C25.0346 0.649273 23.5845 0.639861 22.6167 1.48904L0.864673 20.5747C0.315096 21.0569 0 21.7525 0 22.4837V46.8721C0 48.2747 1.13705 49.4118 2.53968 49.4118H45.4603C46.8629 49.4118 48 48.2747 48 46.8721V22.4639C48 21.7442 47.6947 21.0584 47.16 20.5767L25.9913 1.51094Z" fill="#2ABECC"/>
<path fill-rule="evenodd" clip-rule="evenodd" d="M15.0241 20.1769H25.6038C26.0717 20.1769 26.451 20.5562 26.451 21.0241V24.7442H23.3962C21.1737 24.7442 19.3721 26.5458 19.3721 28.7683V32.451H15.0241C14.5562 32.451 14.1769 32.0717 14.1769 31.6038V21.0241C14.1769 20.5562 14.5562 20.1769 15.0241 20.1769ZM22.549 35.6279V32.4883H23.9768V35.6279H22.549ZM19.3721 35.6279H15.0241C12.8016 35.6279 11 33.8263 11 31.6038V21.0241C11 18.8016 12.8016 17 15.0241 17H25.6038C27.8263 17 29.6279 18.8016 29.6279 21.0241V24.7442H33.9759C36.1983 24.7442 38 26.5458 38 28.7683V39.348C38 41.5705 36.1983 43.3721 33.9759 43.3721H23.3962C21.1737 43.3721 19.3721 41.5705 19.3721 39.348V35.6279ZM19.3721 32.4883V35.6279H17.907V32.4883H19.3721ZM29.6279 27.9211H33.9759C34.4438 27.9211 34.8231 28.3004 34.8231 28.7683V39.348C34.8231 39.8159 34.4438 40.1952 33.9759 40.1952H23.3962C22.9283 40.1952 22.549 39.8159 22.549 39.348V35.6279H25.6038C27.8263 35.6279 29.6279 33.8263 29.6279 31.6038V27.9211ZM26.451 27.9211V31.6038C26.451 32.0717 26.0717 32.451 25.6038 32.451H22.549V28.7683C22.549 28.3004 22.9283 27.9211 23.3962 27.9211H26.451ZM26.451 27.8837H25.0232V24.7442L26.451 24.7442V27.8837ZM31.0931 24.7442V27.8837H29.628V24.7442H31.0931Z" fill="white"/>
</svg>
