<svg width="70" height="73" viewBox="0 0 70 73" fill="none" xmlns="http://www.w3.org/2000/svg">
<path d="M37.1351 1.51094C36.1784 0.649275 34.7283 0.639861 33.7605 1.48904L0.864675 30.3524C0.315098 30.8346 0 31.5303 0 32.2614V69.5191C0 70.9218 1.13705 72.0588 2.53968 72.0588H67.4603C68.8629 72.0588 70 70.9218 70 69.5191V32.2416C70 31.522 69.6947 30.8361 69.16 30.3545L37.1351 1.51094Z" fill="#2ABECC"/>
<path fill-rule="evenodd" clip-rule="evenodd" d="M20.0661 27.9686H39.1836C39.6515 27.9686 40.0308 28.3479 40.0308 28.8157V36.0853H32.2747C30.0523 36.0853 28.2507 37.8869 28.2507 40.1094V51.9573H26.1144V48.7804H20.0661C19.5982 48.7804 19.2189 48.4012 19.2189 47.9333V28.8157C19.2189 28.3479 19.5982 27.9686 20.0661 27.9686ZM28.2507 51.9574H20.0661C17.8436 51.9574 16.042 50.1557 16.042 47.9333V28.8157C16.042 26.5933 17.8436 24.7917 20.0661 24.7917H39.1836C41.406 24.7917 43.2077 26.5933 43.2077 28.8157V36.0853V47.9333C43.2077 50.1557 41.406 51.9574 39.1836 51.9574H31.4276V59.2269C31.4276 59.6948 31.8069 60.0741 32.2747 60.0741H51.3923C51.8601 60.0741 52.2394 59.6948 52.2394 59.2269V40.1094C52.2394 39.6415 51.8601 39.2622 51.3923 39.2622H45.344V36.0853H43.2077L51.3923 36.0853C53.6147 36.0853 55.4163 37.8869 55.4163 40.1094V59.2269C55.4163 61.4493 53.6147 63.251 51.3923 63.251H32.2747C30.0523 63.251 28.2507 61.4493 28.2507 59.2269V51.9574ZM40.0308 39.2622V47.9333C40.0308 48.4011 39.6515 48.7804 39.1836 48.7804H34.9662V51.9573H32.8296V48.7804H31.4276V40.1094C31.4276 39.6415 31.8069 39.2622 32.2747 39.2622H36.4922V36.0853H38.6288V39.2622H40.0308Z" fill="white"/>
</svg>
