<svg width="73" height="31" viewBox="0 0 73 31" fill="none" xmlns="http://www.w3.org/2000/svg">
<path d="M9.52 28.6C6.56 28.6 4.26667 27.8133 2.64 26.24C1.04 24.6667 0.24 22.6267 0.24 20.12C0.24 17.8267 0.8 15.5867 1.92 13.4C3.06667 11.2133 4.50667 9.2 6.24 7.36C7.65333 5.86667 9.26667 4.57333 11.08 3.48C12.92 2.38667 14.84 1.53333 16.84 0.919999C18.8667 0.306665 20.84 -1.43051e-06 22.76 -1.43051e-06C24.28 -1.43051e-06 25.6533 0.213332 26.88 0.64C28.1067 1.04 29.08 1.68 29.8 2.56C30.52 3.44 30.88 4.58667 30.88 6C30.88 7.25333 30.5733 8.42667 29.96 9.52C29.3733 10.5867 28.5733 11.52 27.56 12.32C26.5733 13.12 25.48 13.7467 24.28 14.2C23.08 14.6533 21.8667 14.88 20.64 14.88C19.04 14.88 17.6933 14.52 16.6 13.8C15.5067 13.0533 14.96 12.12 14.96 11C14.96 9.56 15.88 8.14667 17.72 6.76C18.04 6.52 18.2933 6.4 18.48 6.4C18.6133 6.4 18.68 6.45333 18.68 6.56C18.68 6.82667 18.4667 7.04 18.04 7.2C16.5467 8.4 15.8 9.61333 15.8 10.84C15.8 11.72 16.2 12.4667 17 13.08C17.8 13.6667 18.8 13.96 20 13.96C21.0667 13.96 22.1333 13.7333 23.2 13.28C24.2933 12.8267 25.2933 12.2133 26.2 11.44C27.1067 10.6667 27.8267 9.8 28.36 8.84C28.92 7.85333 29.2 6.82667 29.2 5.76C29.2 4.02667 28.6133 2.76 27.44 1.96C26.2667 1.16 24.7733 0.759998 22.96 0.759998C20.9067 0.759998 18.8667 1.14666 16.84 1.92C14.84 2.69333 12.96 3.76 11.2 5.12C9.44 6.48 7.86667 8.04 6.48 9.8C3.70667 13.2933 2.32 16.5733 2.32 19.64C2.32 21.2667 2.69333 22.6533 3.44 23.8C4.18667 24.92 5.21333 25.7733 6.52 26.36C7.85333 26.9467 9.37333 27.24 11.08 27.24C13.6133 27.24 16.0667 26.6933 18.44 25.6C20.8133 24.48 22.84 22.9867 24.52 21.12C24.9733 20.64 25.3067 20.4 25.52 20.4C25.68 20.4 25.76 20.52 25.76 20.76C25.76 21.08 25.6133 21.3867 25.32 21.68C24.4133 22.64 23.3333 23.5333 22.08 24.36C20.8267 25.1867 19.48 25.92 18.04 26.56C16.6267 27.2 15.1867 27.6933 13.72 28.04C12.2533 28.4133 10.8533 28.6 9.52 28.6ZM30.7034 30.48C30.2234 30.48 29.9834 30.1733 29.9834 29.56C29.9834 28.9733 30.2234 28.2267 30.7034 27.32L38.4234 16.2C40.7968 12.7867 42.5568 9.98667 43.7034 7.8C44.8501 5.61333 45.4234 4.06667 45.4234 3.16C45.4234 2.73333 45.2634 2.41333 44.9434 2.2C44.6234 1.98667 44.2501 1.84 43.8234 1.76C43.3968 1.68 42.9968 1.64 42.6234 1.64C40.3568 1.64 37.1968 3.02667 33.1434 5.8C31.9968 6.57333 30.9434 7.44 29.9834 8.4C29.0234 9.36 28.1301 10.3867 27.3034 11.48C25.7034 13.6667 24.9034 15.5067 24.9034 17C24.9034 18.1467 25.4368 18.84 26.5034 19.08C26.9034 19.1867 27.3568 19.24 27.8634 19.24C28.8234 19.24 29.7834 19 30.7434 18.52C31.7034 18.04 32.6368 17.4267 33.5434 16.68C34.2368 16.0933 34.6368 15.8 34.7434 15.8C34.8501 15.8 34.8901 15.8933 34.8634 16.08C34.7034 16.64 34.3168 17.1733 33.7034 17.68C33.0901 18.1867 32.3568 18.6533 31.5034 19.08C30.6501 19.48 29.7834 19.8 28.9034 20.04C28.0501 20.2533 27.2901 20.36 26.6234 20.36C25.5568 20.36 24.6234 20.0933 23.8234 19.56C23.0234 19 22.6234 18.1867 22.6234 17.12C22.6234 15.4933 23.5701 13.4933 25.4634 11.12C27.2768 8.82667 29.5168 6.78667 32.1834 5C33.2768 4.25333 34.5568 3.54667 36.0234 2.88C37.4901 2.18667 38.9701 1.62667 40.4634 1.2C41.9568 0.746666 43.2901 0.519999 44.4634 0.519999C46.5701 0.519999 47.6234 1.21333 47.6234 2.6C47.6234 4.28 46.3568 7.17333 43.8234 11.28C42.0368 14.1067 39.6768 17.4667 36.7434 21.36C34.3168 24.5867 33.0901 26.2 33.0634 26.2C33.1434 26.2 34.4234 24.8267 36.9034 22.08C38.4234 20.3733 39.8501 18.8533 41.1834 17.52C42.5434 16.16 43.7968 14.9733 44.9434 13.96C45.5034 13.4533 46.1834 12.8267 46.9834 12.08C47.7834 11.3067 48.7168 10.4133 49.7834 9.4C50.7168 8.54667 51.6234 7.77333 52.5034 7.08C53.4101 6.38667 54.2368 6.04 54.9834 6.04C55.7568 6.04 56.2634 6.22667 56.5034 6.6C54.0501 9.64 51.7568 13.36 49.6234 17.76C48.1034 20.9067 47.3434 23.2933 47.3434 24.92C47.3434 25.88 47.5968 26.5733 48.1034 27C48.6101 27.4267 49.2768 27.64 50.1034 27.64C51.0101 27.64 51.9568 27.3867 52.9434 26.88C53.9568 26.3733 54.9568 25.72 55.9434 24.92C56.9301 24.12 57.8501 23.28 58.7034 22.4C61.7701 19.3067 64.2101 15.96 66.0234 12.36C67.4368 9.53333 68.1434 7.28 68.1434 5.6C68.1434 5.44 68.1301 5.29333 68.1034 5.16C68.1034 5.02667 68.0901 4.90667 68.0634 4.8C67.5034 4.8 66.9034 4.50667 66.2634 3.92C65.8634 3.6 65.6634 3.26667 65.6634 2.92C65.6634 2.6 65.7968 2.33333 66.0634 2.12C66.3301 1.90667 66.6368 1.8 66.9834 1.8C67.4901 1.8 67.8634 2.02667 68.1034 2.48C68.2101 2.69333 68.4234 2.96 68.7434 3.28C68.9568 3.49333 69.0501 3.65333 69.0234 3.76C69.1834 4 69.4501 4.12 69.8234 4.12C70.1968 4.12 70.5434 3.96 70.8634 3.64C71.2101 3.32 71.5834 3.16 71.9834 3.16C72.1968 3.16 72.3034 3.24 72.3034 3.4C72.3034 3.69333 72.0501 3.97333 71.5434 4.24C71.2768 4.42667 70.9568 4.54667 70.5834 4.6C70.3701 4.62667 70.1568 4.65333 69.9434 4.68C69.7301 4.68 69.5168 4.65333 69.3034 4.6C69.6234 5.66667 69.7834 6.45333 69.7834 6.96C69.7834 9.09333 68.7701 11.8533 66.7434 15.24C65.7301 16.9467 64.5701 18.56 63.2634 20.08C61.9568 21.6 60.4901 23.0267 58.8634 24.36C55.6368 27.08 52.7701 28.44 50.2634 28.44C47.5168 28.44 46.1434 27.16 46.1434 24.6C46.1434 23.4 46.3968 22.04 46.9034 20.52C47.4101 18.9733 48.0101 17.44 48.7034 15.92L51.5834 9.64C50.4101 10.5467 49.4501 11.2933 48.7034 11.88C47.9834 12.44 47.3701 12.92 46.8634 13.32C46.3834 13.72 45.9168 14.1333 45.4634 14.56C45.0368 14.96 44.5168 15.4533 43.9034 16.04C43.2368 16.7067 42.3434 17.6667 41.2234 18.92C40.1034 20.1467 38.7968 21.68 37.3034 23.52L32.6634 29.2C32.3968 29.52 32.0901 29.8133 31.7434 30.08C31.3968 30.3467 31.0501 30.48 30.7034 30.48Z" fill="#333333"/>
</svg>
