<svg width="113" height="37" viewBox="0 0 113 37" fill="none" xmlns="http://www.w3.org/2000/svg">
<path d="M6.32 16.144C5.18933 16.144 4.22933 15.9093 3.44 15.44C2.65067 14.9707 2.04267 14.304 1.616 13.44C1.2 12.576 0.992 11.5467 0.992 10.352C0.992 9.15733 1.2 8.13333 1.616 7.28C2.04267 6.416 2.65067 5.74933 3.44 5.28C4.22933 4.81067 5.18933 4.576 6.32 4.576C7.12 4.576 7.83467 4.69867 8.464 4.944C9.09333 5.18933 9.64267 5.54667 10.112 6.016L9.616 7.072C9.104 6.624 8.59733 6.29867 8.096 6.096C7.59467 5.88267 7.008 5.776 6.336 5.776C5.04533 5.776 4.064 6.176 3.392 6.976C2.72 7.776 2.384 8.90133 2.384 10.352C2.384 11.8027 2.72 12.9333 3.392 13.744C4.064 14.544 5.04533 14.944 6.336 14.944C7.008 14.944 7.59467 14.8427 8.096 14.64C8.59733 14.4267 9.104 14.0907 9.616 13.632L10.112 14.704C9.64267 15.1627 9.09333 15.52 8.464 15.776C7.83467 16.0213 7.12 16.144 6.32 16.144ZM12.3455 16V4.72H13.6735V9.712H20.4735V4.72H21.7855V16H20.4735V10.848H13.6735V16H12.3455ZM29.0435 16.144C27.5182 16.144 26.3822 15.7547 25.6355 14.976C24.8995 14.1973 24.5315 13.0507 24.5315 11.536V4.72H25.8435V11.472C25.8435 12.6347 26.0995 13.5093 26.6115 14.096C27.1235 14.6827 27.9342 14.976 29.0435 14.976C30.0888 14.976 30.8835 14.6827 31.4275 14.096C31.9715 13.5093 32.2435 12.6347 32.2435 11.472V4.72H33.5555V11.536C33.5555 13.0507 33.1715 14.1973 32.4035 14.976C31.6462 15.7547 30.5262 16.144 29.0435 16.144ZM41.195 16.144C40.0643 16.144 39.1043 15.9093 38.315 15.44C37.5257 14.9707 36.9177 14.304 36.491 13.44C36.075 12.576 35.867 11.5467 35.867 10.352C35.867 9.15733 36.075 8.13333 36.491 7.28C36.9177 6.416 37.5257 5.74933 38.315 5.28C39.1043 4.81067 40.0643 4.576 41.195 4.576C41.995 4.576 42.7097 4.69867 43.339 4.944C43.9683 5.18933 44.5177 5.54667 44.987 6.016L44.491 7.072C43.979 6.624 43.4723 6.29867 42.971 6.096C42.4697 5.88267 41.883 5.776 41.211 5.776C39.9203 5.776 38.939 6.176 38.267 6.976C37.595 7.776 37.259 8.90133 37.259 10.352C37.259 11.8027 37.595 12.9333 38.267 13.744C38.939 14.544 39.9203 14.944 41.211 14.944C41.883 14.944 42.4697 14.8427 42.971 14.64C43.4723 14.4267 43.979 14.0907 44.491 13.632L44.987 14.704C44.5177 15.1627 43.9683 15.52 43.339 15.776C42.7097 16.0213 41.995 16.144 41.195 16.144ZM47.2205 16V4.72H48.5485V9.712H55.3485V4.72H56.6605V16H55.3485V10.848H48.5485V16H47.2205ZM63.9185 16.144C62.3932 16.144 61.2572 15.7547 60.5105 14.976C59.7745 14.1973 59.4065 13.0507 59.4065 11.536V4.72H60.7185V11.472C60.7185 12.6347 60.9745 13.5093 61.4865 14.096C61.9985 14.6827 62.8092 14.976 63.9185 14.976C64.9638 14.976 65.7585 14.6827 66.3025 14.096C66.8465 13.5093 67.1185 12.6347 67.1185 11.472V4.72H68.4305V11.536C68.4305 13.0507 68.0465 14.1973 67.2785 14.976C66.5212 15.7547 65.4012 16.144 63.9185 16.144ZM78.4019 16L74.4659 4.72H75.8579L79.2979 14.88H78.7379L82.3539 4.72H83.4099L86.8339 14.88H86.3219L89.8579 4.72H91.1699L87.2019 16H86.0179L82.6899 6.224H83.0259L79.5539 16H78.4019ZM93.1268 16V4.72H100.327V5.808H94.4228V9.728H99.9748V10.832H94.4228V14.896H100.327V16H93.1268ZM102.533 16V4.72H103.861V16H102.533Z" fill="#303030"/>
<path d="M3.66 34.09C2.70667 34.09 1.99667 33.8467 1.53 33.36C1.07 32.8733 0.84 32.1567 0.84 31.21V26.95H1.66V31.17C1.66 31.8967 1.82 32.4433 2.14 32.81C2.46 33.1767 2.96667 33.36 3.66 33.36C4.31333 33.36 4.81 33.1767 5.15 32.81C5.49 32.4433 5.66 31.8967 5.66 31.17V26.95H6.48V31.21C6.48 32.1567 6.24 32.8733 5.76 33.36C5.28667 33.8467 4.58667 34.09 3.66 34.09ZM9.76469 34.09C9.36469 34.09 8.99135 34.0367 8.64469 33.93C8.29802 33.8167 8.01135 33.66 7.78469 33.46L8.06469 32.89C8.31135 33.0833 8.57802 33.2267 8.86469 33.32C9.15802 33.4133 9.46135 33.46 9.77469 33.46C10.1747 33.46 10.4747 33.39 10.6747 33.25C10.8814 33.1033 10.9847 32.9033 10.9847 32.65C10.9847 32.4567 10.918 32.3033 10.7847 32.19C10.658 32.07 10.448 31.9767 10.1547 31.91L9.22469 31.72C8.79802 31.6267 8.47802 31.47 8.26469 31.25C8.05135 31.0233 7.94469 30.7367 7.94469 30.39C7.94469 30.0967 8.02135 29.84 8.17469 29.62C8.32802 29.3933 8.55135 29.2167 8.84469 29.09C9.13802 28.9567 9.48135 28.89 9.87469 28.89C10.2414 28.89 10.578 28.9467 10.8847 29.06C11.198 29.1667 11.458 29.3233 11.6647 29.53L11.3747 30.09C11.1747 29.8967 10.9447 29.7533 10.6847 29.66C10.4314 29.56 10.168 29.51 9.89469 29.51C9.50135 29.51 9.20469 29.59 9.00469 29.75C8.81135 29.9033 8.71469 30.1067 8.71469 30.36C8.71469 30.5533 8.77469 30.7133 8.89469 30.84C9.02135 30.96 9.21469 31.05 9.47469 31.11L10.4047 31.3C10.858 31.4 11.1947 31.5567 11.4147 31.77C11.6414 31.9767 11.7547 32.2567 11.7547 32.61C11.7547 32.91 11.6714 33.1733 11.5047 33.4C11.338 33.62 11.1047 33.79 10.8047 33.91C10.5114 34.03 10.1647 34.09 9.76469 34.09ZM15.2856 34.09C14.499 34.09 13.879 33.8633 13.4256 33.41C12.9723 32.95 12.7456 32.3133 12.7456 31.5C12.7456 30.9733 12.8456 30.5167 13.0456 30.13C13.2456 29.7367 13.5256 29.4333 13.8856 29.22C14.2456 29 14.659 28.89 15.1256 28.89C15.5856 28.89 15.9723 28.9867 16.2856 29.18C16.599 29.3733 16.839 29.65 17.0056 30.01C17.1723 30.3633 17.2556 30.7833 17.2556 31.27V31.57H13.3656V31.06H16.7256L16.5556 31.19C16.5556 30.6567 16.4356 30.24 16.1956 29.94C15.9556 29.64 15.599 29.49 15.1256 29.49C14.6256 29.49 14.2356 29.6667 13.9556 30.02C13.6756 30.3667 13.5356 30.8367 13.5356 31.43V31.52C13.5356 32.1467 13.689 32.6233 13.9956 32.95C14.309 33.27 14.7456 33.43 15.3056 33.43C15.6056 33.43 15.8856 33.3867 16.1456 33.3C16.4123 33.2067 16.6656 33.0567 16.9056 32.85L17.1856 33.42C16.9656 33.6333 16.6856 33.8 16.3456 33.92C16.0123 34.0333 15.659 34.09 15.2856 34.09ZM18.4751 34V30.19C18.4751 29.99 18.4684 29.7867 18.4551 29.58C18.4484 29.3733 18.4351 29.1733 18.4151 28.98H19.1951L19.2951 30.2L19.1551 30.21C19.2217 29.91 19.3384 29.6633 19.5051 29.47C19.6717 29.2767 19.8684 29.1333 20.0951 29.04C20.3217 28.94 20.5584 28.89 20.8051 28.89C20.9051 28.89 20.9917 28.8933 21.0651 28.9C21.1451 28.9067 21.2184 28.9233 21.2851 28.95L21.2751 29.67C21.1751 29.6367 21.0817 29.6167 20.9951 29.61C20.9151 29.5967 20.8217 29.59 20.7151 29.59C20.4217 29.59 20.1651 29.66 19.9451 29.8C19.7317 29.94 19.5684 30.12 19.4551 30.34C19.3484 30.56 19.2951 30.7933 19.2951 31.04V34H18.4751ZM24.8253 34V26.95H29.3253V27.63H25.6353V30.08H29.1053V30.77H25.6353V33.31H29.3253V34H24.8253ZM29.9342 34L32.1842 31.21V31.61L30.0542 28.98H31.0342L32.6442 31.03H32.3542L33.9542 28.98H34.9242L32.8242 31.6V31.23L35.0542 34H34.0642L32.3442 31.81H32.6442L30.9042 34H29.9342ZM35.9658 36.16V30.14C35.9658 29.9533 35.9558 29.7633 35.9358 29.57C35.9224 29.37 35.9058 29.1733 35.8858 28.98H36.6658L36.7758 30.17H36.6558C36.7624 29.7767 36.9791 29.4667 37.3058 29.24C37.6324 29.0067 38.0224 28.89 38.4758 28.89C38.9291 28.89 39.3191 28.9933 39.6458 29.2C39.9791 29.4067 40.2391 29.7033 40.4258 30.09C40.6124 30.4767 40.7058 30.9433 40.7058 31.49C40.7058 32.03 40.6124 32.4933 40.4258 32.88C40.2458 33.2667 39.9891 33.5667 39.6558 33.78C39.3224 33.9867 38.9291 34.09 38.4758 34.09C38.0291 34.09 37.6424 33.9767 37.3158 33.75C36.9891 33.5233 36.7724 33.2133 36.6658 32.82H36.7758V36.16H35.9658ZM38.3158 33.43C38.7958 33.43 39.1758 33.2667 39.4558 32.94C39.7424 32.6067 39.8858 32.1233 39.8858 31.49C39.8858 30.85 39.7424 30.3667 39.4558 30.04C39.1758 29.7067 38.7958 29.54 38.3158 29.54C37.8424 29.54 37.4624 29.7067 37.1758 30.04C36.8958 30.3667 36.7558 30.85 36.7558 31.49C36.7558 32.1233 36.8958 32.6067 37.1758 32.94C37.4624 33.2667 37.8424 33.43 38.3158 33.43ZM44.1919 34.09C43.4052 34.09 42.7852 33.8633 42.3319 33.41C41.8785 32.95 41.6519 32.3133 41.6519 31.5C41.6519 30.9733 41.7519 30.5167 41.9519 30.13C42.1519 29.7367 42.4319 29.4333 42.7919 29.22C43.1519 29 43.5652 28.89 44.0319 28.89C44.4919 28.89 44.8785 28.9867 45.1919 29.18C45.5052 29.3733 45.7452 29.65 45.9119 30.01C46.0785 30.3633 46.1619 30.7833 46.1619 31.27V31.57H42.2719V31.06H45.6319L45.4619 31.19C45.4619 30.6567 45.3419 30.24 45.1019 29.94C44.8619 29.64 44.5052 29.49 44.0319 29.49C43.5319 29.49 43.1419 29.6667 42.8619 30.02C42.5819 30.3667 42.4419 30.8367 42.4419 31.43V31.52C42.4419 32.1467 42.5952 32.6233 42.9019 32.95C43.2152 33.27 43.6519 33.43 44.2119 33.43C44.5119 33.43 44.7919 33.3867 45.0519 33.3C45.3185 33.2067 45.5719 33.0567 45.8119 32.85L46.0919 33.42C45.8719 33.6333 45.5919 33.8 45.2519 33.92C44.9185 34.0333 44.5652 34.09 44.1919 34.09ZM47.3813 34V30.19C47.3813 29.99 47.3747 29.7867 47.3613 29.58C47.3547 29.3733 47.3413 29.1733 47.3213 28.98H48.1013L48.2013 30.2L48.0613 30.21C48.128 29.91 48.2447 29.6633 48.4113 29.47C48.578 29.2767 48.7747 29.1333 49.0013 29.04C49.228 28.94 49.4647 28.89 49.7113 28.89C49.8113 28.89 49.898 28.8933 49.9713 28.9C50.0513 28.9067 50.1247 28.9233 50.1913 28.95L50.1813 29.67C50.0813 29.6367 49.988 29.6167 49.9013 29.61C49.8213 29.5967 49.728 29.59 49.6213 29.59C49.328 29.59 49.0713 29.66 48.8513 29.8C48.638 29.94 48.4747 30.12 48.3613 30.34C48.2547 30.56 48.2013 30.7933 48.2013 31.04V34H47.3813ZM51.0341 34V28.98H51.8441V34H51.0341ZM50.9341 27.84V26.93H51.9341V27.84H50.9341ZM55.647 34.09C54.8603 34.09 54.2403 33.8633 53.787 33.41C53.3336 32.95 53.107 32.3133 53.107 31.5C53.107 30.9733 53.207 30.5167 53.407 30.13C53.607 29.7367 53.887 29.4333 54.247 29.22C54.607 29 55.0203 28.89 55.487 28.89C55.947 28.89 56.3336 28.9867 56.647 29.18C56.9603 29.3733 57.2003 29.65 57.367 30.01C57.5336 30.3633 57.617 30.7833 57.617 31.27V31.57H53.727V31.06H57.087L56.917 31.19C56.917 30.6567 56.797 30.24 56.557 29.94C56.317 29.64 55.9603 29.49 55.487 29.49C54.987 29.49 54.597 29.6667 54.317 30.02C54.037 30.3667 53.897 30.8367 53.897 31.43V31.52C53.897 32.1467 54.0503 32.6233 54.357 32.95C54.6703 33.27 55.107 33.43 55.667 33.43C55.967 33.43 56.247 33.3867 56.507 33.3C56.7736 33.2067 57.027 33.0567 57.267 32.85L57.547 33.42C57.327 33.6333 57.047 33.8 56.707 33.92C56.3736 34.0333 56.0203 34.09 55.647 34.09ZM58.8564 34V30.14C58.8564 29.9533 58.8464 29.7633 58.8264 29.57C58.8131 29.37 58.7964 29.1733 58.7764 28.98H59.5564L59.6564 30.08H59.5364C59.6831 29.6933 59.9164 29.4 60.2364 29.2C60.5631 28.9933 60.9397 28.89 61.3664 28.89C61.9597 28.89 62.4064 29.05 62.7064 29.37C63.0131 29.6833 63.1664 30.18 63.1664 30.86V34H62.3564V30.91C62.3564 30.4367 62.2597 30.0933 62.0664 29.88C61.8797 29.66 61.5864 29.55 61.1864 29.55C60.7197 29.55 60.3497 29.6933 60.0764 29.98C59.8031 30.2667 59.6664 30.65 59.6664 31.13V34H58.8564ZM66.8258 34.09C66.3324 34.09 65.9024 33.9833 65.5358 33.77C65.1758 33.5567 64.8958 33.2533 64.6958 32.86C64.5024 32.4667 64.4058 32 64.4058 31.46C64.4058 30.9133 64.5058 30.45 64.7058 30.07C64.9058 29.6833 65.1858 29.39 65.5458 29.19C65.9124 28.99 66.3391 28.89 66.8258 28.89C67.1458 28.89 67.4558 28.9467 67.7558 29.06C68.0624 29.1733 68.3158 29.3333 68.5158 29.54L68.2258 30.12C68.0258 29.9267 67.8058 29.7833 67.5658 29.69C67.3324 29.5967 67.1024 29.55 66.8758 29.55C66.3558 29.55 65.9524 29.7133 65.6658 30.04C65.3791 30.3667 65.2358 30.8433 65.2358 31.47C65.2358 32.09 65.3791 32.57 65.6658 32.91C65.9524 33.25 66.3558 33.42 66.8758 33.42C67.0958 33.42 67.3224 33.3767 67.5558 33.29C67.7958 33.2033 68.0191 33.06 68.2258 32.86L68.5158 33.43C68.3091 33.6433 68.0524 33.8067 67.7458 33.92C67.4391 34.0333 67.1324 34.09 66.8258 34.09ZM71.7993 34.09C71.0126 34.09 70.3926 33.8633 69.9393 33.41C69.486 32.95 69.2593 32.3133 69.2593 31.5C69.2593 30.9733 69.3593 30.5167 69.5593 30.13C69.7593 29.7367 70.0393 29.4333 70.3993 29.22C70.7593 29 71.1726 28.89 71.6393 28.89C72.0993 28.89 72.486 28.9867 72.7993 29.18C73.1126 29.3733 73.3526 29.65 73.5193 30.01C73.686 30.3633 73.7693 30.7833 73.7693 31.27V31.57H69.8793V31.06H73.2393L73.0693 31.19C73.0693 30.6567 72.9493 30.24 72.7093 29.94C72.4693 29.64 72.1126 29.49 71.6393 29.49C71.1393 29.49 70.7493 29.6667 70.4693 30.02C70.1893 30.3667 70.0493 30.8367 70.0493 31.43V31.52C70.0493 32.1467 70.2026 32.6233 70.5093 32.95C70.8226 33.27 71.2593 33.43 71.8193 33.43C72.1193 33.43 72.3993 33.3867 72.6593 33.3C72.926 33.2067 73.1793 33.0567 73.4193 32.85L73.6993 33.42C73.4793 33.6333 73.1993 33.8 72.8593 33.92C72.526 34.0333 72.1726 34.09 71.7993 34.09ZM77.7062 34V26.95H80.0462C80.8262 26.95 81.4862 27.0867 82.0262 27.36C82.5662 27.6267 82.9762 28.0233 83.2562 28.55C83.5362 29.07 83.6762 29.71 83.6762 30.47C83.6762 31.2233 83.5362 31.8633 83.2562 32.39C82.9762 32.9167 82.5662 33.3167 82.0262 33.59C81.4862 33.8633 80.8262 34 80.0462 34H77.7062ZM78.5362 33.29H79.9862C80.9462 33.29 81.6595 33.0567 82.1262 32.59C82.5928 32.1167 82.8262 31.41 82.8262 30.47C82.8262 29.5233 82.5928 28.8167 82.1262 28.35C81.6595 27.8833 80.9462 27.65 79.9862 27.65H78.5362V33.29ZM87.3169 34.09C86.5302 34.09 85.9102 33.8633 85.4569 33.41C85.0035 32.95 84.7769 32.3133 84.7769 31.5C84.7769 30.9733 84.8769 30.5167 85.0769 30.13C85.2769 29.7367 85.5569 29.4333 85.9169 29.22C86.2769 29 86.6902 28.89 87.1569 28.89C87.6169 28.89 88.0035 28.9867 88.3169 29.18C88.6302 29.3733 88.8702 29.65 89.0369 30.01C89.2035 30.3633 89.2869 30.7833 89.2869 31.27V31.57H85.3969V31.06H88.7569L88.5869 31.19C88.5869 30.6567 88.4669 30.24 88.2269 29.94C87.9869 29.64 87.6302 29.49 87.1569 29.49C86.6569 29.49 86.2669 29.6667 85.9869 30.02C85.7069 30.3667 85.5669 30.8367 85.5669 31.43V31.52C85.5669 32.1467 85.7202 32.6233 86.0269 32.95C86.3402 33.27 86.7769 33.43 87.3369 33.43C87.6369 33.43 87.9169 33.3867 88.1769 33.3C88.4435 33.2067 88.6969 33.0567 88.9369 32.85L89.2169 33.42C88.9969 33.6333 88.7169 33.8 88.3769 33.92C88.0435 34.0333 87.6902 34.09 87.3169 34.09ZM92.1963 34.09C91.7963 34.09 91.423 34.0367 91.0763 33.93C90.7297 33.8167 90.443 33.66 90.2163 33.46L90.4963 32.89C90.743 33.0833 91.0097 33.2267 91.2963 33.32C91.5897 33.4133 91.893 33.46 92.2063 33.46C92.6063 33.46 92.9063 33.39 93.1063 33.25C93.313 33.1033 93.4163 32.9033 93.4163 32.65C93.4163 32.4567 93.3497 32.3033 93.2163 32.19C93.0897 32.07 92.8797 31.9767 92.5863 31.91L91.6563 31.72C91.2297 31.6267 90.9097 31.47 90.6963 31.25C90.483 31.0233 90.3763 30.7367 90.3763 30.39C90.3763 30.0967 90.453 29.84 90.6063 29.62C90.7597 29.3933 90.983 29.2167 91.2763 29.09C91.5697 28.9567 91.913 28.89 92.3063 28.89C92.673 28.89 93.0097 28.9467 93.3163 29.06C93.6297 29.1667 93.8897 29.3233 94.0963 29.53L93.8063 30.09C93.6063 29.8967 93.3763 29.7533 93.1163 29.66C92.863 29.56 92.5997 29.51 92.3263 29.51C91.933 29.51 91.6363 29.59 91.4363 29.75C91.243 29.9033 91.1463 30.1067 91.1463 30.36C91.1463 30.5533 91.2063 30.7133 91.3263 30.84C91.453 30.96 91.6463 31.05 91.9063 31.11L92.8363 31.3C93.2897 31.4 93.6263 31.5567 93.8463 31.77C94.073 31.9767 94.1863 32.2567 94.1863 32.61C94.1863 32.91 94.103 33.1733 93.9363 33.4C93.7697 33.62 93.5363 33.79 93.2363 33.91C92.943 34.03 92.5963 34.09 92.1963 34.09ZM95.4873 34V28.98H96.2973V34H95.4873ZM95.3873 27.84V26.93H96.3873V27.84H95.3873ZM100.08 36.23C99.6467 36.23 99.2467 36.1767 98.8801 36.07C98.5134 35.9633 98.1834 35.8 97.8901 35.58L98.1301 34.97C98.3367 35.1167 98.5401 35.2333 98.7401 35.32C98.9401 35.4067 99.1467 35.47 99.3601 35.51C99.5734 35.5567 99.8001 35.58 100.04 35.58C100.533 35.58 100.907 35.45 101.16 35.19C101.413 34.93 101.54 34.56 101.54 34.08V32.61H101.64C101.533 33.0033 101.313 33.3167 100.98 33.55C100.647 33.7767 100.257 33.89 99.8101 33.89C99.3501 33.89 98.9501 33.79 98.6101 33.59C98.2767 33.3833 98.0167 33.0933 97.8301 32.72C97.6501 32.34 97.5601 31.8933 97.5601 31.38C97.5601 30.8733 97.6501 30.4333 97.8301 30.06C98.0167 29.6867 98.2767 29.4 98.6101 29.2C98.9501 28.9933 99.3501 28.89 99.8101 28.89C100.263 28.89 100.653 29.0033 100.98 29.23C101.313 29.4567 101.533 29.77 101.64 30.17L101.54 30.07L101.63 28.98H102.42C102.393 29.1733 102.373 29.37 102.36 29.57C102.347 29.7633 102.34 29.9533 102.34 30.14V33.97C102.34 34.7167 102.147 35.28 101.76 35.66C101.38 36.04 100.82 36.23 100.08 36.23ZM99.9601 33.23C100.447 33.23 100.83 33.07 101.11 32.75C101.39 32.4233 101.53 31.9667 101.53 31.38C101.53 30.7933 101.39 30.34 101.11 30.02C100.83 29.7 100.447 29.54 99.9601 29.54C99.4801 29.54 99.0967 29.7 98.8101 30.02C98.5234 30.34 98.3801 30.7933 98.3801 31.38C98.3801 31.9667 98.5234 32.4233 98.8101 32.75C99.0967 33.07 99.4801 33.23 99.9601 33.23ZM103.895 34V30.14C103.895 29.9533 103.885 29.7633 103.865 29.57C103.852 29.37 103.835 29.1733 103.815 28.98H104.595L104.695 30.08H104.575C104.722 29.6933 104.955 29.4 105.275 29.2C105.602 28.9933 105.979 28.89 106.405 28.89C106.999 28.89 107.445 29.05 107.745 29.37C108.052 29.6833 108.205 30.18 108.205 30.86V34H107.395V30.91C107.395 30.4367 107.299 30.0933 107.105 29.88C106.919 29.66 106.625 29.55 106.225 29.55C105.759 29.55 105.389 29.6933 105.115 29.98C104.842 30.2667 104.705 30.65 104.705 31.13V34H103.895Z" fill="#949494"/>
</svg>
