<svg width="186" height="26" viewBox="0 0 186 26" fill="none" xmlns="http://www.w3.org/2000/svg">
<path d="M64.7595 21.1365C63.1822 21.1365 61.7565 20.7877 60.4825 20.09C59.2237 19.3923 58.2303 18.4292 57.5023 17.2007C56.7894 15.9571 56.433 14.5693 56.433 13.0375C56.433 11.5057 56.7894 10.1255 57.5023 8.897C58.2303 7.65333 59.2313 6.68267 60.5053 5.985C61.7793 5.28733 63.2049 4.9385 64.7823 4.9385C65.9653 4.9385 67.0573 5.13567 68.0583 5.53C69.0593 5.92433 69.9086 6.50067 70.6063 7.259L69.537 8.32825C68.2933 7.06942 66.7236 6.44 64.8278 6.44C63.5689 6.44 62.4238 6.72817 61.3925 7.3045C60.3612 7.88083 59.5498 8.6695 58.9583 9.6705C58.3819 10.6715 58.0938 11.7938 58.0938 13.0375C58.0938 14.2812 58.3819 15.4035 58.9583 16.4045C59.5498 17.4055 60.3612 18.1942 61.3925 18.7705C62.4238 19.3468 63.5689 19.635 64.8278 19.635C66.7388 19.635 68.3085 18.998 69.537 17.724L70.6063 18.7932C69.9086 19.5516 69.0517 20.1355 68.0355 20.545C67.0345 20.9393 65.9425 21.1365 64.7595 21.1365ZM79.9508 8.9425C81.4523 8.9425 82.6429 9.38233 83.5226 10.262C84.4174 11.1265 84.8648 12.3929 84.8648 14.0612V21H83.2496V14.2205C83.2496 12.9768 82.9386 12.0289 82.3168 11.3767C81.695 10.7246 80.8077 10.3985 79.6551 10.3985C78.3659 10.3985 77.3421 10.7852 76.5838 11.5587C75.8406 12.3171 75.4691 13.3712 75.4691 14.721V21H73.8538V4.1195H75.4691V11.1265C75.9089 10.4288 76.5156 9.89042 77.2891 9.51125C78.0626 9.13208 78.9498 8.9425 79.9508 8.9425ZM90.7971 11.3767C91.1762 10.5729 91.7374 9.96625 92.4806 9.55675C93.2389 9.14725 94.1716 8.9425 95.2788 8.9425V10.5122L94.8921 10.4895C93.6332 10.4895 92.6474 10.8762 91.9346 11.6497C91.2217 12.4232 90.8653 13.5077 90.8653 14.903V21H89.2501V9.0335H90.7971V11.3767ZM98.2034 9.0335H99.8187V21H98.2034V9.0335ZM99.0224 6.41725C98.6888 6.41725 98.4082 6.3035 98.1807 6.076C97.9532 5.8485 97.8394 5.5755 97.8394 5.257C97.8394 4.95367 97.9532 4.68825 98.1807 4.46075C98.4082 4.23325 98.6888 4.1195 99.0224 4.1195C99.3561 4.1195 99.6367 4.23325 99.8642 4.46075C100.092 4.67308 100.205 4.93092 100.205 5.23425C100.205 5.56792 100.092 5.8485 99.8642 6.076C99.6367 6.3035 99.3561 6.41725 99.0224 6.41725ZM107.521 21.1138C106.55 21.1138 105.617 20.9773 104.723 20.7042C103.843 20.4161 103.153 20.0597 102.652 19.635L103.38 18.361C103.881 18.7553 104.51 19.0814 105.269 19.3392C106.027 19.5819 106.816 19.7032 107.635 19.7032C108.727 19.7032 109.53 19.5364 110.046 19.2027C110.577 18.8539 110.842 18.3686 110.842 17.7467C110.842 17.3069 110.698 16.9657 110.41 16.723C110.122 16.4652 109.758 16.2756 109.318 16.1542C108.878 16.0177 108.294 15.8888 107.566 15.7675C106.596 15.5855 105.815 15.4035 105.223 15.2215C104.632 15.0243 104.123 14.6982 103.699 14.2432C103.289 13.7882 103.085 13.1588 103.085 12.355C103.085 11.354 103.502 10.535 104.336 9.898C105.17 9.261 106.33 8.9425 107.817 8.9425C108.59 8.9425 109.364 9.04867 110.137 9.261C110.911 9.45817 111.548 9.72358 112.048 10.0572L111.343 11.354C110.357 10.6715 109.182 10.3302 107.817 10.3302C106.785 10.3302 106.004 10.5122 105.473 10.8762C104.958 11.2402 104.7 11.718 104.7 12.3095C104.7 12.7645 104.844 13.1285 105.132 13.4015C105.435 13.6745 105.807 13.8792 106.247 14.0157C106.687 14.1371 107.293 14.266 108.067 14.4025C109.022 14.5845 109.788 14.7665 110.365 14.9485C110.941 15.1305 111.434 15.4414 111.843 15.8812C112.253 16.3211 112.458 16.9277 112.458 17.7012C112.458 18.7477 112.018 19.5819 111.138 20.2037C110.274 20.8104 109.068 21.1138 107.521 21.1138ZM121.745 20.272C121.442 20.545 121.063 20.7573 120.608 20.909C120.168 21.0455 119.705 21.1138 119.22 21.1138C118.098 21.1138 117.233 20.8104 116.627 20.2037C116.02 19.5971 115.717 18.7402 115.717 17.633V10.3985H113.578V9.0335H115.717V6.41725H117.332V9.0335H120.972V10.3985H117.332V17.542C117.332 18.2548 117.506 18.8008 117.855 19.18C118.219 19.544 118.735 19.726 119.402 19.726C119.736 19.726 120.054 19.6729 120.358 19.5667C120.676 19.4606 120.949 19.3089 121.177 19.1117L121.745 20.272ZM134.519 9.0335L128.536 22.4333C128.051 23.5556 127.489 24.3518 126.852 24.822C126.215 25.2922 125.45 25.5273 124.555 25.5273C123.978 25.5273 123.44 25.4363 122.939 25.2543C122.439 25.0723 122.007 24.7993 121.643 24.4353L122.393 23.2295C123 23.8362 123.728 24.1395 124.577 24.1395C125.123 24.1395 125.586 23.9878 125.965 23.6845C126.36 23.3812 126.724 22.8655 127.057 22.1375L127.58 20.9772L122.234 9.0335H123.918L128.422 19.2027L132.927 9.0335H134.519ZM164.952 5.075L159.583 21H157.809L153.145 7.41825L148.458 21H146.707L141.338 5.075H143.067L147.662 18.7705L152.417 5.075H153.987L158.673 18.8387L163.337 5.075H164.952ZM177.206 15.5172H167.196C167.287 16.7609 167.765 17.7695 168.629 18.543C169.494 19.3013 170.586 19.6805 171.905 19.6805C172.649 19.6805 173.331 19.5516 173.953 19.2937C174.575 19.0207 175.113 18.6264 175.568 18.1107L176.478 19.1572C175.947 19.7942 175.28 20.2796 174.476 20.6132C173.688 20.9469 172.815 21.1138 171.86 21.1138C170.631 21.1138 169.539 20.8559 168.584 20.3402C167.644 19.8094 166.908 19.0814 166.377 18.1562C165.846 17.2311 165.581 16.1846 165.581 15.0167C165.581 13.8489 165.831 12.8024 166.332 11.8772C166.847 10.9521 167.545 10.2317 168.425 9.716C169.32 9.20033 170.321 8.9425 171.428 8.9425C172.535 8.9425 173.528 9.20033 174.408 9.716C175.288 10.2317 175.978 10.9521 176.478 11.8772C176.979 12.7872 177.229 13.8337 177.229 15.0167L177.206 15.5172ZM171.428 10.3302C170.275 10.3302 169.304 10.7018 168.516 11.445C167.742 12.173 167.302 13.1285 167.196 14.3115H175.682C175.576 13.1285 175.128 12.173 174.34 11.445C173.566 10.7018 172.596 10.3302 171.428 10.3302ZM180.517 9.0335H182.132V21H180.517V9.0335ZM181.336 6.41725C181.002 6.41725 180.721 6.3035 180.494 6.076C180.266 5.8485 180.153 5.5755 180.153 5.257C180.153 4.95367 180.266 4.68825 180.494 4.46075C180.721 4.23325 181.002 4.1195 181.336 4.1195C181.669 4.1195 181.95 4.23325 182.177 4.46075C182.405 4.67308 182.519 4.93092 182.519 5.23425C182.519 5.56792 182.405 5.8485 182.177 6.076C181.95 6.3035 181.669 6.41725 181.336 6.41725Z" fill="black"/>
<path d="M15.6256 0.0937101L19.3338 0.0832979L24.1791 17.4556L24.8832 20.5165L25.6589 17.4514L30.6369 0.0515606L34.06 0.0419493L39.0835 17.4137L39.8949 20.5983L40.6524 17.4093L45.4344 0.0100118L49 0L41.5467 24.6657L38.1236 24.6753L32.8506 7.33963L32.2559 5.12823L31.6917 7.34289L26.571 24.7078L23.1479 24.7174L15.6256 0.0937101Z" fill="url(#paint0_linear)"/>
<path d="M17.9709 24.7381C16.7943 24.9506 15.2075 25.0568 13.2108 25.0568C11.2259 25.0568 9.43117 24.7853 7.82662 24.2424C6.23396 23.6995 4.86118 22.8969 3.70828 21.8346C1.23609 19.5566 0 16.3816 0 12.3096C0 9.6539 0.635876 7.35231 1.90763 5.40482C3.63103 2.77275 6.27556 1.09672 9.84122 0.376735C10.9347 0.164281 12.2362 0.0580541 13.7456 0.0580541C15.267 0.0580541 16.4852 0.140675 17.4004 0.305917V3.68748C16.5684 3.42781 15.2788 3.29798 13.5317 3.29798C11.7964 3.29798 10.3226 3.51043 9.11026 3.93534C7.89793 4.36025 6.89361 4.9681 6.09728 5.75891C4.50462 7.3051 3.70828 9.48866 3.70828 12.3096C3.70828 15.1541 4.49273 17.4085 6.06162 19.0727C7.76125 20.8668 10.2037 21.7638 13.389 21.7638C15.2551 21.7638 16.7824 21.6221 17.9709 21.3389V24.7381Z" fill="url(#paint1_linear)"/>
<path d="M14.0027 13.3223C14.0027 14.5739 12.981 15.5885 11.7207 15.5885C10.4604 15.5885 9.43869 14.5739 9.43869 13.3223C9.43869 12.0707 10.4604 11.0561 11.7207 11.0561C12.981 11.0561 14.0027 12.0707 14.0027 13.3223Z" fill="url(#paint2_linear)"/>
<defs>
<linearGradient id="paint0_linear" x1="-3.0625" y1="-1.39205" x2="33.6875" y2="28.1193" gradientUnits="userSpaceOnUse">
<stop stop-color="#FF6373"/>
<stop offset="1" stop-color="#FF946D"/>
</linearGradient>
<linearGradient id="paint1_linear" x1="-3.0625" y1="-1.39205" x2="33.6875" y2="28.1193" gradientUnits="userSpaceOnUse">
<stop stop-color="#FF6373"/>
<stop offset="1" stop-color="#FF946D"/>
</linearGradient>
<linearGradient id="paint2_linear" x1="-3.0625" y1="-1.39205" x2="33.6875" y2="28.1193" gradientUnits="userSpaceOnUse">
<stop stop-color="#FF6373"/>
<stop offset="1" stop-color="#FF946D"/>
</linearGradient>
</defs>
</svg>
