<svg width="73" height="31" viewBox="0 0 73 31" fill="none" xmlns="http://www.w3.org/2000/svg">
<path d="M20.64 14.88C19.04 14.88 17.6933 14.52 16.6 13.8C15.5067 13.0533 14.96 12.12 14.96 11C14.96 9.58667 15.88 8.17333 17.72 6.76C18.04 6.52 18.28 6.4 18.44 6.4C18.6 6.4 18.68 6.45333 18.68 6.56C18.68 6.82667 18.4667 7.04 18.04 7.2C16.5467 8.4 15.8 9.61333 15.8 10.84C15.8 11.72 16.2 12.4667 17 13.08C17.8 13.6667 18.8 13.96 20 13.96C22.6133 13.96 25.08 12.7067 27.4 10.2C28.6 8.89333 29.2 7.38667 29.2 5.68C29.2 3.97333 28.56 2.70667 27.28 1.88C26.2133 1.13333 24.7733 0.759998 22.96 0.759998C20.3467 0.759998 17.72 1.41333 15.08 2.72C11.8267 4.29333 8.88 6.74667 6.24 10.08C3.62667 13.3867 2.32 16.5733 2.32 19.64C2.32 22.0667 3.14667 23.9467 4.8 25.28C6.45333 26.5867 8.50667 27.24 10.96 27.24C13.76 27.24 16.5067 26.56 19.2 25.2C21.2533 24.1333 23.0267 22.7733 24.52 21.12C24.9467 20.64 25.28 20.4 25.52 20.4C25.68 20.4 25.76 20.5467 25.76 20.84C25.76 21.1067 25.6133 21.3867 25.32 21.68C23.9067 23.1733 21.8667 24.6133 19.2 26C15.92 27.7333 12.6133 28.6 9.28 28.6C5.97333 28.6 3.50667 27.5067 1.88 25.32C0.786667 23.88 0.24 22.16 0.24 20.16C0.24 19.28 0.346667 18.3333 0.56 17.32C1.28 13.9067 3.17333 10.5867 6.24 7.36C8.45333 5.04 11.08 3.24 14.12 1.96C17.16 0.653332 20.04 -1.43051e-06 22.76 -1.43051e-06C24.2 -1.43051e-06 25.4533 0.173332 26.52 0.519999C29.4267 1.42667 30.88 3.25333 30.88 6C30.88 7.68 30.3867 9.13333 29.4 10.36C26.9467 13.3733 24.0267 14.88 20.64 14.88ZM47.3434 24.92C47.3434 26.7067 48.2368 27.6 50.0234 27.6C52.4234 27.6 55.3168 25.8667 58.7034 22.4C61.7701 19.3067 64.1034 16.16 65.7034 12.96C67.3301 9.73333 68.1434 7.28 68.1434 5.6C68.1434 5.33333 68.1168 5.06667 68.0634 4.8C67.4768 4.8 66.8768 4.49333 66.2634 3.88V3.92C65.8634 3.6 65.6634 3.28 65.6634 2.96C65.6634 2.61333 65.7968 2.33333 66.0634 2.12C66.3301 1.90667 66.6768 1.8 67.1034 1.8C67.5301 1.8 67.8234 1.97333 67.9834 2.32C68.1701 2.64 68.3968 2.93333 68.6634 3.2C68.9301 3.46667 69.0501 3.65333 69.0234 3.76C69.1834 4 69.4234 4.12 69.7434 4.12C70.0901 4.12 70.4768 3.96 70.9034 3.64C71.3301 3.32 71.6634 3.16 71.9034 3.16C72.1701 3.16 72.3034 3.24 72.3034 3.4C72.3034 3.69333 72.0501 3.97333 71.5434 4.24C71.2768 4.45333 70.9568 4.57333 70.5834 4.6H69.3034C69.6234 5.69333 69.7834 6.48 69.7834 6.96C69.7834 9.09333 68.7568 11.8667 66.7034 15.28C64.6768 18.6933 62.0634 21.72 58.8634 24.36C55.6368 27.08 52.7034 28.44 50.0634 28.44C47.4501 28.44 46.1434 27.16 46.1434 24.6C46.1434 22.5733 46.9968 19.68 48.7034 15.92L51.5834 9.64L47.6634 12.68C46.4368 13.6933 45.1834 14.8133 43.9034 16.04C42.6501 17.24 40.4501 19.7333 37.3034 23.52L32.6634 29.2C31.9168 30.0533 31.2501 30.48 30.6634 30.48C30.2101 30.48 29.9834 30.1867 29.9834 29.6C29.9834 29.0133 30.2234 28.2533 30.7034 27.32L38.4234 16.2C43.0901 9.34667 45.4234 5 45.4234 3.16C45.4234 2.14667 44.4901 1.64 42.6234 1.64C40.3568 1.64 37.1968 3.02667 33.1434 5.8C30.9568 7.29333 29.0368 9.17333 27.3834 11.44C25.7301 13.68 24.9034 15.5467 24.9034 17.04C24.9034 18.5067 25.8901 19.24 27.8634 19.24C29.7034 19.24 31.5968 18.3867 33.5434 16.68C34.2368 16.0933 34.6368 15.8 34.7434 15.8C34.8501 15.8 34.8901 15.8933 34.8634 16.08C34.5701 17.0933 33.4768 18.0667 31.5834 19C29.7168 19.9067 28.0634 20.36 26.6234 20.36C26.2501 20.36 25.9968 20.3467 25.8634 20.32H25.8234C23.6901 19.8667 22.6234 18.8133 22.6234 17.16C22.6234 15.5067 23.5434 13.52 25.3834 11.2C28.6368 7.09333 32.8234 4.04 37.9434 2.04C40.5834 1.02667 42.7568 0.519999 44.4634 0.519999C46.5701 0.519999 47.6234 1.21333 47.6234 2.6C47.6234 5.48 43.9968 11.7333 36.7434 21.36C34.3168 24.5867 33.0901 26.2 33.0634 26.2C33.1434 26.2 34.5301 24.6933 37.2234 21.68C39.9434 18.6667 42.5168 16.0933 44.9434 13.96C45.8768 13.1333 47.4901 11.6133 49.7834 9.4C50.9834 8.28 52.2768 7.26667 53.6634 6.36C54.0101 6.14667 54.5034 6.04 55.1434 6.04C55.8101 6.04 56.2634 6.22667 56.5034 6.6C54.0501 9.64 51.9034 13.0533 50.0634 16.84C48.2501 20.6 47.3434 23.2933 47.3434 24.92ZM70.5834 4.6H70.6234H70.5834Z" fill="white"/>
</svg>
