<svg width="84" height="93" viewBox="0 0 84 93" fill="none" xmlns="http://www.w3.org/2000/svg">
<path fill-rule="evenodd" clip-rule="evenodd" d="M61.8677 28.1214C69.0476 27.0198 73.9752 20.3063 72.8737 13.1264C71.7721 5.94639 65.0586 1.01884 57.8787 2.12037C52.4957 2.94621 48.3788 6.92641 47.1194 11.8927L46.8939 11.5743C46.0012 17.2404 43.4019 27.6446 40.0474 30.4924C38.2523 32.0163 34.0247 34.2442 29.7166 36.0595C26.8198 34.6109 23.462 34.0137 20.017 34.5422C11.165 35.9002 5.08996 44.1771 6.44802 53.0292C7.80607 61.8812 16.083 67.9563 24.935 66.5982C27.8144 66.1564 30.4 64.9826 32.5316 63.295C35.3773 63.4224 37.851 63.8824 39.3265 64.9052C42.8538 66.9638 45.6615 72.1511 47.7515 76.0123L47.7516 76.0126C48.1528 76.7537 48.5274 77.4459 48.8757 78.0578L49.0966 77.5925C51.3599 82.0459 56.2956 84.7544 61.5027 83.9555C67.9942 82.9596 72.4493 76.8899 71.4533 70.3984C70.4574 63.9069 64.3877 59.4518 57.8962 60.4478C57.6521 60.4852 57.4108 60.5298 57.1726 60.5814L57.3438 60.2207C52.5169 61.6296 43.3256 63.2617 40.9481 62.0224C39.4879 61.7584 37.9451 60.4985 36.4819 58.7432C38.2914 55.6466 39.0903 51.9325 38.504 48.1112C38.134 45.699 37.2501 43.493 35.9808 41.5875C36.5078 38.508 37.843 35.4782 42.0293 32.6545C49.2715 27.7695 53.2913 28.0988 57.0891 28.41L57.0892 28.41L57.0892 28.41L57.0893 28.41C57.536 28.4466 57.9796 28.4829 58.425 28.5105L58.932 28.2426C59.8926 28.3107 60.8757 28.2735 61.8677 28.1214Z" fill="url(#paint0_linear)"/>
<circle cx="22.5309" cy="50.9263" r="16.2155" transform="rotate(-8.72217 22.5309 50.9263)" fill="#8883BB"/>
<circle cx="59.9058" cy="72.3522" r="12.4319" transform="rotate(-8.72217 59.9058 72.3522)" fill="#ED6A7C"/>
<circle cx="59.7219" cy="15.3264" r="13.3328" transform="rotate(-8.72217 59.7219 15.3264)" fill="#9BDFF9"/>
<defs>
<linearGradient id="paint0_linear" x1="7.79638" y1="5.97596" x2="5.04772" y2="92.6166" gradientUnits="userSpaceOnUse">
<stop offset="0.209564" stop-color="#9BDFF9"/>
<stop offset="0.35677" stop-color="#8883BB"/>
<stop offset="0.618577" stop-color="#8883BB"/>
<stop offset="0.699704" stop-color="#ED6A7C"/>
</linearGradient>
</defs>
</svg>
