<svg width="180" height="61" viewBox="0 0 180 61" fill="none" xmlns="http://www.w3.org/2000/svg">
<g clip-path="url(#clip0)">
<path d="M165.666 7.34771e-05H14.3422C13.7906 7.34771e-05 13.2456 7.34772e-05 12.6955 0.0030819C12.235 0.00609032 11.7781 0.0148298 11.3132 0.0221854C10.3031 0.0340714 9.29543 0.122932 8.29888 0.287994C7.30373 0.456651 6.33976 0.774615 5.43956 1.23113C4.54046 1.69152 3.71893 2.28973 3.00477 3.00409C2.28686 3.71643 1.68842 4.53981 1.23248 5.44255C0.775271 6.3435 0.458244 7.30894 0.292343 8.30554C0.124866 9.30089 0.0347448 10.3077 0.0227888 11.317C0.00882972 11.7782 0.00735559 12.2409 0 12.7021V47.4709C0.00735559 47.9379 0.00882972 48.3904 0.0227888 48.8576C0.0347485 49.8668 0.12487 50.8736 0.292343 51.8689C0.457785 52.8661 0.774831 53.8321 1.23248 54.7333C1.68821 55.6332 2.28673 56.4532 3.00477 57.1616C3.71622 57.8791 4.53828 58.4777 5.43956 58.9346C6.33975 59.3923 7.30362 59.7122 8.29888 59.8835C9.2956 60.0472 10.3032 60.1361 11.3132 60.1494C11.7781 60.1596 12.235 60.1655 12.6955 60.1655C13.2456 60.1685 13.7906 60.1685 14.3422 60.1685H165.666C166.207 60.1685 166.756 60.1685 167.296 60.1655C167.755 60.1655 168.225 60.1596 168.683 60.1494C169.691 60.1368 170.697 60.0479 171.692 59.8835C172.69 59.711 173.657 59.3912 174.562 58.9346C175.462 58.4775 176.284 57.8789 176.995 57.1616C177.711 56.4504 178.311 55.631 178.772 54.7333C179.226 53.8314 179.54 52.8655 179.703 51.8689C179.871 50.8734 179.964 49.8669 179.982 48.8576C179.988 48.3904 179.988 47.9379 179.988 47.4709C180 46.9244 180 46.3809 180 45.8256V14.3444C180 13.7936 180 13.2471 179.988 12.7021C179.988 12.2409 179.988 11.7782 179.982 11.3169C179.964 10.3076 179.871 9.30096 179.703 8.30548C179.54 7.30946 179.226 6.34409 178.772 5.44249C177.843 3.63304 176.371 2.16016 174.562 1.231C173.657 0.775596 172.69 0.457715 171.692 0.287859C170.697 0.122069 169.691 0.0331778 168.683 0.0219748C168.225 0.0146342 167.755 0.00581956 167.296 0.00288635C166.756 -0.00012207 166.207 -0.00012207 165.666 -0.00012207V7.34771e-05Z" fill="#A6A6A6"/>
<path d="M12.7031 58.8522C12.2448 58.8522 11.7976 58.8464 11.3428 58.8361C10.4009 58.8239 9.46112 58.7419 8.53127 58.5908C7.66422 58.4415 6.82429 58.1637 6.03918 57.7666C5.26127 57.3729 4.55174 56.8566 3.9378 56.2375C3.31497 55.6257 2.79643 54.9161 2.40274 54.1368C2.00471 53.3525 1.72924 52.5118 1.58595 51.6441C1.4312 50.7116 1.34748 49.7688 1.3355 48.8237C1.32596 48.5064 1.31348 47.4502 1.31348 47.4502V12.702C1.31348 12.702 1.32677 11.662 1.33557 11.3565C1.34704 10.4129 1.43028 9.47147 1.58457 8.54048C1.72813 7.67033 2.0038 6.82721 2.40204 6.04033C2.79429 5.26162 3.30995 4.55151 3.92903 3.93752C4.54741 3.3177 5.2592 2.79872 6.03844 2.39951C6.82175 2.00373 7.6601 1.72791 8.52539 1.58131C9.45829 1.42873 10.4013 1.34624 11.3465 1.33453L12.7038 1.31616H167.289L168.663 1.33527C169.6 1.3464 170.534 1.42815 171.458 1.57984C172.332 1.72828 173.179 2.00602 173.972 2.40392C175.533 3.20844 176.803 4.48127 177.604 6.044C177.996 6.82545 178.268 7.66169 178.409 8.52433C178.566 9.46296 178.653 10.4117 178.671 11.3631C178.675 11.7891 178.675 12.2467 178.675 12.702C178.687 13.2661 178.687 13.803 178.687 14.3443V45.8255C178.687 46.3719 178.687 46.9052 178.675 47.4428C178.675 47.932 178.675 48.3801 178.669 48.8413C178.652 49.7756 178.566 50.7075 178.412 51.6293C178.272 52.5033 177.998 53.3506 177.6 54.1413C177.204 54.9121 176.688 55.6156 176.072 56.2257C175.458 56.8481 174.747 57.3675 173.967 57.7638C173.177 58.1639 172.331 58.4427 171.458 58.5908C170.529 58.7427 169.589 58.8247 168.647 58.8361C168.206 58.8464 167.745 58.8522 167.297 58.8522L165.666 58.8552L12.7031 58.8522Z" fill="black"/>
<path d="M37.2583 30.5365C37.2745 29.281 37.6079 28.05 38.2277 26.958C38.8475 25.866 39.7334 24.9486 40.803 24.291C40.1235 23.3205 39.2271 22.5218 38.1849 21.9584C37.1428 21.395 35.9836 21.0824 34.7995 21.0453C32.2736 20.7802 29.8248 22.5568 28.5376 22.5568C27.2255 22.5568 25.2437 21.0717 23.1097 21.1156C21.7293 21.1602 20.384 21.5616 19.2049 22.2807C18.0258 22.9998 17.053 24.0121 16.3815 25.2189C13.4723 30.2556 15.6423 37.6579 18.429 41.7292C19.8232 43.7228 21.4527 45.9497 23.5849 45.8708C25.6713 45.7842 26.4505 44.5403 28.969 44.5403C31.4642 44.5403 32.1953 45.8708 34.3707 45.8205C36.6095 45.7842 38.0201 43.8181 39.3654 41.8056C40.3672 40.3851 41.138 38.8151 41.6494 37.1538C40.3487 36.6037 39.2387 35.6828 38.4579 34.5061C37.677 33.3294 37.2598 31.9488 37.2583 30.5365V30.5365Z" fill="white"/>
<path d="M33.1491 18.3678C34.3698 16.9023 34.9712 15.0188 34.8256 13.1171C32.9606 13.313 31.2379 14.2043 30.0007 15.6135C29.3958 16.302 28.9325 17.1029 28.6373 17.9704C28.3421 18.838 28.2208 19.7553 28.2803 20.6698C29.2132 20.6794 30.136 20.4772 30.9794 20.0784C31.8227 19.6797 32.5646 19.0948 33.1491 18.3678Z" fill="white"/>
<path d="M63.6328 40.8238H56.5127L54.8029 45.8726H51.7871L58.5311 27.1933H61.6644L68.4083 45.8726H65.3411L63.6328 40.8238ZM57.2501 38.494H62.8939L60.1117 30.3002H60.0339L57.2501 38.494Z" fill="white"/>
<path d="M82.973 39.064C82.973 43.296 80.7078 46.0151 77.2896 46.0151C76.4237 46.0604 75.5625 45.8609 74.8047 45.4395C74.0469 45.0181 73.4231 44.3919 73.0046 43.6324H72.94V50.3779H70.1445V32.2539H72.8504V34.519H72.9018C73.3395 33.7632 73.9738 33.1402 74.7374 32.7162C75.501 32.2923 76.3652 32.0832 77.2382 32.1114C80.6946 32.1114 82.973 34.8437 82.973 39.064ZM80.0997 39.064C80.0997 36.3068 78.6748 34.4941 76.5007 34.4941C74.3649 34.4941 72.9282 36.3449 72.9282 39.064C72.9282 41.808 74.3649 43.6457 76.5007 43.6457C78.6748 43.6457 80.0997 41.8462 80.0997 39.064Z" fill="white"/>
<path d="M97.9622 39.064C97.9622 43.2961 95.6971 46.0151 92.2788 46.0151C91.4129 46.0604 90.5518 45.8609 89.794 45.4396C89.0362 45.0182 88.4123 44.3919 87.9939 43.6324H87.9292V50.3779H85.1338V32.2539H87.8396V34.5191H87.891C88.3287 33.7633 88.963 33.1402 89.7266 32.7163C90.4902 32.2923 91.3545 32.0833 92.2274 32.1115C95.6839 32.1115 97.9622 34.8437 97.9622 39.064ZM95.089 39.064C95.089 36.3068 93.6641 34.4941 91.49 34.4941C89.3541 34.4941 87.9175 36.345 87.9175 39.064C87.9175 41.808 89.3541 43.6457 91.49 43.6457C93.6641 43.6457 95.089 41.8462 95.089 39.064H95.089Z" fill="white"/>
<path d="M107.869 40.6681C108.077 42.5204 109.876 43.7367 112.335 43.7367C114.691 43.7367 116.386 42.5204 116.386 40.8502C116.386 39.4003 115.364 38.5322 112.943 37.9372L110.522 37.354C107.092 36.5255 105.5 34.9214 105.5 32.3184C105.5 29.0956 108.309 26.8818 112.297 26.8818C116.244 26.8818 118.95 29.0956 119.041 32.3184H116.219C116.05 30.4543 114.509 29.3291 112.257 29.3291C110.005 29.3291 108.464 30.4676 108.464 32.1246C108.464 33.4451 109.448 34.2222 111.856 34.8171L113.914 35.3224C117.747 36.2288 119.339 37.7683 119.339 40.5005C119.339 43.9951 116.555 46.1839 112.128 46.1839C107.985 46.1839 105.188 44.0465 105.008 40.6679L107.869 40.6681Z" fill="white"/>
<path d="M125.372 29.031V32.2539H127.962V34.4676H125.372V41.9754C125.372 43.1418 125.89 43.6853 127.029 43.6853C127.336 43.68 127.643 43.6584 127.948 43.6206V45.8211C127.437 45.9168 126.916 45.9601 126.396 45.9504C123.638 45.9504 122.563 44.9148 122.563 42.2736V34.4676H120.583V32.2539H122.563V29.031H125.372Z" fill="white"/>
<path d="M129.461 39.064C129.461 34.779 131.985 32.0864 135.92 32.0864C139.868 32.0864 142.38 34.779 142.38 39.064C142.38 43.3607 139.882 46.0415 135.92 46.0415C131.96 46.0415 129.461 43.3607 129.461 39.064ZM139.532 39.064C139.532 36.1246 138.185 34.3897 135.92 34.3897C133.655 34.3897 132.309 36.1378 132.309 39.064C132.309 42.0151 133.655 43.7367 135.92 43.7367C138.185 43.7367 139.532 42.0151 139.532 39.064H139.532Z" fill="white"/>
<path d="M144.686 32.2539H147.352V34.5719H147.416C147.597 33.8479 148.021 33.2081 148.617 32.76C149.214 32.312 149.947 32.0829 150.692 32.1114C151.014 32.1103 151.336 32.1452 151.65 32.2157V34.8304C151.243 34.7061 150.819 34.6491 150.394 34.6615C149.988 34.645 149.583 34.7166 149.207 34.8714C148.831 35.0261 148.493 35.2604 148.217 35.5581C147.94 35.8557 147.731 36.2098 147.604 36.5959C147.477 36.9819 147.435 37.3909 147.481 37.7948V45.8726H144.686L144.686 32.2539Z" fill="white"/>
<path d="M164.539 41.8726C164.163 44.3449 161.755 46.0415 158.675 46.0415C154.713 46.0415 152.254 43.3871 152.254 39.1286C152.254 34.8569 154.726 32.0864 158.557 32.0864C162.325 32.0864 164.695 34.6747 164.695 38.804V39.7617H155.076V39.9306C155.031 40.4318 155.094 40.9368 155.26 41.4118C155.426 41.8869 155.691 42.3213 156.037 42.6862C156.384 43.051 156.804 43.338 157.27 43.528C157.736 43.7179 158.237 43.8066 158.739 43.7881C159.4 43.85 160.063 43.697 160.63 43.3519C161.196 43.0068 161.636 42.4879 161.884 41.8726L164.539 41.8726ZM155.089 37.808H161.898C161.923 37.3573 161.854 36.9064 161.697 36.4834C161.539 36.0604 161.296 35.6745 160.983 35.3499C160.669 35.0254 160.292 34.7692 159.874 34.5973C159.457 34.4255 159.008 34.3419 158.557 34.3516C158.102 34.3488 157.651 34.4363 157.229 34.6089C156.808 34.7815 156.425 35.0358 156.103 35.3572C155.78 35.6785 155.525 36.0605 155.351 36.4812C155.177 36.9018 155.088 37.3528 155.089 37.808V37.808Z" fill="white"/>
<path d="M56.8982 13.1333C57.4843 13.0912 58.0724 13.1798 58.6201 13.3925C59.1678 13.6053 59.6614 13.9369 60.0654 14.3635C60.4695 14.7902 60.7737 15.3012 60.9564 15.8596C61.139 16.4181 61.1954 17.0101 61.1215 17.593C61.1215 20.4604 59.5717 22.1087 56.8982 22.1087H53.6562V13.1333H56.8982ZM55.0503 20.8394H56.7425C57.1613 20.8644 57.5804 20.7957 57.9693 20.6384C58.3582 20.481 58.7071 20.2389 58.9906 19.9297C59.2742 19.6205 59.4852 19.2519 59.6083 18.8509C59.7314 18.4498 59.7636 18.0264 59.7024 17.6113C59.7592 17.1979 59.7237 16.7771 59.5987 16.379C59.4737 15.9809 59.2622 15.6153 58.9793 15.3086C58.6964 15.0018 58.3491 14.7614 57.9624 14.6047C57.5757 14.4479 57.1592 14.3785 56.7425 14.4017H55.0503V20.8394Z" fill="white"/>
<path d="M62.6968 18.7189C62.6542 18.2738 62.7051 17.8247 62.8462 17.4004C62.9874 16.9761 63.2157 16.586 63.5164 16.2551C63.8172 15.9242 64.1838 15.6598 64.5927 15.4789C65.0016 15.298 65.4438 15.2045 65.891 15.2045C66.3382 15.2045 66.7804 15.298 67.1893 15.4789C67.5982 15.6598 67.9648 15.9242 68.2656 16.2551C68.5663 16.586 68.7946 16.9761 68.9358 17.4004C69.0769 17.8247 69.1278 18.2738 69.0852 18.7189C69.1286 19.1645 69.0783 19.6142 68.9375 20.0392C68.7968 20.4642 68.5686 20.855 68.2678 21.1866C67.967 21.5181 67.6001 21.7831 67.1908 21.9644C66.7814 22.1457 66.3387 22.2393 65.891 22.2393C65.4433 22.2393 65.0006 22.1457 64.5912 21.9644C64.1819 21.7831 63.815 21.5181 63.5142 21.1866C63.2134 20.855 62.9852 20.4642 62.8445 20.0392C62.7037 19.6142 62.6534 19.1645 62.6968 18.7189V18.7189ZM67.7103 18.7189C67.7103 17.2507 67.0507 16.3921 65.8932 16.3921C64.7313 16.3921 64.0776 17.2507 64.0776 18.719C64.0776 20.1989 64.7313 21.0509 65.8932 21.0509C67.0507 21.0509 67.7103 20.193 67.7103 18.7189H67.7103Z" fill="white"/>
<path d="M77.5767 22.1085H76.19L74.7901 17.1199H74.6844L73.2903 22.1085H71.9168L70.0498 15.3351H71.4057L72.619 20.5036H72.7189L74.1115 15.3351H75.3939L76.7864 20.5036H76.8922L78.0997 15.3351H79.4364L77.5767 22.1085Z" fill="white"/>
<path d="M81.0068 15.3352H82.2936V16.4112H82.3935C82.563 16.0247 82.8488 15.7007 83.2111 15.4844C83.5734 15.2681 83.9942 15.1702 84.4148 15.2044C84.7444 15.1796 85.0753 15.2293 85.3831 15.3498C85.6908 15.4703 85.9675 15.6585 86.1927 15.9004C86.4178 16.1424 86.5857 16.4319 86.6837 16.7475C86.7818 17.0631 86.8076 17.3967 86.7593 17.7237V22.1084H85.4225V18.0594C85.4225 16.9709 84.9495 16.4295 83.9609 16.4295C83.7371 16.4191 83.5138 16.4572 83.3061 16.5412C83.0984 16.6252 82.9114 16.7531 82.7578 16.9161C82.6042 17.0791 82.4876 17.2734 82.4161 17.4857C82.3446 17.698 82.3199 17.9233 82.3436 18.146V22.1085H81.0068L81.0068 15.3352Z" fill="white"/>
<path d="M88.8887 12.691H90.2254V22.1085H88.8887V12.691Z" fill="white"/>
<path d="M92.0844 18.7189C92.0419 18.2738 92.0928 17.8247 92.234 17.4003C92.3752 16.976 92.6035 16.5859 92.9043 16.255C93.2051 15.9241 93.5717 15.6597 93.9807 15.4788C94.3896 15.2979 94.8319 15.2044 95.279 15.2044C95.7262 15.2044 96.1685 15.2979 96.5774 15.4788C96.9864 15.6597 97.353 15.9241 97.6538 16.255C97.9546 16.5859 98.1829 16.976 98.3241 17.4003C98.4652 17.8247 98.5162 18.2738 98.4737 18.7189C98.517 19.1645 98.4666 19.6143 98.3258 20.0392C98.185 20.4642 97.9568 20.855 97.6559 21.1866C97.3551 21.5181 96.9882 21.783 96.5788 21.9643C96.1695 22.1456 95.7267 22.2393 95.279 22.2393C94.8313 22.2393 94.3886 22.1456 93.9792 21.9643C93.5699 21.783 93.203 21.5181 92.9021 21.1866C92.6013 20.855 92.3731 20.4642 92.2323 20.0392C92.0914 19.6143 92.0411 19.1645 92.0844 18.7189V18.7189ZM97.098 18.7189C97.098 17.2507 96.4384 16.3921 95.2809 16.3921C94.1189 16.3921 93.4653 17.2507 93.4653 18.719C93.4653 20.1989 94.119 21.0509 95.2809 21.0509C96.4384 21.0509 97.098 20.193 97.098 18.7189H97.098Z" fill="white"/>
<path d="M99.8799 20.193C99.8799 18.9737 100.788 18.2708 102.399 18.171L104.234 18.0652V17.4806C104.234 16.7652 103.761 16.3612 102.847 16.3612C102.101 16.3612 101.584 16.6352 101.436 17.114H100.141C100.278 15.9506 101.372 15.2044 102.909 15.2044C104.607 15.2044 105.565 16.0498 105.565 17.4806V22.1085H104.278V21.1566H104.172C103.957 21.4981 103.656 21.7764 103.299 21.9633C102.941 22.1501 102.541 22.2387 102.138 22.2201C101.853 22.2497 101.566 22.2193 101.294 22.131C101.022 22.0427 100.772 21.8985 100.559 21.7075C100.346 21.5165 100.176 21.283 100.059 21.0222C99.942 20.7613 99.881 20.4789 99.8799 20.193V20.193ZM104.234 19.6142V19.0479L102.58 19.1537C101.647 19.2161 101.224 19.5334 101.224 20.1305C101.224 20.7401 101.753 21.0949 102.48 21.0949C102.693 21.1165 102.908 21.095 103.113 21.0316C103.317 20.9683 103.507 20.8645 103.671 20.7264C103.834 20.5882 103.969 20.4186 104.065 20.2275C104.162 20.0364 104.219 19.8279 104.234 19.6142V19.6142Z" fill="white"/>
<path d="M107.322 18.7189C107.322 16.5787 108.423 15.2228 110.134 15.2228C110.557 15.2033 110.977 15.3047 111.345 15.5151C111.713 15.7256 112.013 16.0363 112.211 16.4111H112.311V12.691H113.648V22.1085H112.367V21.0384H112.261C112.048 21.4106 111.737 21.7176 111.362 21.9259C110.987 22.1342 110.562 22.2359 110.134 22.2201C108.411 22.2202 107.322 20.8643 107.322 18.7189ZM108.703 18.7189C108.703 20.1556 109.38 21.02 110.513 21.02C111.64 21.02 112.336 20.1431 112.336 18.7248C112.336 17.3131 111.632 16.4237 110.513 16.4237C109.388 16.4237 108.703 17.294 108.703 18.7189H108.703Z" fill="white"/>
<path d="M119.178 18.7189C119.136 18.2738 119.187 17.8247 119.328 17.4004C119.469 16.9761 119.697 16.586 119.998 16.2551C120.299 15.9242 120.665 15.6598 121.074 15.4789C121.483 15.298 121.925 15.2045 122.372 15.2045C122.82 15.2045 123.262 15.298 123.671 15.4789C124.08 15.6598 124.446 15.9242 124.747 16.2551C125.048 16.586 125.276 16.9761 125.417 17.4004C125.558 17.8247 125.609 18.2738 125.567 18.7189C125.61 19.1645 125.56 19.6142 125.419 20.0392C125.278 20.4642 125.05 20.855 124.749 21.1866C124.448 21.5181 124.082 21.7831 123.672 21.9644C123.263 22.1457 122.82 22.2393 122.372 22.2393C121.925 22.2393 121.482 22.1457 121.073 21.9644C120.663 21.7831 120.296 21.5181 119.996 21.1866C119.695 20.855 119.467 20.4642 119.326 20.0392C119.185 19.6142 119.135 19.1645 119.178 18.7189V18.7189ZM124.192 18.7189C124.192 17.2507 123.532 16.3921 122.375 16.3921C121.213 16.3921 120.559 17.2507 120.559 18.719C120.559 20.1989 121.213 21.0509 122.375 21.0509C123.532 21.0509 124.192 20.193 124.192 18.7189Z" fill="white"/>
<path d="M127.359 15.3352H128.646V16.4112H128.746C128.916 16.0247 129.201 15.7007 129.564 15.4844C129.926 15.2681 130.347 15.1702 130.767 15.2044C131.097 15.1796 131.428 15.2293 131.736 15.3498C132.043 15.4703 132.32 15.6585 132.545 15.9004C132.77 16.1424 132.938 16.4319 133.036 16.7475C133.134 17.0631 133.16 17.3967 133.112 17.7237V22.1084H131.775V18.0594C131.775 16.9709 131.302 16.4295 130.313 16.4295C130.09 16.4191 129.866 16.4572 129.659 16.5412C129.451 16.6252 129.264 16.7531 129.11 16.9161C128.957 17.0791 128.84 17.2734 128.769 17.4857C128.697 17.698 128.672 17.9233 128.696 18.146V22.1085H127.359V15.3352Z" fill="white"/>
<path d="M140.665 13.6488V15.366H142.133V16.492H140.665V19.9749C140.665 20.6844 140.958 20.9951 141.623 20.9951C141.794 20.9945 141.964 20.9842 142.133 20.9642V22.0777C141.893 22.1206 141.65 22.1435 141.406 22.146C139.919 22.146 139.327 21.623 139.327 20.3171V16.4919H138.252V15.366H139.327V13.6488H140.665Z" fill="white"/>
<path d="M143.96 12.691H145.285V16.4237H145.391C145.568 16.0336 145.862 15.7078 146.232 15.4907C146.601 15.2735 147.029 15.1756 147.456 15.2103C147.784 15.1925 148.112 15.2472 148.416 15.3706C148.72 15.494 148.993 15.6831 149.216 15.9242C149.439 16.1654 149.606 16.4528 149.705 16.7659C149.804 17.079 149.832 17.41 149.789 17.7354V22.1085H148.451V18.0652C148.451 16.9833 147.947 16.4354 147.002 16.4354C146.772 16.4166 146.541 16.4481 146.325 16.5279C146.109 16.6077 145.913 16.7338 145.75 16.8974C145.588 17.061 145.463 17.2581 145.385 17.4749C145.306 17.6917 145.276 17.923 145.297 18.1526V22.1085H143.96L143.96 12.691Z" fill="white"/>
<path d="M157.583 20.2797C157.401 20.8987 157.008 21.4342 156.471 21.7924C155.935 22.1507 155.289 22.3088 154.648 22.2393C154.202 22.2511 153.758 22.1656 153.348 21.9888C152.938 21.812 152.572 21.5481 152.274 21.2155C151.977 20.8829 151.755 20.4894 151.624 20.0625C151.494 19.6356 151.458 19.1854 151.519 18.7432C151.46 18.2996 151.496 17.8484 151.626 17.4202C151.756 16.992 151.977 16.5968 152.273 16.2612C152.569 15.9257 152.934 15.6577 153.343 15.4753C153.751 15.293 154.195 15.2006 154.642 15.2045C156.527 15.2045 157.664 16.4921 157.664 18.619V19.0855H152.881V19.1604C152.86 19.4089 152.891 19.6591 152.973 19.8949C153.054 20.1307 153.184 20.3469 153.354 20.5296C153.523 20.7123 153.73 20.8574 153.959 20.9558C154.188 21.0542 154.435 21.1036 154.685 21.1008C155.004 21.1392 155.328 21.0816 155.615 20.9354C155.902 20.7892 156.139 20.5609 156.296 20.2797L157.583 20.2797ZM152.881 18.0968H156.302C156.319 17.8695 156.288 17.6412 156.211 17.4265C156.135 17.2118 156.014 17.0155 155.857 16.8503C155.7 16.685 155.51 16.5545 155.3 16.467C155.089 16.3795 154.863 16.3369 154.635 16.3422C154.404 16.3393 154.174 16.3827 153.96 16.4698C153.746 16.557 153.551 16.6861 153.388 16.8497C153.224 17.0132 153.095 17.2078 153.008 17.422C152.921 17.6362 152.878 17.8656 152.881 18.0968H152.881Z" fill="white"/>
</g>
<defs>
<clipPath id="clip0">
<rect width="180" height="60.1684" fill="white"/>
</clipPath>
</defs>
</svg>
