<svg width="151" height="325" viewBox="0 0 151 325" fill="none" xmlns="http://www.w3.org/2000/svg">
<g clip-path="url(#clip0)">
<rect width="150.092" height="325" fill="white"/>
<rect x="-0.400146" width="150.092" height="325" fill="white"/>
<path opacity="0.35" d="M134.683 8.00489C134.683 7.52594 135.071 7.13768 135.55 7.13768H142.221C142.7 7.13768 143.088 7.52594 143.088 8.00488V10.4064C143.088 10.8853 142.7 11.2736 142.221 11.2736H135.55C135.071 11.2736 134.683 10.8853 134.683 10.4064V8.00489Z" stroke="black" stroke-width="0.400246"/>
<path opacity="0.4" d="M143.689 8.40521V10.0056C144.011 9.87002 144.22 9.55472 144.22 9.20539C144.22 8.85606 144.011 8.54075 143.689 8.40521Z" fill="#4E4E4E"/>
<path d="M135.283 8.27145C135.283 7.97672 135.522 7.73779 135.817 7.73779H141.954C142.249 7.73779 142.488 7.97672 142.488 8.27145V10.1393C142.488 10.434 142.249 10.6729 141.954 10.6729H135.817C135.522 10.6729 135.283 10.434 135.283 10.1393V8.27145Z" fill="#4E4E4E"/>
<path fill-rule="evenodd" clip-rule="evenodd" d="M129.412 7.84814C130.299 7.84818 131.152 8.18896 131.795 8.80006C131.843 8.84724 131.92 8.84664 131.968 8.79872L132.431 8.33177C132.455 8.30746 132.468 8.27454 132.468 8.24029C132.468 8.20604 132.454 8.17328 132.43 8.14926C130.743 6.53244 128.081 6.53244 126.394 8.14926C126.37 8.17326 126.356 8.20601 126.355 8.24026C126.355 8.27452 126.369 8.30745 126.393 8.33177L126.856 8.79872C126.903 8.84671 126.981 8.84731 127.029 8.80006C127.672 8.18892 128.525 7.84813 129.412 7.84814ZM129.411 9.3667C129.898 9.36667 130.368 9.54779 130.73 9.87488C130.778 9.9213 130.855 9.92029 130.903 9.87261L131.365 9.40566C131.389 9.38116 131.403 9.34794 131.403 9.31341C131.402 9.27888 131.388 9.24594 131.363 9.22194C130.263 8.19876 128.56 8.19876 127.46 9.22194C127.435 9.24594 127.421 9.2789 127.421 9.31344C127.42 9.34797 127.434 9.3812 127.458 9.40566L127.92 9.87261C127.968 9.92029 128.045 9.9213 128.094 9.87488C128.455 9.54801 128.924 9.3669 129.411 9.3667ZM130.337 10.3893C130.338 10.4239 130.324 10.4572 130.299 10.4815L129.5 11.2879C129.477 11.3116 129.445 11.325 129.412 11.325C129.378 11.325 129.346 11.3116 129.323 11.2879L128.524 10.4815C128.499 10.4572 128.485 10.4238 128.486 10.3892C128.487 10.3546 128.502 10.3218 128.528 10.2986C129.038 9.86699 129.785 9.86699 130.296 10.2986C130.321 10.3219 130.336 10.3546 130.337 10.3893Z" fill="#4E4E4E"/>
<path fill-rule="evenodd" clip-rule="evenodd" d="M123.944 7.07098H123.543C123.322 7.07098 123.143 7.25018 123.143 7.47123V10.94C123.143 11.1611 123.322 11.3403 123.543 11.3403H123.944C124.165 11.3403 124.344 11.1611 124.344 10.94V7.47123C124.344 7.25018 124.165 7.07098 123.944 7.07098ZM121.676 8.00491H122.076C122.297 8.00491 122.476 8.18411 122.476 8.40516V10.9401C122.476 11.1611 122.297 11.3403 122.076 11.3403H121.676C121.454 11.3403 121.275 11.1611 121.275 10.9401V8.40516C121.275 8.18411 121.454 8.00491 121.676 8.00491ZM120.207 8.938H119.807C119.586 8.938 119.406 9.11713 119.406 9.33809V10.9384C119.406 11.1594 119.586 11.3385 119.807 11.3385H120.207C120.428 11.3385 120.607 11.1594 120.607 10.9384V9.33809C120.607 9.11713 120.428 8.938 120.207 8.938ZM118.34 9.73934H117.94C117.719 9.73934 117.54 9.91847 117.54 10.1394V10.9396C117.54 11.1606 117.719 11.3397 117.94 11.3397H118.34C118.561 11.3397 118.74 11.1606 118.74 10.9396V10.1394C118.74 9.91847 118.561 9.73934 118.34 9.73934Z" fill="#4E4E4E"/>
<path d="M9.08392 11.7028C10.1422 11.7028 10.7607 10.8644 10.7607 9.42792C10.7607 8.00908 10.0806 7.27034 9.1103 7.27034C8.21327 7.27034 7.57713 7.88303 7.57713 8.74195C7.57713 9.55691 8.16343 10.152 8.96959 10.152C9.47088 10.152 9.87542 9.91748 10.0777 9.51293H10.1275C10.1099 10.5624 9.73764 11.1487 9.08978 11.1487C8.70283 11.1487 8.40088 10.9376 8.30121 10.5888H7.63869C7.76475 11.2689 8.33346 11.7028 9.08392 11.7028ZM9.11324 9.6214C8.59143 9.6214 8.23086 9.25496 8.23086 8.72143C8.23086 8.21135 8.61195 7.81853 9.1191 7.81853C9.62331 7.81853 10.0044 8.21722 10.0044 8.73902C10.0044 9.25203 9.63211 9.6214 9.11324 9.6214ZM11.9422 8.80938C12.1914 8.80938 12.3732 8.62176 12.3732 8.38724C12.3732 8.14686 12.1914 7.96218 11.9422 7.96218C11.696 7.96218 11.5113 8.14686 11.5113 8.38724C11.5113 8.62176 11.696 8.80938 11.9422 8.80938ZM11.9422 11.0109C12.1914 11.0109 12.3732 10.8233 12.3732 10.5859C12.3732 10.3484 12.1914 10.1637 11.9422 10.1637C11.696 10.1637 11.5113 10.3484 11.5113 10.5859C11.5113 10.8233 11.696 11.0109 11.9422 11.0109ZM15.1729 11.6031H15.8061V10.7618H16.3894V10.2048H15.8061V7.37295H14.8709C14.2876 8.24946 13.6661 9.2491 13.1091 10.2048V10.7618H15.1729V11.6031ZM13.7394 10.1755C14.1732 9.43378 14.6892 8.61004 15.1435 7.927H15.1817V10.2165H13.7394V10.1755ZM18.0195 11.6031H18.6761V7.37295H18.0224L16.9084 8.16445V8.80938L17.9696 8.05012H18.0195V11.6031Z" fill="#4E4E4E"/>
<path d="M8.72403 54.8795H9.30798C9.69963 54.8795 9.9834 54.8068 10.1593 54.6614C10.3352 54.516 10.4231 54.3003 10.4231 54.0141C10.4231 53.7233 10.3281 53.5146 10.1382 53.388C9.94822 53.2613 9.66211 53.198 9.27984 53.198H8.72403V54.8795ZM8.72403 55.576V57.6304H7.88328V52.4874H9.33613C9.99982 52.4874 10.4911 52.6117 10.8101 52.8603C11.129 53.1089 11.2885 53.4841 11.2885 53.986C11.2885 54.6262 10.9555 55.0824 10.2894 55.3544L11.7423 57.6304H10.7855L9.55423 55.576H8.72403ZM14.2468 57.7008C13.6418 57.7008 13.168 57.5249 12.8256 57.1731C12.4856 56.819 12.3156 56.3324 12.3156 55.7132C12.3156 55.0777 12.4739 54.5782 12.7905 54.2147C13.1071 53.8512 13.5421 53.6694 14.0956 53.6694C14.6092 53.6694 15.0149 53.8254 15.3127 54.1373C15.6106 54.4492 15.7595 54.8783 15.7595 55.4248V55.8715H13.1669C13.1786 56.2491 13.2806 56.5399 13.4729 56.7439C13.6652 56.9456 13.9361 57.0465 14.2855 57.0465C14.5153 57.0465 14.7288 57.0254 14.9258 56.9832C15.1251 56.9386 15.3385 56.8659 15.566 56.7651V57.437C15.3643 57.5331 15.1603 57.6011 14.9539 57.641C14.7475 57.6809 14.5118 57.7008 14.2468 57.7008ZM14.0956 54.2956C13.8329 54.2956 13.6218 54.3788 13.4624 54.5453C13.3052 54.7118 13.2114 54.9546 13.1809 55.2735H14.9469C14.9422 54.9522 14.8648 54.7095 14.7147 54.5453C14.5646 54.3788 14.3582 54.2956 14.0956 54.2956ZM18.4117 57.7008C17.8231 57.7008 17.3752 57.5296 17.0679 57.1872C16.7631 56.8424 16.6106 56.3488 16.6106 55.7062C16.6106 55.0519 16.7701 54.5488 17.0891 54.1971C17.4103 53.8453 17.8735 53.6694 18.4786 53.6694C18.889 53.6694 19.2584 53.7456 19.5867 53.8981L19.3369 54.5629C18.9875 54.4269 18.699 54.3589 18.4715 54.3589C17.7985 54.3589 17.4619 54.8056 17.4619 55.6992C17.4619 56.1354 17.5452 56.4637 17.7117 56.6841C17.8806 56.9022 18.1268 57.0113 18.4504 57.0113C18.8186 57.0113 19.1669 56.9198 19.4952 56.7369V57.4581C19.3475 57.5448 19.1892 57.607 19.0203 57.6445C18.8538 57.682 18.651 57.7008 18.4117 57.7008ZM22.253 57.7008C21.648 57.7008 21.1742 57.5249 20.8318 57.1731C20.4918 56.819 20.3218 56.3324 20.3218 55.7132C20.3218 55.0777 20.4801 54.5782 20.7967 54.2147C21.1133 53.8512 21.5483 53.6694 22.1018 53.6694C22.6154 53.6694 23.0211 53.8254 23.3189 54.1373C23.6168 54.4492 23.7657 54.8783 23.7657 55.4248V55.8715H21.1731C21.1848 56.2491 21.2868 56.5399 21.4791 56.7439C21.6714 56.9456 21.9423 57.0465 22.2917 57.0465C22.5216 57.0465 22.735 57.0254 22.932 56.9832C23.1313 56.9386 23.3447 56.8659 23.5722 56.7651V57.437C23.3705 57.5331 23.1665 57.6011 22.9601 57.641C22.7537 57.6809 22.518 57.7008 22.253 57.7008ZM22.1018 54.2956C21.8391 54.2956 21.628 54.3788 21.4686 54.5453C21.3114 54.7118 21.2176 54.9546 21.1871 55.2735H22.9531C22.9484 54.9522 22.871 54.7095 22.7209 54.5453C22.5708 54.3788 22.3644 54.2956 22.1018 54.2956ZM28.2718 57.6304H27.4416V55.2383C27.4416 54.9382 27.3807 54.7142 27.2587 54.5664C27.1391 54.4187 26.948 54.3448 26.6853 54.3448C26.3359 54.3448 26.0802 54.448 25.9184 54.6544C25.7566 54.8608 25.6757 55.2067 25.6757 55.6921V57.6304H24.849V53.7398H25.4963L25.6124 54.2498H25.6546C25.7719 54.0646 25.9384 53.9215 26.1541 53.8207C26.3699 53.7198 26.6091 53.6694 26.8717 53.6694C27.8051 53.6694 28.2718 54.1443 28.2718 55.0941V57.6304ZM31.0156 57.0324C31.2172 57.0324 31.4189 57.0007 31.6206 56.9374V57.5601C31.5292 57.5999 31.4107 57.6328 31.2653 57.6586C31.1223 57.6867 30.9733 57.7008 30.8186 57.7008C30.0353 57.7008 29.6436 57.288 29.6436 56.4625V54.3659H29.1124V54.0001L29.6823 53.6975L29.9637 52.8744H30.4738V53.7398H31.5819V54.3659H30.4738V56.4485C30.4738 56.6478 30.5231 56.7955 30.6216 56.8917C30.7224 56.9855 30.8537 57.0324 31.0156 57.0324ZM37.8398 57.6304L37.3262 56.2022H35.3598L34.8567 57.6304H33.9702L35.8945 52.4663H36.8091L38.7333 57.6304H37.8398ZM37.1046 55.4775L36.6226 54.0775C36.5875 53.9837 36.5382 53.8359 36.4749 53.6342C36.4139 53.4325 36.3717 53.2848 36.3483 53.191C36.2849 53.4794 36.1923 53.7949 36.0703 54.1373L35.606 55.4775H37.1046ZM41.0373 57.7008C40.4487 57.7008 40.0007 57.5296 39.6935 57.1872C39.3887 56.8424 39.2362 56.3488 39.2362 55.7062C39.2362 55.0519 39.3957 54.5488 39.7146 54.1971C40.0359 53.8453 40.4991 53.6694 41.1042 53.6694C41.5146 53.6694 41.8839 53.7456 42.2123 53.8981L41.9625 54.5629C41.6131 54.4269 41.3246 54.3589 41.0971 54.3589C40.4241 54.3589 40.0875 54.8056 40.0875 55.6992C40.0875 56.1354 40.1708 56.4637 40.3373 56.6841C40.5061 56.9022 40.7524 57.0113 41.076 57.0113C41.4442 57.0113 41.7925 56.9198 42.1208 56.7369V57.4581C41.9731 57.5448 41.8148 57.607 41.6459 57.6445C41.4794 57.682 41.2765 57.7008 41.0373 57.7008ZM44.6288 57.0324C44.8305 57.0324 45.0322 57.0007 45.2339 56.9374V57.5601C45.1424 57.5999 45.024 57.6328 44.8786 57.6586C44.7356 57.6867 44.5866 57.7008 44.4318 57.7008C43.6486 57.7008 43.2569 57.288 43.2569 56.4625V54.3659H42.7257V54.0001L43.2956 53.6975L43.577 52.8744H44.0871V53.7398H45.1952V54.3659H44.0871V56.4485C44.0871 56.6478 44.1364 56.7955 44.2349 56.8917C44.3357 56.9855 44.467 57.0324 44.6288 57.0324ZM46.9856 57.6304H46.1589V53.7398H46.9856V57.6304ZM46.1097 52.709C46.1097 52.5613 46.1496 52.4476 46.2293 52.3678C46.3114 52.2881 46.4275 52.2482 46.5776 52.2482C46.723 52.2482 46.8355 52.2881 46.9153 52.3678C46.9974 52.4476 47.0384 52.5613 47.0384 52.709C47.0384 52.8498 46.9974 52.9612 46.9153 53.0432C46.8355 53.123 46.723 53.1628 46.5776 53.1628C46.4275 53.1628 46.3114 53.123 46.2293 53.0432C46.1496 52.9612 46.1097 52.8498 46.1097 52.709ZM49.2017 57.6304L47.7242 53.7398H48.5966L49.3881 56.0017C49.5242 56.3816 49.6062 56.6888 49.6344 56.9234H49.6625C49.6836 56.7545 49.7657 56.4473 49.9088 56.0017L50.7003 53.7398H51.5797L50.0952 57.6304H49.2017ZM53.1415 57.6304H52.3148V53.7398H53.1415V57.6304ZM52.2655 52.709C52.2655 52.5613 52.3054 52.4476 52.3852 52.3678C52.4672 52.2881 52.5833 52.2482 52.7334 52.2482C52.8788 52.2482 52.9914 52.2881 53.0711 52.3678C53.1532 52.4476 53.1942 52.5613 53.1942 52.709C53.1942 52.8498 53.1532 52.9612 53.0711 53.0432C52.9914 53.123 52.8788 53.1628 52.7334 53.1628C52.5833 53.1628 52.4672 53.123 52.3852 53.0432C52.3054 52.9612 52.2655 52.8498 52.2655 52.709ZM55.9204 57.0324C56.1221 57.0324 56.3238 57.0007 56.5255 56.9374V57.5601C56.434 57.5999 56.3156 57.6328 56.1702 57.6586C56.0271 57.6867 55.8782 57.7008 55.7234 57.7008C54.9401 57.7008 54.5485 57.288 54.5485 56.4625V54.3659H54.0173V54.0001L54.5871 53.6975L54.8686 52.8744H55.3787V53.7398H56.4868V54.3659H55.3787V56.4485C55.3787 56.6478 55.4279 56.7955 55.5264 56.8917C55.6272 56.9855 55.7586 57.0324 55.9204 57.0324ZM58.2772 57.6304H57.4505V53.7398H58.2772V57.6304ZM57.4012 52.709C57.4012 52.5613 57.4411 52.4476 57.5208 52.3678C57.6029 52.2881 57.719 52.2482 57.8691 52.2482C58.0145 52.2482 58.1271 52.2881 58.2068 52.3678C58.2889 52.4476 58.3299 52.5613 58.3299 52.709C58.3299 52.8498 58.2889 52.9612 58.2068 53.0432C58.1271 53.123 58.0145 53.1628 57.8691 53.1628C57.719 53.1628 57.6029 53.123 57.5208 53.0432C57.4411 52.9612 57.4012 52.8498 57.4012 52.709ZM61.3058 57.7008C60.7008 57.7008 60.2271 57.5249 59.8847 57.1731C59.5446 56.819 59.3746 56.3324 59.3746 55.7132C59.3746 55.0777 59.5329 54.5782 59.8495 54.2147C60.1661 53.8512 60.6011 53.6694 61.1546 53.6694C61.6682 53.6694 62.0739 53.8254 62.3717 54.1373C62.6696 54.4492 62.8185 54.8783 62.8185 55.4248V55.8715H60.2259C60.2376 56.2491 60.3396 56.5399 60.5319 56.7439C60.7242 56.9456 60.9951 57.0465 61.3445 57.0465C61.5744 57.0465 61.7878 57.0254 61.9848 56.9832C62.1841 56.9386 62.3975 56.8659 62.625 56.7651V57.437C62.4233 57.5331 62.2193 57.6011 62.0129 57.641C61.8065 57.6809 61.5709 57.7008 61.3058 57.7008ZM61.1546 54.2956C60.8919 54.2956 60.6809 54.3788 60.5214 54.5453C60.3643 54.7118 60.2704 54.9546 60.24 55.2735H62.0059C62.0012 54.9522 61.9238 54.7095 61.7737 54.5453C61.6236 54.3788 61.4172 54.2956 61.1546 54.2956ZM66.5156 56.5223C66.5156 56.9022 66.3772 57.1942 66.1005 57.3983C65.8237 57.5999 65.4274 57.7008 64.9114 57.7008C64.3932 57.7008 63.9769 57.6222 63.6626 57.4651V56.751C64.1199 56.9621 64.5456 57.0676 64.9396 57.0676C65.4485 57.0676 65.7029 56.914 65.7029 56.6068C65.7029 56.5083 65.6748 56.4262 65.6185 56.3605C65.5622 56.2948 65.4696 56.2268 65.3406 56.1565C65.2116 56.0861 65.0322 56.0064 64.8024 55.9173C64.3545 55.7437 64.0508 55.5702 63.8913 55.3966C63.7342 55.2231 63.6556 54.998 63.6556 54.7212C63.6556 54.3882 63.7893 54.1302 64.0566 53.9473C64.3263 53.762 64.6922 53.6694 65.1542 53.6694C65.6115 53.6694 66.0442 53.762 66.4522 53.9473L66.1849 54.57C65.7651 54.3964 65.4121 54.3096 65.126 54.3096C64.6898 54.3096 64.4717 54.4339 64.4717 54.6825C64.4717 54.8045 64.528 54.9077 64.6406 54.9921C64.7555 55.0765 65.0041 55.1926 65.3863 55.3404C65.7076 55.4646 65.941 55.5784 66.0864 55.6816C66.2318 55.7848 66.3397 55.9044 66.41 56.0404C66.4804 56.1741 66.5156 56.3347 66.5156 56.5223Z" fill="black"/>
<path d="M10.8488 171.105C10.8488 171.562 10.6834 171.921 10.3528 172.181C10.0221 172.441 9.56596 172.572 8.98435 172.572C8.40274 172.572 7.92667 172.481 7.55612 172.301V171.506C7.79064 171.616 8.03923 171.703 8.3019 171.766C8.5669 171.829 8.81315 171.861 9.04063 171.861C9.37365 171.861 9.61872 171.798 9.77585 171.671C9.93532 171.544 10.0151 171.374 10.0151 171.161C10.0151 170.969 9.94236 170.806 9.79696 170.672C9.65155 170.538 9.35137 170.38 8.8964 170.197C8.42736 170.007 8.09669 169.79 7.90439 169.546C7.71208 169.302 7.61593 169.009 7.61593 168.667C7.61593 168.238 7.76836 167.9 8.07324 167.654C8.37811 167.407 8.78735 167.284 9.30095 167.284C9.79344 167.284 10.2836 167.392 10.7714 167.608L10.504 168.294C10.0467 168.102 9.63866 168.005 9.27984 168.005C9.0078 168.005 8.80142 168.065 8.66071 168.185C8.52 168.302 8.44964 168.458 8.44964 168.653C8.44964 168.786 8.47779 168.901 8.53407 168.998C8.59035 169.091 8.68299 169.18 8.81198 169.265C8.94096 169.349 9.17314 169.461 9.5085 169.599C9.88607 169.756 10.1628 169.903 10.3387 170.039C10.5146 170.175 10.6436 170.328 10.7257 170.5C10.8077 170.671 10.8488 170.872 10.8488 171.105ZM13.3498 171.903C13.5515 171.903 13.7532 171.872 13.9548 171.808V172.431C13.8634 172.471 13.7449 172.504 13.5995 172.529C13.4565 172.558 13.3076 172.572 13.1528 172.572C12.3695 172.572 11.9778 172.159 11.9778 171.333V169.237H11.4467V168.871L12.0165 168.568L12.298 167.745H12.808V168.611H13.9161V169.237H12.808V171.319C12.808 171.519 12.8573 171.666 12.9558 171.762C13.0566 171.856 13.188 171.903 13.3498 171.903ZM17.3142 172.501L17.1489 171.959H17.1207C16.9331 172.196 16.7443 172.358 16.5543 172.445C16.3644 172.529 16.1205 172.572 15.8226 172.572C15.4404 172.572 15.1414 172.468 14.9256 172.262C14.7122 172.056 14.6055 171.764 14.6055 171.386C14.6055 170.985 14.7544 170.683 15.0523 170.478C15.3501 170.274 15.8039 170.163 16.4136 170.144L17.0855 170.123V169.916C17.0855 169.667 17.0269 169.482 16.9096 169.36C16.7947 169.236 16.6153 169.173 16.3714 169.173C16.1721 169.173 15.981 169.203 15.798 169.261C15.6151 169.32 15.4392 169.389 15.2704 169.469L15.003 168.878C15.2141 168.768 15.4451 168.684 15.696 168.628C15.9469 168.57 16.1838 168.54 16.4066 168.54C16.9014 168.54 17.2743 168.648 17.5253 168.864C17.7785 169.08 17.9052 169.418 17.9052 169.88V172.501H17.3142ZM16.083 171.938C16.3832 171.938 16.6235 171.855 16.8041 171.689C16.987 171.52 17.0785 171.284 17.0785 170.982V170.644L16.579 170.665C16.1897 170.679 15.9059 170.745 15.7277 170.862C15.5518 170.977 15.4638 171.154 15.4638 171.393C15.4638 171.567 15.5154 171.702 15.6186 171.798C15.7218 171.891 15.8766 171.938 16.083 171.938ZM21.1766 168.54C21.3431 168.54 21.4803 168.552 21.5882 168.575L21.5073 169.346C21.39 169.318 21.268 169.304 21.1414 169.304C20.8107 169.304 20.5422 169.411 20.3358 169.627C20.1318 169.843 20.0298 170.123 20.0298 170.468V172.501H19.2031V168.611H19.8504L19.9594 169.297H20.0016C20.1306 169.064 20.2983 168.88 20.5047 168.744C20.7134 168.608 20.9374 168.54 21.1766 168.54ZM24.4304 168.54C24.5969 168.54 24.7341 168.552 24.842 168.575L24.7611 169.346C24.6438 169.318 24.5219 169.304 24.3952 169.304C24.0646 169.304 23.796 169.411 23.5896 169.627C23.3856 169.843 23.2836 170.123 23.2836 170.468V172.501H22.4569V168.611H23.1042L23.2132 169.297H23.2555C23.3844 169.064 23.5521 168.88 23.7585 168.744C23.9672 168.608 24.1912 168.54 24.4304 168.54ZM27.4098 172.572C26.8048 172.572 26.331 172.396 25.9886 172.044C25.6486 171.69 25.4786 171.203 25.4786 170.584C25.4786 169.948 25.6369 169.449 25.9535 169.085C26.2701 168.722 26.7051 168.54 27.2586 168.54C27.7722 168.54 28.1779 168.696 28.4757 169.008C28.7736 169.32 28.9225 169.749 28.9225 170.296V170.742H26.3299C26.3416 171.12 26.4436 171.411 26.6359 171.615C26.8282 171.816 27.0991 171.917 27.4485 171.917C27.6784 171.917 27.8918 171.896 28.0888 171.854C28.2881 171.809 28.5015 171.737 28.729 171.636V172.308C28.5273 172.404 28.3233 172.472 28.1169 172.512C27.9105 172.552 27.6748 172.572 27.4098 172.572ZM27.2586 169.166C26.9959 169.166 26.7848 169.25 26.6254 169.416C26.4682 169.583 26.3744 169.825 26.3439 170.144H28.1099C28.1052 169.823 28.0278 169.58 27.8777 169.416C27.7276 169.25 27.5212 169.166 27.2586 169.166ZM31.318 172.572C30.8325 172.572 30.4537 172.396 30.1817 172.044C29.9097 171.692 29.7736 171.198 29.7736 170.563C29.7736 169.925 29.9108 169.429 30.1852 169.075C30.462 168.718 30.8442 168.54 31.332 168.54C31.8433 168.54 32.2326 168.729 32.4999 169.107H32.5421C32.5023 168.827 32.4823 168.607 32.4823 168.445V167.028H33.3125V172.501H32.6653L32.521 171.991H32.4823C32.2173 172.378 31.8292 172.572 31.318 172.572ZM31.5396 171.903C31.8796 171.903 32.127 171.808 32.2818 171.618C32.4366 171.426 32.5163 171.115 32.521 170.686V170.57C32.521 170.08 32.4413 169.732 32.2818 169.525C32.1224 169.319 31.8726 169.216 31.5325 169.216C31.2417 169.216 31.0178 169.334 30.8606 169.571C30.7035 169.805 30.6249 170.141 30.6249 170.577C30.6249 171.009 30.7012 171.338 30.8536 171.565C31.006 171.791 31.2347 171.903 31.5396 171.903ZM37.5758 172.501H36.7421V167.358H39.6443V168.069H37.5758V169.676H39.5141V170.391H37.5758V172.501ZM41.4593 172.501H40.6326V168.611H41.4593V172.501ZM40.5834 167.58C40.5834 167.432 40.6233 167.318 40.703 167.239C40.7851 167.159 40.9012 167.119 41.0513 167.119C41.1967 167.119 41.3092 167.159 41.389 167.239C41.471 167.318 41.5121 167.432 41.5121 167.58C41.5121 167.721 41.471 167.832 41.389 167.914C41.3092 167.994 41.1967 168.034 41.0513 168.034C40.9012 168.034 40.7851 167.994 40.703 167.914C40.6233 167.832 40.5834 167.721 40.5834 167.58ZM43.6156 172.501H42.7889V167.028H43.6156V172.501ZM46.6443 172.572C46.0392 172.572 45.5655 172.396 45.2231 172.044C44.883 171.69 44.713 171.203 44.713 170.584C44.713 169.948 44.8713 169.449 45.1879 169.085C45.5045 168.722 45.9395 168.54 46.493 168.54C47.0066 168.54 47.4123 168.696 47.7102 169.008C48.008 169.32 48.1569 169.749 48.1569 170.296V170.742H45.5643C45.576 171.12 45.678 171.411 45.8703 171.615C46.0627 171.816 46.3335 171.917 46.683 171.917C46.9128 171.917 47.1262 171.896 47.3232 171.854C47.5225 171.809 47.7359 171.737 47.9634 171.636V172.308C47.7617 172.404 47.5577 172.472 47.3513 172.512C47.145 172.552 46.9093 172.572 46.6443 172.572ZM46.493 169.166C46.2303 169.166 46.0193 169.25 45.8598 169.416C45.7027 169.583 45.6089 169.825 45.5784 170.144H47.3443C47.3396 169.823 47.2622 169.58 47.1121 169.416C46.962 169.25 46.7557 169.166 46.493 169.166ZM51.854 171.393C51.854 171.773 51.7156 172.065 51.4389 172.269C51.1621 172.471 50.7658 172.572 50.2499 172.572C49.7316 172.572 49.3153 172.493 49.001 172.336V171.622C49.4583 171.833 49.884 171.938 50.278 171.938C50.7869 171.938 51.0414 171.785 51.0414 171.478C51.0414 171.379 51.0132 171.297 50.9569 171.231C50.9006 171.166 50.808 171.098 50.679 171.027C50.55 170.957 50.3706 170.877 50.1408 170.788C49.6929 170.615 49.3892 170.441 49.2297 170.267C49.0726 170.094 48.994 169.869 48.994 169.592C48.994 169.259 49.1277 169.001 49.395 168.818C49.6647 168.633 50.0306 168.54 50.4926 168.54C50.9499 168.54 51.3826 168.633 51.7906 168.818L51.5233 169.441C51.1035 169.267 50.7506 169.18 50.4644 169.18C50.0282 169.18 49.8101 169.305 49.8101 169.553C49.8101 169.675 49.8664 169.778 49.979 169.863C50.0939 169.947 50.3425 170.063 50.7248 170.211C51.046 170.335 51.2794 170.449 51.4248 170.552C51.5702 170.656 51.6781 170.775 51.7484 170.911C51.8188 171.045 51.854 171.206 51.854 171.393Z" fill="black"/>
<g filter="url(#filter0_d)">
<rect x="48.0298" y="73.2451" width="53.633" height="68.4421" rx="6.0037" fill="white"/>
</g>
<path d="M53.5631 130.25L54.3253 128.821H54.6849L53.7312 130.57V131.678H53.3951V130.586L52.4433 128.821H52.8068L53.5631 130.25ZM56.9597 130.606C56.9597 130.955 56.8717 131.228 56.6958 131.424C56.52 131.62 56.277 131.718 55.9669 131.718C55.7754 131.718 55.6053 131.673 55.4568 131.583C55.3083 131.493 55.1936 131.364 55.1128 131.196C55.0321 131.028 54.9917 130.831 54.9917 130.606C54.9917 130.256 55.079 129.985 55.2536 129.791C55.4281 129.595 55.6705 129.497 55.9806 129.497C56.2802 129.497 56.518 129.597 56.6939 129.796C56.8711 129.996 56.9597 130.265 56.9597 130.606ZM55.3278 130.606C55.3278 130.879 55.3825 131.088 55.492 131.231C55.6014 131.374 55.7623 131.446 55.9747 131.446C56.1871 131.446 56.348 131.375 56.4574 131.233C56.5682 131.09 56.6235 130.88 56.6235 130.606C56.6235 130.333 56.5682 130.127 56.4574 129.986C56.348 129.844 56.1858 129.773 55.9708 129.773C55.7584 129.773 55.5982 129.843 55.49 129.982C55.3819 130.122 55.3278 130.329 55.3278 130.606ZM57.9153 129.537V130.926C57.9153 131.101 57.955 131.231 58.0345 131.317C58.114 131.403 58.2384 131.446 58.4078 131.446C58.6319 131.446 58.7954 131.385 58.8983 131.262C59.0025 131.14 59.0546 130.94 59.0546 130.662V129.537H59.3791V131.678H59.1113L59.0644 131.391H59.0468C58.9804 131.497 58.8879 131.577 58.7693 131.634C58.652 131.69 58.5179 131.718 58.3667 131.718C58.1061 131.718 57.9107 131.656 57.7804 131.532C57.6514 131.408 57.5869 131.21 57.5869 130.938V129.537H57.9153ZM62.1736 131.718C61.857 131.718 61.6068 131.621 61.4231 131.428C61.2407 131.235 61.1495 130.968 61.1495 130.625C61.1495 130.28 61.2342 130.006 61.4036 129.802C61.5743 129.599 61.8029 129.497 62.0896 129.497C62.3579 129.497 62.5703 129.586 62.7267 129.763C62.883 129.939 62.9612 130.172 62.9612 130.461V130.666H61.4857C61.4922 130.918 61.5554 131.108 61.6752 131.239C61.7964 131.369 61.9664 131.434 62.1853 131.434C62.4159 131.434 62.6439 131.386 62.8693 131.29V131.579C62.7547 131.628 62.6459 131.663 62.543 131.684C62.4413 131.706 62.3182 131.718 62.1736 131.718ZM62.0856 129.769C61.9137 129.769 61.7762 129.825 61.6733 129.937C61.5717 130.049 61.5117 130.204 61.4935 130.402H62.6133C62.6133 130.198 62.5677 130.041 62.4765 129.933C62.3853 129.824 62.255 129.769 62.0856 129.769ZM65.0542 131.391H65.0366C64.8868 131.609 64.6627 131.718 64.3643 131.718C64.0842 131.718 63.866 131.622 63.7096 131.43C63.5546 131.239 63.477 130.966 63.477 130.613C63.477 130.26 63.5552 129.986 63.7116 129.791C63.8679 129.595 64.0855 129.497 64.3643 129.497C64.6549 129.497 64.8777 129.603 65.0327 129.814H65.0581L65.0444 129.66L65.0366 129.509V128.638H65.361V131.678H65.0972L65.0542 131.391ZM64.4054 131.446C64.6268 131.446 64.7871 131.386 64.8861 131.266C64.9864 131.145 65.0366 130.95 65.0366 130.682V130.613C65.0366 130.31 64.9858 130.094 64.8842 129.965C64.7838 129.834 64.6229 129.769 64.4014 129.769C64.2112 129.769 64.0653 129.843 63.9637 129.992C63.8634 130.139 63.8132 130.348 63.8132 130.617C63.8132 130.891 63.8634 131.097 63.9637 131.237C64.064 131.376 64.2112 131.446 64.4054 131.446ZM66.4554 131.678H66.1309V129.537H66.4554V131.678ZM66.1036 128.956C66.1036 128.882 66.1218 128.828 66.1583 128.794C66.1948 128.759 66.2404 128.741 66.2951 128.741C66.3472 128.741 66.3922 128.759 66.43 128.794C66.4677 128.829 66.4866 128.883 66.4866 128.956C66.4866 129.029 66.4677 129.084 66.43 129.12C66.3922 129.155 66.3472 129.173 66.2951 129.173C66.2404 129.173 66.1948 129.155 66.1583 129.12C66.1218 129.084 66.1036 129.029 66.1036 128.956ZM67.9152 131.45C67.9725 131.45 68.0279 131.446 68.0813 131.438C68.1347 131.429 68.1771 131.42 68.2083 131.411V131.659C68.1731 131.676 68.121 131.69 68.052 131.7C67.9842 131.712 67.923 131.718 67.8683 131.718C67.454 131.718 67.2468 131.499 67.2468 131.063V129.789H66.94V129.632L67.2468 129.497L67.3836 129.04H67.5712V129.537H68.1927V129.789H67.5712V131.049C67.5712 131.178 67.6018 131.277 67.6631 131.346C67.7243 131.415 67.8083 131.45 67.9152 131.45ZM69.6232 131.718C69.3066 131.718 69.0564 131.621 68.8727 131.428C68.6903 131.235 68.5991 130.968 68.5991 130.625C68.5991 130.28 68.6838 130.006 68.8532 129.802C69.0238 129.599 69.2525 129.497 69.5391 129.497C69.8075 129.497 70.0199 129.586 70.1763 129.763C70.3326 129.939 70.4108 130.172 70.4108 130.461V130.666H68.9353C68.9418 130.918 69.005 131.108 69.1248 131.239C69.246 131.369 69.416 131.434 69.6349 131.434C69.8655 131.434 70.0935 131.386 70.3189 131.29V131.579C70.2043 131.628 70.0955 131.663 69.9925 131.684C69.8909 131.706 69.7678 131.718 69.6232 131.718ZM69.5352 129.769C69.3633 129.769 69.2258 129.825 69.1229 129.937C69.0212 130.049 68.9613 130.204 68.9431 130.402H70.0629C70.0629 130.198 70.0173 130.041 69.9261 129.933C69.8349 129.824 69.7046 129.769 69.5352 129.769ZM72.5038 131.391H72.4862C72.3364 131.609 72.1123 131.718 71.8139 131.718C71.5338 131.718 71.3155 131.622 71.1592 131.43C71.0042 131.239 70.9266 130.966 70.9266 130.613C70.9266 130.26 71.0048 129.986 71.1612 129.791C71.3175 129.595 71.5351 129.497 71.8139 129.497C72.1044 129.497 72.3272 129.603 72.4823 129.814H72.5077L72.494 129.66L72.4862 129.509V128.638H72.8106V131.678H72.5468L72.5038 131.391ZM71.8549 131.446C72.0764 131.446 72.2367 131.386 72.3357 131.266C72.436 131.145 72.4862 130.95 72.4862 130.682V130.613C72.4862 130.31 72.4354 130.094 72.3338 129.965C72.2334 129.834 72.0725 129.769 71.851 129.769C71.6608 129.769 71.5149 129.843 71.4133 129.992C71.3129 130.139 71.2628 130.348 71.2628 130.617C71.2628 130.891 71.3129 131.097 71.4133 131.237C71.5136 131.376 71.6608 131.446 71.8549 131.446ZM74.9133 131.678L76.0976 129.12H74.54V128.821H76.4416V129.081L75.2729 131.678H74.9133ZM79.6563 131.678V130.293C79.6563 130.118 79.6166 129.988 79.5371 129.902C79.4576 129.816 79.3332 129.773 79.1638 129.773C78.9384 129.773 78.7736 129.834 78.6694 129.957C78.5664 130.079 78.515 130.28 78.515 130.559V131.678H78.1906V128.638H78.515V129.558C78.515 129.669 78.5098 129.761 78.4993 129.834H78.5189C78.5827 129.731 78.6733 129.65 78.7905 129.591C78.9091 129.531 79.0439 129.501 79.1951 129.501C79.457 129.501 79.653 129.564 79.7833 129.689C79.9149 129.813 79.9807 130.01 79.9807 130.281V131.678H79.6563ZM82.5779 130.606C82.5779 130.955 82.49 131.228 82.3141 131.424C82.1382 131.62 81.8952 131.718 81.5851 131.718C81.3936 131.718 81.2236 131.673 81.0751 131.583C80.9265 131.493 80.8119 131.364 80.7311 131.196C80.6503 131.028 80.6099 130.831 80.6099 130.606C80.6099 130.256 80.6972 129.985 80.8718 129.791C81.0464 129.595 81.2887 129.497 81.5988 129.497C81.8985 129.497 82.1363 129.597 82.3122 129.796C82.4894 129.996 82.5779 130.265 82.5779 130.606ZM80.9461 130.606C80.9461 130.879 81.0008 131.088 81.1102 131.231C81.2197 131.374 81.3806 131.446 81.593 131.446C81.8053 131.446 81.9662 131.375 82.0757 131.233C82.1864 131.09 82.2418 130.88 82.2418 130.606C82.2418 130.333 82.1864 130.127 82.0757 129.986C81.9662 129.844 81.804 129.773 81.5891 129.773C81.3767 129.773 81.2164 129.843 81.1083 129.982C81.0002 130.122 80.9461 130.329 80.9461 130.606ZM83.5335 129.537V130.926C83.5335 131.101 83.5733 131.231 83.6527 131.317C83.7322 131.403 83.8567 131.446 84.026 131.446C84.2501 131.446 84.4136 131.385 84.5166 131.262C84.6208 131.14 84.6729 130.94 84.6729 130.662V129.537H84.9973V131.678H84.7296L84.6827 131.391H84.6651C84.5986 131.497 84.5061 131.577 84.3876 131.634C84.2703 131.69 84.1361 131.718 83.985 131.718C83.7244 131.718 83.529 131.656 83.3987 131.532C83.2697 131.408 83.2052 131.21 83.2052 130.938V129.537H83.5335ZM86.7444 129.497C86.8395 129.497 86.9249 129.505 87.0004 129.521L86.9555 129.822C86.8669 129.802 86.7887 129.793 86.721 129.793C86.5477 129.793 86.3992 129.863 86.2754 130.004C86.1529 130.144 86.0917 130.32 86.0917 130.529V131.678H85.7673V129.537H86.035L86.0721 129.933H86.0878C86.1672 129.794 86.263 129.686 86.375 129.611C86.4871 129.535 86.6102 129.497 86.7444 129.497ZM88.8628 131.094C88.8628 131.293 88.7886 131.447 88.64 131.555C88.4915 131.663 88.283 131.718 88.0147 131.718C87.7306 131.718 87.5091 131.673 87.3502 131.583V131.282C87.4531 131.334 87.5632 131.375 87.6805 131.405C87.799 131.435 87.913 131.45 88.0225 131.45C88.1918 131.45 88.3221 131.423 88.4133 131.37C88.5045 131.315 88.5501 131.232 88.5501 131.121C88.5501 131.038 88.5137 130.967 88.4407 130.908C88.369 130.849 88.2283 130.778 88.0186 130.697C87.8192 130.623 87.6772 130.559 87.5925 130.504C87.5091 130.448 87.4466 130.385 87.4049 130.314C87.3645 130.244 87.3443 130.16 87.3443 130.062C87.3443 129.888 87.4153 129.75 87.5573 129.65C87.6994 129.548 87.8941 129.497 88.1417 129.497C88.3723 129.497 88.5977 129.544 88.8179 129.638L88.7026 129.902C88.4876 129.813 88.2928 129.769 88.1182 129.769C87.9645 129.769 87.8485 129.793 87.7704 129.841C87.6922 129.89 87.6531 129.956 87.6531 130.041C87.6531 130.098 87.6674 130.147 87.6961 130.187C87.7261 130.228 87.7736 130.266 87.8388 130.303C87.9039 130.339 88.029 130.392 88.214 130.461C88.4681 130.553 88.6394 130.647 88.728 130.74C88.8179 130.834 88.8628 130.952 88.8628 131.094ZM91.9095 131.678L91.845 131.374H91.8293C91.7225 131.508 91.6157 131.599 91.5088 131.647C91.4033 131.694 91.2711 131.718 91.1121 131.718C90.8997 131.718 90.733 131.663 90.6118 131.553C90.4919 131.444 90.432 131.288 90.432 131.086C90.432 130.654 90.7779 130.427 91.4697 130.406L91.8333 130.394V130.262C91.8333 130.094 91.7968 129.97 91.7238 129.89C91.6521 129.809 91.5368 129.769 91.3779 129.769C91.1994 129.769 90.9975 129.824 90.7721 129.933L90.6724 129.685C90.7779 129.628 90.8932 129.583 91.0183 129.55C91.1447 129.518 91.2711 129.501 91.3974 129.501C91.6528 129.501 91.8417 129.558 91.9642 129.671C92.088 129.785 92.1499 129.966 92.1499 130.217V131.678H91.9095ZM91.1766 131.45C91.3785 131.45 91.5368 131.394 91.6515 131.284C91.7675 131.173 91.8254 131.018 91.8254 130.819V130.625L91.501 130.639C91.243 130.648 91.0567 130.688 90.9421 130.76C90.8287 130.83 90.7721 130.94 90.7721 131.09C90.7721 131.207 90.8072 131.297 90.8776 131.358C90.9492 131.419 91.0489 131.45 91.1766 131.45ZM94.6533 129.537V129.742L94.2565 129.789C94.293 129.834 94.3256 129.894 94.3543 129.968C94.3829 130.041 94.3973 130.124 94.3973 130.217C94.3973 130.426 94.3256 130.594 94.1823 130.719C94.039 130.844 93.8422 130.907 93.5921 130.907C93.5282 130.907 93.4683 130.901 93.4123 130.891C93.2742 130.964 93.2051 131.056 93.2051 131.166C93.2051 131.225 93.2292 131.269 93.2774 131.297C93.3256 131.325 93.4084 131.338 93.5256 131.338H93.9048C94.1367 131.338 94.3145 131.387 94.4383 131.485C94.5634 131.583 94.6259 131.725 94.6259 131.911C94.6259 132.148 94.5308 132.329 94.3406 132.452C94.1504 132.577 93.8728 132.64 93.508 132.64C93.2279 132.64 93.0116 132.588 92.8592 132.484C92.7081 132.379 92.6325 132.232 92.6325 132.042C92.6325 131.912 92.6742 131.799 92.7576 131.704C92.841 131.609 92.9582 131.544 93.1093 131.51C93.0546 131.486 93.0084 131.447 92.9706 131.395C92.9341 131.343 92.9159 131.282 92.9159 131.213C92.9159 131.135 92.9367 131.067 92.9784 131.008C93.0201 130.95 93.0859 130.893 93.1758 130.838C93.0651 130.793 92.9745 130.715 92.9041 130.606C92.8351 130.496 92.8006 130.371 92.8006 130.23C92.8006 129.996 92.8709 129.815 93.0116 129.689C93.1523 129.561 93.3517 129.497 93.6097 129.497C93.7217 129.497 93.8227 129.51 93.9126 129.537H94.6533ZM92.9452 132.038C92.9452 132.154 92.994 132.242 93.0918 132.302C93.1895 132.362 93.3295 132.392 93.5119 132.392C93.7842 132.392 93.9855 132.351 94.1158 132.269C94.2474 132.188 94.3132 132.078 94.3132 131.938C94.3132 131.822 94.2774 131.742 94.2057 131.696C94.1341 131.652 93.9992 131.63 93.8012 131.63H93.4123C93.265 131.63 93.1504 131.665 93.0683 131.735C92.9862 131.805 92.9452 131.906 92.9452 132.038ZM93.1211 130.222C93.1211 130.372 93.1634 130.486 93.2481 130.563C93.3328 130.639 93.4507 130.678 93.6018 130.678C93.9184 130.678 94.0767 130.524 94.0767 130.217C94.0767 129.895 93.9165 129.734 93.596 129.734C93.4435 129.734 93.3263 129.775 93.2442 129.857C93.1621 129.939 93.1211 130.061 93.1211 130.222ZM97.0218 130.606C97.0218 130.955 96.9339 131.228 96.758 131.424C96.5821 131.62 96.3391 131.718 96.029 131.718C95.8375 131.718 95.6675 131.673 95.519 131.583C95.3704 131.493 95.2558 131.364 95.175 131.196C95.0942 131.028 95.0538 130.831 95.0538 130.606C95.0538 130.256 95.1411 129.985 95.3157 129.791C95.4903 129.595 95.7326 129.497 96.0427 129.497C96.3424 129.497 96.5802 129.597 96.756 129.796C96.9332 129.996 97.0218 130.265 97.0218 130.606ZM95.39 130.606C95.39 130.879 95.4447 131.088 95.5541 131.231C95.6636 131.374 95.8245 131.446 96.0369 131.446C96.2492 131.446 96.4101 131.375 96.5196 131.233C96.6303 131.09 96.6857 130.88 96.6857 130.606C96.6857 130.333 96.6303 130.127 96.5196 129.986C96.4101 129.844 96.2479 129.773 96.0329 129.773C95.8206 129.773 95.6603 129.843 95.5522 129.982C95.444 130.122 95.39 130.329 95.39 130.606Z" fill="black" fill-opacity="0.6"/>
<path d="M63.3409 126.074H62.6924V122.074H64.9497V122.627H63.3409V123.877H64.8485V124.432H63.3409V126.074ZM66.3614 126.074H65.7184V123.048H66.3614V126.074ZM65.6801 122.246C65.6801 122.131 65.7111 122.043 65.7731 121.981C65.837 121.919 65.9273 121.888 66.044 121.888C66.1571 121.888 66.2446 121.919 66.3067 121.981C66.3705 122.043 66.4024 122.131 66.4024 122.246C66.4024 122.356 66.3705 122.442 66.3067 122.506C66.2446 122.568 66.1571 122.599 66.044 122.599C65.9273 122.599 65.837 122.568 65.7731 122.506C65.7111 122.442 65.6801 122.356 65.6801 122.246ZM70.0577 126.074H69.412V124.213C69.412 123.98 69.3646 123.806 69.2697 123.691C69.1767 123.576 69.028 123.518 68.8237 123.518C68.5519 123.518 68.3531 123.599 68.2273 123.759C68.1014 123.92 68.0385 124.189 68.0385 124.566V126.074H67.3955V123.048H67.8989L67.9892 123.445H68.0221C68.1133 123.301 68.2428 123.189 68.4106 123.111C68.5784 123.032 68.7644 122.993 68.9687 122.993C69.6947 122.993 70.0577 123.363 70.0577 124.101V126.074ZM72.9578 126.074L72.8292 125.653H72.8073C72.6614 125.837 72.5146 125.963 72.3668 126.03C72.2191 126.096 72.0294 126.129 71.7977 126.129C71.5004 126.129 71.2678 126.048 71.1 125.888C70.934 125.727 70.851 125.5 70.851 125.207C70.851 124.895 70.9669 124.659 71.1985 124.501C71.4302 124.342 71.7831 124.255 72.2574 124.241L72.78 124.224V124.063C72.78 123.87 72.7344 123.726 72.6432 123.631C72.5538 123.534 72.4142 123.486 72.2245 123.486C72.0695 123.486 71.9208 123.508 71.7786 123.554C71.6363 123.6 71.4995 123.653 71.3682 123.715L71.1602 123.256C71.3244 123.17 71.504 123.105 71.6992 123.062C71.8944 123.016 72.0786 122.993 72.2519 122.993C72.6368 122.993 72.9268 123.077 73.122 123.245C73.319 123.413 73.4175 123.676 73.4175 124.036V126.074H72.9578ZM72.0002 125.636C72.2337 125.636 72.4206 125.571 72.5611 125.442C72.7034 125.311 72.7745 125.127 72.7745 124.892V124.629L72.386 124.646C72.0832 124.657 71.8625 124.708 71.7238 124.799C71.587 124.888 71.5186 125.026 71.5186 125.212C71.5186 125.347 71.5588 125.452 71.639 125.527C71.7193 125.6 71.8397 125.636 72.0002 125.636ZM77.0891 126.074H76.4434V124.213C76.4434 123.98 76.396 123.806 76.3012 123.691C76.2081 123.576 76.0595 123.518 75.8552 123.518C75.5834 123.518 75.3846 123.599 75.2587 123.759C75.1329 123.92 75.0699 124.189 75.0699 124.566V126.074H74.427V123.048H74.9304L75.0207 123.445H75.0535C75.1447 123.301 75.2742 123.189 75.442 123.111C75.6098 123.032 75.7959 122.993 76.0002 122.993C76.7262 122.993 77.0891 123.363 77.0891 124.101V126.074ZM79.3162 126.129C78.8584 126.129 78.51 125.996 78.271 125.729C78.0339 125.461 77.9153 125.077 77.9153 124.577C77.9153 124.068 78.0394 123.677 78.2874 123.404C78.5373 123.13 78.8976 122.993 79.3682 122.993C79.6874 122.993 79.9747 123.052 80.23 123.171L80.0358 123.688C79.764 123.582 79.5396 123.529 79.3627 123.529C78.8392 123.529 78.5775 123.877 78.5775 124.572C78.5775 124.911 78.6422 125.167 78.7717 125.338C78.903 125.508 79.0946 125.592 79.3463 125.592C79.6327 125.592 79.9035 125.521 80.1589 125.379V125.94C80.044 126.007 79.9209 126.056 79.7895 126.085C79.66 126.114 79.5022 126.129 79.3162 126.129ZM81.6253 126.074H80.9823V123.048H81.6253V126.074ZM80.944 122.246C80.944 122.131 80.975 122.043 81.0371 121.981C81.1009 121.919 81.1912 121.888 81.3079 121.888C81.421 121.888 81.5086 121.919 81.5706 121.981C81.6344 122.043 81.6664 122.131 81.6664 122.246C81.6664 122.356 81.6344 122.442 81.5706 122.506C81.5086 122.568 81.421 122.599 81.3079 122.599C81.1912 122.599 81.1009 122.568 81.0371 122.506C80.975 122.442 80.944 122.356 80.944 122.246ZM84.5528 126.074L84.4242 125.653H84.4023C84.2564 125.837 84.1095 125.963 83.9618 126.03C83.8141 126.096 83.6244 126.129 83.3927 126.129C83.0954 126.129 82.8628 126.048 82.695 125.888C82.529 125.727 82.446 125.5 82.446 125.207C82.446 124.895 82.5618 124.659 82.7935 124.501C83.0252 124.342 83.3781 124.255 83.8524 124.241L84.3749 124.224V124.063C84.3749 123.87 84.3293 123.726 84.2381 123.631C84.1488 123.534 84.0092 123.486 83.8195 123.486C83.6645 123.486 83.5158 123.508 83.3735 123.554C83.2313 123.6 83.0945 123.653 82.9631 123.715L82.7552 123.256C82.9194 123.17 83.099 123.105 83.2942 123.062C83.4894 123.016 83.6736 122.993 83.8469 122.993C84.2318 122.993 84.5218 123.077 84.7169 123.245C84.9139 123.413 85.0124 123.676 85.0124 124.036V126.074H84.5528ZM83.5952 125.636C83.8286 125.636 84.0156 125.571 84.1561 125.442C84.2983 125.311 84.3695 125.127 84.3695 124.892V124.629L83.981 124.646C83.6782 124.657 83.4575 124.708 83.3188 124.799C83.182 124.888 83.1136 125.026 83.1136 125.212C83.1136 125.347 83.1537 125.452 83.234 125.527C83.3143 125.6 83.4347 125.636 83.5952 125.636ZM86.6649 126.074H86.0219V121.817H86.6649V126.074Z" fill="black"/>
<path d="M124.509 53.2314H125.01L123.568 57.2316H123.108L121.675 53.2314H122.167L123.087 55.8198C123.192 56.1171 123.276 56.4062 123.338 56.6871C123.404 56.3916 123.49 56.097 123.596 55.8033L124.509 53.2314ZM126.061 57.2316H125.606V54.2328H126.061V57.2316ZM125.568 53.4202C125.568 53.3163 125.594 53.2406 125.645 53.1931C125.696 53.1439 125.76 53.1193 125.836 53.1193C125.909 53.1193 125.972 53.1439 126.025 53.1931C126.078 53.2424 126.104 53.3181 126.104 53.4202C126.104 53.5224 126.078 53.599 126.025 53.6501C125.972 53.6993 125.909 53.7239 125.836 53.7239C125.76 53.7239 125.696 53.6993 125.645 53.6501C125.594 53.599 125.568 53.5224 125.568 53.4202ZM128.403 57.2863C127.959 57.2863 127.609 57.1513 127.352 56.8814C127.097 56.6114 126.969 56.2366 126.969 55.7568C126.969 55.2735 127.087 54.8895 127.325 54.605C127.563 54.3204 127.884 54.1781 128.285 54.1781C128.661 54.1781 128.958 54.3022 129.177 54.5502C129.396 54.7965 129.505 55.1221 129.505 55.527V55.8143H127.439C127.449 56.1663 127.537 56.4336 127.705 56.616C127.874 56.7984 128.113 56.8896 128.419 56.8896C128.742 56.8896 129.061 56.8221 129.377 56.6871V57.092C129.216 57.1613 129.064 57.2106 128.92 57.2398C128.777 57.2708 128.605 57.2863 128.403 57.2863ZM128.279 54.5584C128.039 54.5584 127.846 54.6369 127.702 54.7937C127.56 54.9506 127.476 55.1677 127.45 55.4449H129.018C129.018 55.1585 128.954 54.9397 128.827 54.7883C128.699 54.635 128.517 54.5584 128.279 54.5584ZM132.843 57.2316L132.293 55.4723C132.258 55.3647 132.194 55.1202 132.099 54.739H132.077C132.004 55.0582 131.94 55.3045 131.885 55.4778L131.319 57.2316H130.794L129.976 54.2328H130.452C130.645 54.9862 130.792 55.5598 130.892 55.9538C130.994 56.3478 131.053 56.6132 131.067 56.75H131.089C131.109 56.6461 131.141 56.512 131.185 56.3478C131.231 56.1818 131.27 56.0505 131.303 55.9538L131.853 54.2328H132.345L132.881 55.9538C132.984 56.2676 133.053 56.5311 133.089 56.7445H133.111C133.118 56.6789 133.138 56.5776 133.169 56.4408C133.201 56.304 133.392 55.568 133.74 54.2328H134.211L133.382 57.2316H132.843ZM138.279 57.2316L138.189 56.8047H138.167C138.018 56.9926 137.868 57.1203 137.719 57.1878C137.571 57.2535 137.386 57.2863 137.163 57.2863C136.866 57.2863 136.632 57.2097 136.463 57.0565C136.295 56.9032 136.211 56.6853 136.211 56.4025C136.211 55.797 136.695 55.4796 137.664 55.4504L138.173 55.434V55.2479C138.173 55.0126 138.122 54.8393 138.019 54.7281C137.919 54.615 137.758 54.5584 137.535 54.5584C137.285 54.5584 137.003 54.635 136.687 54.7883L136.547 54.4408C136.695 54.3605 136.857 54.2976 137.032 54.252C137.209 54.2064 137.386 54.1836 137.563 54.1836C137.92 54.1836 138.185 54.2629 138.356 54.4216C138.529 54.5803 138.616 54.8348 138.616 55.185V57.2316H138.279ZM137.253 56.9114C137.536 56.9114 137.758 56.8339 137.918 56.6789C138.081 56.5238 138.162 56.3068 138.162 56.0277V55.7568L137.708 55.776C137.346 55.7888 137.086 55.8453 136.925 55.9456C136.766 56.0441 136.687 56.1982 136.687 56.408C136.687 56.5722 136.736 56.6971 136.835 56.7829C136.935 56.8686 137.075 56.9114 137.253 56.9114ZM140.121 57.2316H139.666V52.9743H140.121V57.2316ZM141.65 57.2316H141.196V52.9743H141.65V57.2316Z" fill="#8883BB"/>
<path d="M124.509 167.702H125.01L123.568 171.702H123.108L121.675 167.702H122.167L123.087 170.29C123.192 170.588 123.276 170.877 123.338 171.158C123.404 170.862 123.49 170.567 123.596 170.274L124.509 167.702ZM126.061 171.702H125.606V168.703H126.061V171.702ZM125.568 167.891C125.568 167.787 125.594 167.711 125.645 167.664C125.696 167.614 125.76 167.59 125.836 167.59C125.909 167.59 125.972 167.614 126.025 167.664C126.078 167.713 126.104 167.789 126.104 167.891C126.104 167.993 126.078 168.069 126.025 168.121C125.972 168.17 125.909 168.194 125.836 168.194C125.76 168.194 125.696 168.17 125.645 168.121C125.594 168.069 125.568 167.993 125.568 167.891ZM128.403 171.757C127.959 171.757 127.609 171.622 127.352 171.352C127.097 171.082 126.969 170.707 126.969 170.227C126.969 169.744 127.087 169.36 127.325 169.075C127.563 168.791 127.884 168.649 128.285 168.649C128.661 168.649 128.958 168.773 129.177 169.021C129.396 169.267 129.505 169.593 129.505 169.997V170.285H127.439C127.449 170.637 127.537 170.904 127.705 171.086C127.874 171.269 128.113 171.36 128.419 171.36C128.742 171.36 129.061 171.293 129.377 171.158V171.562C129.216 171.632 129.064 171.681 128.92 171.71C128.777 171.741 128.605 171.757 128.403 171.757ZM128.279 169.029C128.039 169.029 127.846 169.107 127.702 169.264C127.56 169.421 127.476 169.638 127.45 169.915H129.018C129.018 169.629 128.954 169.41 128.827 169.259C128.699 169.106 128.517 169.029 128.279 169.029ZM132.843 171.702L132.293 169.943C132.258 169.835 132.194 169.591 132.099 169.209H132.077C132.004 169.529 131.94 169.775 131.885 169.948L131.319 171.702H130.794L129.976 168.703H130.452C130.645 169.457 130.792 170.03 130.892 170.424C130.994 170.818 131.053 171.084 131.067 171.22H131.089C131.109 171.117 131.141 170.982 131.185 170.818C131.231 170.652 131.27 170.521 131.303 170.424L131.853 168.703H132.345L132.881 170.424C132.984 170.738 133.053 171.002 133.089 171.215H133.111C133.118 171.149 133.138 171.048 133.169 170.911C133.201 170.775 133.392 170.039 133.74 168.703H134.211L133.382 171.702H132.843ZM138.279 171.702L138.189 171.275H138.167C138.018 171.463 137.868 171.591 137.719 171.658C137.571 171.724 137.386 171.757 137.163 171.757C136.866 171.757 136.632 171.68 136.463 171.527C136.295 171.374 136.211 171.156 136.211 170.873C136.211 170.267 136.695 169.95 137.664 169.921L138.173 169.904V169.718C138.173 169.483 138.122 169.31 138.019 169.199C137.919 169.085 137.758 169.029 137.535 169.029C137.285 169.029 137.003 169.106 136.687 169.259L136.547 168.911C136.695 168.831 136.857 168.768 137.032 168.722C137.209 168.677 137.386 168.654 137.563 168.654C137.92 168.654 138.185 168.733 138.356 168.892C138.529 169.051 138.616 169.305 138.616 169.655V171.702H138.279ZM137.253 171.382C137.536 171.382 137.758 171.304 137.918 171.149C138.081 170.994 138.162 170.777 138.162 170.498V170.227L137.708 170.246C137.346 170.259 137.086 170.316 136.925 170.416C136.766 170.515 136.687 170.669 136.687 170.878C136.687 171.043 136.736 171.168 136.835 171.253C136.935 171.339 137.075 171.382 137.253 171.382ZM140.121 171.702H139.666V167.445H140.121V171.702ZM141.65 171.702H141.196V167.445H141.65V171.702Z" fill="#8883BB"/>
<g filter="url(#filter1_d)">
<path d="M139.286 204.526C139.286 201.21 141.974 198.522 145.29 198.522H150.893V245.751H145.29C141.974 245.751 139.286 243.063 139.286 239.748V204.526Z" fill="white"/>
</g>
<g filter="url(#filter2_d)">
<path d="M147.691 91.2562C147.691 87.9405 150.379 85.2525 153.695 85.2525H155.66V132.241H153.695C150.379 132.241 147.691 129.553 147.691 126.238V91.2562Z" fill="white"/>
</g>
<g filter="url(#filter3_d)">
<rect x="106.466" y="85.2525" width="36.8227" height="46.9901" rx="4.12194" fill="white"/>
</g>
<path d="M117.617 122.081C117.617 122.379 117.519 122.608 117.323 122.767C117.128 122.925 116.85 123.005 116.489 123.005H116.192V124.074H115.725V121.217H116.548C116.904 121.217 117.172 121.29 117.349 121.436C117.527 121.582 117.617 121.797 117.617 122.081ZM116.192 122.612H116.44C116.68 122.612 116.856 122.57 116.968 122.487C117.08 122.404 117.136 122.273 117.136 122.096C117.136 121.932 117.086 121.81 116.985 121.729C116.885 121.648 116.729 121.608 116.516 121.608H116.192V122.612ZM118.678 124.074H118.218V121.033H118.678V124.074ZM120.769 124.074L120.677 123.773H120.661C120.557 123.905 120.452 123.994 120.347 124.043C120.241 124.09 120.106 124.113 119.94 124.113C119.728 124.113 119.562 124.056 119.442 123.941C119.323 123.826 119.264 123.664 119.264 123.454C119.264 123.232 119.347 123.064 119.512 122.95C119.678 122.837 119.93 122.775 120.268 122.765L120.642 122.753V122.638C120.642 122.499 120.609 122.397 120.544 122.329C120.48 122.26 120.38 122.225 120.245 122.225C120.134 122.225 120.028 122.241 119.926 122.274C119.825 122.307 119.727 122.345 119.633 122.389L119.485 122.061C119.602 122 119.73 121.954 119.87 121.922C120.009 121.89 120.141 121.873 120.264 121.873C120.539 121.873 120.747 121.933 120.886 122.053C121.027 122.173 121.097 122.361 121.097 122.618V124.074H120.769ZM120.085 123.761C120.251 123.761 120.385 123.715 120.485 123.623C120.587 123.529 120.638 123.398 120.638 123.23V123.042L120.36 123.054C120.144 123.062 119.986 123.098 119.887 123.163C119.79 123.227 119.741 123.325 119.741 123.458C119.741 123.555 119.769 123.63 119.827 123.683C119.884 123.735 119.97 123.761 120.085 123.761ZM123.72 124.074H123.258V122.745C123.258 122.578 123.225 122.454 123.157 122.372C123.09 122.29 122.984 122.249 122.838 122.249C122.644 122.249 122.502 122.306 122.412 122.421C122.322 122.535 122.277 122.727 122.277 122.997V124.074H121.818V121.912H122.178L122.242 122.196H122.266C122.331 122.093 122.423 122.013 122.543 121.957C122.663 121.901 122.796 121.873 122.942 121.873C123.46 121.873 123.72 122.137 123.72 122.665V124.074ZM125.891 123.458C125.891 123.669 125.814 123.832 125.66 123.945C125.506 124.057 125.286 124.113 125 124.113C124.712 124.113 124.48 124.069 124.306 123.982V123.585C124.56 123.703 124.796 123.761 125.015 123.761C125.298 123.761 125.439 123.676 125.439 123.505C125.439 123.451 125.424 123.405 125.392 123.368C125.361 123.332 125.31 123.294 125.238 123.255C125.166 123.216 125.067 123.172 124.939 123.122C124.69 123.026 124.522 122.929 124.433 122.833C124.346 122.737 124.302 122.611 124.302 122.458C124.302 122.273 124.376 122.129 124.525 122.028C124.675 121.925 124.878 121.873 125.135 121.873C125.389 121.873 125.629 121.925 125.856 122.028L125.707 122.374C125.474 122.277 125.278 122.229 125.119 122.229C124.877 122.229 124.755 122.298 124.755 122.436C124.755 122.504 124.787 122.561 124.849 122.608C124.913 122.655 125.051 122.72 125.263 122.802C125.442 122.871 125.572 122.934 125.652 122.991C125.733 123.049 125.793 123.115 125.832 123.191C125.871 123.265 125.891 123.354 125.891 123.458ZM126.401 123.83C126.401 123.735 126.426 123.662 126.475 123.611C126.525 123.56 126.596 123.535 126.69 123.535C126.785 123.535 126.857 123.561 126.907 123.615C126.957 123.667 126.981 123.738 126.981 123.83C126.981 123.922 126.956 123.996 126.905 124.051C126.856 124.104 126.784 124.131 126.69 124.131C126.596 124.131 126.525 124.104 126.475 124.051C126.426 123.997 126.401 123.923 126.401 123.83ZM128.38 124.113C128.111 124.113 127.9 124.015 127.749 123.82C127.598 123.624 127.523 123.35 127.523 122.997C127.523 122.643 127.599 122.367 127.751 122.17C127.905 121.972 128.117 121.873 128.388 121.873C128.672 121.873 128.889 121.978 129.037 122.188H129.061C129.038 122.033 129.027 121.911 129.027 121.821V121.033H129.489V124.074H129.129L129.049 123.791H129.027C128.88 124.006 128.665 124.113 128.38 124.113ZM128.504 123.742C128.693 123.742 128.83 123.689 128.916 123.583C129.002 123.477 129.046 123.304 129.049 123.066V123.001C129.049 122.729 129.005 122.535 128.916 122.421C128.827 122.306 128.689 122.249 128.5 122.249C128.338 122.249 128.214 122.314 128.126 122.446C128.039 122.576 127.995 122.763 127.995 123.005C127.995 123.245 128.038 123.428 128.123 123.554C128.207 123.679 128.334 123.742 128.504 123.742ZM132.142 122.989C132.142 123.342 132.052 123.618 131.871 123.816C131.69 124.014 131.438 124.113 131.115 124.113C130.913 124.113 130.734 124.067 130.579 123.976C130.424 123.885 130.305 123.754 130.221 123.583C130.138 123.413 130.096 123.215 130.096 122.989C130.096 122.639 130.186 122.365 130.366 122.169C130.546 121.972 130.799 121.873 131.126 121.873C131.439 121.873 131.686 121.974 131.869 122.176C132.051 122.377 132.142 122.648 132.142 122.989ZM130.569 122.989C130.569 123.488 130.754 123.738 131.122 123.738C131.487 123.738 131.67 123.488 131.67 122.989C131.67 122.496 131.486 122.249 131.118 122.249C130.926 122.249 130.786 122.312 130.698 122.44C130.612 122.568 130.569 122.751 130.569 122.989ZM133.624 124.113C133.297 124.113 133.048 124.018 132.877 123.828C132.708 123.636 132.623 123.362 132.623 123.005C132.623 122.641 132.712 122.362 132.889 122.167C133.067 121.971 133.325 121.873 133.661 121.873C133.889 121.873 134.094 121.916 134.277 122L134.138 122.37C133.944 122.294 133.783 122.256 133.657 122.256C133.283 122.256 133.096 122.505 133.096 123.001C133.096 123.243 133.142 123.426 133.235 123.548C133.329 123.669 133.465 123.73 133.645 123.73C133.85 123.73 134.043 123.679 134.226 123.578V123.978C134.144 124.026 134.056 124.061 133.962 124.082C133.869 124.103 133.757 124.113 133.624 124.113Z" fill="black"/>
<g filter="url(#filter4_d)">
<rect x="6.40405" y="85.2525" width="36.8227" height="46.9901" rx="4.12194" fill="white"/>
</g>
<path d="M21.6822 121.871C21.5545 121.871 21.4477 121.855 21.3617 121.822V121.43C21.4711 121.457 21.5662 121.471 21.647 121.471C21.9024 121.471 22.0301 121.309 22.0301 120.986V118.217H22.4991V120.97C22.4991 121.262 22.4294 121.485 22.29 121.639C22.1519 121.794 21.9493 121.871 21.6822 121.871ZM24.6234 121.074L24.5315 120.773H24.5159C24.4117 120.905 24.3068 120.994 24.2013 121.043C24.0957 121.09 23.9602 121.113 23.7948 121.113C23.5824 121.113 23.4163 121.056 23.2964 120.941C23.1778 120.826 23.1186 120.664 23.1186 120.454C23.1186 120.232 23.2013 120.064 23.3668 119.95C23.5322 119.837 23.7843 119.775 24.1231 119.765L24.4964 119.753V119.638C24.4964 119.499 24.4638 119.397 24.3986 119.329C24.3348 119.26 24.2351 119.225 24.0996 119.225C23.9889 119.225 23.8827 119.241 23.7811 119.274C23.6794 119.307 23.5817 119.345 23.4879 119.389L23.3394 119.061C23.4567 119 23.585 118.954 23.7244 118.922C23.8638 118.89 23.9954 118.873 24.1192 118.873C24.3941 118.873 24.6012 118.933 24.7406 119.053C24.8814 119.173 24.9517 119.361 24.9517 119.618V121.074H24.6234ZM23.9394 120.761C24.1061 120.761 24.2397 120.715 24.34 120.623C24.4416 120.529 24.4924 120.398 24.4924 120.23V120.042L24.2149 120.054C23.9987 120.062 23.841 120.098 23.742 120.163C23.6443 120.227 23.5954 120.325 23.5954 120.458C23.5954 120.555 23.6241 120.63 23.6814 120.683C23.7387 120.735 23.8247 120.761 23.9394 120.761ZM27.5743 121.074H27.1131V119.745C27.1131 119.578 27.0792 119.454 27.0115 119.372C26.9451 119.29 26.8389 119.249 26.6929 119.249C26.4988 119.249 26.3568 119.306 26.2669 119.421C26.177 119.535 26.132 119.727 26.132 119.997V121.074H25.6728V118.912H26.0324L26.0969 119.196H26.1203C26.1855 119.093 26.278 119.013 26.3978 118.957C26.5177 118.901 26.6506 118.873 26.7965 118.873C27.3151 118.873 27.5743 119.137 27.5743 119.665V121.074ZM14.7328 124.546H15.0573C15.2748 124.546 15.4325 124.505 15.5302 124.425C15.6279 124.344 15.6768 124.224 15.6768 124.065C15.6768 123.903 15.624 123.787 15.5185 123.717C15.413 123.647 15.254 123.612 15.0416 123.612H14.7328V124.546ZM14.7328 124.933V126.074H14.2658V123.217H15.0729C15.4416 123.217 15.7146 123.286 15.8918 123.424C16.069 123.562 16.1576 123.77 16.1576 124.049C16.1576 124.405 15.9725 124.658 15.6025 124.81L16.4097 126.074H15.8781L15.1941 124.933H14.7328ZM17.8011 126.113C17.4649 126.113 17.2017 126.015 17.0115 125.82C16.8226 125.623 16.7281 125.353 16.7281 125.009C16.7281 124.656 16.8161 124.378 16.992 124.176C17.1679 123.974 17.4095 123.873 17.717 123.873C18.0024 123.873 18.2278 123.96 18.3932 124.133C18.5587 124.307 18.6414 124.545 18.6414 124.849V125.097H17.2011C17.2076 125.307 17.2643 125.468 17.3711 125.581C17.4779 125.694 17.6284 125.75 17.8226 125.75C17.9502 125.75 18.0688 125.738 18.1782 125.714C18.289 125.69 18.4076 125.649 18.5339 125.593V125.966C18.4219 126.02 18.3085 126.058 18.1939 126.08C18.0792 126.102 17.9483 126.113 17.8011 126.113ZM17.717 124.221C17.5711 124.221 17.4538 124.268 17.3652 124.36C17.278 124.453 17.2258 124.587 17.2089 124.765H18.19C18.1874 124.586 18.1444 124.451 18.061 124.36C17.9776 124.268 17.863 124.221 17.717 124.221ZM20.3397 126.113C20.0661 126.113 19.8537 126.015 19.7025 125.818H19.6752C19.6934 126 19.7025 126.111 19.7025 126.15V127.036H19.2433V123.912H19.6146C19.625 123.953 19.6465 124.049 19.6791 124.202H19.7025C19.8459 123.983 20.0608 123.873 20.3475 123.873C20.6172 123.873 20.8269 123.971 20.9768 124.167C21.1279 124.362 21.2035 124.636 21.2035 124.989C21.2035 125.342 21.1266 125.618 20.9729 125.816C20.8204 126.014 20.6094 126.113 20.3397 126.113ZM20.2283 124.249C20.0459 124.249 19.9123 124.302 19.8276 124.409C19.7442 124.516 19.7025 124.686 19.7025 124.921V124.989C19.7025 125.253 19.7442 125.443 19.8276 125.562C19.911 125.679 20.0472 125.738 20.2361 125.738C20.395 125.738 20.5175 125.673 20.6035 125.542C20.6895 125.412 20.7325 125.226 20.7325 124.985C20.7325 124.743 20.6895 124.56 20.6035 124.436C20.5188 124.311 20.3937 124.249 20.2283 124.249ZM23.7342 124.989C23.7342 125.342 23.6437 125.618 23.4626 125.816C23.2815 126.014 23.0294 126.113 22.7063 126.113C22.5043 126.113 22.3258 126.067 22.1708 125.976C22.0157 125.885 21.8965 125.754 21.8131 125.583C21.7298 125.413 21.6881 125.215 21.6881 124.989C21.6881 124.639 21.778 124.365 21.9578 124.169C22.1376 123.972 22.391 123.873 22.718 123.873C23.0307 123.873 23.2782 123.974 23.4606 124.176C23.643 124.377 23.7342 124.648 23.7342 124.989ZM22.161 124.989C22.161 125.488 22.3454 125.738 22.7141 125.738C23.0789 125.738 23.2613 125.488 23.2613 124.989C23.2613 124.496 23.0776 124.249 22.7102 124.249C22.5174 124.249 22.3773 124.312 22.29 124.44C22.204 124.568 22.161 124.751 22.161 124.989ZM25.4403 123.873C25.5328 123.873 25.609 123.88 25.669 123.893L25.624 124.321C25.5589 124.305 25.4911 124.297 25.4208 124.297C25.237 124.297 25.0879 124.357 24.9732 124.477C24.8599 124.597 24.8032 124.753 24.8032 124.944V126.074H24.3439V123.912H24.7035L24.7641 124.294H24.7876C24.8592 124.165 24.9524 124.062 25.067 123.987C25.183 123.911 25.3074 123.873 25.4403 123.873ZM26.9568 125.742C27.0688 125.742 27.1809 125.724 27.2929 125.689V126.035C27.2421 126.057 27.1763 126.075 27.0955 126.09C27.0161 126.105 26.9333 126.113 26.8473 126.113C26.4122 126.113 26.1946 125.884 26.1946 125.425V124.26H25.8995V124.057L26.2161 123.889L26.3724 123.432H26.6558V123.912H27.2714V124.26H26.6558V125.417C26.6558 125.528 26.6832 125.61 26.7379 125.664C26.7939 125.716 26.8669 125.742 26.9568 125.742ZM27.7384 125.83C27.7384 125.735 27.7632 125.662 27.8127 125.611C27.8622 125.56 27.9339 125.535 28.0277 125.535C28.1228 125.535 28.1951 125.561 28.2446 125.615C28.2941 125.667 28.3189 125.738 28.3189 125.83C28.3189 125.922 28.2935 125.996 28.2426 126.051C28.1931 126.104 28.1215 126.131 28.0277 126.131C27.9339 126.131 27.8622 126.104 27.8127 126.051C27.7632 125.997 27.7384 125.923 27.7384 125.83ZM29.7181 126.113C29.4484 126.113 29.238 126.015 29.0868 125.82C28.9357 125.624 28.8601 125.35 28.8601 124.997C28.8601 124.643 28.9364 124.367 29.0888 124.17C29.2425 123.972 29.4549 123.873 29.7259 123.873C30.0099 123.873 30.2262 123.978 30.3747 124.188H30.3982C30.376 124.033 30.365 123.911 30.365 123.821V123.033H30.8262V126.074H30.4666L30.3865 125.791H30.365C30.2177 126.006 30.0021 126.113 29.7181 126.113ZM29.8412 125.742C30.0301 125.742 30.1676 125.689 30.2536 125.583C30.3396 125.477 30.3839 125.304 30.3865 125.066V125.001C30.3865 124.729 30.3422 124.535 30.2536 124.421C30.165 124.306 30.0262 124.249 29.8373 124.249C29.6757 124.249 29.5513 124.314 29.464 124.446C29.3767 124.576 29.3331 124.763 29.3331 125.005C29.3331 125.245 29.3754 125.428 29.4601 125.554C29.5448 125.679 29.6718 125.742 29.8412 125.742ZM33.4801 124.989C33.4801 125.342 33.3895 125.618 33.2084 125.816C33.0273 126.014 32.7752 126.113 32.4521 126.113C32.2502 126.113 32.0717 126.067 31.9166 125.976C31.7616 125.885 31.6424 125.754 31.559 125.583C31.4756 125.413 31.4339 125.215 31.4339 124.989C31.4339 124.639 31.5238 124.365 31.7036 124.169C31.8834 123.972 32.1368 123.873 32.4638 123.873C32.7765 123.873 33.0241 123.974 33.2065 124.176C33.3889 124.377 33.4801 124.648 33.4801 124.989ZM31.9069 124.989C31.9069 125.488 32.0912 125.738 32.4599 125.738C32.8247 125.738 33.0071 125.488 33.0071 124.989C33.0071 124.496 32.8234 124.249 32.456 124.249C32.2632 124.249 32.1231 124.312 32.0358 124.44C31.9498 124.568 31.9069 124.751 31.9069 124.989ZM34.9614 126.113C34.6344 126.113 34.3855 126.018 34.2148 125.828C34.0455 125.636 33.9608 125.362 33.9608 125.005C33.9608 124.641 34.0494 124.362 34.2266 124.167C34.4051 123.971 34.6624 123.873 34.9985 123.873C35.2265 123.873 35.4317 123.916 35.6141 124L35.4754 124.37C35.2812 124.294 35.121 124.256 34.9946 124.256C34.6207 124.256 34.4337 124.505 34.4337 125.001C34.4337 125.243 34.48 125.426 34.5725 125.548C34.6663 125.669 34.8031 125.73 34.9829 125.73C35.1874 125.73 35.3809 125.679 35.5633 125.578V125.978C35.4812 126.026 35.3933 126.061 35.2995 126.082C35.207 126.103 35.0943 126.113 34.9614 126.113Z" fill="black"/>
<path d="M0 299.784C0 296.469 2.68795 293.781 6.0037 293.781H144.089C147.404 293.781 150.092 296.469 150.092 299.784V325H0V299.784Z" fill="#8883BB" fill-opacity="0.85"/>
<path d="M0.200123 299.784C0.200123 296.579 2.79847 293.981 6.0037 293.981H144.089C147.294 293.981 149.892 296.579 149.892 299.784V324.8H0.200123V299.784Z" stroke="#C6C6C6" stroke-opacity="0.5" stroke-width="0.400246"/>
<g filter="url(#filter5_d)">
<rect x="40.0244" y="188.116" width="53.633" height="68.4421" rx="6.0037" fill="white"/>
</g>
<path d="M48.1605 240.547H49.3479C49.8988 240.547 50.2964 240.627 50.5409 240.787C50.7871 240.948 50.9102 241.201 50.9102 241.548C50.9102 241.782 50.85 241.976 50.7297 242.131C50.6093 242.286 50.436 242.383 50.2098 242.424V242.451C50.4907 242.504 50.6968 242.609 50.8282 242.766C50.9613 242.921 51.0279 243.131 51.0279 243.398C51.0279 243.757 50.902 244.039 50.6503 244.243C50.4004 244.446 50.052 244.547 49.6051 244.547H48.1605V240.547ZM48.8144 242.199H49.4437C49.7173 242.199 49.917 242.156 50.0429 242.071C50.1688 241.983 50.2317 241.835 50.2317 241.627C50.2317 241.44 50.1633 241.304 50.0265 241.22C49.8915 241.136 49.6763 241.094 49.3808 241.094H48.8144V242.199ZM48.8144 242.73V243.997H49.5094C49.783 243.997 49.9891 243.945 50.1277 243.841C50.2682 243.735 50.3384 243.569 50.3384 243.343C50.3384 243.135 50.2673 242.981 50.125 242.88C49.9827 242.78 49.7666 242.73 49.4765 242.73H48.8144ZM52.5463 244.547H51.9033V241.521H52.5463V244.547ZM51.865 240.719C51.865 240.604 51.896 240.516 51.958 240.454C52.0219 240.392 52.1122 240.361 52.2289 240.361C52.342 240.361 52.4296 240.392 52.4916 240.454C52.5554 240.516 52.5873 240.604 52.5873 240.719C52.5873 240.828 52.5554 240.915 52.4916 240.979C52.4296 241.041 52.342 241.072 52.2289 241.072C52.1122 241.072 52.0219 241.041 51.958 240.979C51.896 240.915 51.865 240.828 51.865 240.719ZM55.1153 241.466C55.2448 241.466 55.3516 241.475 55.4355 241.493L55.3725 242.093C55.2813 242.071 55.1865 242.06 55.088 242.06C54.8308 242.06 54.6219 242.144 54.4614 242.311C54.3027 242.479 54.2234 242.697 54.2234 242.965V244.547H53.5804V241.521H54.0838L54.1687 242.054H54.2015C54.3018 241.874 54.4322 241.73 54.5928 241.625C54.7551 241.519 54.9293 241.466 55.1153 241.466ZM57.2384 244.082C57.3953 244.082 57.5521 244.057 57.709 244.008V244.492C57.6379 244.523 57.5458 244.549 57.4327 244.569C57.3214 244.591 57.2056 244.601 57.0852 244.601C56.476 244.601 56.1713 244.28 56.1713 243.638V242.008H55.7582V241.723L56.2014 241.488L56.4203 240.848H56.8171V241.521H57.6789V242.008H56.8171V243.627C56.8171 243.782 56.8554 243.897 56.932 243.972C57.0104 244.045 57.1126 244.082 57.2384 244.082ZM61.0907 244.547H60.445V242.686C60.445 242.453 60.3975 242.279 60.3027 242.164C60.2097 242.049 60.061 241.991 59.8567 241.991C59.5868 241.991 59.3879 242.072 59.2602 242.235C59.1344 242.395 59.0715 242.665 59.0715 243.045V244.547H58.4285V240.289H59.0715V241.37C59.0715 241.543 59.0605 241.729 59.0386 241.926H59.0797C59.1672 241.78 59.2885 241.667 59.4436 241.586C59.6004 241.506 59.7828 241.466 59.9908 241.466C60.724 241.466 61.0907 241.835 61.0907 242.574V244.547ZM63.118 244.601C62.7404 244.601 62.4458 244.465 62.2342 244.191C62.0226 243.917 61.9169 243.533 61.9169 243.039C61.9169 242.543 62.0236 242.157 62.237 241.882C62.4522 241.605 62.7495 241.466 63.1289 241.466C63.5266 241.466 63.8294 241.613 64.0373 241.906H64.0701C64.0391 241.689 64.0236 241.518 64.0236 241.392V240.289H64.6693V244.547H64.1659L64.0537 244.15H64.0236C63.8175 244.451 63.5156 244.601 63.118 244.601ZM63.2904 244.082C63.5548 244.082 63.7473 244.008 63.8677 243.86C63.9881 243.71 64.0501 243.469 64.0537 243.135V243.045C64.0537 242.663 63.9917 242.393 63.8677 242.232C63.7436 242.072 63.5494 241.991 63.2849 241.991C63.0587 241.991 62.8845 242.083 62.7623 242.268C62.6401 242.45 62.579 242.711 62.579 243.05C62.579 243.386 62.6383 243.642 62.7568 243.819C62.8754 243.994 63.0532 244.082 63.2904 244.082ZM67.5941 244.547L67.4655 244.125H67.4436C67.2977 244.31 67.1508 244.435 67.0031 244.503C66.8553 244.569 66.6656 244.601 66.434 244.601C66.1367 244.601 65.9041 244.521 65.7363 244.361C65.5703 244.2 65.4873 243.973 65.4873 243.679C65.4873 243.368 65.6031 243.132 65.8348 242.974C66.0664 242.815 66.4194 242.728 66.8936 242.714L67.4162 242.697V242.536C67.4162 242.342 67.3706 242.198 67.2794 242.103C67.19 242.007 67.0505 241.958 66.8608 241.958C66.7058 241.958 66.5571 241.981 66.4148 242.027C66.2726 242.072 66.1357 242.126 66.0044 242.188L65.7965 241.729C65.9606 241.643 66.1403 241.578 66.3355 241.534C66.5307 241.489 66.7149 241.466 66.8882 241.466C67.273 241.466 67.5631 241.55 67.7582 241.718C67.9552 241.885 68.0537 242.149 68.0537 242.508V244.547H67.5941ZM66.6364 244.109C66.8699 244.109 67.0569 244.044 67.1973 243.915C67.3396 243.783 67.4108 243.6 67.4108 243.365V243.102L67.0222 243.119C66.7194 243.129 66.4987 243.181 66.3601 243.272C66.2233 243.361 66.1549 243.499 66.1549 243.685C66.1549 243.82 66.195 243.925 66.2753 244C66.3555 244.073 66.4759 244.109 66.6364 244.109ZM68.6036 241.521H69.304L69.9196 243.236C70.0126 243.481 70.0747 243.71 70.1057 243.926H70.1275C70.144 243.825 70.1741 243.704 70.2178 243.562C70.2616 243.418 70.4933 242.737 70.9128 241.521H71.6078L70.3136 244.949C70.0783 245.578 69.6861 245.893 69.1371 245.893C68.9948 245.893 68.8562 245.877 68.7212 245.846V245.337C68.8179 245.359 68.9282 245.37 69.0523 245.37C69.3624 245.37 69.5803 245.191 69.7062 244.831L69.8184 244.547L68.6036 241.521ZM72.0837 244.205C72.0837 244.072 72.1184 243.969 72.1877 243.898C72.257 243.827 72.3573 243.792 72.4887 243.792C72.6218 243.792 72.723 243.829 72.7924 243.904C72.8617 243.977 72.8963 244.077 72.8963 244.205C72.8963 244.334 72.8608 244.437 72.7896 244.514C72.7203 244.589 72.62 244.626 72.4887 244.626C72.3573 244.626 72.257 244.589 72.1877 244.514C72.1184 244.439 72.0837 244.336 72.0837 244.205ZM76.3847 244.547H75.739V242.681C75.739 242.449 75.6952 242.277 75.6077 242.164C75.5201 242.049 75.3833 241.991 75.1972 241.991C74.9492 241.991 74.7668 242.072 74.65 242.235C74.5351 242.395 74.4777 242.663 74.4777 243.039V244.547H73.8347V241.521H74.3381L74.4284 241.917H74.4612C74.5452 241.773 74.6665 241.662 74.8251 241.584C74.9857 241.505 75.1617 241.466 75.3532 241.466C75.8183 241.466 76.1266 241.625 76.278 241.942H76.3218C76.4111 241.792 76.537 241.676 76.6993 241.592C76.8617 241.508 77.0477 241.466 77.2575 241.466C77.6187 241.466 77.8813 241.557 78.0455 241.74C78.2115 241.922 78.2945 242.2 78.2945 242.574V244.547H77.6515V242.681C77.6515 242.449 77.6068 242.277 77.5174 242.164C77.4299 242.049 77.2931 241.991 77.107 241.991C76.8571 241.991 76.6738 242.07 76.5571 242.227C76.4422 242.382 76.3847 242.621 76.3847 242.943V244.547ZM80.8389 244.601C80.4558 244.601 80.1585 244.464 79.9469 244.188H79.9086C79.9342 244.444 79.9469 244.599 79.9469 244.653V245.893H79.304V241.521H79.8238C79.8384 241.577 79.8685 241.712 79.9141 241.926H79.9469C80.1476 241.619 80.4485 241.466 80.8498 241.466C81.2274 241.466 81.5211 241.603 81.7308 241.876C81.9424 242.15 82.0482 242.534 82.0482 243.028C82.0482 243.523 81.9406 243.908 81.7254 244.186C81.512 244.463 81.2165 244.601 80.8389 244.601ZM80.6829 241.991C80.4276 241.991 80.2406 242.066 80.122 242.216C80.0053 242.365 79.9469 242.604 79.9469 242.932V243.028C79.9469 243.397 80.0053 243.664 80.122 243.83C80.2388 243.994 80.4294 244.076 80.6939 244.076C80.9164 244.076 81.0879 243.985 81.2083 243.803C81.3286 243.62 81.3888 243.36 81.3888 243.023C81.3888 242.683 81.3286 242.427 81.2083 242.254C81.0897 242.079 80.9146 241.991 80.6829 241.991ZM85.2548 241.466C85.2548 241.719 85.1809 241.931 85.0332 242.101C84.8854 242.269 84.6775 242.382 84.4093 242.44V242.462C84.7304 242.502 84.9711 242.602 85.1317 242.763C85.2922 242.922 85.3724 243.133 85.3724 243.398C85.3724 243.782 85.2365 244.08 84.9648 244.29C84.693 244.498 84.3063 244.601 83.8047 244.601C83.3614 244.601 82.9875 244.529 82.6829 244.385V243.813C82.8525 243.897 83.0322 243.962 83.2219 244.008C83.4116 244.053 83.594 244.076 83.7691 244.076C84.0792 244.076 84.3108 244.019 84.4641 243.904C84.6173 243.789 84.6939 243.611 84.6939 243.37C84.6939 243.157 84.6091 243 84.4394 242.9C84.2698 242.799 84.0035 242.749 83.6405 242.749H83.293V242.227H83.646C84.2844 242.227 84.6036 242.006 84.6036 241.564C84.6036 241.393 84.548 241.261 84.4367 241.168C84.3254 241.075 84.1613 241.028 83.9442 241.028C83.7928 241.028 83.6469 241.05 83.5064 241.094C83.366 241.136 83.2 241.219 83.0085 241.343L82.6938 240.894C83.0605 240.624 83.4864 240.489 83.9716 240.489C84.3747 240.489 84.6893 240.576 84.9155 240.749C85.1417 240.922 85.2548 241.161 85.2548 241.466Z" fill="black"/>
<g filter="url(#filter6_d)">
<rect x="98.0603" y="198.522" width="37.0099" height="47.2291" rx="4.1429" fill="white"/>
</g>
<path d="M108.09 236.943H106.474V234.086H108.09V234.481H106.941V235.259H108.018V235.65H106.941V236.547H108.09V236.943ZM109.234 236.943L108.413 234.782H108.897L109.337 236.039C109.413 236.25 109.458 236.42 109.474 236.551H109.49C109.501 236.457 109.547 236.286 109.626 236.039L110.066 234.782H110.555L109.73 236.943H109.234ZM111.907 236.982C111.571 236.982 111.308 236.885 111.117 236.689C110.929 236.493 110.834 236.222 110.834 235.878C110.834 235.525 110.922 235.248 111.098 235.046C111.274 234.844 111.515 234.743 111.823 234.743C112.108 234.743 112.334 234.829 112.499 235.003C112.665 235.176 112.747 235.414 112.747 235.718V235.966H111.307C111.314 236.176 111.37 236.338 111.477 236.451C111.584 236.563 111.734 236.619 111.928 236.619C112.056 236.619 112.175 236.607 112.284 236.584C112.395 236.559 112.513 236.519 112.64 236.463V236.836C112.528 236.889 112.414 236.927 112.3 236.949C112.185 236.971 112.054 236.982 111.907 236.982ZM111.823 235.091C111.677 235.091 111.56 235.137 111.471 235.229C111.384 235.322 111.332 235.457 111.315 235.634H112.296C112.293 235.455 112.25 235.321 112.167 235.229C112.084 235.137 111.969 235.091 111.823 235.091ZM115.251 236.943H114.79V235.614C114.79 235.448 114.756 235.323 114.688 235.241C114.621 235.159 114.515 235.118 114.369 235.118C114.175 235.118 114.033 235.175 113.943 235.29C113.853 235.405 113.808 235.597 113.808 235.867V236.943H113.349V234.782H113.709L113.773 235.065H113.797C113.862 234.962 113.954 234.883 114.074 234.827C114.194 234.771 114.327 234.743 114.473 234.743C114.991 234.743 115.251 235.007 115.251 235.534V236.943ZM116.775 236.611C116.887 236.611 116.999 236.594 117.111 236.558V236.904C117.06 236.926 116.995 236.945 116.914 236.959C116.834 236.975 116.752 236.982 116.666 236.982C116.23 236.982 116.013 236.753 116.013 236.295V235.13H115.718V234.926L116.034 234.758L116.191 234.301H116.474V234.782H117.09V235.13H116.474V236.287C116.474 236.397 116.501 236.48 116.556 236.533C116.612 236.585 116.685 236.611 116.775 236.611ZM117.557 236.699C117.557 236.604 117.581 236.531 117.631 236.48C117.68 236.429 117.752 236.404 117.846 236.404C117.941 236.404 118.013 236.431 118.063 236.484C118.112 236.536 118.137 236.608 118.137 236.699C118.137 236.792 118.112 236.865 118.061 236.92C118.011 236.973 117.94 237 117.846 237C117.752 237 117.68 236.973 117.631 236.92C117.581 236.866 117.557 236.793 117.557 236.699ZM120.629 236.943H120.168V235.611C120.168 235.445 120.136 235.322 120.074 235.241C120.011 235.159 119.914 235.118 119.781 235.118C119.603 235.118 119.473 235.176 119.39 235.292C119.308 235.407 119.267 235.598 119.267 235.867V236.943H118.807V234.782H119.167L119.231 235.065H119.255C119.315 234.962 119.402 234.883 119.515 234.827C119.63 234.771 119.755 234.743 119.892 234.743C120.224 234.743 120.444 234.856 120.553 235.083H120.584C120.648 234.976 120.738 234.893 120.854 234.833C120.97 234.773 121.102 234.743 121.252 234.743C121.51 234.743 121.698 234.808 121.815 234.938C121.934 235.069 121.993 235.267 121.993 235.534V236.943H121.534V235.611C121.534 235.445 121.502 235.322 121.438 235.241C121.375 235.159 121.278 235.118 121.145 235.118C120.966 235.118 120.835 235.174 120.752 235.286C120.67 235.397 120.629 235.568 120.629 235.798V236.943ZM123.81 236.982C123.537 236.982 123.324 236.884 123.173 236.687H123.146C123.164 236.87 123.173 236.98 123.173 237.02V237.905H122.714V234.782H123.085C123.096 234.822 123.117 234.919 123.15 235.071H123.173C123.317 234.852 123.532 234.743 123.818 234.743C124.088 234.743 124.298 234.841 124.448 235.036C124.599 235.231 124.674 235.506 124.674 235.859C124.674 236.212 124.597 236.487 124.444 236.685C124.291 236.883 124.08 236.982 123.81 236.982ZM123.699 235.118C123.517 235.118 123.383 235.171 123.298 235.278C123.215 235.385 123.173 235.556 123.173 235.79V235.859C123.173 236.122 123.215 236.313 123.298 236.431C123.382 236.549 123.518 236.607 123.707 236.607C123.866 236.607 123.988 236.542 124.074 236.412C124.16 236.281 124.203 236.096 124.203 235.855C124.203 235.612 124.16 235.429 124.074 235.306C123.99 235.181 123.864 235.118 123.699 235.118ZM127.174 236.32H126.789V236.943H126.341V236.32H125.036V235.966L126.341 234.078H126.789V235.939H127.174V236.32ZM126.341 235.939V235.222C126.341 234.966 126.348 234.757 126.361 234.594H126.345C126.309 234.68 126.251 234.784 126.173 234.907L125.464 235.939H126.341Z" fill="black"/>
<circle cx="68.2412" cy="150.692" r="1.00022" fill="#424141"/>
<circle cx="74.8457" cy="150.492" r="2.00123" fill="#424141"/>
<circle cx="81.4492" cy="150.692" r="1.00022" fill="#424141"/>
<circle cx="86.6529" cy="150.692" r="0.600131" fill="#424141"/>
<circle cx="77.447" cy="265.563" r="1.00022" fill="#424141"/>
<circle cx="70.8435" cy="265.363" r="2.00123" fill="#424141"/>
<circle cx="83.051" cy="265.563" r="1.00022" fill="#424141"/>
<circle cx="88.2542" cy="265.563" r="0.600131" fill="#424141"/>
<path d="M38.3234 310.019V302.372C38.3234 302.214 38.4516 302.086 38.6099 302.086H41.7939C41.8666 302.086 41.9366 302.113 41.9897 302.163L43.1088 303.211C43.2742 303.365 43.4925 303.451 43.719 303.45L49.4425 303.423C49.6013 303.422 49.7304 303.551 49.7304 303.709V310.019C49.7304 310.177 49.6021 310.305 49.4439 310.305H38.6099C38.4517 310.305 38.3234 310.177 38.3234 310.019Z" stroke="white" stroke-width="0.60037" stroke-linecap="round" stroke-linejoin="round"/>
<path fill-rule="evenodd" clip-rule="evenodd" d="M74.846 311.391C78.1617 311.391 80.8497 308.703 80.8497 305.388C80.8497 302.072 78.1617 299.384 74.846 299.384C71.5302 299.384 68.8423 302.072 68.8423 305.388C68.8423 308.703 71.5302 311.391 74.846 311.391Z" stroke="white" stroke-width="0.60037" stroke-linecap="round" stroke-linejoin="round"/>
<path d="M74.8462 302.113V308.663" stroke="white" stroke-width="0.60037" stroke-linecap="round" stroke-linejoin="round"/>
<path d="M78.1208 305.388H71.5713" stroke="white" stroke-width="0.60037" stroke-linecap="round" stroke-linejoin="round"/>
<path fill-rule="evenodd" clip-rule="evenodd" d="M111.756 306.654L110.699 303.751C110.12 302.166 108.617 301.108 106.93 301.097C106.589 300.487 105.855 300.214 105.198 300.453C104.541 300.692 104.155 301.373 104.285 302.059C103 303.152 102.529 304.929 103.106 306.515L104.162 309.418C104.432 310.158 104.05 310.976 103.31 311.246L113.583 307.506C112.843 307.776 112.025 307.394 111.756 306.654Z" stroke="white" stroke-width="0.60037" stroke-linecap="round" stroke-linejoin="round"/>
<path d="M109.787 308.888C110.057 309.628 109.675 310.447 108.935 310.716C108.195 310.985 107.377 310.604 107.107 309.864" stroke="white" stroke-width="0.60037" stroke-linecap="round" stroke-linejoin="round"/>
<circle cx="110.156" cy="302.738" r="2.37664" fill="#EC2B2B"/>
<path d="M110.284 302.85C110.533 302.85 110.73 302.919 110.877 303.059C111.025 303.198 111.099 303.39 111.099 303.632C111.099 303.92 111.01 304.141 110.833 304.295C110.656 304.45 110.403 304.528 110.073 304.528C109.787 304.528 109.556 304.481 109.38 304.389V303.919C109.473 303.968 109.581 304.009 109.704 304.04C109.827 304.071 109.944 304.086 110.054 304.086C110.386 304.086 110.552 303.95 110.552 303.678C110.552 303.419 110.38 303.289 110.036 303.289C109.974 303.289 109.906 303.296 109.831 303.309C109.755 303.32 109.694 303.333 109.648 303.347L109.431 303.231L109.528 301.921H110.923V302.382H110.005L109.957 302.887L110.019 302.874C110.09 302.858 110.179 302.85 110.284 302.85Z" fill="white"/>
<path fill-rule="evenodd" clip-rule="evenodd" d="M77.7024 205.642C77.9237 205.863 78.048 206.163 78.0481 206.476V226.876C78.0481 227.528 77.5199 228.056 76.8684 228.056H56.814C56.1624 228.056 55.6343 227.528 55.6343 226.876V202.103C55.6343 201.452 56.1624 200.924 56.814 200.924H72.4953C72.8082 200.924 73.1082 201.048 73.3294 201.269L77.7024 205.642Z" stroke="#8883BB" stroke-width="0.60037" stroke-linecap="round" stroke-linejoin="round"/>
<path fill-rule="evenodd" clip-rule="evenodd" d="M70.3799 219.798C71.3571 219.798 72.1494 219.006 72.1494 218.029C72.1494 217.051 71.3571 216.259 70.3799 216.259C69.4026 216.259 68.6104 217.051 68.6104 218.029C68.6104 219.006 69.4026 219.798 70.3799 219.798Z" stroke="#8883BB" stroke-width="0.60037" stroke-linecap="round" stroke-linejoin="round"/>
<path fill-rule="evenodd" clip-rule="evenodd" d="M62.1225 220.978C63.0998 220.978 63.892 220.186 63.892 219.209C63.892 218.231 63.0998 217.439 62.1225 217.439C61.1453 217.439 60.353 218.231 60.353 219.209C60.353 220.186 61.1453 220.978 62.1225 220.978Z" stroke="#8883BB" stroke-width="0.60037" stroke-linecap="round" stroke-linejoin="round"/>
<path d="M63.8921 219.209V212.43C63.8923 211.904 64.2413 211.441 64.7474 211.296L70.6457 209.611C71.0018 209.509 71.385 209.58 71.6806 209.803C71.9763 210.026 72.15 210.375 72.1498 210.746V218.029" stroke="#8883BB" stroke-width="0.60037" stroke-linecap="round" stroke-linejoin="round"/>
<path fill-rule="evenodd" clip-rule="evenodd" d="M123.454 211.162C123.596 211.304 123.676 211.497 123.676 211.698V224.812C123.676 225.231 123.337 225.57 122.918 225.57H110.026C109.607 225.57 109.268 225.231 109.268 224.812V208.887C109.268 208.468 109.607 208.128 110.026 208.128H120.107C120.308 208.128 120.501 208.208 120.643 208.35L123.454 211.162Z" stroke="#9DDAF0" stroke-width="0.60037" stroke-linecap="round" stroke-linejoin="round"/>
<path fill-rule="evenodd" clip-rule="evenodd" d="M114.945 213.911C114.71 213.781 114.423 213.784 114.192 213.92C113.96 214.057 113.818 214.305 113.818 214.574V220.262C113.818 220.531 113.96 220.779 114.192 220.915C114.423 221.052 114.71 221.055 114.945 220.925L119.874 217.891C120.115 217.757 120.264 217.504 120.264 217.228C120.264 216.953 120.115 216.699 119.874 216.566L114.945 213.911Z" stroke="#9DDAF0" stroke-width="0.60037" stroke-linecap="round" stroke-linejoin="round"/>
<line x1="21.3234" y1="103.28" x2="28.1921" y2="103.28" stroke="#ED6A7C" stroke-width="0.60037" stroke-linecap="round"/>
<line x1="21.3234" y1="105.696" x2="28.1921" y2="105.696" stroke="#ED6A7C" stroke-width="0.60037" stroke-linecap="round"/>
<line x1="21.3234" y1="108.112" x2="28.1921" y2="108.112" stroke="#ED6A7C" stroke-width="0.60037" stroke-linecap="round"/>
<path fill-rule="evenodd" clip-rule="evenodd" d="M31.7978 97.8918C31.94 98.034 32.0199 98.2268 32.02 98.4279V111.542C32.02 111.961 31.6804 112.301 31.2616 112.301H18.3694C17.9506 112.301 17.6111 111.961 17.6111 111.542V95.6167C17.6111 95.1979 17.9506 94.8583 18.3694 94.8583H28.4503C28.6515 94.8584 28.8443 94.9383 28.9865 95.0805L31.7978 97.8918Z" stroke="#ED6A7C" stroke-width="0.60037" stroke-linecap="round" stroke-linejoin="round"/>
<line x1="121.385" y1="103.28" x2="128.254" y2="103.28" stroke="#ED6A7C" stroke-width="0.60037" stroke-linecap="round"/>
<line x1="121.385" y1="105.696" x2="128.254" y2="105.696" stroke="#ED6A7C" stroke-width="0.60037" stroke-linecap="round"/>
<line x1="121.385" y1="108.112" x2="128.254" y2="108.112" stroke="#ED6A7C" stroke-width="0.60037" stroke-linecap="round"/>
<path fill-rule="evenodd" clip-rule="evenodd" d="M131.859 97.8918C132.001 98.034 132.081 98.2268 132.081 98.4279V111.542C132.081 111.961 131.742 112.301 131.323 112.301H118.431C118.012 112.301 117.672 111.961 117.672 111.542V95.6167C117.672 95.1979 118.012 94.8583 118.431 94.8583H128.512C128.713 94.8584 128.906 94.9383 129.048 95.0805L131.859 97.8918Z" stroke="#ED6A7C" stroke-width="0.60037" stroke-linecap="round" stroke-linejoin="round"/>
<path d="M62.7387 107.402V90.9359C62.7387 90.6154 62.9985 90.3555 63.319 90.3555H70.3624C70.5097 90.3555 70.6515 90.4115 70.759 90.5122L73.2639 92.8567C73.4841 93.0628 73.7748 93.1769 74.0763 93.1754L86.3704 93.117C86.692 93.1155 86.9536 93.3757 86.9536 93.6973V107.402C86.9536 107.723 86.6937 107.983 86.3732 107.983H63.319C62.9985 107.983 62.7387 107.723 62.7387 107.402Z" stroke="#EA9078" stroke-width="0.60037" stroke-linecap="round" stroke-linejoin="round"/>
<path d="M13.208 299.384L7.20435 305.115H8.56882V311.119H11.5707V308.117C11.8436 307.025 12.3894 306.752 13.208 306.752C14.0267 306.752 14.5725 307.025 14.8454 308.117V311.119H17.8473V305.115H19.2117L13.208 299.384Z" fill="white"/>
<path d="M14.8454 308.117C14.5725 307.025 14.0267 306.752 13.208 306.752C12.3894 306.752 11.8436 307.025 11.5707 308.117V311.119H8.56882V305.115H7.20435L13.208 299.384L19.2117 305.115H17.8473V311.119H14.8454M14.8454 308.117C14.8454 308.662 14.8454 310.3 14.8454 311.119M14.8454 308.117V311.119" stroke="white" stroke-width="0.400246"/>
<path fill-rule="evenodd" clip-rule="evenodd" d="M138.285 305.41C139.838 305.41 141.097 304.151 141.097 302.597C141.097 301.044 139.838 299.784 138.285 299.784C136.731 299.784 135.472 301.044 135.472 302.597C135.472 304.151 136.731 305.41 138.285 305.41Z" stroke="white" stroke-width="0.60037" stroke-linecap="round" stroke-linejoin="round"/>
<path fill-rule="evenodd" clip-rule="evenodd" d="M133.682 310.78C133.682 308.238 135.743 306.177 138.285 306.177C140.827 306.177 142.888 308.238 142.888 310.78H133.682Z" stroke="white" stroke-width="0.60037" stroke-linecap="round" stroke-linejoin="round"/>
</g>
<defs>
<filter id="filter0_d" x="16.8106" y="42.0259" width="117.672" height="132.482" filterUnits="userSpaceOnUse" color-interpolation-filters="sRGB">
<feFlood flood-opacity="0" result="BackgroundImageFix"/>
<feColorMatrix in="SourceAlpha" type="matrix" values="0 0 0 0 0 0 0 0 0 0 0 0 0 0 0 0 0 0 127 0"/>
<feOffset dx="0.800493" dy="0.800493"/>
<feGaussianBlur stdDeviation="16.0099"/>
<feColorMatrix type="matrix" values="0 0 0 0 0.776471 0 0 0 0 0.776471 0 0 0 0 0.776471 0 0 0 0.8 0"/>
<feBlend mode="normal" in2="BackgroundImageFix" result="effect1_dropShadow"/>
<feBlend mode="normal" in="SourceGraphic" in2="effect1_dropShadow" result="shape"/>
</filter>
<filter id="filter1_d" x="108.067" y="167.303" width="75.6466" height="111.268" filterUnits="userSpaceOnUse" color-interpolation-filters="sRGB">
<feFlood flood-opacity="0" result="BackgroundImageFix"/>
<feColorMatrix in="SourceAlpha" type="matrix" values="0 0 0 0 0 0 0 0 0 0 0 0 0 0 0 0 0 0 127 0"/>
<feOffset dx="0.800493" dy="0.800493"/>
<feGaussianBlur stdDeviation="16.0099"/>
<feColorMatrix type="matrix" values="0 0 0 0 0.776471 0 0 0 0 0.776471 0 0 0 0 0.776471 0 0 0 0.8 0"/>
<feBlend mode="normal" in2="BackgroundImageFix" result="effect1_dropShadow"/>
<feBlend mode="normal" in="SourceGraphic" in2="effect1_dropShadow" result="shape"/>
</filter>
<filter id="filter2_d" x="116.472" y="54.0333" width="72.0083" height="111.028" filterUnits="userSpaceOnUse" color-interpolation-filters="sRGB">
<feFlood flood-opacity="0" result="BackgroundImageFix"/>
<feColorMatrix in="SourceAlpha" type="matrix" values="0 0 0 0 0 0 0 0 0 0 0 0 0 0 0 0 0 0 127 0"/>
<feOffset dx="0.800493" dy="0.800493"/>
<feGaussianBlur stdDeviation="16.0099"/>
<feColorMatrix type="matrix" values="0 0 0 0 0.776471 0 0 0 0 0.776471 0 0 0 0 0.776471 0 0 0 0.8 0"/>
<feBlend mode="normal" in2="BackgroundImageFix" result="effect1_dropShadow"/>
<feBlend mode="normal" in="SourceGraphic" in2="effect1_dropShadow" result="shape"/>
</filter>
<filter id="filter3_d" x="85.0315" y="63.8184" width="80.79" height="90.9575" filterUnits="userSpaceOnUse" color-interpolation-filters="sRGB">
<feFlood flood-opacity="0" result="BackgroundImageFix"/>
<feColorMatrix in="SourceAlpha" type="matrix" values="0 0 0 0 0 0 0 0 0 0 0 0 0 0 0 0 0 0 127 0"/>
<feOffset dx="0.549592" dy="0.549592"/>
<feGaussianBlur stdDeviation="10.9918"/>
<feColorMatrix type="matrix" values="0 0 0 0 0.776471 0 0 0 0 0.776471 0 0 0 0 0.776471 0 0 0 0.8 0"/>
<feBlend mode="normal" in2="BackgroundImageFix" result="effect1_dropShadow"/>
<feBlend mode="normal" in="SourceGraphic" in2="effect1_dropShadow" result="shape"/>
</filter>
<filter id="filter4_d" x="-15.03" y="63.8184" width="80.79" height="90.9575" filterUnits="userSpaceOnUse" color-interpolation-filters="sRGB">
<feFlood flood-opacity="0" result="BackgroundImageFix"/>
<feColorMatrix in="SourceAlpha" type="matrix" values="0 0 0 0 0 0 0 0 0 0 0 0 0 0 0 0 0 0 127 0"/>
<feOffset dx="0.549592" dy="0.549592"/>
<feGaussianBlur stdDeviation="10.9918"/>
<feColorMatrix type="matrix" values="0 0 0 0 0.776471 0 0 0 0 0.776471 0 0 0 0 0.776471 0 0 0 0.8 0"/>
<feBlend mode="normal" in2="BackgroundImageFix" result="effect1_dropShadow"/>
<feBlend mode="normal" in="SourceGraphic" in2="effect1_dropShadow" result="shape"/>
</filter>
<filter id="filter5_d" x="8.8052" y="156.897" width="117.672" height="132.482" filterUnits="userSpaceOnUse" color-interpolation-filters="sRGB">
<feFlood flood-opacity="0" result="BackgroundImageFix"/>
<feColorMatrix in="SourceAlpha" type="matrix" values="0 0 0 0 0 0 0 0 0 0 0 0 0 0 0 0 0 0 127 0"/>
<feOffset dx="0.800493" dy="0.800493"/>
<feGaussianBlur stdDeviation="16.0099"/>
<feColorMatrix type="matrix" values="0 0 0 0 0.776471 0 0 0 0 0.776471 0 0 0 0 0.776471 0 0 0 0.8 0"/>
<feBlend mode="normal" in2="BackgroundImageFix" result="effect1_dropShadow"/>
<feBlend mode="normal" in="SourceGraphic" in2="effect1_dropShadow" result="shape"/>
</filter>
<filter id="filter6_d" x="76.5172" y="176.979" width="81.2009" height="91.42" filterUnits="userSpaceOnUse" color-interpolation-filters="sRGB">
<feFlood flood-opacity="0" result="BackgroundImageFix"/>
<feColorMatrix in="SourceAlpha" type="matrix" values="0 0 0 0 0 0 0 0 0 0 0 0 0 0 0 0 0 0 127 0"/>
<feOffset dx="0.552387" dy="0.552387"/>
<feGaussianBlur stdDeviation="11.0477"/>
<feColorMatrix type="matrix" values="0 0 0 0 0.776471 0 0 0 0 0.776471 0 0 0 0 0.776471 0 0 0 0.8 0"/>
<feBlend mode="normal" in2="BackgroundImageFix" result="effect1_dropShadow"/>
<feBlend mode="normal" in="SourceGraphic" in2="effect1_dropShadow" result="shape"/>
</filter>
<clipPath id="clip0">
<rect width="150.092" height="325" fill="white"/>
</clipPath>
</defs>
</svg>
