<svg width="150" height="325" viewBox="0 0 150 325" fill="none" xmlns="http://www.w3.org/2000/svg">
<rect width="150" height="324.8" fill="white"/>
<path d="M76.5428 99.1121C75.8387 98.4779 74.7714 98.471 74.0591 99.096L57.8366 113.33C57.4321 113.685 57.2002 114.197 57.2002 114.735V132.931C57.2002 133.963 58.0371 134.8 59.0694 134.8H91.0796C92.1119 134.8 92.9488 133.963 92.9488 132.931V114.72C92.9488 114.191 92.7241 113.686 92.3305 113.331L76.5428 99.1121Z" fill="#2ABECC"/>
<path fill-rule="evenodd" clip-rule="evenodd" d="M68.3543 112.999H76.3042C76.6486 112.999 76.9277 113.278 76.9277 113.623V118.767L75.8366 118.767V116.429H74.5898C72.9541 116.429 71.6281 117.755 71.6281 119.39V122.196H71.6277V124.534H70.5365V122.196H68.3543C68.0099 122.196 67.7308 121.917 67.7308 121.573V113.623C67.7308 113.278 68.0099 112.999 68.3543 112.999ZM71.6281 124.534H68.3543C66.7186 124.534 65.3926 123.208 65.3926 121.573V113.623C65.3926 111.987 66.7186 110.661 68.3543 110.661H76.3042C77.9399 110.661 79.2659 111.987 79.2659 113.623V118.767V121.573C79.2659 123.208 77.9399 124.534 76.3042 124.534H73.9663V127.34C73.9663 127.685 74.2455 127.964 74.5898 127.964H82.5397C82.8841 127.964 83.1632 127.685 83.1632 127.34V119.39C83.1632 119.046 82.8841 118.767 82.5397 118.767H79.2659L80.3569 118.767V116.429H82.5397C84.1754 116.429 85.5014 117.755 85.5014 119.39V127.34C85.5014 128.976 84.1754 130.302 82.5397 130.302H74.5898C72.9541 130.302 71.6281 128.976 71.6281 127.34V124.534ZM73.9663 124.534V119.39C73.9663 119.046 74.2455 118.767 74.5898 118.767H76.9277V121.573C76.9277 121.917 76.6486 122.196 76.3042 122.196H75.0573V124.534H73.9663Z" fill="white"/>
<path d="M46.6273 155.464C46.7553 155.554 46.8577 155.669 46.9345 155.81C47.0113 155.938 47.0497 156.072 47.0497 156.213C47.0497 156.482 46.9601 156.68 46.7809 156.808C46.6145 156.936 46.4097 157 46.1665 157C45.9233 157 45.7185 156.949 45.5521 156.846C45.1681 156.629 44.8545 156.277 44.6113 155.79C44.3681 155.304 44.2465 154.587 44.2465 153.64C44.2465 153 44.0545 152.526 43.6705 152.219C43.2865 151.912 42.7873 151.758 42.1729 151.758H38.2944V156.078C38.2944 156.347 38.2176 156.571 38.064 156.75C37.9104 156.917 37.712 157 37.4688 157C37.1744 157 36.9184 156.91 36.7008 156.731C36.496 156.552 36.3936 156.334 36.3936 156.078V144.482C36.3936 144.226 36.4832 144.008 36.6624 143.829C36.8416 143.65 37.0592 143.56 37.3152 143.56H42.7105C43.4017 143.56 44.0353 143.733 44.6113 144.078C45.1873 144.411 45.6481 144.878 45.9937 145.48C46.3393 146.069 46.5121 146.734 46.5121 147.477C46.5121 148.194 46.3201 148.866 45.9361 149.493C45.5521 150.107 45.0593 150.568 44.4577 150.875C44.9313 151.118 45.3025 151.458 45.5713 151.893C45.8529 152.328 46.0065 152.834 46.0321 153.41C46.0833 154.139 46.1409 154.638 46.2049 154.907C46.2689 155.163 46.4097 155.349 46.6273 155.464ZM42.6721 150.165C42.9921 150.139 43.2929 150.011 43.5745 149.781C43.8689 149.55 44.1057 149.243 44.2849 148.859C44.4641 148.462 44.5537 148.021 44.5537 147.534C44.5537 146.92 44.3617 146.402 43.9777 145.979C43.6065 145.544 43.1521 145.326 42.6145 145.326H38.2944V150.165H42.6721ZM58.3716 151.97C58.3716 152.968 58.1476 153.864 57.6996 154.658C57.2516 155.451 56.6372 156.072 55.8564 156.52C55.0884 156.968 54.2372 157.192 53.3028 157.192C52.3684 157.192 51.5108 156.968 50.73 156.52C49.962 156.072 49.354 155.451 48.906 154.658C48.458 153.864 48.234 152.968 48.234 151.97C48.234 150.971 48.458 150.069 48.906 149.262C49.354 148.456 49.962 147.829 50.73 147.381C51.5108 146.933 52.3684 146.709 53.3028 146.709C54.2372 146.709 55.0884 146.933 55.8564 147.381C56.6372 147.829 57.2516 148.456 57.6996 149.262C58.1476 150.069 58.3716 150.971 58.3716 151.97ZM56.5476 151.97C56.5476 151.278 56.4004 150.664 56.106 150.126C55.8244 149.576 55.434 149.154 54.9348 148.859C54.4484 148.552 53.9044 148.398 53.3028 148.398C52.7012 148.398 52.1508 148.552 51.6516 148.859C51.1652 149.154 50.7748 149.576 50.4804 150.126C50.1988 150.664 50.058 151.278 50.058 151.97C50.058 152.648 50.1988 153.256 50.4804 153.794C50.7748 154.331 51.1652 154.754 51.6516 155.061C52.1508 155.355 52.7012 155.502 53.3028 155.502C53.9044 155.502 54.4484 155.355 54.9348 155.061C55.434 154.754 55.8244 154.331 56.106 153.794C56.4004 153.256 56.5476 152.648 56.5476 151.97ZM69.7443 151.97C69.7443 152.968 69.5203 153.864 69.0723 154.658C68.6243 155.451 68.0099 156.072 67.2291 156.52C66.4611 156.968 65.6099 157.192 64.6755 157.192C63.7411 157.192 62.8835 156.968 62.1027 156.52C61.3347 156.072 60.7267 155.451 60.2787 154.658C59.8307 153.864 59.6067 152.968 59.6067 151.97C59.6067 150.971 59.8307 150.069 60.2787 149.262C60.7267 148.456 61.3347 147.829 62.1027 147.381C62.8835 146.933 63.7411 146.709 64.6755 146.709C65.6099 146.709 66.4611 146.933 67.2291 147.381C68.0099 147.829 68.6243 148.456 69.0723 149.262C69.5203 150.069 69.7443 150.971 69.7443 151.97ZM67.9203 151.97C67.9203 151.278 67.7731 150.664 67.4787 150.126C67.1971 149.576 66.8067 149.154 66.3075 148.859C65.8211 148.552 65.2771 148.398 64.6755 148.398C64.0739 148.398 63.5235 148.552 63.0243 148.859C62.5379 149.154 62.1475 149.576 61.8531 150.126C61.5715 150.664 61.4307 151.278 61.4307 151.97C61.4307 152.648 61.5715 153.256 61.8531 153.794C62.1475 154.331 62.5379 154.754 63.0243 155.061C63.5235 155.355 64.0739 155.502 64.6755 155.502C65.2771 155.502 65.8211 155.355 66.3075 155.061C66.8067 154.754 67.1971 154.331 67.4787 153.794C67.7731 153.256 67.9203 152.648 67.9203 151.97ZM83.4978 143.541C83.7538 143.554 83.9714 143.65 84.1506 143.829C84.3298 143.995 84.4194 144.206 84.4194 144.462V156.078C84.4194 156.334 84.3298 156.552 84.1506 156.731C83.9842 156.91 83.7602 157 83.4786 157C83.197 157 82.9666 156.917 82.7874 156.75C82.6082 156.571 82.5186 156.347 82.5186 156.078V147.189L78.7938 152.834C78.7042 152.949 78.589 153.045 78.4482 153.122C78.3202 153.198 78.1858 153.23 78.045 153.218C77.917 153.23 77.7826 153.198 77.6418 153.122C77.5138 153.045 77.405 152.949 77.3154 152.834L73.5714 147.016V156.078C73.5714 156.347 73.4882 156.571 73.3218 156.75C73.1682 156.917 72.957 157 72.6882 157C72.4322 157 72.221 156.917 72.0546 156.75C71.901 156.571 71.8242 156.347 71.8242 156.078V144.462C71.8242 144.219 71.9138 144.008 72.093 143.829C72.2722 143.637 72.4962 143.541 72.765 143.541C72.9186 143.541 73.0658 143.579 73.2066 143.656C73.3602 143.733 73.4818 143.835 73.5714 143.963L78.1218 150.856L82.7298 143.963C82.9346 143.682 83.1906 143.541 83.4978 143.541ZM95.2703 146.805C95.5391 146.805 95.7567 146.894 95.9231 147.074C96.1023 147.24 96.1919 147.464 96.1919 147.746V156.078C96.1919 156.334 96.1023 156.552 95.9231 156.731C95.7567 156.91 95.5391 157 95.2703 157C95.0015 157 94.7839 156.917 94.6175 156.75C94.4511 156.571 94.3679 156.347 94.3679 156.078V155.579C94.0351 156.027 93.5807 156.411 93.0047 156.731C92.4287 157.038 91.8079 157.192 91.1423 157.192C90.2719 157.192 89.4783 156.968 88.7615 156.52C88.0575 156.072 87.5007 155.451 87.0911 154.658C86.6943 153.851 86.4959 152.949 86.4959 151.95C86.4959 150.952 86.6943 150.056 87.0911 149.262C87.5007 148.456 88.0575 147.829 88.7615 147.381C89.4655 146.933 90.2399 146.709 91.0847 146.709C91.7631 146.709 92.3903 146.85 92.9663 147.131C93.5551 147.413 94.0223 147.771 94.3679 148.206V147.746C94.3679 147.477 94.4511 147.253 94.6175 147.074C94.7839 146.894 95.0015 146.805 95.2703 146.805ZM91.3535 155.502C91.9551 155.502 92.4863 155.349 92.9471 155.042C93.4207 154.734 93.7855 154.312 94.0415 153.774C94.3103 153.237 94.4447 152.629 94.4447 151.95C94.4447 151.285 94.3103 150.683 94.0415 150.146C93.7855 149.608 93.4207 149.186 92.9471 148.878C92.4863 148.558 91.9551 148.398 91.3535 148.398C90.7519 148.398 90.2143 148.552 89.7407 148.859C89.2799 149.166 88.9151 149.589 88.6463 150.126C88.3903 150.664 88.2623 151.272 88.2623 151.95C88.2623 152.629 88.3903 153.237 88.6463 153.774C88.9151 154.312 89.2799 154.734 89.7407 155.042C90.2143 155.349 90.7519 155.502 91.3535 155.502ZM101.359 148.725V154.446C101.359 155.086 101.647 155.406 102.223 155.406C102.313 155.406 102.435 155.387 102.588 155.349C102.742 155.298 102.863 155.272 102.953 155.272C103.119 155.272 103.26 155.342 103.375 155.483C103.491 155.624 103.548 155.803 103.548 156.021C103.548 156.29 103.395 156.52 103.087 156.712C102.78 156.904 102.435 157 102.051 157C101.628 157 101.238 156.955 100.879 156.866C100.534 156.776 100.22 156.552 99.9386 156.194C99.6698 155.822 99.5354 155.266 99.5354 154.523V148.725H98.4218C98.1786 148.725 97.9738 148.648 97.8074 148.494C97.6538 148.328 97.577 148.123 97.577 147.88C97.577 147.637 97.6538 147.438 97.8074 147.285C97.9738 147.131 98.1786 147.054 98.4218 147.054H99.5354V145.442C99.5354 145.186 99.6186 144.968 99.785 144.789C99.9642 144.61 100.188 144.52 100.457 144.52C100.713 144.52 100.924 144.61 101.091 144.789C101.27 144.968 101.359 145.186 101.359 145.442V147.054H102.953C103.196 147.054 103.395 147.138 103.548 147.304C103.715 147.458 103.798 147.656 103.798 147.899C103.798 148.142 103.715 148.341 103.548 148.494C103.395 148.648 103.196 148.725 102.953 148.725H101.359ZM114.394 151.586C114.381 151.816 114.285 152.014 114.106 152.181C113.927 152.334 113.716 152.411 113.472 152.411H106.714C106.804 153.346 107.156 154.094 107.77 154.658C108.397 155.221 109.159 155.502 110.055 155.502C110.669 155.502 111.168 155.413 111.552 155.234C111.936 155.054 112.276 154.824 112.57 154.542C112.762 154.427 112.948 154.37 113.127 154.37C113.344 154.37 113.524 154.446 113.664 154.6C113.818 154.754 113.895 154.933 113.895 155.138C113.895 155.406 113.767 155.65 113.511 155.867C113.14 156.238 112.647 156.552 112.032 156.808C111.418 157.064 110.791 157.192 110.151 157.192C109.114 157.192 108.199 156.974 107.405 156.539C106.624 156.104 106.016 155.496 105.581 154.715C105.159 153.934 104.948 153.051 104.948 152.066C104.948 150.99 105.165 150.05 105.6 149.243C106.048 148.424 106.631 147.797 107.348 147.362C108.077 146.926 108.858 146.709 109.69 146.709C110.509 146.709 111.277 146.92 111.994 147.342C112.711 147.765 113.287 148.347 113.722 149.09C114.157 149.832 114.381 150.664 114.394 151.586ZM109.69 148.398C108.973 148.398 108.352 148.603 107.828 149.013C107.303 149.41 106.957 150.03 106.791 150.875H112.455V150.722C112.391 150.043 112.084 149.486 111.533 149.051C110.996 148.616 110.381 148.398 109.69 148.398Z" fill="#212121"/>
</svg>
