<svg width="162" height="349" viewBox="0 0 162 349" fill="none" xmlns="http://www.w3.org/2000/svg">
<g clip-path="url(#clip0)">
<rect width="161.176" height="349" fill="white"/>
<rect width="161.176" height="349" fill="white"/>
<path d="M80.8499 114.122L77.9814 109.261L83.8553 109.345L80.8499 114.122Z" fill="white"/>
<path d="M59.4451 69.883H58.599L57.1131 64.952C57.0426 64.7338 56.9637 64.4584 56.8764 64.126C56.7891 63.7936 56.7438 63.5938 56.7404 63.5266C56.6665 63.9698 56.549 64.4551 56.3878 64.9822L54.9473 69.883H54.1011L52.1419 62.5193H53.0485L54.212 67.0675C54.3731 67.7054 54.4907 68.283 54.5645 68.8001C54.6552 68.1856 54.7895 67.5846 54.9675 66.9969L56.2871 62.5193H57.1937L58.5788 67.0372C58.74 67.5577 58.876 68.1453 58.9868 68.8001C59.0506 68.3233 59.1715 67.7424 59.3494 67.0574L60.5079 62.5193H61.4145L59.4451 69.883ZM64.774 69.9837C63.9581 69.9837 63.3134 69.7353 62.8399 69.2383C62.3698 68.7413 62.1348 68.0513 62.1348 67.1682C62.1348 66.2784 62.353 65.5715 62.7895 65.0477C63.2294 64.5239 63.8187 64.262 64.5574 64.262C65.2492 64.262 65.7965 64.4903 66.1994 64.947C66.6024 65.4003 66.8038 65.9997 66.8038 66.7451V67.274H63.0011C63.0179 67.922 63.1807 68.4139 63.4897 68.7497C63.8019 69.0855 64.2401 69.2534 64.8042 69.2534C65.3986 69.2534 65.9862 69.1292 66.5671 68.8807V69.6261C66.2716 69.7537 65.9912 69.8444 65.726 69.8981C65.4641 69.9552 65.1467 69.9837 64.774 69.9837ZM64.5474 64.9621C64.1041 64.9621 63.7499 65.1065 63.4846 65.3952C63.2227 65.684 63.0682 66.0836 63.0212 66.594H65.9073C65.9073 66.0668 65.7898 65.6639 65.5547 65.3852C65.3197 65.1031 64.9839 64.9621 64.5474 64.9621ZM69.0704 69.883H68.2343V62.0458H69.0704V69.883ZM73.0494 69.9837C72.2502 69.9837 71.6307 69.7386 71.1909 69.2484C70.7543 68.7548 70.5361 68.058 70.5361 67.1581C70.5361 66.2347 70.7577 65.5212 71.2009 65.0175C71.6475 64.5138 72.2821 64.262 73.1048 64.262C73.3701 64.262 73.6354 64.2905 73.9006 64.3476C74.1659 64.4047 74.3741 64.4718 74.5252 64.5491L74.2683 65.2593C74.0836 65.1854 73.8822 65.1249 73.6639 65.0779C73.4456 65.0276 73.2526 65.0024 73.0847 65.0024C71.9632 65.0024 71.4024 65.7176 71.4024 67.148C71.4024 67.8263 71.5384 68.3468 71.8104 68.7094C72.0857 69.0721 72.492 69.2534 73.0293 69.2534C73.4893 69.2534 73.9611 69.1543 74.4446 68.9562V69.6966C74.0752 69.888 73.6102 69.9837 73.0494 69.9837ZM80.524 67.1178C80.524 68.0177 80.2973 68.7212 79.844 69.2282C79.3907 69.7319 78.7645 69.9837 77.9653 69.9837C77.4717 69.9837 77.0335 69.8679 76.6507 69.6362C76.2679 69.4045 75.9724 69.0721 75.7642 68.6389C75.556 68.2058 75.4519 67.6987 75.4519 67.1178C75.4519 66.2179 75.6769 65.5178 76.1269 65.0175C76.5768 64.5138 77.2014 64.262 78.0005 64.262C78.7728 64.262 79.3857 64.5189 79.839 65.0326C80.2956 65.5464 80.524 66.2414 80.524 67.1178ZM76.3183 67.1178C76.3183 67.823 76.4593 68.3602 76.7414 68.7296C77.0234 69.0989 77.4381 69.2836 77.9854 69.2836C78.5328 69.2836 78.9475 69.1006 79.2295 68.7346C79.5149 68.3653 79.6576 67.8263 79.6576 67.1178C79.6576 66.416 79.5149 65.8838 79.2295 65.5212C78.9475 65.1552 78.5294 64.9722 77.9754 64.9722C77.428 64.9722 77.015 65.1518 76.7363 65.5111C76.4576 65.8704 76.3183 66.406 76.3183 67.1178ZM89.031 69.883V66.2918C89.031 65.8519 88.937 65.5228 88.749 65.3046C88.5609 65.083 88.2688 64.9722 87.8726 64.9722C87.3521 64.9722 86.9676 65.1216 86.7192 65.4204C86.4707 65.7193 86.3464 66.1793 86.3464 66.8005V69.883H85.5103V66.2918C85.5103 65.8519 85.4163 65.5228 85.2283 65.3046C85.0402 65.083 84.7464 64.9722 84.3469 64.9722C83.823 64.9722 83.4386 65.13 83.1934 65.4456C82.9517 65.7579 82.8308 66.2716 82.8308 66.9869V69.883H81.9947V64.3627H82.6747L82.8106 65.1182H82.8509C83.0088 64.8496 83.2304 64.6397 83.5158 64.4886C83.8046 64.3375 84.1269 64.262 84.4828 64.262C85.3458 64.262 85.9099 64.5743 86.1752 65.1988H86.2155C86.38 64.91 86.6184 64.6817 86.9307 64.5138C87.243 64.3459 87.5989 64.262 87.9985 64.262C88.6231 64.262 89.0898 64.4232 89.3987 64.7455C89.711 65.0645 89.8671 65.5766 89.8671 66.2817V69.883H89.031ZM93.9268 69.9837C93.1108 69.9837 92.4661 69.7353 91.9926 69.2383C91.5226 68.7413 91.2875 68.0513 91.2875 67.1682C91.2875 66.2784 91.5058 65.5715 91.9423 65.0477C92.3822 64.5239 92.9715 64.262 93.7102 64.262C94.4019 64.262 94.9492 64.4903 95.3522 64.947C95.7551 65.4003 95.9566 65.9997 95.9566 66.7451V67.274H92.1538C92.1706 67.922 92.3335 68.4139 92.6424 68.7497C92.9547 69.0855 93.3929 69.2534 93.957 69.2534C94.5513 69.2534 95.1389 69.1292 95.7198 68.8807V69.6261C95.4244 69.7537 95.144 69.8444 94.8787 69.8981C94.6168 69.9552 94.2995 69.9837 93.9268 69.9837ZM93.7001 64.9621C93.2569 64.9621 92.9026 65.1065 92.6374 65.3952C92.3754 65.684 92.221 66.0836 92.174 66.594H95.06C95.06 66.0668 94.9425 65.6639 94.7075 65.3852C94.4724 65.1031 94.1366 64.9621 93.7001 64.9621ZM101.85 69.2937C101.997 69.2937 102.14 69.2836 102.278 69.2635C102.415 69.24 102.525 69.2165 102.605 69.193V69.8326C102.514 69.8763 102.38 69.9115 102.202 69.9384C102.028 69.9686 101.87 69.9837 101.729 69.9837C100.661 69.9837 100.127 69.4213 100.127 68.2964V65.0125H99.3362V64.6095L100.127 64.262L100.48 63.0834H100.963V64.3627H102.565V65.0125H100.963V68.2612C100.963 68.5936 101.042 68.8488 101.2 69.0267C101.358 69.2047 101.574 69.2937 101.85 69.2937ZM108.478 67.1178C108.478 68.0177 108.251 68.7212 107.798 69.2282C107.345 69.7319 106.718 69.9837 105.919 69.9837C105.426 69.9837 104.987 69.8679 104.605 69.6362C104.222 69.4045 103.926 69.0721 103.718 68.6389C103.51 68.2058 103.406 67.6987 103.406 67.1178C103.406 66.2179 103.631 65.5178 104.081 65.0175C104.531 64.5138 105.155 64.262 105.955 64.262C106.727 64.262 107.34 64.5189 107.793 65.0326C108.25 65.5464 108.478 66.2414 108.478 67.1178ZM104.272 67.1178C104.272 67.823 104.413 68.3602 104.695 68.7296C104.977 69.0989 105.392 69.2836 105.939 69.2836C106.487 69.2836 106.901 69.1006 107.183 68.7346C107.469 68.3653 107.612 67.8263 107.612 67.1178C107.612 66.416 107.469 65.8838 107.183 65.5212C106.901 65.1552 106.483 64.9722 105.929 64.9722C105.382 64.9722 104.969 65.1518 104.69 65.5111C104.412 65.8704 104.272 66.406 104.272 67.1178Z" fill="black"/>
<rect x="35.6729" y="138.397" width="89.399" height="20.2007" rx="2.57882" fill="#8883BB" fill-opacity="0.85"/>
<rect x="35.6729" y="168.053" width="89.399" height="20.2007" rx="2.57882" fill="#ED6A7C"/>
<path d="M60.3249 174.268H62.4051C63.3822 174.268 64.089 174.414 64.5255 174.706C64.9621 174.998 65.1803 175.46 65.1803 176.091C65.1803 176.528 65.0578 176.889 64.8126 177.174C64.5709 177.456 64.2166 177.639 63.7499 177.723V177.774C64.868 177.965 65.4271 178.553 65.4271 179.536C65.4271 180.195 65.2038 180.708 64.7572 181.078C64.314 181.447 63.6928 181.632 62.8936 181.632H60.3249V174.268ZM61.1811 177.421H62.5914C63.1958 177.421 63.6307 177.327 63.8959 177.139C64.1612 176.948 64.2938 176.627 64.2938 176.177C64.2938 175.764 64.1461 175.467 63.8506 175.285C63.5551 175.101 63.085 175.008 62.4403 175.008H61.1811V177.421ZM61.1811 178.146V180.901H62.7173C63.3117 180.901 63.7583 180.787 64.0571 180.559C64.3593 180.327 64.5104 179.966 64.5104 179.476C64.5104 179.019 64.356 178.684 64.047 178.469C63.7415 178.254 63.2747 178.146 62.6468 178.146H61.1811ZM67.6735 176.111V179.693C67.6735 180.143 67.7759 180.478 67.9808 180.7C68.1856 180.922 68.5063 181.032 68.9428 181.032C69.5203 181.032 69.9417 180.875 70.207 180.559C70.4756 180.243 70.6099 179.728 70.6099 179.013V176.111H71.446V181.632H70.756L70.6351 180.891H70.5898C70.4185 181.163 70.1801 181.372 69.8746 181.516C69.5724 181.66 69.2265 181.732 68.837 181.732C68.1654 181.732 67.6618 181.573 67.326 181.254C66.9935 180.935 66.8273 180.425 66.8273 179.723V176.111H67.6735ZM76.785 180.126C76.785 180.64 76.5936 181.036 76.2108 181.314C75.828 181.593 75.2908 181.732 74.599 181.732C73.867 181.732 73.2962 181.617 72.8866 181.385V180.609C73.1518 180.744 73.4356 180.849 73.7378 180.927C74.0433 181.004 74.3371 181.042 74.6192 181.042C75.0557 181.042 75.3915 180.974 75.6265 180.836C75.8616 180.695 75.9791 180.482 75.9791 180.196C75.9791 179.981 75.8851 179.798 75.6971 179.647C75.5124 179.493 75.1497 179.311 74.6091 179.103C74.0954 178.912 73.7294 178.746 73.5111 178.605C73.2962 178.46 73.135 178.297 73.0276 178.116C72.9235 177.935 72.8714 177.718 72.8714 177.466C72.8714 177.016 73.0544 176.662 73.4204 176.404C73.7865 176.142 74.2884 176.011 74.9264 176.011C75.5208 176.011 76.1017 176.132 76.6692 176.373L76.372 177.053C75.8179 176.825 75.3159 176.711 74.866 176.711C74.4698 176.711 74.1709 176.773 73.9695 176.897C73.768 177.021 73.6672 177.193 73.6672 177.411C73.6672 177.559 73.7042 177.685 73.7781 177.789C73.8553 177.893 73.9778 177.992 74.1457 178.086C74.3136 178.18 74.636 178.316 75.1128 178.494C75.7676 178.732 76.2091 178.972 76.4375 179.214C76.6692 179.456 76.785 179.76 76.785 180.126ZM78.9861 181.632H78.15V176.111H78.9861V181.632ZM78.0794 174.616C78.0794 174.424 78.1265 174.285 78.2205 174.197C78.3145 174.107 78.432 174.062 78.573 174.062C78.7074 174.062 78.8232 174.107 78.9206 174.197C79.018 174.288 79.0666 174.428 79.0666 174.616C79.0666 174.804 79.018 174.945 78.9206 175.039C78.8232 175.129 78.7074 175.175 78.573 175.175C78.432 175.175 78.3145 175.129 78.2205 175.039C78.1265 174.945 78.0794 174.804 78.0794 174.616ZM84.5366 181.632V178.061C84.5366 177.611 84.4341 177.275 84.2293 177.053C84.0245 176.832 83.7038 176.721 83.2673 176.721C82.6898 176.721 82.2667 176.877 81.998 177.189C81.7294 177.502 81.5951 178.017 81.5951 178.736V181.632H80.759V176.111H81.439L81.575 176.867H81.6152C81.7865 176.595 82.0266 176.385 82.3355 176.237C82.6444 176.086 82.9886 176.011 83.368 176.011C84.0329 176.011 84.5332 176.172 84.869 176.494C85.2048 176.813 85.3727 177.325 85.3727 178.03V181.632H84.5366ZM89.4272 181.732C88.6113 181.732 87.9666 181.484 87.4931 180.987C87.023 180.49 86.788 179.8 86.788 178.917C86.788 178.027 87.0062 177.32 87.4428 176.796C87.8826 176.273 88.4719 176.011 89.2107 176.011C89.9024 176.011 90.4497 176.239 90.8526 176.696C91.2556 177.149 91.4571 177.748 91.4571 178.494V179.023H87.6543C87.6711 179.671 87.834 180.163 88.1429 180.498C88.4552 180.834 88.8934 181.002 89.4575 181.002C90.0518 181.002 90.6394 180.878 91.2203 180.629V181.375C90.9248 181.502 90.6445 181.593 90.3792 181.647C90.1173 181.704 89.8 181.732 89.4272 181.732ZM89.2006 176.711C88.7574 176.711 88.4031 176.855 88.1378 177.144C87.8759 177.433 87.7215 177.832 87.6745 178.343H90.5605C90.5605 177.816 90.443 177.413 90.2079 177.134C89.9729 176.852 89.6371 176.711 89.2006 176.711ZM96.4485 180.126C96.4485 180.64 96.2571 181.036 95.8743 181.314C95.4915 181.593 94.9542 181.732 94.2625 181.732C93.5305 181.732 92.9597 181.617 92.55 181.385V180.609C92.8153 180.744 93.099 180.849 93.4012 180.927C93.7068 181.004 94.0006 181.042 94.2827 181.042C94.7192 181.042 95.055 180.974 95.29 180.836C95.5251 180.695 95.6426 180.482 95.6426 180.196C95.6426 179.981 95.5486 179.798 95.3605 179.647C95.1759 179.493 94.8132 179.311 94.2726 179.103C93.7589 178.912 93.3929 178.746 93.1746 178.605C92.9597 178.46 92.7985 178.297 92.6911 178.116C92.587 177.935 92.5349 177.718 92.5349 177.466C92.5349 177.016 92.7179 176.662 93.0839 176.404C93.4499 176.142 93.9519 176.011 94.5899 176.011C95.1843 176.011 95.7652 176.132 96.3326 176.373L96.0355 177.053C95.4814 176.825 94.9794 176.711 94.5295 176.711C94.1333 176.711 93.8344 176.773 93.6329 176.897C93.4315 177.021 93.3307 177.193 93.3307 177.411C93.3307 177.559 93.3677 177.685 93.4415 177.789C93.5188 177.893 93.6413 177.992 93.8092 178.086C93.9771 178.18 94.2995 178.316 94.7763 178.494C95.4311 178.732 95.8726 178.972 96.1009 179.214C96.3326 179.456 96.4485 179.76 96.4485 180.126ZM101.374 180.126C101.374 180.64 101.183 181.036 100.8 181.314C100.417 181.593 99.8802 181.732 99.1885 181.732C98.4565 181.732 97.8856 181.617 97.476 181.385V180.609C97.7413 180.744 98.025 180.849 98.3272 180.927C98.6328 181.004 98.9266 181.042 99.2086 181.042C99.6451 181.042 99.9809 180.974 100.216 180.836C100.451 180.695 100.569 180.482 100.569 180.196C100.569 179.981 100.475 179.798 100.286 179.647C100.102 179.493 99.7392 179.311 99.1986 179.103C98.6848 178.912 98.3188 178.746 98.1005 178.605C97.8856 178.46 97.7245 178.297 97.617 178.116C97.5129 177.935 97.4609 177.718 97.4609 177.466C97.4609 177.016 97.6439 176.662 98.0099 176.404C98.3759 176.142 98.8779 176.011 99.5159 176.011C100.11 176.011 100.691 176.132 101.259 176.373L100.961 177.053C100.407 176.825 99.9054 176.711 99.4554 176.711C99.0592 176.711 98.7604 176.773 98.5589 176.897C98.3574 177.021 98.2567 177.193 98.2567 177.411C98.2567 177.559 98.2936 177.685 98.3675 177.789C98.4447 177.893 98.5673 177.992 98.7352 178.086C98.9031 178.18 99.2254 178.316 99.7022 178.494C100.357 178.732 100.799 178.972 101.027 179.214C101.259 179.456 101.374 179.76 101.374 180.126Z" fill="white"/>
<path d="M64.994 146.757C64.994 147.503 64.7388 148.077 64.2284 148.48C63.7213 148.879 62.9944 149.079 62.0475 149.079H61.1811V151.975H60.3249V144.612H62.2338C64.0739 144.612 64.994 145.327 64.994 146.757ZM61.1811 148.344H61.9518C62.7106 148.344 63.2596 148.221 63.5988 147.976C63.9379 147.731 64.1075 147.338 64.1075 146.798C64.1075 146.311 63.948 145.948 63.629 145.71C63.31 145.471 62.813 145.352 62.1381 145.352H61.1811V148.344ZM68.7463 152.076C67.9304 152.076 67.2857 151.828 66.8122 151.331C66.3421 150.834 66.1071 150.144 66.1071 149.261C66.1071 148.371 66.3253 147.664 66.7619 147.14C67.2017 146.616 67.791 146.354 68.5298 146.354C69.2215 146.354 69.7688 146.583 70.1717 147.039C70.5747 147.493 70.7762 148.092 70.7762 148.837V149.366H66.9734C66.9902 150.014 67.153 150.506 67.462 150.842C67.7742 151.178 68.2124 151.346 68.7766 151.346C69.3709 151.346 69.9585 151.222 70.5394 150.973V151.718C70.2439 151.846 69.9636 151.937 69.6983 151.99C69.4364 152.048 69.1191 152.076 68.7463 152.076ZM68.5197 147.054C68.0765 147.054 67.7222 147.199 67.4569 147.488C67.195 147.776 67.0406 148.176 66.9935 148.686H69.8796C69.8796 148.159 69.7621 147.756 69.527 147.478C69.292 147.195 68.9562 147.054 68.5197 147.054ZM74.725 146.354C74.9701 146.354 75.19 146.374 75.3848 146.415L75.2689 147.19C75.0406 147.14 74.8391 147.115 74.6645 147.115C74.2179 147.115 73.8351 147.296 73.5161 147.659C73.2005 148.021 73.0427 148.473 73.0427 149.014V151.975H72.2066V146.455H72.8966L72.9923 147.478H73.0326C73.2374 147.118 73.4842 146.841 73.773 146.646C74.0618 146.452 74.3791 146.354 74.725 146.354ZM79.9783 150.469C79.9783 150.983 79.7869 151.379 79.4041 151.658C79.0213 151.937 78.4841 152.076 77.7923 152.076C77.0603 152.076 76.4895 151.96 76.0799 151.729V150.953C76.3451 151.087 76.6289 151.193 76.9311 151.27C77.2366 151.347 77.5304 151.386 77.8125 151.386C78.249 151.386 78.5848 151.317 78.8198 151.18C79.0549 151.039 79.1724 150.825 79.1724 150.54C79.1724 150.325 79.0784 150.142 78.8904 149.991C78.7057 149.836 78.343 149.655 77.8024 149.447C77.2887 149.255 76.9227 149.089 76.7044 148.948C76.4895 148.804 76.3283 148.641 76.2209 148.46C76.1168 148.278 76.0647 148.062 76.0647 147.81C76.0647 147.36 76.2477 147.006 76.6137 146.747C76.9798 146.485 77.4817 146.354 78.1197 146.354C78.7141 146.354 79.295 146.475 79.8625 146.717L79.5653 147.397C79.0112 147.169 78.5092 147.054 78.0593 147.054C77.6631 147.054 77.3642 147.117 77.1628 147.241C76.9613 147.365 76.8605 147.536 76.8605 147.755C76.8605 147.902 76.8975 148.028 76.9714 148.132C77.0486 148.236 77.1711 148.335 77.339 148.429C77.5069 148.523 77.8293 148.659 78.3061 148.837C78.9609 149.076 79.4024 149.316 79.6308 149.558C79.8625 149.799 79.9783 150.103 79.9783 150.469ZM86.108 149.21C86.108 150.11 85.8814 150.814 85.4281 151.321C84.9748 151.824 84.3485 152.076 83.5494 152.076C83.0558 152.076 82.6176 151.96 82.2348 151.729C81.852 151.497 81.5565 151.164 81.3483 150.731C81.1401 150.298 81.036 149.791 81.036 149.21C81.036 148.31 81.261 147.61 81.7109 147.11C82.1609 146.606 82.7855 146.354 83.5846 146.354C84.3569 146.354 84.9697 146.611 85.423 147.125C85.8797 147.639 86.108 148.334 86.108 149.21ZM81.9023 149.21C81.9023 149.915 82.0434 150.453 82.3254 150.822C82.6075 151.191 83.0222 151.376 83.5695 151.376C84.1168 151.376 84.5315 151.193 84.8136 150.827C85.099 150.458 85.2417 149.919 85.2417 149.21C85.2417 148.508 85.099 147.976 84.8136 147.614C84.5315 147.248 84.1135 147.065 83.5594 147.065C83.0121 147.065 82.5991 147.244 82.3204 147.603C82.0417 147.963 81.9023 148.498 81.9023 149.21ZM91.3563 151.975V148.404C91.3563 147.954 91.2539 147.619 91.0491 147.397C90.8443 147.175 90.5236 147.065 90.0871 147.065C89.5095 147.065 89.0864 147.221 88.8178 147.533C88.5492 147.845 88.4149 148.361 88.4149 149.079V151.975H87.5788V146.455H88.2587L88.3947 147.211H88.435C88.6063 146.939 88.8463 146.729 89.1553 146.581C89.4642 146.43 89.8084 146.354 90.1878 146.354C90.8526 146.354 91.353 146.516 91.6888 146.838C92.0245 147.157 92.1924 147.669 92.1924 148.374V151.975H91.3563ZM97.3098 151.975L97.1436 151.19H97.1033C96.8279 151.535 96.5526 151.771 96.2772 151.895C96.0052 152.016 95.6644 152.076 95.2548 152.076C94.7074 152.076 94.2776 151.935 93.9654 151.653C93.6564 151.371 93.502 150.97 93.502 150.449C93.502 149.334 94.3935 148.75 96.1765 148.696L97.1133 148.666V148.324C97.1133 147.891 97.0193 147.572 96.8313 147.367C96.6466 147.159 96.3494 147.054 95.9398 147.054C95.4797 147.054 94.9593 147.195 94.3784 147.478L94.1215 146.838C94.3935 146.69 94.6907 146.574 95.013 146.49C95.3387 146.406 95.6644 146.364 95.9901 146.364C96.6483 146.364 97.1352 146.51 97.4508 146.803C97.7698 147.095 97.9293 147.563 97.9293 148.208V151.975H97.3098ZM95.421 151.386C95.9414 151.386 96.3494 151.243 96.6449 150.958C96.9438 150.673 97.0932 150.273 97.0932 149.759V149.261L96.2571 149.296C95.5922 149.319 95.1121 149.423 94.8166 149.608C94.5244 149.789 94.3784 150.073 94.3784 150.459C94.3784 150.761 94.469 150.991 94.6504 151.149C94.835 151.307 95.0919 151.386 95.421 151.386ZM100.493 151.975H99.6569V144.138H100.493V151.975Z" fill="white"/>
<rect x="34.8145" y="77.3646" width="91.9778" height="26.1881" fill="white"/>
<path d="M55.3254 86.7118L52.2244 95.9096H51.1995L48.5059 88.0652L45.7991 95.9096H44.7873L41.6864 86.7118H42.685L45.3392 94.6219L48.0854 86.7118H48.992L51.6988 94.6613L54.3924 86.7118H55.3254ZM62.4029 92.7429H56.6215C56.674 93.4612 56.95 94.0437 57.4493 94.4905C57.9486 94.9285 58.5793 95.1475 59.3414 95.1475C59.7706 95.1475 60.1648 95.073 60.524 94.9241C60.8831 94.7664 61.1941 94.5387 61.4569 94.2408L61.9825 94.8453C61.6759 95.2132 61.2904 95.4935 60.8262 95.6862C60.3707 95.8789 59.867 95.9753 59.3151 95.9753C58.6056 95.9753 57.9749 95.8264 57.423 95.5285C56.8799 95.2219 56.455 94.8015 56.1484 94.2671C55.8418 93.7328 55.6886 93.1283 55.6886 92.4538C55.6886 91.7793 55.8331 91.1749 56.1222 90.6406C56.42 90.1062 56.8229 89.6901 57.331 89.3923C57.8478 89.0945 58.426 88.9455 59.0655 88.9455C59.7049 88.9455 60.2787 89.0945 60.7867 89.3923C61.2948 89.6901 61.6934 90.1062 61.9825 90.6406C62.2715 91.1661 62.4161 91.7706 62.4161 92.4538L62.4029 92.7429ZM59.0655 89.7471C58.3997 89.7471 57.8391 89.9617 57.3836 90.3909C56.9368 90.8114 56.6828 91.3632 56.6215 92.0465H61.5226C61.4613 91.3632 61.2028 90.8114 60.7473 90.3909C60.3006 89.9617 59.74 89.7471 59.0655 89.7471Z" fill="black"/>
<path d="M86.841 95.9884C85.93 95.9884 85.1066 95.7869 84.3708 95.384C83.6437 94.981 83.0699 94.4248 82.6495 93.7152C82.2378 92.9969 82.0319 92.1954 82.0319 91.3107C82.0319 90.4259 82.2378 89.6288 82.6495 88.9193C83.0699 88.201 83.6481 87.6403 84.3839 87.2374C85.1197 86.8344 85.9431 86.633 86.8542 86.633C87.5374 86.633 88.1681 86.7468 88.7463 86.9746C89.3244 87.2023 89.815 87.5352 90.2179 87.9732L89.6004 88.5908C88.8821 87.8637 87.9754 87.5002 86.8804 87.5002C86.1534 87.5002 85.492 87.6666 84.8963 87.9995C84.3007 88.3324 83.832 88.7879 83.4904 89.366C83.1575 89.9442 82.9911 90.5924 82.9911 91.3107C82.9911 92.029 83.1575 92.6772 83.4904 93.2554C83.832 93.8335 84.3007 94.289 84.8963 94.6219C85.492 94.9548 86.1534 95.1212 86.8804 95.1212C87.9842 95.1212 88.8908 94.7533 89.6004 94.0175L90.2179 94.635C89.815 95.073 89.32 95.4103 88.7331 95.6468C88.155 95.8745 87.5243 95.9884 86.841 95.9884ZM92.0936 86.1599H93.0265V95.9096H92.0936V86.1599ZM98.4474 95.9753C97.7816 95.9753 97.1816 95.8264 96.6472 95.5285C96.1129 95.2219 95.6924 94.8015 95.3858 94.2671C95.0792 93.7328 94.9259 93.1283 94.9259 92.4538C94.9259 91.7793 95.0792 91.1749 95.3858 90.6406C95.6924 90.1062 96.1129 89.6901 96.6472 89.3923C97.1816 89.0945 97.7816 88.9455 98.4474 88.9455C99.1131 88.9455 99.7132 89.0945 100.248 89.3923C100.782 89.6901 101.198 90.1062 101.496 90.6406C101.802 91.1749 101.956 91.7793 101.956 92.4538C101.956 93.1283 101.802 93.7328 101.496 94.2671C101.198 94.8015 100.782 95.2219 100.248 95.5285C99.7132 95.8264 99.1131 95.9753 98.4474 95.9753ZM98.4474 95.1475C98.9379 95.1475 99.3759 95.038 99.7613 94.819C100.156 94.5912 100.462 94.2715 100.681 93.8598C100.9 93.4481 101.01 92.9794 101.01 92.4538C101.01 91.9283 100.9 91.4596 100.681 91.0479C100.462 90.6362 100.156 90.3208 99.7613 90.1018C99.3759 89.8741 98.9379 89.7602 98.4474 89.7602C97.9568 89.7602 97.5145 89.8741 97.1203 90.1018C96.7348 90.3208 96.4282 90.6362 96.2005 91.0479C95.9815 91.4596 95.872 91.9283 95.872 92.4538C95.872 92.9794 95.9815 93.4481 96.2005 93.8598C96.4282 94.2715 96.7348 94.5912 97.1203 94.819C97.5145 95.038 97.9568 95.1475 98.4474 95.1475ZM110.089 88.9981V95.9096H109.195V94.6482C108.95 95.0686 108.612 95.3971 108.183 95.6336C107.754 95.8614 107.263 95.9753 106.712 95.9753C105.809 95.9753 105.095 95.7256 104.57 95.2263C104.053 94.7182 103.795 93.978 103.795 93.0057V88.9981H104.728V92.9137C104.728 93.6408 104.907 94.1927 105.266 94.5693C105.625 94.946 106.138 95.1343 106.804 95.1343C107.531 95.1343 108.104 94.9153 108.525 94.4774C108.945 94.0306 109.156 93.413 109.156 92.6247V88.9981H110.089ZM119.008 86.1599V95.9096H118.115V94.543C117.835 95.0073 117.462 95.3621 116.998 95.6074C116.543 95.8526 116.026 95.9753 115.448 95.9753C114.799 95.9753 114.212 95.8264 113.687 95.5285C113.161 95.2307 112.75 94.8146 112.452 94.2803C112.154 93.7459 112.005 93.1371 112.005 92.4538C112.005 91.7706 112.154 91.1618 112.452 90.6274C112.75 90.0931 113.161 89.6814 113.687 89.3923C114.212 89.0945 114.799 88.9455 115.448 88.9455C116.008 88.9455 116.512 89.0638 116.959 89.3003C117.414 89.5281 117.786 89.8653 118.076 90.3121V86.1599H119.008ZM115.526 95.1475C116.008 95.1475 116.442 95.038 116.827 94.819C117.221 94.5912 117.528 94.2715 117.747 93.8598C117.975 93.4481 118.089 92.9794 118.089 92.4538C118.089 91.9283 117.975 91.4596 117.747 91.0479C117.528 90.6362 117.221 90.3208 116.827 90.1018C116.442 89.8741 116.008 89.7602 115.526 89.7602C115.036 89.7602 114.593 89.8741 114.199 90.1018C113.814 90.3208 113.507 90.6362 113.28 91.0479C113.061 91.4596 112.951 91.9283 112.951 92.4538C112.951 92.9794 113.061 93.4481 113.28 93.8598C113.507 94.2715 113.814 94.5912 114.199 94.819C114.593 95.038 115.036 95.1475 115.526 95.1475Z" fill="black"/>
<path fill-rule="evenodd" clip-rule="evenodd" d="M78.493 86.5523C80.3112 86.2733 81.5589 84.5733 81.28 82.7552C81.0011 80.937 79.301 79.6893 77.4829 79.9682C76.1191 80.1774 75.0762 81.1863 74.7579 82.4449L74.6993 82.3621C74.4732 83.7969 73.815 86.4315 72.9656 87.1526C72.5111 87.5385 71.4407 88.1026 70.3499 88.5622C69.6164 88.1955 68.7662 88.0443 67.8939 88.1781C65.6524 88.522 64.114 90.6179 64.4579 92.8594C64.8018 95.101 66.8977 96.6393 69.1393 96.2954C69.8684 96.1836 70.5231 95.8864 71.0628 95.4591C71.7834 95.4913 72.4098 95.6078 72.7834 95.8668C73.6766 96.3881 74.3876 97.7016 74.9168 98.6794C75.0184 98.8671 75.1133 99.0424 75.2015 99.1973L75.2574 99.0795C75.8305 100.207 77.0804 100.893 78.3989 100.691C80.0427 100.439 81.1708 98.9015 80.9186 97.2577C80.6665 95.6139 79.1295 94.4858 77.4857 94.738C77.4238 94.7475 77.3628 94.7588 77.3024 94.7719L77.3458 94.6806C76.1235 95.0373 73.796 95.4506 73.194 95.1368C72.8243 95.07 72.4336 94.7509 72.0631 94.3065C72.5214 93.5223 72.7237 92.5818 72.5753 91.6141C72.4815 91.003 72.2576 90.4442 71.9359 89.9615C72.0694 89.1819 72.4076 88.4149 73.4674 87.7001C75.3013 86.4631 76.3192 86.5465 77.2809 86.6253C77.3941 86.6346 77.5064 86.6438 77.6192 86.6507L77.7477 86.5828C77.9916 86.6002 78.2412 86.5909 78.493 86.5523Z" fill="url(#paint0_linear)"/>
<circle cx="68.5309" cy="92.327" r="4.10615" transform="rotate(-8.72217 68.5309 92.327)" fill="#8883BB"/>
<circle cx="77.9943" cy="97.7525" r="3.14805" transform="rotate(-8.72217 77.9943 97.7525)" fill="#ED6A7C"/>
<circle cx="77.9477" cy="83.3123" r="3.37617" transform="rotate(-8.72217 77.9477 83.3123)" fill="#9BDFF9"/>
</g>
<defs>
<linearGradient id="paint0_linear" x1="64.7996" y1="80.9447" x2="64.104" y2="102.884" gradientUnits="userSpaceOnUse">
<stop offset="0.209564" stop-color="#9BDFF9"/>
<stop offset="0.35677" stop-color="#8883BB"/>
<stop offset="0.618577" stop-color="#8883BB"/>
<stop offset="0.699704" stop-color="#ED6A7C"/>
</linearGradient>
<clipPath id="clip0">
<rect width="161.176" height="349" fill="white"/>
</clipPath>
</defs>
</svg>
