<svg width="150" height="325" viewBox="0 0 150 325" fill="none" xmlns="http://www.w3.org/2000/svg">
<rect width="150" height="324.8" fill="white"/>
<path d="M76.5428 99.1121C75.8387 98.4779 74.7714 98.4709 74.0591 99.0959L57.8366 113.33C57.4321 113.685 57.2002 114.197 57.2002 114.735V132.931C57.2002 133.963 58.0371 134.8 59.0694 134.8H91.0796C92.1119 134.8 92.9488 133.963 92.9488 132.931V114.72C92.9488 114.191 92.7241 113.686 92.3305 113.331L76.5428 99.1121Z" fill="#2ABECC"/>
<path fill-rule="evenodd" clip-rule="evenodd" d="M68.3543 112.998H76.3042C76.6486 112.998 76.9277 113.278 76.9277 113.622V118.766L75.8366 118.766V116.428H74.5898C72.9541 116.428 71.6281 117.754 71.6281 119.389V122.195H71.6277V124.533H70.5365V122.195H68.3543C68.0099 122.195 67.7308 121.916 67.7308 121.572V113.622C67.7308 113.278 68.0099 112.998 68.3543 112.998ZM71.6281 124.534H68.3543C66.7186 124.534 65.3926 123.208 65.3926 121.572V113.622C65.3926 111.986 66.7186 110.66 68.3543 110.66H76.3042C77.9399 110.66 79.2659 111.986 79.2659 113.622V118.766V121.572C79.2659 123.208 77.9399 124.534 76.3042 124.534H73.9663V127.339C73.9663 127.684 74.2455 127.963 74.5898 127.963H82.5397C82.8841 127.963 83.1632 127.684 83.1632 127.339V119.389C83.1632 119.045 82.8841 118.766 82.5397 118.766H79.2659L80.3569 118.766V116.428H82.5397C84.1754 116.428 85.5014 117.754 85.5014 119.389V127.339C85.5014 128.975 84.1754 130.301 82.5397 130.301H74.5898C72.9541 130.301 71.6281 128.975 71.6281 127.339V124.534ZM73.9663 124.533V119.389C73.9663 119.045 74.2455 118.766 74.5898 118.766H76.9277V121.572C76.9277 121.916 76.6486 122.195 76.3042 122.195H75.0573V124.533H73.9663Z" fill="white"/>
<path d="M46.627 155.464C46.755 155.554 46.8574 155.669 46.9342 155.81C47.011 155.938 47.0494 156.072 47.0494 156.213C47.0494 156.482 46.9598 156.68 46.7806 156.808C46.6142 156.936 46.4094 157 46.1662 157C45.923 157 45.7182 156.949 45.5518 156.846C45.1678 156.629 44.8542 156.277 44.611 155.79C44.3678 155.304 44.2462 154.587 44.2462 153.64C44.2462 153 44.0542 152.526 43.6702 152.219C43.2862 151.912 42.787 151.758 42.1726 151.758H38.2942V156.078C38.2942 156.347 38.2174 156.571 38.0638 156.75C37.9102 156.917 37.7118 157 37.4686 157C37.1742 157 36.9182 156.91 36.7006 156.731C36.4958 156.552 36.3934 156.334 36.3934 156.078V144.482C36.3934 144.226 36.483 144.008 36.6622 143.829C36.8414 143.65 37.059 143.56 37.315 143.56H42.7102C43.4014 143.56 44.035 143.733 44.611 144.078C45.187 144.411 45.6478 144.878 45.9934 145.48C46.339 146.069 46.5118 146.734 46.5118 147.477C46.5118 148.194 46.3198 148.866 45.9358 149.493C45.5518 150.107 45.059 150.568 44.4574 150.875C44.931 151.118 45.3022 151.458 45.571 151.893C45.8526 152.328 46.0062 152.834 46.0318 153.41C46.083 154.139 46.1406 154.638 46.2046 154.907C46.2686 155.163 46.4094 155.349 46.627 155.464ZM42.6718 150.165C42.9918 150.139 43.2926 150.011 43.5742 149.781C43.8686 149.55 44.1054 149.243 44.2846 148.859C44.4638 148.462 44.5534 148.021 44.5534 147.534C44.5534 146.92 44.3614 146.402 43.9774 145.979C43.6062 145.544 43.1518 145.326 42.6142 145.326H38.2942V150.165H42.6718ZM58.3714 151.97C58.3714 152.968 58.1474 153.864 57.6994 154.658C57.2514 155.451 56.637 156.072 55.8562 156.52C55.0882 156.968 54.237 157.192 53.3026 157.192C52.3682 157.192 51.5106 156.968 50.7298 156.52C49.9618 156.072 49.3538 155.451 48.9058 154.658C48.4578 153.864 48.2338 152.968 48.2338 151.97C48.2338 150.971 48.4578 150.069 48.9058 149.262C49.3538 148.456 49.9618 147.829 50.7298 147.381C51.5106 146.933 52.3682 146.709 53.3026 146.709C54.237 146.709 55.0882 146.933 55.8562 147.381C56.637 147.829 57.2514 148.456 57.6994 149.262C58.1474 150.069 58.3714 150.971 58.3714 151.97ZM56.5474 151.97C56.5474 151.278 56.4002 150.664 56.1058 150.126C55.8242 149.576 55.4338 149.154 54.9346 148.859C54.4482 148.552 53.9042 148.398 53.3026 148.398C52.701 148.398 52.1506 148.552 51.6514 148.859C51.165 149.154 50.7746 149.576 50.4802 150.126C50.1986 150.664 50.0578 151.278 50.0578 151.97C50.0578 152.648 50.1986 153.256 50.4802 153.794C50.7746 154.331 51.165 154.754 51.6514 155.061C52.1506 155.355 52.701 155.502 53.3026 155.502C53.9042 155.502 54.4482 155.355 54.9346 155.061C55.4338 154.754 55.8242 154.331 56.1058 153.794C56.4002 153.256 56.5474 152.648 56.5474 151.97ZM69.7441 151.97C69.7441 152.968 69.5201 153.864 69.0721 154.658C68.6241 155.451 68.0097 156.072 67.2289 156.52C66.4609 156.968 65.6097 157.192 64.6753 157.192C63.7409 157.192 62.8833 156.968 62.1025 156.52C61.3345 156.072 60.7265 155.451 60.2785 154.658C59.8305 153.864 59.6065 152.968 59.6065 151.97C59.6065 150.971 59.8305 150.069 60.2785 149.262C60.7265 148.456 61.3345 147.829 62.1025 147.381C62.8833 146.933 63.7409 146.709 64.6753 146.709C65.6097 146.709 66.4609 146.933 67.2289 147.381C68.0097 147.829 68.6241 148.456 69.0721 149.262C69.5201 150.069 69.7441 150.971 69.7441 151.97ZM67.9201 151.97C67.9201 151.278 67.7729 150.664 67.4785 150.126C67.1969 149.576 66.8065 149.154 66.3073 148.859C65.8209 148.552 65.2769 148.398 64.6753 148.398C64.0737 148.398 63.5233 148.552 63.0241 148.859C62.5377 149.154 62.1473 149.576 61.8529 150.126C61.5713 150.664 61.4305 151.278 61.4305 151.97C61.4305 152.648 61.5713 153.256 61.8529 153.794C62.1473 154.331 62.5377 154.754 63.0241 155.061C63.5233 155.355 64.0737 155.502 64.6753 155.502C65.2769 155.502 65.8209 155.355 66.3073 155.061C66.8065 154.754 67.1969 154.331 67.4785 153.794C67.7729 153.256 67.9201 152.648 67.9201 151.97ZM83.4976 143.541C83.7536 143.554 83.9712 143.65 84.1504 143.829C84.3296 143.995 84.4192 144.206 84.4192 144.462V156.078C84.4192 156.334 84.3296 156.552 84.1504 156.731C83.984 156.91 83.76 157 83.4784 157C83.1968 157 82.9664 156.917 82.7872 156.75C82.608 156.571 82.5184 156.347 82.5184 156.078V147.189L78.7936 152.834C78.704 152.949 78.5888 153.045 78.448 153.122C78.32 153.198 78.1856 153.23 78.0448 153.218C77.9168 153.23 77.7824 153.198 77.6416 153.122C77.5136 153.045 77.4048 152.949 77.3152 152.834L73.5712 147.016V156.078C73.5712 156.347 73.488 156.571 73.3216 156.75C73.168 156.917 72.9568 157 72.688 157C72.432 157 72.2208 156.917 72.0544 156.75C71.9008 156.571 71.824 156.347 71.824 156.078V144.462C71.824 144.219 71.9136 144.008 72.0928 143.829C72.272 143.637 72.496 143.541 72.7648 143.541C72.9184 143.541 73.0656 143.579 73.2064 143.656C73.36 143.733 73.4816 143.835 73.5712 143.963L78.1216 150.856L82.7296 143.963C82.9344 143.682 83.1904 143.541 83.4976 143.541ZM95.27 146.805C95.5388 146.805 95.7564 146.894 95.9228 147.074C96.102 147.24 96.1916 147.464 96.1916 147.746V156.078C96.1916 156.334 96.102 156.552 95.9228 156.731C95.7564 156.91 95.5388 157 95.27 157C95.0012 157 94.7836 156.917 94.6172 156.75C94.4508 156.571 94.3676 156.347 94.3676 156.078V155.579C94.0348 156.027 93.5804 156.411 93.0044 156.731C92.4284 157.038 91.8076 157.192 91.142 157.192C90.2716 157.192 89.478 156.968 88.7612 156.52C88.0572 156.072 87.5004 155.451 87.0908 154.658C86.694 153.851 86.4956 152.949 86.4956 151.95C86.4956 150.952 86.694 150.056 87.0908 149.262C87.5004 148.456 88.0572 147.829 88.7612 147.381C89.4652 146.933 90.2396 146.709 91.0844 146.709C91.7628 146.709 92.39 146.85 92.966 147.131C93.5548 147.413 94.022 147.771 94.3676 148.206V147.746C94.3676 147.477 94.4508 147.253 94.6172 147.074C94.7836 146.894 95.0012 146.805 95.27 146.805ZM91.3532 155.502C91.9548 155.502 92.486 155.349 92.9468 155.042C93.4204 154.734 93.7852 154.312 94.0412 153.774C94.31 153.237 94.4444 152.629 94.4444 151.95C94.4444 151.285 94.31 150.683 94.0412 150.146C93.7852 149.608 93.4204 149.186 92.9468 148.878C92.486 148.558 91.9548 148.398 91.3532 148.398C90.7516 148.398 90.214 148.552 89.7404 148.859C89.2796 149.166 88.9148 149.589 88.646 150.126C88.39 150.664 88.262 151.272 88.262 151.95C88.262 152.629 88.39 153.237 88.646 153.774C88.9148 154.312 89.2796 154.734 89.7404 155.042C90.214 155.349 90.7516 155.502 91.3532 155.502ZM101.359 148.725V154.446C101.359 155.086 101.647 155.406 102.223 155.406C102.313 155.406 102.434 155.387 102.588 155.349C102.742 155.298 102.863 155.272 102.953 155.272C103.119 155.272 103.26 155.342 103.375 155.483C103.49 155.624 103.548 155.803 103.548 156.021C103.548 156.29 103.394 156.52 103.087 156.712C102.78 156.904 102.434 157 102.05 157C101.628 157 101.238 156.955 100.879 156.866C100.534 156.776 100.22 156.552 99.9383 156.194C99.6695 155.822 99.5351 155.266 99.5351 154.523V148.725H98.4215C98.1783 148.725 97.9735 148.648 97.8071 148.494C97.6535 148.328 97.5767 148.123 97.5767 147.88C97.5767 147.637 97.6535 147.438 97.8071 147.285C97.9735 147.131 98.1783 147.054 98.4215 147.054H99.5351V145.442C99.5351 145.186 99.6183 144.968 99.7847 144.789C99.9639 144.61 100.188 144.52 100.457 144.52C100.713 144.52 100.924 144.61 101.09 144.789C101.27 144.968 101.359 145.186 101.359 145.442V147.054H102.953C103.196 147.054 103.394 147.138 103.548 147.304C103.714 147.458 103.798 147.656 103.798 147.899C103.798 148.142 103.714 148.341 103.548 148.494C103.394 148.648 103.196 148.725 102.953 148.725H101.359ZM114.394 151.586C114.381 151.816 114.285 152.014 114.106 152.181C113.926 152.334 113.715 152.411 113.472 152.411H106.714C106.803 153.346 107.155 154.094 107.77 154.658C108.397 155.221 109.158 155.502 110.054 155.502C110.669 155.502 111.168 155.413 111.552 155.234C111.936 155.054 112.275 154.824 112.57 154.542C112.762 154.427 112.947 154.37 113.126 154.37C113.344 154.37 113.523 154.446 113.664 154.6C113.818 154.754 113.894 154.933 113.894 155.138C113.894 155.406 113.766 155.65 113.51 155.867C113.139 156.238 112.646 156.552 112.032 156.808C111.418 157.064 110.79 157.192 110.15 157.192C109.114 157.192 108.198 156.974 107.405 156.539C106.624 156.104 106.016 155.496 105.581 154.715C105.158 153.934 104.947 153.051 104.947 152.066C104.947 150.99 105.165 150.05 105.6 149.243C106.048 148.424 106.63 147.797 107.347 147.362C108.077 146.926 108.858 146.709 109.69 146.709C110.509 146.709 111.277 146.92 111.994 147.342C112.71 147.765 113.286 148.347 113.722 149.09C114.157 149.832 114.381 150.664 114.394 151.586ZM109.69 148.398C108.973 148.398 108.352 148.603 107.827 149.013C107.302 149.41 106.957 150.03 106.79 150.875H112.454V150.722C112.39 150.043 112.083 149.486 111.533 149.051C110.995 148.616 110.381 148.398 109.69 148.398Z" fill="#212121"/>
</svg>
