<svg width="517" height="947" viewBox="0 0 517 947" fill="none" xmlns="http://www.w3.org/2000/svg">
<g filter="url(#filter0_d_2572_5725)">
<path d="M476.849 223.473C476.837 223.438 476.826 223.392 476.814 223.357C476.721 223.101 476.581 222.868 476.418 222.647C476.395 222.612 476.372 222.589 476.348 222.566C475.976 222.112 475.464 221.786 474.882 221.647C474.673 221.6 474.452 221.554 474.231 221.554H473.393V102.19C473.393 73.3466 470.112 55.4985 452.183 37.9296C443.84 29.7502 428.133 20 400.581 20H115.849C88.3319 20 72.6013 29.7502 64.259 37.9296C46.3411 55.4868 43.06 73.3466 43.06 102.19V138.154H42.0012C41.8383 138.154 41.6871 138.212 41.5358 138.247V138.212C41.4776 138.224 41.4427 138.258 41.3846 138.27C41.2799 138.305 41.1868 138.351 41.0821 138.398C40.9657 138.456 40.861 138.538 40.7563 138.619C40.6748 138.677 40.5934 138.747 40.5236 138.817C40.4189 138.933 40.3491 139.061 40.2676 139.189C40.2327 139.259 40.1745 139.329 40.1513 139.41C40.0582 139.631 40 139.876 40 140.132V169.208C40 169.464 40.0582 169.708 40.1513 169.929C40.1745 170.01 40.2327 170.069 40.2676 170.15C40.3374 170.278 40.4189 170.406 40.5236 170.522C40.5934 170.592 40.6632 170.662 40.7563 170.72C40.861 170.802 40.9541 170.871 41.0821 170.941C41.1751 170.988 41.2799 171.034 41.3846 171.069C41.4311 171.081 41.4776 171.116 41.5358 171.127V171.092C41.6871 171.127 41.8383 171.186 42.0012 171.186H43.06V199.819H42.0012C41.8383 199.819 41.6871 199.878 41.5358 199.912V199.878C41.4776 199.889 41.4427 199.924 41.3846 199.936C41.2799 199.971 41.1868 200.017 41.0821 200.064C40.9657 200.122 40.861 200.203 40.7563 200.285C40.6748 200.355 40.5934 200.413 40.5236 200.483C40.4189 200.599 40.3491 200.727 40.2676 200.855C40.2327 200.925 40.1745 200.994 40.1513 201.076C40.0582 201.297 40 201.541 40 201.797V260.356C40 260.612 40.0582 260.845 40.1513 261.078C40.1745 261.159 40.2327 261.217 40.2676 261.299C40.3374 261.438 40.4189 261.566 40.5236 261.671C40.5934 261.753 40.6632 261.811 40.7563 261.869C40.861 261.962 40.9541 262.02 41.0821 262.09C41.1751 262.148 41.2799 262.183 41.3846 262.218C41.4311 262.241 41.4776 262.265 41.5242 262.276V262.241C41.6754 262.276 41.8267 262.334 41.9896 262.334H43.0484V278.879H42.0012C41.8383 278.879 41.6871 278.938 41.5358 278.972V278.938C41.4776 278.949 41.4427 278.984 41.3846 278.996C41.2799 279.031 41.1868 279.077 41.0821 279.124C40.9657 279.182 40.861 279.263 40.7563 279.345C40.6748 279.415 40.5934 279.473 40.5236 279.543C40.4189 279.659 40.3491 279.787 40.2676 279.915C40.2327 279.985 40.1745 280.054 40.1513 280.136C40.0582 280.357 40 280.601 40 280.857V339.416C40 339.672 40.0582 339.905 40.1513 340.138C40.1745 340.219 40.2327 340.277 40.2676 340.359C40.3374 340.498 40.4189 340.626 40.5236 340.731C40.5934 340.813 40.6632 340.871 40.7563 340.929C40.861 341.022 40.9541 341.08 41.0821 341.15C41.1751 341.208 41.2799 341.243 41.3846 341.278C41.4311 341.301 41.4776 341.325 41.5242 341.336V341.301C41.6754 341.336 41.8267 341.394 41.9896 341.394H43.0484V804.003C43.0484 832.846 46.3295 850.694 64.2474 868.263C72.5897 876.443 88.3086 886.181 115.849 886.181H400.581C428.121 886.181 443.84 876.431 452.183 868.263C470.112 850.694 473.393 832.835 473.393 804.003V320.044H474.231C474.452 320.044 474.673 320.009 474.882 319.963C475.464 319.823 475.976 319.486 476.348 319.043C476.372 319.02 476.395 318.985 476.418 318.962C476.581 318.753 476.721 318.508 476.814 318.252C476.826 318.206 476.837 318.171 476.849 318.136C476.942 317.868 477 317.589 477 317.287V224.323C477 224.032 476.942 223.741 476.849 223.473Z" fill="#F9F6F0"/>
<path d="M116.329 876.332L116.306 865.605V876.332C91.9773 876.332 78.4342 868.06 71.3601 861.114C55.7459 845.814 53 830.386 53 803.614V101.719C53 74.9584 55.7459 59.5187 71.3601 44.2186C78.4342 37.2841 91.989 29 116.318 29H401.05C425.402 29 438.945 37.2725 446.02 44.2186C461.634 59.5187 464.38 74.9467 464.38 101.719V803.614C464.38 830.374 461.634 845.802 446.02 861.114C438.945 868.048 425.402 876.332 401.062 876.332H116.329Z" fill="black"/>
<g opacity="0.2">
<rect x="231.295" y="50.9436" width="54.6846" height="8.14452" rx="4.07226" fill="white"/>
<circle cx="305.759" cy="55.5977" r="6.98102" fill="white"/>
</g>
<mask id="mask0_2572_5725" style="mask-type:alpha" maskUnits="userSpaceOnUse" x="71" y="47" width="375" height="812">
<mask id="mask1_2572_5725" style="mask-type:alpha" maskUnits="userSpaceOnUse" x="71" y="47" width="375" height="812">
<path d="M433.096 57.0309C428.43 52.4523 419.064 47 400.866 47H368.391C366.739 47.2097 364.342 48.2116 364.109 52.1727C363.784 57.625 363.109 64.8133 357.71 70.3471C353.544 74.6111 348.169 76.6383 342.572 76.6383C330.483 76.6383 187.378 76.6383 175.289 76.6383C169.692 76.6383 164.305 74.6111 160.139 70.3471C154.741 64.8133 154.077 57.625 153.752 52.1727C153.519 48.2 151.11 47.2097 149.47 47H116.122C97.9361 47 88.5579 52.4523 83.9038 57.0309C72.9548 67.7841 71 78.048 71 101.593V804.407C71 827.94 72.9431 838.216 83.9038 848.969C88.5696 853.536 97.9361 859 116.134 859H400.878C419.076 859 428.442 853.548 433.096 848.969C444.057 838.216 446 827.94 446 804.407V101.593C446 78.0596 444.057 67.7841 433.096 57.0309Z" fill="#494949"/>
</mask>
<g mask="url(#mask1_2572_5725)">
<rect x="71" y="47" width="375" height="812" fill="#F9F6F0"/>
</g>
</mask>
<g mask="url(#mask0_2572_5725)">
<rect width="375" height="812" transform="translate(71 51)" fill="white"/>
<path d="M262.357 298.78C260.596 297.195 257.928 297.177 256.147 298.74L215.591 334.325C214.58 335.212 214 336.492 214 337.837V383.327C214 385.908 216.092 388 218.673 388H298.698C301.279 388 303.371 385.908 303.371 383.327V337.801C303.371 336.477 302.81 335.215 301.826 334.329L262.357 298.78Z" fill="white"/>
<path fill-rule="evenodd" clip-rule="evenodd" d="M241.885 333.498H261.76C262.62 333.498 263.318 334.196 263.318 335.057V342.071H263.318V347.917H260.59V342.071L257.473 342.071C253.383 342.071 250.068 345.386 250.068 349.476V362.336H247.341V356.49H241.885C241.024 356.49 240.326 355.792 240.326 354.931V335.057C240.326 334.196 241.024 333.498 241.885 333.498ZM250.068 362.336H241.885C237.795 362.336 234.48 359.021 234.48 354.931V335.057C234.48 330.967 237.795 327.652 241.885 327.652H261.76C265.849 327.652 269.164 330.967 269.164 335.057V342.071H269.164V347.917H271.892V342.071L277.348 342.071C281.437 342.071 284.752 345.386 284.752 349.476V369.35C284.752 373.44 281.437 376.755 277.348 376.755H257.473C253.383 376.755 250.068 373.44 250.068 369.35V362.336ZM269.164 347.917H277.348C278.208 347.917 278.906 348.615 278.906 349.476V369.35C278.906 370.211 278.208 370.909 277.348 370.909H257.473C256.612 370.909 255.914 370.211 255.914 369.35V362.336H261.76C265.849 362.336 269.164 359.021 269.164 354.931V347.917ZM263.318 347.917V354.931C263.318 355.792 262.62 356.49 261.76 356.49H258.642V362.336H255.914V356.49H255.914V349.476C255.914 348.615 256.612 347.917 257.473 347.917H263.318Z" fill="white"/>
<path d="M187.568 440.16C187.888 440.384 188.144 440.672 188.336 441.024C188.528 441.344 188.624 441.68 188.624 442.032C188.624 442.704 188.4 443.2 187.952 443.52C187.536 443.84 187.024 444 186.416 444C185.808 444 185.296 443.872 184.88 443.616C183.92 443.072 183.136 442.192 182.528 440.976C181.92 439.76 181.616 437.968 181.616 435.6C181.616 434 181.136 432.816 180.176 432.048C179.216 431.28 177.968 430.896 176.432 430.896H166.736V441.696C166.736 442.368 166.544 442.928 166.16 443.376C165.776 443.792 165.28 444 164.672 444C163.936 444 163.296 443.776 162.752 443.328C162.24 442.88 161.984 442.336 161.984 441.696V412.704C161.984 412.064 162.208 411.52 162.656 411.072C163.104 410.624 163.648 410.4 164.288 410.4H177.776C179.504 410.4 181.088 410.832 182.528 411.696C183.968 412.528 185.12 413.696 185.984 415.2C186.848 416.672 187.28 418.336 187.28 420.192C187.28 421.984 186.8 423.664 185.84 425.232C184.88 426.768 183.648 427.92 182.144 428.688C183.328 429.296 184.256 430.144 184.928 431.232C185.632 432.32 186.016 433.584 186.08 435.024C186.208 436.848 186.352 438.096 186.512 438.768C186.672 439.408 187.024 439.872 187.568 440.16ZM177.68 426.912C178.48 426.848 179.232 426.528 179.936 425.952C180.672 425.376 181.264 424.608 181.712 423.648C182.16 422.656 182.384 421.552 182.384 420.336C182.384 418.8 181.904 417.504 180.944 416.448C180.016 415.36 178.88 414.816 177.536 414.816H166.736V426.912H177.68ZM216.929 431.424C216.929 433.92 216.369 436.16 215.249 438.144C214.129 440.128 212.593 441.68 210.641 442.8C208.721 443.92 206.593 444.48 204.257 444.48C201.921 444.48 199.777 443.92 197.825 442.8C195.905 441.68 194.385 440.128 193.265 438.144C192.145 436.16 191.585 433.92 191.585 431.424C191.585 428.928 192.145 426.672 193.265 424.656C194.385 422.64 195.905 421.072 197.825 419.952C199.777 418.832 201.921 418.272 204.257 418.272C206.593 418.272 208.721 418.832 210.641 419.952C212.593 421.072 214.129 422.64 215.249 424.656C216.369 426.672 216.929 428.928 216.929 431.424ZM212.369 431.424C212.369 429.696 212.001 428.16 211.265 426.816C210.561 425.44 209.585 424.384 208.337 423.648C207.121 422.88 205.761 422.496 204.257 422.496C202.753 422.496 201.377 422.88 200.129 423.648C198.913 424.384 197.937 425.44 197.201 426.816C196.497 428.16 196.145 429.696 196.145 431.424C196.145 433.12 196.497 434.64 197.201 435.984C197.937 437.328 198.913 438.384 200.129 439.152C201.377 439.888 202.753 440.256 204.257 440.256C205.761 440.256 207.121 439.888 208.337 439.152C209.585 438.384 210.561 437.328 211.265 435.984C212.001 434.64 212.369 433.12 212.369 431.424ZM245.361 431.424C245.361 433.92 244.801 436.16 243.681 438.144C242.561 440.128 241.025 441.68 239.073 442.8C237.153 443.92 235.025 444.48 232.689 444.48C230.353 444.48 228.209 443.92 226.257 442.8C224.337 441.68 222.817 440.128 221.697 438.144C220.577 436.16 220.017 433.92 220.017 431.424C220.017 428.928 220.577 426.672 221.697 424.656C222.817 422.64 224.337 421.072 226.257 419.952C228.209 418.832 230.353 418.272 232.689 418.272C235.025 418.272 237.153 418.832 239.073 419.952C241.025 421.072 242.561 422.64 243.681 424.656C244.801 426.672 245.361 428.928 245.361 431.424ZM240.801 431.424C240.801 429.696 240.433 428.16 239.697 426.816C238.993 425.44 238.017 424.384 236.769 423.648C235.553 422.88 234.193 422.496 232.689 422.496C231.185 422.496 229.809 422.88 228.561 423.648C227.345 424.384 226.369 425.44 225.633 426.816C224.929 428.16 224.577 429.696 224.577 431.424C224.577 433.12 224.929 434.64 225.633 435.984C226.369 437.328 227.345 438.384 228.561 439.152C229.809 439.888 231.185 440.256 232.689 440.256C234.193 440.256 235.553 439.888 236.769 439.152C238.017 438.384 238.993 437.328 239.697 435.984C240.433 434.64 240.801 433.12 240.801 431.424ZM279.744 410.352C280.384 410.384 280.928 410.624 281.376 411.072C281.824 411.488 282.048 412.016 282.048 412.656V441.696C282.048 442.336 281.824 442.88 281.376 443.328C280.96 443.776 280.4 444 279.696 444C278.992 444 278.416 443.792 277.968 443.376C277.52 442.928 277.296 442.368 277.296 441.696V419.472L267.984 433.584C267.76 433.872 267.472 434.112 267.12 434.304C266.8 434.496 266.464 434.576 266.112 434.544C265.792 434.576 265.456 434.496 265.104 434.304C264.784 434.112 264.512 433.872 264.288 433.584L254.928 419.04V441.696C254.928 442.368 254.72 442.928 254.304 443.376C253.92 443.792 253.392 444 252.72 444C252.08 444 251.552 443.792 251.136 443.376C250.752 442.928 250.56 442.368 250.56 441.696V412.656C250.56 412.048 250.784 411.52 251.232 411.072C251.68 410.592 252.24 410.352 252.912 410.352C253.296 410.352 253.664 410.448 254.016 410.64C254.4 410.832 254.704 411.088 254.928 411.408L266.304 428.64L277.824 411.408C278.336 410.704 278.976 410.352 279.744 410.352ZM309.176 418.512C309.848 418.512 310.392 418.736 310.808 419.184C311.256 419.6 311.48 420.16 311.48 420.864V441.696C311.48 442.336 311.256 442.88 310.808 443.328C310.392 443.776 309.848 444 309.176 444C308.504 444 307.96 443.792 307.544 443.376C307.128 442.928 306.92 442.368 306.92 441.696V440.448C306.088 441.568 304.952 442.528 303.512 443.328C302.072 444.096 300.52 444.48 298.856 444.48C296.68 444.48 294.696 443.92 292.904 442.8C291.144 441.68 289.752 440.128 288.728 438.144C287.736 436.128 287.24 433.872 287.24 431.376C287.24 428.88 287.736 426.64 288.728 424.656C289.752 422.64 291.144 421.072 292.904 419.952C294.664 418.832 296.6 418.272 298.712 418.272C300.408 418.272 301.976 418.624 303.416 419.328C304.888 420.032 306.056 420.928 306.92 422.016V420.864C306.92 420.192 307.128 419.632 307.544 419.184C307.96 418.736 308.504 418.512 309.176 418.512ZM299.384 440.256C300.888 440.256 302.216 439.872 303.368 439.104C304.552 438.336 305.464 437.28 306.104 435.936C306.776 434.592 307.112 433.072 307.112 431.376C307.112 429.712 306.776 428.208 306.104 426.864C305.464 425.52 304.552 424.464 303.368 423.696C302.216 422.896 300.888 422.496 299.384 422.496C297.88 422.496 296.536 422.88 295.352 423.648C294.2 424.416 293.288 425.472 292.616 426.816C291.976 428.16 291.656 429.68 291.656 431.376C291.656 433.072 291.976 434.592 292.616 435.936C293.288 437.28 294.2 438.336 295.352 439.104C296.536 439.872 297.88 440.256 299.384 440.256ZM324.398 423.312V437.616C324.398 439.216 325.118 440.016 326.558 440.016C326.782 440.016 327.086 439.968 327.47 439.872C327.854 439.744 328.158 439.68 328.382 439.68C328.798 439.68 329.15 439.856 329.438 440.208C329.726 440.56 329.87 441.008 329.87 441.552C329.87 442.224 329.486 442.8 328.718 443.28C327.95 443.76 327.086 444 326.126 444C325.07 444 324.094 443.888 323.198 443.664C322.334 443.44 321.55 442.88 320.846 441.984C320.174 441.056 319.838 439.664 319.838 437.808V423.312H317.054C316.446 423.312 315.934 423.12 315.518 422.736C315.134 422.32 314.942 421.808 314.942 421.2C314.942 420.592 315.134 420.096 315.518 419.712C315.934 419.328 316.446 419.136 317.054 419.136H319.838V415.104C319.838 414.464 320.046 413.92 320.462 413.472C320.91 413.024 321.47 412.8 322.142 412.8C322.782 412.8 323.31 413.024 323.726 413.472C324.174 413.92 324.398 414.464 324.398 415.104V419.136H328.382C328.99 419.136 329.486 419.344 329.87 419.76C330.286 420.144 330.494 420.64 330.494 421.248C330.494 421.856 330.286 422.352 329.87 422.736C329.486 423.12 328.99 423.312 328.382 423.312H324.398ZM356.985 430.464C356.953 431.04 356.713 431.536 356.265 431.952C355.817 432.336 355.289 432.528 354.681 432.528H337.785C338.009 434.864 338.889 436.736 340.425 438.144C341.993 439.552 343.897 440.256 346.137 440.256C347.673 440.256 348.921 440.032 349.881 439.584C350.841 439.136 351.689 438.56 352.425 437.856C352.905 437.568 353.369 437.424 353.817 437.424C354.361 437.424 354.809 437.616 355.161 438C355.545 438.384 355.737 438.832 355.737 439.344C355.737 440.016 355.417 440.624 354.777 441.168C353.849 442.096 352.617 442.88 351.081 443.52C349.545 444.16 347.977 444.48 346.377 444.48C343.785 444.48 341.497 443.936 339.513 442.848C337.561 441.76 336.041 440.24 334.953 438.288C333.897 436.336 333.369 434.128 333.369 431.664C333.369 428.976 333.913 426.624 335.001 424.608C336.121 422.56 337.577 420.992 339.369 419.904C341.193 418.816 343.145 418.272 345.225 418.272C347.273 418.272 349.193 418.8 350.985 419.856C352.777 420.912 354.217 422.368 355.305 424.224C356.393 426.08 356.953 428.16 356.985 430.464ZM345.225 422.496C343.433 422.496 341.881 423.008 340.569 424.032C339.257 425.024 338.393 426.576 337.977 428.688H352.137V428.304C351.977 426.608 351.209 425.216 349.833 424.128C348.489 423.04 346.953 422.496 345.225 422.496Z" fill="#212121"/>
<path d="M262.357 298.78C260.596 297.195 257.928 297.177 256.147 298.74L215.591 334.325C214.58 335.212 214 336.492 214 337.837V383.327C214 385.908 216.092 388 218.673 388H298.698C301.279 388 303.371 385.908 303.371 383.327V337.801C303.371 336.477 302.81 335.215 301.826 334.329L262.357 298.78Z" fill="#2ABECC"/>
<path fill-rule="evenodd" clip-rule="evenodd" d="M241.885 333.498H261.76C262.62 333.498 263.318 334.196 263.318 335.057V342.071H263.318V347.917H260.59V342.071L257.473 342.071C253.383 342.071 250.068 345.386 250.068 349.476V362.336H247.341V356.49H241.885C241.024 356.49 240.326 355.792 240.326 354.931V335.057C240.326 334.196 241.024 333.498 241.885 333.498ZM250.068 362.336H241.885C237.795 362.336 234.48 359.021 234.48 354.931V335.057C234.48 330.967 237.795 327.652 241.885 327.652H261.76C265.849 327.652 269.164 330.967 269.164 335.057V342.071H269.164V347.917H271.892V342.071L277.348 342.071C281.437 342.071 284.752 345.386 284.752 349.476V369.35C284.752 373.44 281.437 376.755 277.348 376.755H257.473C253.383 376.755 250.068 373.44 250.068 369.35V362.336ZM269.164 347.917H277.348C278.208 347.917 278.906 348.615 278.906 349.476V369.35C278.906 370.211 278.208 370.909 277.348 370.909H257.473C256.612 370.909 255.914 370.211 255.914 369.35V362.336H261.76C265.849 362.336 269.164 359.021 269.164 354.931V347.917ZM263.318 347.917V354.931C263.318 355.792 262.62 356.49 261.76 356.49H258.642V362.336H255.914V356.49H255.914V349.476C255.914 348.615 256.612 347.917 257.473 347.917H263.318Z" fill="white"/>
</g>
</g>
<defs>
<filter id="filter0_d_2572_5725" x="0" y="0" width="517" height="946.181" filterUnits="userSpaceOnUse" color-interpolation-filters="sRGB">
<feFlood flood-opacity="0" result="BackgroundImageFix"/>
<feColorMatrix in="SourceAlpha" type="matrix" values="0 0 0 0 0 0 0 0 0 0 0 0 0 0 0 0 0 0 127 0" result="hardAlpha"/>
<feOffset dy="20"/>
<feGaussianBlur stdDeviation="20"/>
<feColorMatrix type="matrix" values="0 0 0 0 0 0 0 0 0 0 0 0 0 0 0 0 0 0 0.25 0"/>
<feBlend mode="normal" in2="BackgroundImageFix" result="effect1_dropShadow_2572_5725"/>
<feBlend mode="normal" in="SourceGraphic" in2="effect1_dropShadow_2572_5725" result="shape"/>
</filter>
</defs>
</svg>
