<svg width="212" height="457" viewBox="0 0 212 457" fill="none" xmlns="http://www.w3.org/2000/svg">
<rect width="211.053" height="457" fill="white"/>
<path d="M107.697 139.454C106.706 138.562 105.204 138.552 104.202 139.432L81.3769 159.459C80.8078 159.958 80.4814 160.679 80.4814 161.436V187.038C80.4814 188.49 81.6589 189.668 83.1115 189.668H128.15C129.603 189.668 130.78 188.49 130.78 187.038V161.415C130.78 160.67 130.464 159.96 129.91 159.461L107.697 139.454Z" fill="#2ABECC"/>
<path fill-rule="evenodd" clip-rule="evenodd" d="M96.176 158.993H107.364C107.848 158.993 108.241 159.386 108.241 159.87V163.82H104.95C102.649 163.82 100.783 165.685 100.783 167.987V171.935H100.782V175.222H99.2461V171.935H96.176C95.6915 171.935 95.2987 171.542 95.2987 171.058V159.87C95.2987 159.386 95.6915 158.993 96.176 158.993ZM100.783 175.225H96.176C93.8745 175.225 92.0088 173.359 92.0088 171.058V159.87C92.0088 157.569 93.8745 155.703 96.176 155.703H107.364C109.665 155.703 111.531 157.569 111.531 159.87V167.108H113.064V163.82H116.138C118.439 163.82 120.305 165.685 120.305 167.987V179.174C120.305 181.476 118.439 183.342 116.138 183.342H104.95C102.649 183.342 100.783 181.476 100.783 179.174V175.225ZM111.531 167.109H116.138C116.622 167.109 117.015 167.502 117.015 167.987V179.174C117.015 179.659 116.622 180.052 116.138 180.052H104.95C104.466 180.052 104.073 179.659 104.073 179.174V175.225H107.364C109.665 175.225 111.531 173.359 111.531 171.058V167.109ZM108.241 167.109V171.058C108.241 171.542 107.848 171.935 107.364 171.935H105.608V175.222H104.073V167.987C104.073 167.502 104.466 167.109 104.95 167.109H106.703V163.82H108.238V167.109H108.241Z" fill="white"/>
<path d="M65.6059 219.007C65.786 219.133 65.9301 219.295 66.0382 219.493C66.1462 219.673 66.2003 219.862 66.2003 220.06C66.2003 220.439 66.0742 220.718 65.8221 220.898C65.5879 221.078 65.2998 221.168 64.9576 221.168C64.6154 221.168 64.3272 221.096 64.0931 220.952C63.5528 220.646 63.1116 220.15 62.7694 219.466C62.4272 218.782 62.2561 217.773 62.2561 216.44C62.2561 215.54 61.986 214.874 61.4457 214.441C60.9054 214.009 60.203 213.793 59.3385 213.793H53.8815V219.871C53.8815 220.249 53.7735 220.565 53.5574 220.817C53.3412 221.051 53.0621 221.168 52.7199 221.168C52.3057 221.168 51.9455 221.042 51.6393 220.79C51.3511 220.538 51.2071 220.231 51.2071 219.871V203.554C51.2071 203.194 51.3331 202.888 51.5853 202.636C51.8374 202.384 52.1436 202.258 52.5038 202.258H60.0949C61.0675 202.258 61.959 202.501 62.7694 202.987C63.5798 203.455 64.2282 204.113 64.7145 204.959C65.2007 205.788 65.4439 206.724 65.4439 207.769C65.4439 208.777 65.1737 209.723 64.6334 210.605C64.0931 211.47 63.3997 212.118 62.5533 212.55C63.2196 212.892 63.7419 213.37 64.1201 213.982C64.5164 214.594 64.7325 215.306 64.7685 216.116C64.8405 217.143 64.9216 217.845 65.0116 218.223C65.1017 218.584 65.2998 218.845 65.6059 219.007ZM60.0409 211.551C60.4912 211.515 60.9144 211.335 61.3106 211.01C61.7248 210.686 62.058 210.254 62.3101 209.714C62.5623 209.155 62.6884 208.534 62.6884 207.85C62.6884 206.985 62.4182 206.256 61.8779 205.661C61.3556 205.049 60.7163 204.743 59.9599 204.743H53.8815V211.551H60.0409ZM82.1305 214.09C82.1305 215.495 81.8154 216.756 81.185 217.872C80.5547 218.989 79.6902 219.862 78.5916 220.493C77.511 221.123 76.3134 221.438 74.9986 221.438C73.6839 221.438 72.4773 221.123 71.3787 220.493C70.2981 219.862 69.4426 218.989 68.8123 217.872C68.1819 216.756 67.8667 215.495 67.8667 214.09C67.8667 212.685 68.1819 211.416 68.8123 210.281C69.4426 209.146 70.2981 208.264 71.3787 207.634C72.4773 207.003 73.6839 206.688 74.9986 206.688C76.3134 206.688 77.511 207.003 78.5916 207.634C79.6902 208.264 80.5547 209.146 81.185 210.281C81.8154 211.416 82.1305 212.685 82.1305 214.09ZM79.5641 214.09C79.5641 213.118 79.357 212.253 78.9428 211.497C78.5466 210.722 77.9973 210.128 77.2949 209.714C76.6105 209.281 75.8451 209.065 74.9986 209.065C74.1522 209.065 73.3777 209.281 72.6754 209.714C71.991 210.128 71.4417 210.722 71.0275 211.497C70.6312 212.253 70.4331 213.118 70.4331 214.09C70.4331 215.045 70.6312 215.9 71.0275 216.657C71.4417 217.413 71.991 218.007 72.6754 218.439C73.3777 218.854 74.1522 219.061 74.9986 219.061C75.8451 219.061 76.6105 218.854 77.2949 218.439C77.9973 218.007 78.5466 217.413 78.9428 216.657C79.357 215.9 79.5641 215.045 79.5641 214.09ZM98.1321 214.09C98.1321 215.495 97.817 216.756 97.1866 217.872C96.5563 218.989 95.6918 219.862 94.5932 220.493C93.5126 221.123 92.315 221.438 91.0002 221.438C89.6855 221.438 88.4789 221.123 87.3803 220.493C86.2997 219.862 85.4442 218.989 84.8139 217.872C84.1835 216.756 83.8683 215.495 83.8683 214.09C83.8683 212.685 84.1835 211.416 84.8139 210.281C85.4442 209.146 86.2997 208.264 87.3803 207.634C88.4789 207.003 89.6855 206.688 91.0002 206.688C92.315 206.688 93.5126 207.003 94.5932 207.634C95.6918 208.264 96.5563 209.146 97.1866 210.281C97.817 211.416 98.1321 212.685 98.1321 214.09ZM95.5657 214.09C95.5657 213.118 95.3586 212.253 94.9444 211.497C94.5482 210.722 93.9989 210.128 93.2965 209.714C92.6121 209.281 91.8467 209.065 91.0002 209.065C90.1538 209.065 89.3794 209.281 88.677 209.714C87.9926 210.128 87.4433 210.722 87.0291 211.497C86.6328 212.253 86.4347 213.118 86.4347 214.09C86.4347 215.045 86.6328 215.9 87.0291 216.657C87.4433 217.413 87.9926 218.007 88.677 218.439C89.3794 218.854 90.1538 219.061 91.0002 219.061C91.8467 219.061 92.6121 218.854 93.2965 218.439C93.9989 218.007 94.5482 217.413 94.9444 216.657C95.3586 215.9 95.5657 215.045 95.5657 214.09ZM117.484 202.231C117.844 202.249 118.15 202.384 118.402 202.636C118.654 202.87 118.78 203.167 118.78 203.527V219.871C118.78 220.231 118.654 220.538 118.402 220.79C118.168 221.042 117.853 221.168 117.457 221.168C117.06 221.168 116.736 221.051 116.484 220.817C116.232 220.565 116.106 220.249 116.106 219.871V207.363L110.865 215.306C110.739 215.468 110.577 215.603 110.379 215.711C110.199 215.819 110.009 215.864 109.811 215.846C109.631 215.864 109.442 215.819 109.244 215.711C109.064 215.603 108.911 215.468 108.785 215.306L103.517 207.12V219.871C103.517 220.249 103.4 220.565 103.166 220.817C102.95 221.051 102.652 221.168 102.274 221.168C101.914 221.168 101.617 221.051 101.383 220.817C101.167 220.565 101.059 220.249 101.059 219.871V203.527C101.059 203.185 101.185 202.888 101.437 202.636C101.689 202.366 102.004 202.231 102.382 202.231C102.598 202.231 102.806 202.285 103.004 202.393C103.22 202.501 103.391 202.645 103.517 202.825L109.919 212.523L116.403 202.825C116.691 202.429 117.051 202.231 117.484 202.231ZM134.048 206.823C134.426 206.823 134.732 206.949 134.966 207.201C135.218 207.435 135.344 207.751 135.344 208.147V219.871C135.344 220.231 135.218 220.538 134.966 220.79C134.732 221.042 134.426 221.168 134.048 221.168C133.669 221.168 133.363 221.051 133.129 220.817C132.895 220.565 132.778 220.249 132.778 219.871V219.169C132.31 219.799 131.67 220.34 130.86 220.79C130.049 221.222 129.176 221.438 128.239 221.438C127.015 221.438 125.898 221.123 124.89 220.493C123.899 219.862 123.116 218.989 122.539 217.872C121.981 216.738 121.702 215.468 121.702 214.063C121.702 212.658 121.981 211.398 122.539 210.281C123.116 209.146 123.899 208.264 124.89 207.634C125.88 207.003 126.97 206.688 128.158 206.688C129.113 206.688 129.995 206.886 130.806 207.282C131.634 207.679 132.292 208.183 132.778 208.795V208.147C132.778 207.769 132.895 207.453 133.129 207.201C133.363 206.949 133.669 206.823 134.048 206.823ZM128.537 219.061C129.383 219.061 130.13 218.845 130.779 218.412C131.445 217.98 131.958 217.386 132.319 216.629C132.697 215.873 132.886 215.018 132.886 214.063C132.886 213.127 132.697 212.28 132.319 211.524C131.958 210.767 131.445 210.173 130.779 209.741C130.13 209.29 129.383 209.065 128.537 209.065C127.69 209.065 126.934 209.281 126.267 209.714C125.619 210.146 125.106 210.74 124.728 211.497C124.367 212.253 124.187 213.109 124.187 214.063C124.187 215.018 124.367 215.873 124.728 216.629C125.106 217.386 125.619 217.98 126.267 218.412C126.934 218.845 127.69 219.061 128.537 219.061ZM142.615 209.525V217.575C142.615 218.475 143.02 218.926 143.831 218.926C143.957 218.926 144.128 218.899 144.344 218.845C144.56 218.773 144.731 218.737 144.857 218.737C145.091 218.737 145.29 218.836 145.452 219.034C145.614 219.232 145.695 219.484 145.695 219.79C145.695 220.168 145.479 220.493 145.046 220.763C144.614 221.033 144.128 221.168 143.588 221.168C142.993 221.168 142.444 221.105 141.94 220.979C141.453 220.853 141.012 220.538 140.616 220.033C140.238 219.511 140.049 218.728 140.049 217.683V209.525H138.482C138.14 209.525 137.851 209.417 137.617 209.2C137.401 208.966 137.293 208.678 137.293 208.336C137.293 207.994 137.401 207.715 137.617 207.498C137.851 207.282 138.14 207.174 138.482 207.174H140.049V204.905C140.049 204.545 140.166 204.239 140.4 203.987C140.652 203.734 140.967 203.608 141.345 203.608C141.706 203.608 142.003 203.734 142.237 203.987C142.489 204.239 142.615 204.545 142.615 204.905V207.174H144.857C145.2 207.174 145.479 207.291 145.695 207.526C145.929 207.742 146.046 208.021 146.046 208.363C146.046 208.705 145.929 208.984 145.695 209.2C145.479 209.417 145.2 209.525 144.857 209.525H142.615ZM160.955 213.55C160.937 213.874 160.802 214.153 160.55 214.387C160.298 214.603 160 214.711 159.658 214.711H150.149C150.275 216.026 150.77 217.08 151.635 217.872C152.517 218.665 153.589 219.061 154.85 219.061C155.714 219.061 156.416 218.935 156.957 218.683C157.497 218.43 157.974 218.106 158.389 217.71C158.659 217.548 158.92 217.467 159.172 217.467C159.478 217.467 159.73 217.575 159.928 217.791C160.145 218.007 160.253 218.259 160.253 218.548C160.253 218.926 160.072 219.268 159.712 219.574C159.19 220.096 158.497 220.538 157.632 220.898C156.768 221.258 155.885 221.438 154.985 221.438C153.526 221.438 152.238 221.132 151.122 220.52C150.023 219.907 149.168 219.052 148.555 217.953C147.961 216.855 147.664 215.612 147.664 214.225C147.664 212.712 147.97 211.389 148.582 210.254C149.213 209.101 150.032 208.219 151.041 207.607C152.067 206.994 153.166 206.688 154.336 206.688C155.489 206.688 156.57 206.985 157.578 207.58C158.587 208.174 159.397 208.993 160.009 210.038C160.622 211.082 160.937 212.253 160.955 213.55ZM154.336 209.065C153.328 209.065 152.454 209.354 151.716 209.93C150.978 210.488 150.491 211.362 150.257 212.55H158.226V212.334C158.136 211.38 157.704 210.596 156.93 209.984C156.173 209.372 155.309 209.065 154.336 209.065Z" fill="#212121"/>
</svg>
