<svg width="720" height="443" viewBox="0 0 720 443" fill="none" xmlns="http://www.w3.org/2000/svg">
<rect width="720" height="443" fill="white"/>
<path d="M239.668 80.488C237.46 78.4988 234.112 78.4771 231.878 80.4374L180.996 125.082C179.727 126.195 179 127.801 179 129.489V186.56C179 189.798 181.625 192.423 184.863 192.423H285.262C288.5 192.423 291.125 189.798 291.125 186.56V129.443C291.125 127.782 290.42 126.199 289.186 125.087L239.668 80.488Z" fill="black"/>
<path fill-rule="evenodd" clip-rule="evenodd" d="M213.984 124.044H238.919C239.999 124.044 240.874 124.919 240.874 125.999V134.8H233.541C228.41 134.8 224.251 138.959 224.251 144.09V152.89H224.25V160.222H220.827V152.89H213.984C212.904 152.89 212.028 152.014 212.028 150.934V125.999C212.028 124.919 212.904 124.044 213.984 124.044ZM224.251 160.224H213.984C208.853 160.224 204.694 156.065 204.694 150.934V125.999C204.694 120.869 208.853 116.71 213.984 116.71H238.919C244.049 116.71 248.208 120.869 248.208 125.999V134.8H248.211V142.134H251.634V134.8H258.476C263.606 134.8 267.765 138.959 267.765 144.09V169.024C267.765 174.155 263.606 178.314 258.476 178.314H233.541C228.41 178.314 224.251 174.155 224.251 169.024V160.224ZM248.208 142.134H258.476C259.556 142.134 260.431 143.01 260.431 144.09V169.024C260.431 170.105 259.556 170.98 258.476 170.98H233.541C232.461 170.98 231.585 170.105 231.585 169.024V160.224H238.919C244.049 160.224 248.208 156.065 248.208 150.934V142.134ZM240.874 134.801V150.934C240.874 152.014 239.999 152.89 238.919 152.89H235.007V160.222H231.585V144.09C231.585 143.01 232.461 142.134 233.541 142.134H237.453V134.801H240.874Z" fill="white"/>
<path d="M488.714 80.5295C486.479 78.5167 483.092 78.4947 480.831 80.4783L430.02 125.061C428.736 126.188 428 127.813 428 129.52V186.49C428 189.767 430.656 192.423 433.933 192.423H534.193C537.469 192.423 540.125 189.767 540.125 186.49V129.474C540.125 127.793 539.412 126.191 538.163 125.066L488.714 80.5295Z" fill="#2ABECC"/>
<path fill-rule="evenodd" clip-rule="evenodd" d="M463.095 124.131H487.809C488.902 124.131 489.788 125.017 489.788 126.11V134.8H482.654C477.463 134.8 473.254 139.009 473.254 144.2V152.803H463.095C462.002 152.803 461.116 151.917 461.116 150.824V126.11C461.116 125.017 462.002 124.131 463.095 124.131ZM480.675 160.222V152.888H484.008V160.222H480.675ZM473.254 160.224H463.095C457.904 160.224 453.695 156.015 453.695 150.824V126.11C453.695 120.918 457.904 116.71 463.095 116.71H487.809C493 116.71 497.209 120.918 497.209 126.11V134.8H497.213V142.134H500.636V134.8H507.368C512.559 134.8 516.768 139.009 516.768 144.2V168.914C516.768 174.105 512.559 178.314 507.368 178.314H482.654C477.463 178.314 473.254 174.105 473.254 168.914V160.224ZM497.209 142.221H507.368C508.461 142.221 509.347 143.107 509.347 144.2V168.914C509.347 170.007 508.461 170.893 507.368 170.893H482.654C481.561 170.893 480.675 170.007 480.675 168.914V160.224H487.809C493 160.224 497.209 156.015 497.209 150.824V142.221ZM489.788 142.221V150.824C489.788 151.917 488.902 152.803 487.809 152.803H480.675V144.2C480.675 143.107 481.561 142.221 482.654 142.221H489.788ZM489.788 134.801V142.135H486.455V134.801H489.788ZM473.251 152.888H469.828V160.222H473.251V152.888Z" fill="white"/>
<path d="M308.601 343.262C309.082 343.599 309.467 344.031 309.755 344.56C310.044 345.041 310.188 345.546 310.188 346.074C310.188 347.084 309.851 347.829 309.178 348.31C308.553 348.791 307.784 349.031 306.87 349.031C305.957 349.031 305.188 348.839 304.563 348.454C303.12 347.637 301.943 346.315 301.029 344.488C300.116 342.661 299.659 339.969 299.659 336.411C299.659 334.007 298.938 332.228 297.495 331.074C296.053 329.92 294.178 329.344 291.87 329.344H277.303V345.57C277.303 346.579 277.014 347.421 276.437 348.094C275.861 348.719 275.115 349.031 274.202 349.031C273.096 349.031 272.135 348.695 271.317 348.022C270.548 347.349 270.163 346.531 270.163 345.57V302.012C270.163 301.05 270.5 300.233 271.173 299.56C271.846 298.887 272.663 298.55 273.625 298.55H293.89C296.486 298.55 298.866 299.199 301.029 300.497C303.193 301.747 304.923 303.502 306.221 305.762C307.519 307.973 308.169 310.473 308.169 313.262C308.169 315.954 307.447 318.478 306.005 320.834C304.563 323.142 302.712 324.872 300.452 326.026C302.231 326.94 303.625 328.214 304.635 329.848C305.693 331.483 306.269 333.382 306.366 335.546C306.558 338.286 306.774 340.161 307.015 341.171C307.255 342.132 307.784 342.829 308.601 343.262ZM293.745 323.358C294.947 323.262 296.077 322.781 297.135 321.916C298.241 321.05 299.13 319.896 299.803 318.454C300.476 316.964 300.813 315.305 300.813 313.478C300.813 311.17 300.092 309.223 298.649 307.637C297.255 306.002 295.548 305.185 293.529 305.185H277.303V323.358H293.745ZM352.714 330.137C352.714 333.887 351.872 337.252 350.19 340.233C348.507 343.214 346.199 345.546 343.266 347.228C340.382 348.911 337.185 349.752 333.675 349.752C330.165 349.752 326.944 348.911 324.011 347.228C321.127 345.546 318.843 343.214 317.16 340.233C315.478 337.252 314.636 333.887 314.636 330.137C314.636 326.387 315.478 322.997 317.16 319.968C318.843 316.94 321.127 314.584 324.011 312.901C326.944 311.218 330.165 310.377 333.675 310.377C337.185 310.377 340.382 311.218 343.266 312.901C346.199 314.584 348.507 316.94 350.19 319.968C351.872 322.997 352.714 326.387 352.714 330.137ZM345.863 330.137C345.863 327.541 345.31 325.233 344.204 323.214C343.146 321.146 341.68 319.56 339.805 318.454C337.978 317.3 335.935 316.723 333.675 316.723C331.415 316.723 329.348 317.3 327.473 318.454C325.646 319.56 324.18 321.146 323.074 323.214C322.016 325.233 321.487 327.541 321.487 330.137C321.487 332.685 322.016 334.969 323.074 336.988C324.18 339.007 325.646 340.594 327.473 341.748C329.348 342.853 331.415 343.406 333.675 343.406C335.935 343.406 337.978 342.853 339.805 341.748C341.68 340.594 343.146 339.007 344.204 336.988C345.31 334.969 345.863 332.685 345.863 330.137ZM395.43 330.137C395.43 333.887 394.589 337.252 392.906 340.233C391.223 343.214 388.916 345.546 385.983 347.228C383.098 348.911 379.901 349.752 376.391 349.752C372.882 349.752 369.661 348.911 366.728 347.228C363.843 345.546 361.56 343.214 359.877 340.233C358.194 337.252 357.353 333.887 357.353 330.137C357.353 326.387 358.194 322.997 359.877 319.968C361.56 316.94 363.843 314.584 366.728 312.901C369.661 311.218 372.882 310.377 376.391 310.377C379.901 310.377 383.098 311.218 385.983 312.901C388.916 314.584 391.223 316.94 392.906 319.968C394.589 322.997 395.43 326.387 395.43 330.137ZM388.579 330.137C388.579 327.541 388.026 325.233 386.92 323.214C385.863 321.146 384.396 319.56 382.521 318.454C380.694 317.3 378.651 316.723 376.391 316.723C374.132 316.723 372.064 317.3 370.189 318.454C368.362 319.56 366.896 321.146 365.79 323.214C364.733 325.233 364.204 327.541 364.204 330.137C364.204 332.685 364.733 334.969 365.79 336.988C366.896 339.007 368.362 340.594 370.189 341.748C372.064 342.853 374.132 343.406 376.391 343.406C378.651 343.406 380.694 342.853 382.521 341.748C384.396 340.594 385.863 339.007 386.92 336.988C388.026 334.969 388.579 332.685 388.579 330.137ZM447.089 298.478C448.05 298.526 448.868 298.887 449.541 299.56C450.214 300.185 450.55 300.978 450.55 301.939V345.57C450.55 346.531 450.214 347.349 449.541 348.022C448.916 348.695 448.074 349.031 447.017 349.031C445.959 349.031 445.094 348.719 444.42 348.094C443.747 347.421 443.411 346.579 443.411 345.57V312.18L429.42 333.382C429.084 333.815 428.651 334.175 428.122 334.464C427.641 334.752 427.137 334.872 426.608 334.824C426.127 334.872 425.622 334.752 425.093 334.464C424.613 334.175 424.204 333.815 423.867 333.382L409.805 311.531V345.57C409.805 346.579 409.492 347.421 408.867 348.094C408.29 348.719 407.497 349.031 406.487 349.031C405.526 349.031 404.733 348.719 404.108 348.094C403.531 347.421 403.242 346.579 403.242 345.57V301.939C403.242 301.026 403.579 300.233 404.252 299.56C404.925 298.838 405.766 298.478 406.776 298.478C407.353 298.478 407.906 298.622 408.435 298.911C409.011 299.199 409.468 299.584 409.805 300.064L426.896 325.954L444.204 300.064C444.973 299.007 445.935 298.478 447.089 298.478ZM491.307 310.738C492.316 310.738 493.133 311.074 493.758 311.747C494.432 312.372 494.768 313.214 494.768 314.271V345.57C494.768 346.531 494.432 347.349 493.758 348.022C493.133 348.695 492.316 349.031 491.307 349.031C490.297 349.031 489.48 348.719 488.855 348.094C488.23 347.421 487.917 346.579 487.917 345.57V343.695C486.667 345.377 484.96 346.82 482.797 348.022C480.633 349.175 478.302 349.752 475.802 349.752C472.532 349.752 469.552 348.911 466.859 347.228C464.215 345.546 462.124 343.214 460.585 340.233C459.095 337.204 458.349 333.815 458.349 330.065C458.349 326.315 459.095 322.949 460.585 319.968C462.124 316.94 464.215 314.584 466.859 312.901C469.503 311.218 472.412 310.377 475.585 310.377C478.133 310.377 480.489 310.906 482.653 311.964C484.864 313.021 486.619 314.367 487.917 316.002V314.271C487.917 313.262 488.23 312.42 488.855 311.747C489.48 311.074 490.297 310.738 491.307 310.738ZM476.595 343.406C478.854 343.406 480.85 342.829 482.58 341.675C484.359 340.522 485.73 338.935 486.691 336.916C487.701 334.897 488.206 332.613 488.206 330.065C488.206 327.565 487.701 325.305 486.691 323.286C485.73 321.267 484.359 319.68 482.58 318.526C480.85 317.324 478.854 316.723 476.595 316.723C474.335 316.723 472.316 317.3 470.537 318.454C468.806 319.608 467.436 321.194 466.426 323.214C465.465 325.233 464.984 327.517 464.984 330.065C464.984 332.613 465.465 334.897 466.426 336.916C467.436 338.935 468.806 340.522 470.537 341.675C472.316 342.829 474.335 343.406 476.595 343.406ZM514.177 317.949V339.44C514.177 341.844 515.259 343.046 517.423 343.046C517.759 343.046 518.216 342.974 518.793 342.829C519.37 342.637 519.827 342.541 520.163 342.541C520.788 342.541 521.317 342.805 521.75 343.334C522.182 343.863 522.399 344.536 522.399 345.353C522.399 346.363 521.822 347.228 520.668 347.95C519.514 348.671 518.216 349.031 516.774 349.031C515.187 349.031 513.721 348.863 512.375 348.526C511.076 348.19 509.899 347.349 508.841 346.002C507.831 344.608 507.326 342.517 507.326 339.728V317.949H503.144C502.23 317.949 501.461 317.661 500.836 317.084C500.259 316.459 499.971 315.69 499.971 314.776C499.971 313.863 500.259 313.117 500.836 312.541C501.461 311.964 502.23 311.675 503.144 311.675H507.326V305.617C507.326 304.656 507.639 303.839 508.264 303.165C508.937 302.492 509.778 302.156 510.788 302.156C511.75 302.156 512.543 302.492 513.168 303.165C513.841 303.839 514.177 304.656 514.177 305.617V311.675H520.163C521.077 311.675 521.822 311.988 522.399 312.613C523.024 313.19 523.336 313.935 523.336 314.848C523.336 315.762 523.024 316.507 522.399 317.084C521.822 317.661 521.077 317.949 520.163 317.949H514.177ZM563.136 328.695C563.088 329.56 562.727 330.305 562.054 330.93C561.381 331.507 560.588 331.796 559.674 331.796H534.289C534.626 335.305 535.948 338.118 538.256 340.233C540.612 342.348 543.472 343.406 546.838 343.406C549.145 343.406 551.02 343.07 552.463 342.397C553.905 341.723 555.179 340.858 556.285 339.8C557.006 339.368 557.703 339.151 558.376 339.151C559.193 339.151 559.866 339.44 560.395 340.017C560.972 340.594 561.261 341.267 561.261 342.036C561.261 343.046 560.78 343.959 559.818 344.776C558.424 346.171 556.573 347.349 554.265 348.31C551.958 349.272 549.602 349.752 547.198 349.752C543.304 349.752 539.866 348.935 536.886 347.3C533.953 345.666 531.669 343.382 530.034 340.449C528.448 337.517 527.655 334.199 527.655 330.497C527.655 326.459 528.472 322.925 530.107 319.896C531.789 316.819 533.977 314.464 536.669 312.829C539.41 311.194 542.342 310.377 545.467 310.377C548.544 310.377 551.429 311.17 554.121 312.757C556.814 314.343 558.977 316.531 560.612 319.319C562.246 322.108 563.088 325.233 563.136 328.695ZM545.467 316.723C542.775 316.723 540.443 317.492 538.472 319.031C536.501 320.521 535.203 322.853 534.578 326.026H555.852V325.449C555.612 322.901 554.458 320.81 552.39 319.175C550.371 317.541 548.064 316.723 545.467 316.723Z" fill="black"/>
<path d="M206.1 254.029C204.183 252.301 201.276 252.283 199.336 253.985L155.733 292.242C154.632 293.209 154 294.604 154 296.069V344.956C154 347.768 156.279 350.047 159.091 350.047H245.126C247.938 350.047 250.217 347.768 250.217 344.956V296.029C250.217 294.587 249.605 293.212 248.533 292.247L206.1 254.029Z" fill="#2ABECC"/>
<path fill-rule="evenodd" clip-rule="evenodd" d="M184.115 291.441H205.323C206.26 291.441 207.021 292.202 207.021 293.14V300.601H200.9C196.445 300.601 192.834 304.212 192.834 308.667V316.045H184.115C183.177 316.045 182.417 315.285 182.417 314.347V293.14C182.417 292.202 183.177 291.441 184.115 291.441ZM192.834 322.413H192.833V316.128H189.895V322.413H184.115C179.66 322.413 176.049 318.802 176.049 314.347V293.14C176.049 288.685 179.66 285.073 184.115 285.073H205.323C209.778 285.073 213.389 288.685 213.389 293.14V300.601H222.108C226.563 300.601 230.174 304.212 230.174 308.667V329.875C230.174 334.33 226.563 337.941 222.108 337.941H200.9C196.445 337.941 192.834 334.33 192.834 329.875V322.413ZM213.389 306.969H222.108C223.045 306.969 223.806 307.73 223.806 308.667V329.875C223.806 330.813 223.045 331.573 222.108 331.573H200.9C199.962 331.573 199.202 330.813 199.202 329.875V316.126H202.062V322.413H205.323C209.778 322.413 213.389 318.802 213.389 314.347V306.969ZM207.021 306.969V314.347C207.021 315.285 206.26 316.045 205.323 316.045H199.202V308.667C199.202 307.73 199.962 306.969 200.9 306.969H207.021ZM207.021 300.601V306.895H204.162V300.601H207.021ZM213.391 300.601H216.328V306.895H213.391V300.601Z" fill="white"/>
</svg>
