<svg width="375" height="467" viewBox="0 0 375 467" fill="none" xmlns="http://www.w3.org/2000/svg">
<path d="M0 15C0 6.71574 6.71573 0 15 0H360C368.284 0 375 6.71573 375 15V467H0V15Z" fill="white"/>
<path d="M167.82 87.056C167.316 88.484 166.338 89.198 164.886 89.198C163.434 89.198 162.24 88.67 161.304 87.614C160.38 86.558 159.918 85.136 159.918 83.348C159.918 81.56 160.422 80.138 161.43 79.082C162.45 78.026 163.716 77.498 165.228 77.498C166.116 77.498 166.89 77.678 167.55 78.038C168.222 78.398 168.798 78.974 169.278 79.766L167.91 80.234C167.13 79.262 166.218 78.776 165.174 78.776C164.13 78.776 163.242 79.202 162.51 80.054C161.79 80.906 161.43 82.016 161.43 83.384C161.43 84.74 161.742 85.832 162.366 86.66C162.99 87.488 163.83 87.902 164.886 87.902C165.75 87.902 166.446 87.614 166.974 87.038C167.502 86.462 167.766 85.61 167.766 84.482V84.446L164.922 84.338V83.402H169.152V89H168L167.82 87.056ZM175.135 88.046C176.323 88.046 177.001 87.524 177.169 86.48H178.627C178.495 87.344 178.111 88.016 177.475 88.496C176.851 88.964 176.071 89.198 175.135 89.198C173.983 89.198 173.047 88.79 172.327 87.974C171.607 87.146 171.247 86.048 171.247 84.68C171.247 83.312 171.607 82.22 172.327 81.404C173.059 80.588 174.025 80.18 175.225 80.18C176.437 80.18 177.337 80.648 177.925 81.584C178.525 82.52 178.735 83.66 178.555 85.004H172.669C172.669 85.892 172.885 86.624 173.317 87.2C173.749 87.764 174.355 88.046 175.135 88.046ZM176.179 81.53C175.903 81.386 175.567 81.314 175.171 81.314C174.439 81.314 173.857 81.566 173.425 82.07C173.005 82.562 172.759 83.18 172.687 83.924H177.277C177.277 82.724 176.911 81.926 176.179 81.53ZM182.543 82.052C183.107 80.804 184.073 80.18 185.441 80.18C186.461 80.18 187.253 80.516 187.817 81.188C188.393 81.86 188.681 82.778 188.681 83.942V89H187.277V83.942C187.277 83.114 187.079 82.49 186.683 82.07C186.299 81.65 185.747 81.44 185.027 81.44C184.307 81.44 183.725 81.734 183.281 82.322C182.837 82.91 182.603 83.726 182.579 84.77V89H181.157V80.396H182.381L182.543 82.052ZM197.401 81.674V76.742H198.805V89H197.653L197.473 87.56C197.197 88.1 196.831 88.508 196.375 88.784C195.919 89.06 195.421 89.198 194.881 89.198C193.789 89.198 192.871 88.778 192.127 87.938C191.395 87.098 191.029 86.006 191.029 84.662C191.029 83.306 191.389 82.22 192.109 81.404C192.841 80.588 193.759 80.18 194.863 80.18C195.979 80.18 196.825 80.678 197.401 81.674ZM194.953 81.44C194.257 81.44 193.669 81.734 193.189 82.322C192.721 82.91 192.487 83.696 192.487 84.68C192.487 85.664 192.727 86.456 193.207 87.056C193.687 87.644 194.263 87.938 194.935 87.938C195.607 87.938 196.177 87.716 196.645 87.272C197.125 86.816 197.377 86.21 197.401 85.454V84.05C197.401 83.246 197.167 82.61 196.699 82.142C196.231 81.674 195.649 81.44 194.953 81.44ZM205.17 88.046C206.358 88.046 207.036 87.524 207.204 86.48H208.662C208.53 87.344 208.146 88.016 207.51 88.496C206.886 88.964 206.106 89.198 205.17 89.198C204.018 89.198 203.082 88.79 202.362 87.974C201.642 87.146 201.282 86.048 201.282 84.68C201.282 83.312 201.642 82.22 202.362 81.404C203.094 80.588 204.06 80.18 205.26 80.18C206.472 80.18 207.372 80.648 207.96 81.584C208.56 82.52 208.77 83.66 208.59 85.004H202.704C202.704 85.892 202.92 86.624 203.352 87.2C203.784 87.764 204.39 88.046 205.17 88.046ZM206.214 81.53C205.938 81.386 205.602 81.314 205.206 81.314C204.474 81.314 203.892 81.566 203.46 82.07C203.04 82.562 202.794 83.18 202.722 83.924H207.312C207.312 82.724 206.946 81.926 206.214 81.53ZM214.72 81.602C213.364 81.602 212.662 82.67 212.614 84.806V89H211.192V80.378H212.614V82.034C213.046 80.834 213.808 80.234 214.9 80.234C215.248 80.234 215.578 80.288 215.89 80.396L215.818 81.782C215.458 81.662 215.092 81.602 214.72 81.602Z" fill="#393939"/>
<path d="M177.356 194.678H179.084L182.882 206H181.406L180.434 203.12H175.934L174.962 206H173.468L177.356 194.678ZM176.312 202.004H180.074L178.202 196.424L176.312 202.004ZM185.277 205.73C184.557 205.382 184.197 204.848 184.197 204.128C184.197 203.756 184.335 203.432 184.611 203.156C184.899 202.868 185.253 202.676 185.673 202.58C185.025 202.004 184.701 201.248 184.701 200.312C184.701 199.376 185.031 198.62 185.691 198.044C186.363 197.468 187.155 197.18 188.067 197.18C188.979 197.18 189.753 197.396 190.389 197.828C190.473 197.192 190.725 196.682 191.145 196.298C191.577 195.914 192.141 195.722 192.837 195.722L192.711 197.126C191.655 197.126 191.103 197.57 191.055 198.458C191.475 198.974 191.685 199.592 191.685 200.312C191.685 201.236 191.349 201.998 190.677 202.598C190.017 203.186 189.189 203.48 188.193 203.48C187.509 203.48 186.903 203.342 186.375 203.066C186.135 203.114 185.919 203.228 185.727 203.408C185.535 203.576 185.439 203.81 185.439 204.11C185.439 204.746 185.967 205.064 187.023 205.064H190.371C191.175 205.064 191.811 205.238 192.279 205.586C192.747 205.922 192.981 206.396 192.981 207.008C192.981 207.92 192.519 208.718 191.595 209.402C190.683 210.086 189.525 210.428 188.121 210.428C186.717 210.428 185.613 210.164 184.809 209.636C184.005 209.12 183.603 208.466 183.603 207.674C183.603 207.158 183.753 206.738 184.053 206.414C184.365 206.09 184.773 205.862 185.277 205.73ZM185.007 207.62C185.007 208.076 185.253 208.466 185.745 208.79C186.249 209.126 187.005 209.294 188.013 209.294C189.033 209.294 189.879 209.072 190.551 208.628C191.235 208.196 191.577 207.686 191.577 207.098C191.577 206.822 191.475 206.582 191.271 206.378C191.079 206.186 190.779 206.09 190.371 206.09H186.897C186.285 206.114 185.817 206.258 185.493 206.522C185.169 206.798 185.007 207.164 185.007 207.62ZM190.299 200.312C190.299 199.688 190.113 199.184 189.741 198.8C189.369 198.404 188.853 198.206 188.193 198.206C187.545 198.206 187.035 198.404 186.663 198.8C186.291 199.184 186.105 199.688 186.105 200.312C186.105 200.936 186.291 201.452 186.663 201.86C187.047 202.256 187.563 202.454 188.211 202.454C188.859 202.454 189.369 202.25 189.741 201.842C190.113 201.434 190.299 200.924 190.299 200.312ZM197.811 205.046C198.999 205.046 199.677 204.524 199.845 203.48H201.303C201.171 204.344 200.787 205.016 200.151 205.496C199.527 205.964 198.747 206.198 197.811 206.198C196.659 206.198 195.723 205.79 195.003 204.974C194.283 204.146 193.923 203.048 193.923 201.68C193.923 200.312 194.283 199.22 195.003 198.404C195.735 197.588 196.701 197.18 197.901 197.18C199.113 197.18 200.013 197.648 200.601 198.584C201.201 199.52 201.411 200.66 201.231 202.004H195.345C195.345 202.892 195.561 203.624 195.993 204.2C196.425 204.764 197.031 205.046 197.811 205.046ZM198.855 198.53C198.579 198.386 198.243 198.314 197.847 198.314C197.115 198.314 196.533 198.566 196.101 199.07C195.681 199.562 195.435 200.18 195.363 200.924H199.953C199.953 199.724 199.587 198.926 198.855 198.53Z" fill="#393939"/>
<path d="M174.702 281.918C174.702 282.854 174.45 283.61 173.946 284.186C173.454 284.762 172.722 285.134 171.75 285.302L174.99 290H173.154L170.22 285.374H168.24V290H166.818V278.678H170.76C172.032 278.678 173.004 278.984 173.676 279.596C174.36 280.208 174.702 280.982 174.702 281.918ZM170.652 284.384C171.504 284.384 172.146 284.18 172.578 283.772C173.022 283.352 173.244 282.806 173.244 282.134C173.244 281.45 173.028 280.91 172.596 280.514C172.176 280.106 171.564 279.902 170.76 279.902H168.24V284.384H170.652ZM183.453 288.29C182.865 289.538 181.911 290.162 180.591 290.162C179.619 290.162 178.833 289.892 178.233 289.352C177.645 288.812 177.351 287.978 177.351 286.85V281.378H178.773V286.742C178.773 288.194 179.445 288.92 180.789 288.92C181.569 288.92 182.199 288.62 182.679 288.02C183.171 287.42 183.429 286.652 183.453 285.716V281.378H184.875V290H183.453V288.29ZM188.265 277.742H189.687V290H188.265V277.742ZM196.026 289.046C197.214 289.046 197.892 288.524 198.06 287.48H199.518C199.386 288.344 199.002 289.016 198.366 289.496C197.742 289.964 196.962 290.198 196.026 290.198C194.874 290.198 193.938 289.79 193.218 288.974C192.498 288.146 192.138 287.048 192.138 285.68C192.138 284.312 192.498 283.22 193.218 282.404C193.95 281.588 194.916 281.18 196.116 281.18C197.328 281.18 198.228 281.648 198.816 282.584C199.416 283.52 199.626 284.66 199.446 286.004H193.56C193.56 286.892 193.776 287.624 194.208 288.2C194.64 288.764 195.246 289.046 196.026 289.046ZM197.07 282.53C196.794 282.386 196.458 282.314 196.062 282.314C195.33 282.314 194.748 282.566 194.316 283.07C193.896 283.562 193.65 284.18 193.578 284.924H198.168C198.168 283.724 197.802 282.926 197.07 282.53ZM201.615 283.502C201.615 282.794 201.915 282.23 202.515 281.81C203.127 281.39 203.949 281.18 204.981 281.18C206.013 281.18 206.817 281.396 207.393 281.828C207.981 282.26 208.287 282.806 208.311 283.466H206.925C206.817 282.686 206.157 282.296 204.945 282.296C204.357 282.296 203.901 282.428 203.577 282.692C203.265 282.956 203.109 283.244 203.109 283.556C203.109 283.856 203.229 284.114 203.469 284.33C203.709 284.534 204.093 284.714 204.621 284.87L206.349 285.446C207.081 285.674 207.639 285.968 208.023 286.328C208.419 286.676 208.617 287.162 208.617 287.786C208.617 288.398 208.299 288.956 207.663 289.46C207.027 289.952 206.139 290.198 204.999 290.198C203.859 290.198 202.971 289.946 202.335 289.442C201.699 288.926 201.363 288.266 201.327 287.462H202.695C202.719 288.002 202.935 288.41 203.343 288.686C203.763 288.95 204.285 289.082 204.909 289.082C205.533 289.082 206.049 288.95 206.457 288.686C206.865 288.422 207.069 288.11 207.069 287.75C207.069 287.378 206.949 287.096 206.709 286.904C206.469 286.712 206.079 286.544 205.539 286.4L203.865 285.842C202.365 285.398 201.615 284.618 201.615 283.502Z" fill="#393939"/>
<path d="M57.784 216.72C58.4987 216.624 59.1227 216.352 59.656 215.904H60.68V226H59.432V217.408C58.8987 217.749 58.3493 217.936 57.784 217.968V216.72ZM68.871 218.48C68.6897 217.435 68.119 216.912 67.159 216.912C66.199 216.912 65.4577 217.307 64.935 218.096C64.423 218.885 64.167 219.963 64.167 221.328C64.167 221.893 64.1937 222.363 64.247 222.736C64.311 221.755 64.6097 221.045 65.143 220.608C65.687 220.16 66.3803 219.936 67.223 219.936C68.0657 219.936 68.791 220.235 69.399 220.832C70.007 221.419 70.311 222.176 70.311 223.104C70.311 224.021 69.9963 224.768 69.367 225.344C68.7377 225.909 67.911 226.192 66.887 226.192C65.6923 226.192 64.727 225.712 63.991 224.752C63.255 223.792 62.887 222.533 62.887 220.976C62.887 219.408 63.2603 218.149 64.007 217.2C64.7537 216.24 65.7723 215.76 67.063 215.76C67.959 215.76 68.6897 216.011 69.255 216.512C69.8203 217.013 70.1457 217.669 70.231 218.48H68.871ZM66.887 221.056C66.2897 221.056 65.7883 221.248 65.383 221.632C64.9883 222.005 64.791 222.485 64.791 223.072C64.791 223.659 64.9883 224.133 65.383 224.496C65.7777 224.848 66.279 225.024 66.887 225.024C67.495 225.024 67.9963 224.848 68.391 224.496C68.7963 224.144 68.999 223.659 68.999 223.04C68.999 222.421 68.7963 221.936 68.391 221.584C67.9963 221.232 67.495 221.056 66.887 221.056Z" fill="#787878"/>
<path d="M293.872 213.936H295.408L298.784 224H297.472L296.608 221.44H292.608L291.744 224H290.416L293.872 213.936ZM292.944 220.448H296.288L294.624 215.488L292.944 220.448ZM301.809 217.824C302.311 216.715 303.169 216.16 304.385 216.16C305.292 216.16 305.996 216.459 306.497 217.056C307.009 217.653 307.265 218.469 307.265 219.504V224H306.017V219.504C306.017 218.768 305.841 218.213 305.489 217.84C305.148 217.467 304.657 217.28 304.017 217.28C303.377 217.28 302.86 217.541 302.465 218.064C302.071 218.587 301.863 219.312 301.841 220.24V224H300.577V216.352H301.665L301.809 217.824ZM308.472 226.224C308.995 226.629 309.544 226.832 310.12 226.832C310.547 226.832 310.915 226.619 311.224 226.192C311.448 225.883 311.651 225.413 311.832 224.784L312.056 224L308.92 216.352H310.328L312.648 222.448L314.456 216.352H315.736L312.872 225.52C312.627 226.299 312.301 226.896 311.896 227.312C311.501 227.728 310.995 227.936 310.376 227.936C309.768 227.936 309.133 227.749 308.472 227.376V226.224Z" fill="#787878"/>
<line x1="63" y1="237.45" x2="303" y2="237.45" stroke="#393939" stroke-width="1.1"/>
<circle cx="64" cy="238" r="6" fill="#2ABECC"/>
<circle cx="303" cy="238" r="6" fill="#2ABECC"/>
<path d="M20.104 24.76C21.1813 24.76 22.0453 25.032 22.696 25.576C23.3573 26.1093 23.8107 26.808 24.056 27.672L22.696 27.944C22.4827 27.3147 22.1467 26.8187 21.688 26.456C21.24 26.0827 20.712 25.896 20.104 25.896C19.2613 25.896 18.5627 26.248 18.008 26.952C17.4533 27.656 17.176 28.6373 17.176 29.896C17.176 31.144 17.4213 32.1467 17.912 32.904C18.4133 33.6613 19.144 34.04 20.104 34.04C20.904 34.04 21.5333 33.832 21.992 33.416C22.4613 32.9893 22.696 32.4293 22.696 31.736H24.056C24.056 32.792 23.6933 33.6293 22.968 34.248C22.2533 34.8667 21.2667 35.176 20.008 35.176C18.76 35.176 17.7467 34.696 16.968 33.736C16.2 32.776 15.816 31.4907 15.816 29.88C15.816 28.2693 16.216 27.016 17.016 26.12C17.816 25.2133 18.8453 24.76 20.104 24.76ZM30.9386 30.04C30.9386 29.3467 30.7946 28.8507 30.5066 28.552C30.2186 28.2533 29.7973 28.104 29.2426 28.104C28.6986 28.104 28.256 28.216 27.9146 28.44C27.584 28.6533 27.4186 28.9947 27.4186 29.464H26.0266C26.0266 28.2907 26.656 27.5653 27.9146 27.288C28.2986 27.2027 28.7146 27.16 29.1626 27.16C30.112 27.16 30.8533 27.4 31.3866 27.88C31.92 28.36 32.1866 29.0907 32.1866 30.072V35H31.0986L30.9706 33.72C30.5013 34.6907 29.6533 35.176 28.4266 35.176C27.6053 35.176 26.944 34.9467 26.4426 34.488C25.952 34.0293 25.7066 33.4587 25.7066 32.776C25.7066 32.0933 25.9786 31.56 26.5226 31.176C27.0773 30.792 27.7653 30.6 28.5866 30.6C29.408 30.6 30.192 30.7387 30.9386 31.016V30.04ZM30.9386 31.816C30.1813 31.6027 29.52 31.496 28.9546 31.496C28.3893 31.496 27.9306 31.5973 27.5786 31.8C27.2266 32.0027 27.0506 32.3227 27.0506 32.76C27.0506 33.72 27.5946 34.2 28.6826 34.2C29.3013 34.2 29.8293 33.9813 30.2666 33.544C30.7146 33.096 30.9386 32.52 30.9386 31.816ZM36.1459 28.824C36.6472 27.7147 37.5059 27.16 38.7219 27.16C39.6285 27.16 40.3325 27.4587 40.8339 28.056C41.3459 28.6533 41.6019 29.4693 41.6019 30.504V35H40.3539V30.504C40.3539 29.768 40.1779 29.2133 39.8259 28.84C39.4845 28.4667 38.9939 28.28 38.3539 28.28C37.7139 28.28 37.1965 28.5413 36.8019 29.064C36.4072 29.5867 36.1992 30.312 36.1779 31.24V35H34.9139V27.352H36.0019L36.1459 28.824ZM46.8886 27.16C47.7953 27.16 48.5153 27.3947 49.0486 27.864C49.5819 28.3227 49.9286 28.8987 50.0886 29.592L48.8086 29.704C48.6699 29.256 48.4459 28.9093 48.1366 28.664C47.8273 28.408 47.4859 28.28 47.1126 28.28C46.4299 28.28 45.8753 28.536 45.4486 29.048C45.0326 29.56 44.8246 30.2587 44.8246 31.144C44.8246 32.0187 45.0273 32.7227 45.4326 33.256C45.8486 33.7893 46.3606 34.056 46.9686 34.056C47.5873 34.056 48.0459 33.9173 48.3446 33.64C48.6539 33.352 48.8086 32.9467 48.8086 32.424H50.1046C50.1046 33.2453 49.8166 33.912 49.2406 34.424C48.6753 34.9253 47.9339 35.176 47.0166 35.176C46.0459 35.176 45.2193 34.808 44.5366 34.072C43.8646 33.336 43.5286 32.36 43.5286 31.144C43.5286 29.9173 43.8646 28.9467 44.5366 28.232C45.2086 27.5173 45.9926 27.16 46.8886 27.16ZM54.9931 34.152C56.0491 34.152 56.6518 33.688 56.8011 32.76H58.0971C57.9798 33.528 57.6384 34.1253 57.0731 34.552C56.5184 34.968 55.8251 35.176 54.9931 35.176C53.9691 35.176 53.1371 34.8133 52.4971 34.088C51.8571 33.352 51.5371 32.376 51.5371 31.16C51.5371 29.944 51.8571 28.9733 52.4971 28.248C53.1478 27.5227 54.0064 27.16 55.0731 27.16C56.1504 27.16 56.9504 27.576 57.4731 28.408C58.0064 29.24 58.1931 30.2533 58.0331 31.448H52.8011C52.8011 32.2373 52.9931 32.888 53.3771 33.4C53.7611 33.9013 54.2998 34.152 54.9931 34.152ZM55.9211 28.36C55.6758 28.232 55.3771 28.168 55.0251 28.168C54.3744 28.168 53.8571 28.392 53.4731 28.84C53.0998 29.2773 52.8811 29.8267 52.8171 30.488H56.8971C56.8971 29.4213 56.5718 28.712 55.9211 28.36ZM60.3616 24.104H61.6256V35H60.3616V24.104Z" fill="#393939"/>
<path d="M162.424 21.904H171.592V23.536H164.32V28.552H171.088V30.184H164.32V37H162.424V21.904ZM174.791 25.504H176.687V37H174.791V25.504ZM175.727 22.816C175.343 22.816 175.039 22.712 174.815 22.504C174.607 22.28 174.503 21.992 174.503 21.64C174.503 21.272 174.607 20.984 174.815 20.776C175.039 20.552 175.343 20.44 175.727 20.44C176.111 20.44 176.415 20.552 176.639 20.776C176.879 20.984 176.999 21.272 176.999 21.64C176.999 21.992 176.879 22.28 176.639 22.504C176.415 22.712 176.111 22.816 175.727 22.816ZM181.504 20.656H183.4V37H181.504V20.656ZM193.892 36.664C192.516 37.304 191.26 37.44 190.124 37.072C189.308 36.816 188.732 36.28 188.396 35.464C188.22 35.064 188.132 34.584 188.132 34.024V26.968H186.284V25.528H188.132V22.336H190.004V25.528H193.604V26.968H190.004V34C190.004 35.168 190.548 35.752 191.636 35.752C192.228 35.752 192.892 35.608 193.628 35.32L193.892 36.664ZM200.537 35.728C202.121 35.728 203.025 35.032 203.249 33.64H205.193C205.017 34.792 204.505 35.688 203.657 36.328C202.825 36.952 201.785 37.264 200.537 37.264C199.001 37.264 197.753 36.72 196.793 35.632C195.833 34.528 195.353 33.064 195.353 31.24C195.353 29.416 195.833 27.96 196.793 26.872C197.769 25.784 199.057 25.24 200.657 25.24C202.273 25.24 203.473 25.864 204.257 27.112C205.057 28.36 205.337 29.88 205.097 31.672H197.249C197.249 32.856 197.537 33.832 198.113 34.6C198.689 35.352 199.497 35.728 200.537 35.728ZM201.929 27.04C201.561 26.848 201.113 26.752 200.585 26.752C199.609 26.752 198.833 27.088 198.257 27.76C197.697 28.416 197.369 29.24 197.273 30.232H203.393C203.393 28.632 202.905 27.568 201.929 27.04ZM213.269 27.136C211.461 27.136 210.525 28.56 210.461 31.408V37H208.565V25.504H210.461V27.712C211.037 26.112 212.053 25.312 213.509 25.312C213.973 25.312 214.413 25.384 214.829 25.528L214.733 27.376C214.253 27.216 213.765 27.136 213.269 27.136Z" fill="#393939"/>
<path d="M324.338 24.936H325.874L329.25 35H327.938L327.074 32.44H323.074L322.21 35H320.882L324.338 24.936ZM323.41 31.448H326.754L325.09 26.488L323.41 31.448ZM332.243 28.52C332.745 27.6133 333.491 27.16 334.483 27.16C335.486 27.16 336.318 27.528 336.979 28.264C337.651 29 337.987 29.9707 337.987 31.176C337.987 32.3813 337.651 33.352 336.979 34.088C336.307 34.8133 335.481 35.176 334.499 35.176C333.518 35.176 332.793 34.808 332.323 34.072V38.76H331.059V27.352H332.099L332.243 28.52ZM334.435 34.056C335.033 34.056 335.555 33.8 336.003 33.288C336.462 32.776 336.691 32.0773 336.691 31.192C336.691 30.296 336.473 29.5867 336.035 29.064C335.609 28.5413 335.086 28.28 334.467 28.28C333.849 28.28 333.342 28.4773 332.947 28.872C332.553 29.256 332.345 29.7787 332.323 30.44V31.896C332.323 32.568 332.526 33.096 332.931 33.48C333.337 33.864 333.838 34.056 334.435 34.056ZM341.517 28.52C342.019 27.6133 342.765 27.16 343.757 27.16C344.76 27.16 345.592 27.528 346.253 28.264C346.925 29 347.261 29.9707 347.261 31.176C347.261 32.3813 346.925 33.352 346.253 34.088C345.581 34.8133 344.755 35.176 343.773 35.176C342.792 35.176 342.067 34.808 341.597 34.072V38.76H340.333V27.352H341.373L341.517 28.52ZM343.709 34.056C344.307 34.056 344.829 33.8 345.277 33.288C345.736 32.776 345.965 32.0773 345.965 31.192C345.965 30.296 345.747 29.5867 345.309 29.064C344.883 28.5413 344.36 28.28 343.741 28.28C343.123 28.28 342.616 28.4773 342.221 28.872C341.827 29.256 341.619 29.7787 341.597 30.44V31.896C341.597 32.568 341.8 33.096 342.205 33.48C342.611 33.864 343.112 34.056 343.709 34.056ZM349.608 24.104H350.872V35H349.608V24.104ZM352.33 37.224C352.853 37.6293 353.402 37.832 353.978 37.832C354.405 37.832 354.773 37.6187 355.082 37.192C355.306 36.8827 355.509 36.4133 355.69 35.784L355.914 35L352.778 27.352H354.186L356.506 33.448L358.314 27.352H359.594L356.73 36.52C356.485 37.2987 356.159 37.896 355.754 38.312C355.359 38.728 354.853 38.936 354.234 38.936C353.626 38.936 352.991 38.7493 352.33 38.376V37.224Z" fill="#393939"/>
<rect x="24.5" y="311.5" width="55" height="43" rx="2.5" fill="white" stroke="#2ABECC"/>
<path d="M38.9603 322.452H40.1123L42.6443 330H41.6603L41.0123 328.08H38.0123L37.3643 330H36.3683L38.9603 322.452ZM38.2643 327.336H40.7723L39.5243 323.616L38.2643 327.336ZM44.0013 321.828H44.9493V330H44.0013V321.828ZM47.1951 321.828H48.1431V330H47.1951V321.828ZM52.453 324.12C53.253 324.12 53.897 324.38 54.385 324.9C54.881 325.42 55.129 326.164 55.129 327.132C55.129 328.092 54.881 328.832 54.385 329.352C53.897 329.872 53.253 330.132 52.453 330.132C51.653 330.132 51.005 329.872 50.509 329.352C50.021 328.832 49.777 328.092 49.777 327.132C49.777 326.164 50.021 325.42 50.509 324.9C51.005 324.38 51.653 324.12 52.453 324.12ZM54.169 327.132C54.169 326.444 54.025 325.908 53.737 325.524C53.449 325.132 53.025 324.936 52.465 324.936C51.913 324.936 51.489 325.132 51.193 325.524C50.897 325.908 50.749 326.444 50.749 327.132C50.749 327.812 50.889 328.348 51.169 328.74C51.449 329.124 51.865 329.316 52.417 329.316C52.977 329.316 53.409 329.124 53.713 328.74C54.017 328.348 54.169 327.812 54.169 327.132ZM56.7584 324.264L58.1504 328.836L59.5184 324.54H60.3104L61.6664 328.884L63.0704 324.264H64.0064L62.1344 330H61.2104L59.8904 325.98L58.5944 330H57.6824L55.7744 324.264H56.7584ZM44.4546 336.452C45.5906 336.452 46.4986 336.796 47.1786 337.484C47.8666 338.164 48.2106 339.08 48.2106 340.232C48.2106 341.376 47.8666 342.292 47.1786 342.98C46.4986 343.66 45.5906 344 44.4546 344H42.2346V336.452H44.4546ZM43.1826 343.172H44.4546C45.2946 343.172 45.9626 342.896 46.4586 342.344C46.9546 341.784 47.2026 341.076 47.2026 340.22C47.2026 339.364 46.9506 338.664 46.4466 338.12C45.9506 337.568 45.2866 337.292 44.4546 337.292H43.1826V343.172ZM52.0748 338.12C52.8748 338.12 53.5188 338.38 54.0068 338.9C54.5028 339.42 54.7508 340.164 54.7508 341.132C54.7508 342.092 54.5028 342.832 54.0068 343.352C53.5188 343.872 52.8748 344.132 52.0748 344.132C51.2748 344.132 50.6268 343.872 50.1308 343.352C49.6428 342.832 49.3988 342.092 49.3988 341.132C49.3988 340.164 49.6428 339.42 50.1308 338.9C50.6268 338.38 51.2748 338.12 52.0748 338.12ZM53.7908 341.132C53.7908 340.444 53.6468 339.908 53.3588 339.524C53.0708 339.132 52.6468 338.936 52.0868 338.936C51.5348 338.936 51.1108 339.132 50.8148 339.524C50.5188 339.908 50.3708 340.444 50.3708 341.132C50.3708 341.812 50.5108 342.348 50.7908 342.74C51.0708 343.124 51.4868 343.316 52.0388 343.316C52.5988 343.316 53.0308 343.124 53.3348 342.74C53.6388 342.348 53.7908 341.812 53.7908 341.132ZM56.6322 343.82C56.1522 343.588 55.9122 343.232 55.9122 342.752C55.9122 342.504 56.0042 342.288 56.1882 342.104C56.3802 341.912 56.6162 341.784 56.8962 341.72C56.4642 341.336 56.2482 340.832 56.2482 340.208C56.2482 339.584 56.4682 339.08 56.9082 338.696C57.3562 338.312 57.8842 338.12 58.4922 338.12C59.1002 338.12 59.6162 338.264 60.0402 338.552C60.0962 338.128 60.2642 337.788 60.5442 337.532C60.8322 337.276 61.2082 337.148 61.6722 337.148L61.5882 338.084C60.8842 338.084 60.5162 338.38 60.4842 338.972C60.7642 339.316 60.9042 339.728 60.9042 340.208C60.9042 340.824 60.6802 341.332 60.2322 341.732C59.7922 342.124 59.2402 342.32 58.5762 342.32C58.1202 342.32 57.7162 342.228 57.3642 342.044C57.2042 342.076 57.0602 342.152 56.9322 342.272C56.8042 342.384 56.7402 342.54 56.7402 342.74C56.7402 343.164 57.0922 343.376 57.7962 343.376H60.0282C60.5642 343.376 60.9882 343.492 61.3002 343.724C61.6122 343.948 61.7682 344.264 61.7682 344.672C61.7682 345.28 61.4602 345.812 60.8442 346.268C60.2362 346.724 59.4642 346.952 58.5282 346.952C57.5922 346.952 56.8562 346.776 56.3202 346.424C55.7842 346.08 55.5162 345.644 55.5162 345.116C55.5162 344.772 55.6162 344.492 55.8162 344.276C56.0242 344.06 56.2962 343.908 56.6322 343.82ZM56.4522 345.08C56.4522 345.384 56.6162 345.644 56.9442 345.86C57.2802 346.084 57.7842 346.196 58.4562 346.196C59.1362 346.196 59.7002 346.048 60.1482 345.752C60.6042 345.464 60.8322 345.124 60.8322 344.732C60.8322 344.548 60.7642 344.388 60.6282 344.252C60.5002 344.124 60.3002 344.06 60.0282 344.06H57.7122C57.3042 344.076 56.9922 344.172 56.7762 344.348C56.5602 344.532 56.4522 344.776 56.4522 345.08ZM59.9802 340.208C59.9802 339.792 59.8562 339.456 59.6082 339.2C59.3602 338.936 59.0162 338.804 58.5762 338.804C58.1442 338.804 57.8042 338.936 57.5562 339.2C57.3082 339.456 57.1842 339.792 57.1842 340.208C57.1842 340.624 57.3082 340.968 57.5562 341.24C57.8122 341.504 58.1562 341.636 58.5882 341.636C59.0202 341.636 59.3602 341.5 59.6082 341.228C59.8562 340.956 59.9802 340.616 59.9802 340.208Z" fill="#2ABECC"/>
<rect x="92.5" y="311.5" width="55" height="43" rx="2.5" fill="white" stroke="#2ABECC"/>
<path d="M108.305 322.452H109.457L111.989 330H111.005L110.357 328.08H107.357L106.709 330H105.713L108.305 322.452ZM107.609 327.336H110.117L108.869 323.616L107.609 327.336ZM113.346 321.828H114.294V330H113.346V321.828ZM116.54 321.828H117.488V330H116.54V321.828ZM121.798 324.12C122.598 324.12 123.242 324.38 123.73 324.9C124.226 325.42 124.474 326.164 124.474 327.132C124.474 328.092 124.226 328.832 123.73 329.352C123.242 329.872 122.598 330.132 121.798 330.132C120.998 330.132 120.35 329.872 119.854 329.352C119.366 328.832 119.122 328.092 119.122 327.132C119.122 326.164 119.366 325.42 119.854 324.9C120.35 324.38 120.998 324.12 121.798 324.12ZM123.514 327.132C123.514 326.444 123.37 325.908 123.082 325.524C122.794 325.132 122.37 324.936 121.81 324.936C121.258 324.936 120.834 325.132 120.538 325.524C120.242 325.908 120.094 326.444 120.094 327.132C120.094 327.812 120.234 328.348 120.514 328.74C120.794 329.124 121.21 329.316 121.762 329.316C122.322 329.316 122.754 329.124 123.058 328.74C123.362 328.348 123.514 327.812 123.514 327.132ZM126.103 324.264L127.495 328.836L128.863 324.54H129.655L131.011 328.884L132.415 324.264H133.351L131.479 330H130.555L129.235 325.98L127.939 330H127.027L125.119 324.264H126.103ZM114.204 336.32C115.012 336.32 115.66 336.524 116.148 336.932C116.644 337.332 116.984 337.856 117.168 338.504L116.148 338.708C115.988 338.236 115.736 337.864 115.392 337.592C115.056 337.312 114.66 337.172 114.204 337.172C113.572 337.172 113.048 337.436 112.632 337.964C112.216 338.492 112.008 339.228 112.008 340.172C112.008 341.108 112.192 341.86 112.56 342.428C112.936 342.996 113.484 343.28 114.204 343.28C114.804 343.28 115.276 343.124 115.62 342.812C115.972 342.492 116.148 342.072 116.148 341.552H117.168C117.168 342.344 116.896 342.972 116.352 343.436C115.816 343.9 115.076 344.132 114.132 344.132C113.196 344.132 112.436 343.772 111.852 343.052C111.276 342.332 110.988 341.368 110.988 340.16C110.988 338.952 111.288 338.012 111.888 337.34C112.488 336.66 113.26 336.32 114.204 336.32ZM122.33 340.28C122.33 339.76 122.222 339.388 122.006 339.164C121.79 338.94 121.474 338.828 121.058 338.828C120.65 338.828 120.318 338.912 120.062 339.08C119.814 339.24 119.69 339.496 119.69 339.848H118.646C118.646 338.968 119.118 338.424 120.062 338.216C120.35 338.152 120.662 338.12 120.998 338.12C121.71 338.12 122.266 338.3 122.666 338.66C123.066 339.02 123.266 339.568 123.266 340.304V344H122.45L122.354 343.04C122.002 343.768 121.366 344.132 120.446 344.132C119.83 344.132 119.334 343.96 118.958 343.616C118.59 343.272 118.406 342.844 118.406 342.332C118.406 341.82 118.61 341.42 119.018 341.132C119.434 340.844 119.95 340.7 120.566 340.7C121.182 340.7 121.77 340.804 122.33 341.012V340.28ZM122.33 341.612C121.762 341.452 121.266 341.372 120.842 341.372C120.418 341.372 120.074 341.448 119.81 341.6C119.546 341.752 119.414 341.992 119.414 342.32C119.414 343.04 119.822 343.4 120.638 343.4C121.102 343.4 121.498 343.236 121.826 342.908C122.162 342.572 122.33 342.14 122.33 341.612ZM128.324 343.832C127.636 344.152 127.008 344.22 126.44 344.036C126.032 343.908 125.744 343.64 125.576 343.232C125.488 343.032 125.444 342.792 125.444 342.512V338.984H124.52V338.264H125.444V336.668H126.38V338.264H128.18V338.984H126.38V342.5C126.38 343.084 126.652 343.376 127.196 343.376C127.492 343.376 127.824 343.304 128.192 343.16L128.324 343.832Z" fill="#2ABECC"/>
<rect x="228.5" y="311.5" width="55" height="43" rx="2.5" fill="white" stroke="#C9C9C9"/>
<path d="M242.96 322.452H244.112L246.644 330H245.66L245.012 328.08H242.012L241.364 330H240.368L242.96 322.452ZM242.264 327.336H244.772L243.524 323.616L242.264 327.336ZM248.001 321.828H248.949V330H248.001V321.828ZM251.195 321.828H252.143V330H251.195V321.828ZM256.453 324.12C257.253 324.12 257.897 324.38 258.385 324.9C258.881 325.42 259.129 326.164 259.129 327.132C259.129 328.092 258.881 328.832 258.385 329.352C257.897 329.872 257.253 330.132 256.453 330.132C255.653 330.132 255.005 329.872 254.509 329.352C254.021 328.832 253.777 328.092 253.777 327.132C253.777 326.164 254.021 325.42 254.509 324.9C255.005 324.38 255.653 324.12 256.453 324.12ZM258.169 327.132C258.169 326.444 258.025 325.908 257.737 325.524C257.449 325.132 257.025 324.936 256.465 324.936C255.913 324.936 255.489 325.132 255.193 325.524C254.897 325.908 254.749 326.444 254.749 327.132C254.749 327.812 254.889 328.348 255.169 328.74C255.449 329.124 255.865 329.316 256.417 329.316C256.977 329.316 257.409 329.124 257.713 328.74C258.017 328.348 258.169 327.812 258.169 327.132ZM260.758 324.264L262.15 328.836L263.518 324.54H264.31L265.666 328.884L267.07 324.264H268.006L266.134 330H265.21L263.89 325.98L262.594 330H261.682L259.774 324.264H260.758ZM235.665 336.452C236.801 336.452 237.709 336.796 238.389 337.484C239.077 338.164 239.421 339.08 239.421 340.232C239.421 341.376 239.077 342.292 238.389 342.98C237.709 343.66 236.801 344 235.665 344H233.445V336.452H235.665ZM234.393 343.172H235.665C236.505 343.172 237.173 342.896 237.669 342.344C238.165 341.784 238.413 341.076 238.413 340.22C238.413 339.364 238.161 338.664 237.657 338.12C237.161 337.568 236.497 337.292 235.665 337.292H234.393V343.172ZM243.561 339.068C242.657 339.068 242.189 339.78 242.157 341.204V344H241.209V338.252H242.157V339.356C242.445 338.556 242.953 338.156 243.681 338.156C243.913 338.156 244.133 338.192 244.341 338.264L244.293 339.188C244.053 339.108 243.809 339.068 243.561 339.068ZM245.682 338.252H246.63V344H245.682V338.252ZM246.15 336.908C245.958 336.908 245.806 336.856 245.694 336.752C245.59 336.64 245.538 336.496 245.538 336.32C245.538 336.136 245.59 335.992 245.694 335.888C245.806 335.776 245.958 335.72 246.15 335.72C246.342 335.72 246.494 335.776 246.606 335.888C246.726 335.992 246.786 336.136 246.786 336.32C246.786 336.496 246.726 336.64 246.606 336.752C246.494 336.856 246.342 336.908 246.15 336.908ZM249.951 339.368C250.327 338.536 250.971 338.12 251.883 338.12C252.563 338.12 253.091 338.344 253.467 338.792C253.851 339.24 254.043 339.852 254.043 340.628V344H253.107V340.628C253.107 340.076 252.975 339.66 252.711 339.38C252.455 339.1 252.087 338.96 251.607 338.96C251.127 338.96 250.739 339.156 250.443 339.548C250.147 339.94 249.991 340.484 249.975 341.18V344H249.027V338.264H249.843L249.951 339.368ZM257.816 340.964L257.048 341.588V344H256.1V335.828H257.048V340.58L259.82 338.264H261.14L258.5 340.412L261.272 344H260.108L257.816 340.964ZM262.764 338.252H263.712V344H262.764V338.252ZM263.232 336.908C263.04 336.908 262.888 336.856 262.776 336.752C262.672 336.64 262.62 336.496 262.62 336.32C262.62 336.136 262.672 335.992 262.776 335.888C262.888 335.776 263.04 335.72 263.232 335.72C263.424 335.72 263.576 335.776 263.688 335.888C263.808 335.992 263.868 336.136 263.868 336.32C263.868 336.496 263.808 336.64 263.688 336.752C263.576 336.856 263.424 336.908 263.232 336.908ZM267.033 339.368C267.409 338.536 268.053 338.12 268.965 338.12C269.645 338.12 270.173 338.344 270.549 338.792C270.933 339.24 271.125 339.852 271.125 340.628V344H270.189V340.628C270.189 340.076 270.057 339.66 269.793 339.38C269.537 339.1 269.169 338.96 268.689 338.96C268.209 338.96 267.821 339.156 267.525 339.548C267.229 339.94 267.073 340.484 267.057 341.18V344H266.109V338.264H266.925L267.033 339.368ZM273.422 343.82C272.942 343.588 272.702 343.232 272.702 342.752C272.702 342.504 272.794 342.288 272.978 342.104C273.17 341.912 273.406 341.784 273.686 341.72C273.254 341.336 273.038 340.832 273.038 340.208C273.038 339.584 273.258 339.08 273.698 338.696C274.146 338.312 274.674 338.12 275.282 338.12C275.89 338.12 276.406 338.264 276.83 338.552C276.886 338.128 277.054 337.788 277.334 337.532C277.622 337.276 277.998 337.148 278.462 337.148L278.378 338.084C277.674 338.084 277.306 338.38 277.274 338.972C277.554 339.316 277.694 339.728 277.694 340.208C277.694 340.824 277.47 341.332 277.022 341.732C276.582 342.124 276.03 342.32 275.366 342.32C274.91 342.32 274.506 342.228 274.154 342.044C273.994 342.076 273.85 342.152 273.722 342.272C273.594 342.384 273.53 342.54 273.53 342.74C273.53 343.164 273.882 343.376 274.586 343.376H276.818C277.354 343.376 277.778 343.492 278.09 343.724C278.402 343.948 278.558 344.264 278.558 344.672C278.558 345.28 278.25 345.812 277.634 346.268C277.026 346.724 276.254 346.952 275.318 346.952C274.382 346.952 273.646 346.776 273.11 346.424C272.574 346.08 272.306 345.644 272.306 345.116C272.306 344.772 272.406 344.492 272.606 344.276C272.814 344.06 273.086 343.908 273.422 343.82ZM273.242 345.08C273.242 345.384 273.406 345.644 273.734 345.86C274.07 346.084 274.574 346.196 275.246 346.196C275.926 346.196 276.49 346.048 276.938 345.752C277.394 345.464 277.622 345.124 277.622 344.732C277.622 344.548 277.554 344.388 277.418 344.252C277.29 344.124 277.09 344.06 276.818 344.06H274.502C274.094 344.076 273.782 344.172 273.566 344.348C273.35 344.532 273.242 344.776 273.242 345.08ZM276.77 340.208C276.77 339.792 276.646 339.456 276.398 339.2C276.15 338.936 275.806 338.804 275.366 338.804C274.934 338.804 274.594 338.936 274.346 339.2C274.098 339.456 273.974 339.792 273.974 340.208C273.974 340.624 274.098 340.968 274.346 341.24C274.602 341.504 274.946 341.636 275.378 341.636C275.81 341.636 276.15 341.5 276.398 341.228C276.646 340.956 276.77 340.616 276.77 340.208Z" fill="#787878"/>
<rect x="160.5" y="311.5" width="55" height="43" rx="2.5" fill="white" stroke="#C9C9C9"/>
<path d="M176.305 315.452H177.457L179.989 323H179.005L178.357 321.08H175.357L174.709 323H173.713L176.305 315.452ZM175.609 320.336H178.117L176.869 316.616L175.609 320.336ZM181.346 314.828H182.294V323H181.346V314.828ZM184.54 314.828H185.488V323H184.54V314.828ZM189.798 317.12C190.598 317.12 191.242 317.38 191.73 317.9C192.226 318.42 192.474 319.164 192.474 320.132C192.474 321.092 192.226 321.832 191.73 322.352C191.242 322.872 190.598 323.132 189.798 323.132C188.998 323.132 188.35 322.872 187.854 322.352C187.366 321.832 187.122 321.092 187.122 320.132C187.122 319.164 187.366 318.42 187.854 317.9C188.35 317.38 188.998 317.12 189.798 317.12ZM191.514 320.132C191.514 319.444 191.37 318.908 191.082 318.524C190.794 318.132 190.37 317.936 189.81 317.936C189.258 317.936 188.834 318.132 188.538 318.524C188.242 318.908 188.094 319.444 188.094 320.132C188.094 320.812 188.234 321.348 188.514 321.74C188.794 322.124 189.21 322.316 189.762 322.316C190.322 322.316 190.754 322.124 191.058 321.74C191.362 321.348 191.514 320.812 191.514 320.132ZM194.103 317.264L195.495 321.836L196.863 317.54H197.655L199.011 321.884L200.415 317.264H201.351L199.479 323H198.555L197.235 318.98L195.939 323H195.027L193.119 317.264H194.103ZM176.586 329.32C177.562 329.32 178.35 329.656 178.95 330.328C179.558 330.992 179.862 331.964 179.862 333.244C179.862 334.516 179.562 335.484 178.962 336.148C178.362 336.804 177.57 337.132 176.586 337.132C175.602 337.132 174.81 336.8 174.21 336.136C173.618 335.464 173.322 334.496 173.322 333.232C173.322 331.96 173.618 330.992 174.21 330.328C174.81 329.656 175.602 329.32 176.586 329.32ZM176.586 330.172C175.882 330.172 175.326 330.436 174.918 330.964C174.51 331.492 174.306 332.252 174.306 333.244C174.306 334.236 174.51 334.988 174.918 335.5C175.326 336.012 175.882 336.268 176.586 336.268C177.29 336.268 177.846 336.012 178.254 335.5C178.67 334.988 178.878 334.236 178.878 333.244C178.878 332.252 178.67 331.492 178.254 330.964C177.846 330.436 177.29 330.172 176.586 330.172ZM184.51 336.832C183.822 337.152 183.194 337.22 182.626 337.036C182.218 336.908 181.93 336.64 181.762 336.232C181.674 336.032 181.63 335.792 181.63 335.512V331.984H180.706V331.264H181.63V329.668H182.566V331.264H184.366V331.984H182.566V335.5C182.566 336.084 182.838 336.376 183.382 336.376C183.678 336.376 184.01 336.304 184.378 336.16L184.51 336.832ZM186.801 332.32C187.185 331.52 187.821 331.12 188.709 331.12C189.389 331.12 189.917 331.344 190.293 331.792C190.677 332.24 190.869 332.852 190.869 333.628V337H189.933V333.628C189.933 333.076 189.801 332.66 189.537 332.38C189.281 332.1 188.909 331.96 188.421 331.96C187.933 331.96 187.541 332.168 187.245 332.584C186.949 332.992 186.801 333.56 186.801 334.288V337H185.853V328.828H186.801V332.32ZM194.905 336.364C195.697 336.364 196.149 336.016 196.261 335.32H197.233C197.145 335.896 196.889 336.344 196.465 336.664C196.049 336.976 195.529 337.132 194.905 337.132C194.137 337.132 193.513 336.86 193.033 336.316C192.553 335.764 192.313 335.032 192.313 334.12C192.313 333.208 192.553 332.48 193.033 331.936C193.521 331.392 194.165 331.12 194.965 331.12C195.773 331.12 196.373 331.432 196.765 332.056C197.165 332.68 197.305 333.44 197.185 334.336H193.261C193.261 334.928 193.405 335.416 193.693 335.8C193.981 336.176 194.385 336.364 194.905 336.364ZM195.601 332.02C195.417 331.924 195.193 331.876 194.929 331.876C194.441 331.876 194.053 332.044 193.765 332.38C193.485 332.708 193.321 333.12 193.273 333.616H196.333C196.333 332.816 196.089 332.284 195.601 332.02ZM201.272 332.068C200.368 332.068 199.9 332.78 199.868 334.204V337H198.92V331.252H199.868V332.356C200.156 331.556 200.664 331.156 201.392 331.156C201.624 331.156 201.844 331.192 202.052 331.264L202.004 332.188C201.764 332.108 201.52 332.068 201.272 332.068ZM168.248 343.452H169.4L171.932 351H170.948L170.3 349.08H167.3L166.652 351H165.656L168.248 343.452ZM167.552 348.336H170.06L168.812 344.616L167.552 348.336ZM174.201 346.368C174.577 345.536 175.221 345.12 176.133 345.12C176.813 345.12 177.341 345.344 177.717 345.792C178.101 346.24 178.293 346.852 178.293 347.628V351H177.357V347.628C177.357 347.076 177.225 346.66 176.961 346.38C176.705 346.1 176.337 345.96 175.857 345.96C175.377 345.96 174.989 346.156 174.693 346.548C174.397 346.94 174.241 347.484 174.225 348.18V351H173.277V345.264H174.093L174.201 346.368ZM180.41 345.252H181.358V351H180.41V345.252ZM180.878 343.908C180.686 343.908 180.534 343.856 180.422 343.752C180.318 343.64 180.266 343.496 180.266 343.32C180.266 343.136 180.318 342.992 180.422 342.888C180.534 342.776 180.686 342.72 180.878 342.72C181.07 342.72 181.222 342.776 181.334 342.888C181.454 342.992 181.514 343.136 181.514 343.32C181.514 343.496 181.454 343.64 181.334 343.752C181.222 343.856 181.07 343.908 180.878 343.908ZM184.679 346.368C185.055 345.536 185.699 345.12 186.611 345.12C187.107 345.12 187.523 345.244 187.859 345.492C188.195 345.732 188.439 346.068 188.591 346.5C188.951 345.58 189.619 345.12 190.595 345.12C191.283 345.12 191.815 345.344 192.191 345.792C192.567 346.24 192.755 346.852 192.755 347.628V351H191.819V347.628C191.819 347.076 191.687 346.66 191.423 346.38C191.167 346.1 190.795 345.96 190.307 345.96C189.819 345.96 189.439 346.16 189.167 346.56C188.903 346.96 188.771 347.512 188.771 348.216V351H187.835V347.628C187.835 347.076 187.703 346.66 187.439 346.38C187.183 346.1 186.815 345.96 186.335 345.96C185.855 345.96 185.467 346.156 185.171 346.548C184.875 346.94 184.719 347.484 184.703 348.18V351H183.755V345.264H184.571L184.679 346.368ZM198.364 347.28C198.364 346.76 198.256 346.388 198.04 346.164C197.824 345.94 197.508 345.828 197.092 345.828C196.684 345.828 196.352 345.912 196.096 346.08C195.848 346.24 195.724 346.496 195.724 346.848H194.68C194.68 345.968 195.152 345.424 196.096 345.216C196.384 345.152 196.696 345.12 197.032 345.12C197.744 345.12 198.3 345.3 198.7 345.66C199.1 346.02 199.3 346.568 199.3 347.304V351H198.484L198.388 350.04C198.036 350.768 197.4 351.132 196.48 351.132C195.864 351.132 195.368 350.96 194.992 350.616C194.624 350.272 194.44 349.844 194.44 349.332C194.44 348.82 194.644 348.42 195.052 348.132C195.468 347.844 195.984 347.7 196.6 347.7C197.216 347.7 197.804 347.804 198.364 348.012V347.28ZM198.364 348.612C197.796 348.452 197.3 348.372 196.876 348.372C196.452 348.372 196.108 348.448 195.844 348.6C195.58 348.752 195.448 348.992 195.448 349.32C195.448 350.04 195.856 350.4 196.672 350.4C197.136 350.4 197.532 350.236 197.86 349.908C198.196 349.572 198.364 349.14 198.364 348.612ZM201.358 342.828H202.306V351H201.358V342.828ZM204.251 346.668C204.251 346.196 204.451 345.82 204.851 345.54C205.259 345.26 205.807 345.12 206.495 345.12C207.183 345.12 207.719 345.264 208.103 345.552C208.495 345.84 208.699 346.204 208.715 346.644H207.791C207.719 346.124 207.279 345.864 206.471 345.864C206.079 345.864 205.775 345.952 205.559 346.128C205.351 346.304 205.247 346.496 205.247 346.704C205.247 346.904 205.327 347.076 205.487 347.22C205.647 347.356 205.903 347.476 206.255 347.58L207.407 347.964C207.895 348.116 208.267 348.312 208.523 348.552C208.787 348.784 208.919 349.108 208.919 349.524C208.919 349.932 208.707 350.304 208.283 350.64C207.859 350.968 207.267 351.132 206.507 351.132C205.747 351.132 205.155 350.964 204.731 350.628C204.307 350.284 204.083 349.844 204.059 349.308H204.971C204.987 349.668 205.131 349.94 205.403 350.124C205.683 350.3 206.031 350.388 206.447 350.388C206.863 350.388 207.207 350.3 207.479 350.124C207.751 349.948 207.887 349.74 207.887 349.5C207.887 349.252 207.807 349.064 207.647 348.936C207.487 348.808 207.227 348.696 206.867 348.6L205.751 348.228C204.751 347.932 204.251 347.412 204.251 346.668Z" fill="#787878"/>
<rect x="24.5" y="363.5" width="55" height="43" rx="2.5" fill="white" stroke="#C9C9C9"/>
<path d="M37.3257 374.32C38.1337 374.32 38.7817 374.524 39.2697 374.932C39.7657 375.332 40.1057 375.856 40.2897 376.504L39.2697 376.708C39.1097 376.236 38.8577 375.864 38.5137 375.592C38.1777 375.312 37.7817 375.172 37.3257 375.172C36.6937 375.172 36.1697 375.436 35.7537 375.964C35.3377 376.492 35.1297 377.228 35.1297 378.172C35.1297 379.108 35.3137 379.86 35.6817 380.428C36.0577 380.996 36.6057 381.28 37.3257 381.28C37.9257 381.28 38.3977 381.124 38.7417 380.812C39.0937 380.492 39.2697 380.072 39.2697 379.552H40.2897C40.2897 380.344 40.0177 380.972 39.4737 381.436C38.9377 381.9 38.1977 382.132 37.2537 382.132C36.3177 382.132 35.5577 381.772 34.9737 381.052C34.3977 380.332 34.1097 379.368 34.1097 378.16C34.1097 376.952 34.4097 376.012 35.0097 375.34C35.6097 374.66 36.3817 374.32 37.3257 374.32ZM43.9637 376.12C44.7637 376.12 45.4077 376.38 45.8957 376.9C46.3917 377.42 46.6397 378.164 46.6397 379.132C46.6397 380.092 46.3917 380.832 45.8957 381.352C45.4077 381.872 44.7637 382.132 43.9637 382.132C43.1637 382.132 42.5157 381.872 42.0197 381.352C41.5317 380.832 41.2877 380.092 41.2877 379.132C41.2877 378.164 41.5317 377.42 42.0197 376.9C42.5157 376.38 43.1637 376.12 43.9637 376.12ZM45.6797 379.132C45.6797 378.444 45.5357 377.908 45.2477 377.524C44.9597 377.132 44.5357 376.936 43.9757 376.936C43.4237 376.936 42.9997 377.132 42.7037 377.524C42.4077 377.908 42.2597 378.444 42.2597 379.132C42.2597 379.812 42.3997 380.348 42.6797 380.74C42.9597 381.124 43.3757 381.316 43.9277 381.316C44.4877 381.316 44.9197 381.124 45.2237 380.74C45.5277 380.348 45.6797 379.812 45.6797 379.132ZM52.1811 380.86C51.7891 381.692 51.1531 382.108 50.2731 382.108C49.6251 382.108 49.1011 381.928 48.7011 381.568C48.3091 381.208 48.1131 380.652 48.1131 379.9V376.252H49.0611V379.828C49.0611 380.796 49.5091 381.28 50.4051 381.28C50.9251 381.28 51.3451 381.08 51.6651 380.68C51.9931 380.28 52.1651 379.768 52.1811 379.144V376.252H53.1291V382H52.1811V380.86ZM56.277 377.14C56.653 376.46 57.213 376.12 57.957 376.12C58.709 376.12 59.333 376.396 59.829 376.948C60.333 377.5 60.585 378.228 60.585 379.132C60.585 380.036 60.333 380.764 59.829 381.316C59.325 381.86 58.705 382.132 57.969 382.132C57.233 382.132 56.689 381.856 56.337 381.304V384.82H55.389V376.264H56.169L56.277 377.14ZM57.921 381.292C58.369 381.292 58.761 381.1 59.097 380.716C59.441 380.332 59.613 379.808 59.613 379.144C59.613 378.472 59.449 377.94 59.121 377.548C58.801 377.156 58.409 376.96 57.945 376.96C57.481 376.96 57.101 377.108 56.805 377.404C56.509 377.692 56.353 378.084 56.337 378.58V379.672C56.337 380.176 56.489 380.572 56.793 380.86C57.097 381.148 57.473 381.292 57.921 381.292ZM62.3446 373.828H63.2926V382H62.3446V373.828ZM67.5185 381.364C68.3105 381.364 68.7625 381.016 68.8745 380.32H69.8465C69.7585 380.896 69.5025 381.344 69.0785 381.664C68.6625 381.976 68.1425 382.132 67.5185 382.132C66.7505 382.132 66.1265 381.86 65.6465 381.316C65.1665 380.764 64.9265 380.032 64.9265 379.12C64.9265 378.208 65.1665 377.48 65.6465 376.936C66.1345 376.392 66.7785 376.12 67.5785 376.12C68.3865 376.12 68.9865 376.432 69.3785 377.056C69.7785 377.68 69.9185 378.44 69.7985 379.336H65.8745C65.8745 379.928 66.0185 380.416 66.3065 380.8C66.5945 381.176 66.9985 381.364 67.5185 381.364ZM68.2145 377.02C68.0305 376.924 67.8065 376.876 67.5425 376.876C67.0545 376.876 66.6665 377.044 66.3785 377.38C66.0985 377.708 65.9345 378.12 65.8865 378.616H68.9465C68.9465 377.816 68.7025 377.284 68.2145 377.02ZM48.6951 388.32C49.6711 388.32 50.4591 388.656 51.0591 389.328C51.6671 389.992 51.9711 390.964 51.9711 392.244C51.9711 393.516 51.6711 394.484 51.0711 395.148C50.4711 395.804 49.6791 396.132 48.6951 396.132C47.7111 396.132 46.9191 395.8 46.3191 395.136C45.7271 394.464 45.4311 393.496 45.4311 392.232C45.4311 390.96 45.7271 389.992 46.3191 389.328C46.9191 388.656 47.7111 388.32 48.6951 388.32ZM48.6951 389.172C47.9911 389.172 47.4351 389.436 47.0271 389.964C46.6191 390.492 46.4151 391.252 46.4151 392.244C46.4151 393.236 46.6191 393.988 47.0271 394.5C47.4351 395.012 47.9911 395.268 48.6951 395.268C49.3991 395.268 49.9551 395.012 50.3631 394.5C50.7791 393.988 50.9871 393.236 50.9871 392.244C50.9871 391.252 50.7791 390.492 50.3631 389.964C49.9551 389.436 49.3991 389.172 48.6951 389.172ZM55.3355 392.964L54.5675 393.588V396H53.6195V387.828H54.5675V392.58L57.3395 390.264H58.6595L56.0195 392.412L58.7915 396H57.6275L55.3355 392.964Z" fill="#787878"/>
<rect x="160.5" y="363.5" width="55" height="43" rx="2.5" fill="white" stroke="#C9C9C9"/>
<path d="M176.305 374.452H177.457L179.989 382H179.005L178.357 380.08H175.357L174.709 382H173.713L176.305 374.452ZM175.609 379.336H178.117L176.869 375.616L175.609 379.336ZM181.346 373.828H182.294V382H181.346V373.828ZM184.54 373.828H185.488V382H184.54V373.828ZM189.798 376.12C190.598 376.12 191.242 376.38 191.73 376.9C192.226 377.42 192.474 378.164 192.474 379.132C192.474 380.092 192.226 380.832 191.73 381.352C191.242 381.872 190.598 382.132 189.798 382.132C188.998 382.132 188.35 381.872 187.854 381.352C187.366 380.832 187.122 380.092 187.122 379.132C187.122 378.164 187.366 377.42 187.854 376.9C188.35 376.38 188.998 376.12 189.798 376.12ZM191.514 379.132C191.514 378.444 191.37 377.908 191.082 377.524C190.794 377.132 190.37 376.936 189.81 376.936C189.258 376.936 188.834 377.132 188.538 377.524C188.242 377.908 188.094 378.444 188.094 379.132C188.094 379.812 188.234 380.348 188.514 380.74C188.794 381.124 189.21 381.316 189.762 381.316C190.322 381.316 190.754 381.124 191.058 380.74C191.362 380.348 191.514 379.812 191.514 379.132ZM194.103 376.264L195.495 380.836L196.863 376.54H197.655L199.011 380.884L200.415 376.264H201.351L199.479 382H198.555L197.235 377.98L195.939 382H195.027L193.119 376.264H194.103ZM163.358 395.172H166.718V396H162.41V388.452H163.358V395.172ZM171.406 392.28C171.406 391.76 171.298 391.388 171.082 391.164C170.866 390.94 170.55 390.828 170.134 390.828C169.726 390.828 169.394 390.912 169.138 391.08C168.89 391.24 168.766 391.496 168.766 391.848H167.722C167.722 390.968 168.194 390.424 169.138 390.216C169.426 390.152 169.738 390.12 170.074 390.12C170.786 390.12 171.342 390.3 171.742 390.66C172.142 391.02 172.342 391.568 172.342 392.304V396H171.526L171.43 395.04C171.078 395.768 170.442 396.132 169.522 396.132C168.906 396.132 168.41 395.96 168.034 395.616C167.666 395.272 167.482 394.844 167.482 394.332C167.482 393.82 167.686 393.42 168.094 393.132C168.51 392.844 169.026 392.7 169.642 392.7C170.258 392.7 170.846 392.804 171.406 393.012V392.28ZM171.406 393.612C170.838 393.452 170.342 393.372 169.918 393.372C169.494 393.372 169.15 393.448 168.886 393.6C168.622 393.752 168.49 393.992 168.49 394.32C168.49 395.04 168.898 395.4 169.714 395.4C170.178 395.4 170.574 395.236 170.902 394.908C171.238 394.572 171.406 394.14 171.406 393.612ZM177.399 395.832C176.711 396.152 176.083 396.22 175.515 396.036C175.107 395.908 174.819 395.64 174.651 395.232C174.563 395.032 174.519 394.792 174.519 394.512V390.984H173.595V390.264H174.519V388.668H175.455V390.264H177.255V390.984H175.455V394.5C175.455 395.084 175.727 395.376 176.271 395.376C176.567 395.376 176.899 395.304 177.267 395.16L177.399 395.832ZM180.722 395.364C181.514 395.364 181.966 395.016 182.078 394.32H183.05C182.962 394.896 182.706 395.344 182.282 395.664C181.866 395.976 181.346 396.132 180.722 396.132C179.954 396.132 179.33 395.86 178.85 395.316C178.37 394.764 178.13 394.032 178.13 393.12C178.13 392.208 178.37 391.48 178.85 390.936C179.338 390.392 179.982 390.12 180.782 390.12C181.59 390.12 182.19 390.432 182.582 391.056C182.982 391.68 183.122 392.44 183.002 393.336H179.078C179.078 393.928 179.222 394.416 179.51 394.8C179.798 395.176 180.202 395.364 180.722 395.364ZM181.418 391.02C181.234 390.924 181.01 390.876 180.746 390.876C180.258 390.876 179.87 391.044 179.582 391.38C179.302 391.708 179.138 392.12 179.09 392.616H182.15C182.15 391.816 181.906 391.284 181.418 391.02ZM189.85 388.452C190.682 388.452 191.314 388.664 191.746 389.088C192.186 389.504 192.406 390.068 192.406 390.78C192.406 391.492 192.186 392.056 191.746 392.472C191.314 392.88 190.682 393.084 189.85 393.084H188.362V396H187.414V388.452H189.85ZM189.85 392.268C190.37 392.268 190.762 392.136 191.026 391.872C191.298 391.608 191.434 391.248 191.434 390.792C191.434 390.328 191.298 389.96 191.026 389.688C190.762 389.408 190.37 389.268 189.85 389.268H188.362V392.268H189.85ZM197.465 392.28C197.465 391.76 197.357 391.388 197.141 391.164C196.925 390.94 196.609 390.828 196.193 390.828C195.785 390.828 195.453 390.912 195.197 391.08C194.949 391.24 194.825 391.496 194.825 391.848H193.781C193.781 390.968 194.253 390.424 195.197 390.216C195.485 390.152 195.797 390.12 196.133 390.12C196.845 390.12 197.401 390.3 197.801 390.66C198.201 391.02 198.401 391.568 198.401 392.304V396H197.585L197.489 395.04C197.137 395.768 196.501 396.132 195.581 396.132C194.965 396.132 194.469 395.96 194.093 395.616C193.725 395.272 193.541 394.844 193.541 394.332C193.541 393.82 193.745 393.42 194.153 393.132C194.569 392.844 195.085 392.7 195.701 392.7C196.317 392.7 196.905 392.804 197.465 393.012V392.28ZM197.465 393.612C196.897 393.452 196.401 393.372 195.977 393.372C195.553 393.372 195.209 393.448 194.945 393.6C194.681 393.752 194.549 393.992 194.549 394.32C194.549 395.04 194.957 395.4 195.773 395.4C196.237 395.4 196.633 395.236 196.961 394.908C197.297 394.572 197.465 394.14 197.465 393.612ZM202.798 391.068C201.894 391.068 201.426 391.78 201.394 393.204V396H200.446V390.252H201.394V391.356C201.682 390.556 202.19 390.156 202.918 390.156C203.15 390.156 203.37 390.192 203.578 390.264L203.53 391.188C203.29 391.108 203.046 391.068 202.798 391.068ZM207.859 395.832C207.171 396.152 206.543 396.22 205.975 396.036C205.567 395.908 205.279 395.64 205.111 395.232C205.023 395.032 204.979 394.792 204.979 394.512V390.984H204.055V390.264H204.979V388.668H205.915V390.264H207.715V390.984H205.915V394.5C205.915 395.084 206.187 395.376 206.731 395.376C207.027 395.376 207.359 395.304 207.727 395.16L207.859 395.832ZM208.05 397.668C208.442 397.972 208.854 398.124 209.286 398.124C209.606 398.124 209.882 397.964 210.114 397.644C210.282 397.412 210.434 397.06 210.57 396.588L210.738 396L208.386 390.264H209.442L211.182 394.836L212.538 390.264H213.498L211.35 397.14C211.166 397.724 210.922 398.172 210.618 398.484C210.322 398.796 209.942 398.952 209.478 398.952C209.022 398.952 208.546 398.812 208.05 398.532V397.668Z" fill="#787878"/>
<rect x="296.5" y="310.5" width="55" height="43" rx="2.5" fill="white" stroke="#C9C9C9"/>
<path d="M312.305 321.452H313.457L315.989 329H315.005L314.357 327.08H311.357L310.709 329H309.713L312.305 321.452ZM311.609 326.336H314.117L312.869 322.616L311.609 326.336ZM317.346 320.828H318.294V329H317.346V320.828ZM320.54 320.828H321.488V329H320.54V320.828ZM325.798 323.12C326.598 323.12 327.242 323.38 327.73 323.9C328.226 324.42 328.474 325.164 328.474 326.132C328.474 327.092 328.226 327.832 327.73 328.352C327.242 328.872 326.598 329.132 325.798 329.132C324.998 329.132 324.35 328.872 323.854 328.352C323.366 327.832 323.122 327.092 323.122 326.132C323.122 325.164 323.366 324.42 323.854 323.9C324.35 323.38 324.998 323.12 325.798 323.12ZM327.514 326.132C327.514 325.444 327.37 324.908 327.082 324.524C326.794 324.132 326.37 323.936 325.81 323.936C325.258 323.936 324.834 324.132 324.538 324.524C324.242 324.908 324.094 325.444 324.094 326.132C324.094 326.812 324.234 327.348 324.514 327.74C324.794 328.124 325.21 328.316 325.762 328.316C326.322 328.316 326.754 328.124 327.058 327.74C327.362 327.348 327.514 326.812 327.514 326.132ZM330.103 323.264L331.495 327.836L332.863 323.54H333.655L335.011 327.884L336.415 323.264H337.351L335.479 329H334.555L333.235 324.98L331.939 329H331.027L329.119 323.264H330.103ZM304.537 337.288C304.401 336.552 303.861 336.184 302.917 336.184C302.413 336.184 302.025 336.296 301.753 336.52C301.481 336.736 301.345 337 301.345 337.312C301.345 337.616 301.429 337.848 301.597 338.008C301.765 338.168 302.037 338.308 302.413 338.428L303.985 338.968C304.521 339.152 304.945 339.404 305.257 339.724C305.577 340.044 305.737 340.496 305.737 341.08C305.737 341.656 305.489 342.144 304.993 342.544C304.497 342.936 303.833 343.132 303.001 343.132C302.169 343.132 301.485 342.924 300.949 342.508C300.421 342.084 300.149 341.492 300.133 340.732H301.057C301.057 341.228 301.229 341.608 301.573 341.872C301.925 342.136 302.373 342.268 302.917 342.268C303.469 342.268 303.905 342.148 304.225 341.908C304.545 341.66 304.705 341.372 304.705 341.044C304.705 340.708 304.605 340.444 304.405 340.252C304.213 340.06 303.925 339.9 303.541 339.772L302.209 339.28C301.585 339.072 301.113 338.824 300.793 338.536C300.473 338.248 300.313 337.828 300.313 337.276C300.313 336.716 300.537 336.252 300.985 335.884C301.433 335.508 302.061 335.32 302.869 335.32C303.677 335.32 304.293 335.5 304.717 335.86C305.149 336.212 305.397 336.688 305.461 337.288H304.537ZM308.525 338.368C308.901 337.536 309.545 337.12 310.457 337.12C310.953 337.12 311.369 337.244 311.705 337.492C312.041 337.732 312.285 338.068 312.437 338.5C312.797 337.58 313.465 337.12 314.441 337.12C315.129 337.12 315.661 337.344 316.037 337.792C316.413 338.24 316.601 338.852 316.601 339.628V343H315.665V339.628C315.665 339.076 315.533 338.66 315.269 338.38C315.013 338.1 314.641 337.96 314.153 337.96C313.665 337.96 313.285 338.16 313.013 338.56C312.749 338.96 312.617 339.512 312.617 340.216V343H311.681V339.628C311.681 339.076 311.549 338.66 311.285 338.38C311.029 338.1 310.661 337.96 310.181 337.96C309.701 337.96 309.313 338.156 309.017 338.548C308.721 338.94 308.565 339.484 308.549 340.18V343H307.601V337.264H308.417L308.525 338.368ZM320.723 337.12C321.523 337.12 322.167 337.38 322.655 337.9C323.151 338.42 323.399 339.164 323.399 340.132C323.399 341.092 323.151 341.832 322.655 342.352C322.167 342.872 321.523 343.132 320.723 343.132C319.923 343.132 319.275 342.872 318.779 342.352C318.291 341.832 318.047 341.092 318.047 340.132C318.047 339.164 318.291 338.42 318.779 337.9C319.275 337.38 319.923 337.12 320.723 337.12ZM322.439 340.132C322.439 339.444 322.295 338.908 322.007 338.524C321.719 338.132 321.295 337.936 320.735 337.936C320.183 337.936 319.759 338.132 319.463 338.524C319.167 338.908 319.019 339.444 319.019 340.132C319.019 340.812 319.159 341.348 319.439 341.74C319.719 342.124 320.135 342.316 320.687 342.316C321.247 342.316 321.679 342.124 321.983 341.74C322.287 341.348 322.439 340.812 322.439 340.132ZM326.756 339.964L325.988 340.588V343H325.04V334.828H325.988V339.58L328.76 337.264H330.08L327.44 339.412L330.212 343H329.048L326.756 339.964ZM331.704 337.252H332.652V343H331.704V337.252ZM332.172 335.908C331.98 335.908 331.828 335.856 331.716 335.752C331.612 335.64 331.56 335.496 331.56 335.32C331.56 335.136 331.612 334.992 331.716 334.888C331.828 334.776 331.98 334.72 332.172 334.72C332.364 334.72 332.516 334.776 332.628 334.888C332.748 334.992 332.808 335.136 332.808 335.32C332.808 335.496 332.748 335.64 332.628 335.752C332.516 335.856 332.364 335.908 332.172 335.908ZM335.973 338.368C336.349 337.536 336.993 337.12 337.905 337.12C338.585 337.12 339.113 337.344 339.489 337.792C339.873 338.24 340.065 338.852 340.065 339.628V343H339.129V339.628C339.129 339.076 338.997 338.66 338.733 338.38C338.477 338.1 338.109 337.96 337.629 337.96C337.149 337.96 336.761 338.156 336.465 338.548C336.169 338.94 336.013 339.484 335.997 340.18V343H335.049V337.264H335.865L335.973 338.368ZM342.362 342.82C341.882 342.588 341.642 342.232 341.642 341.752C341.642 341.504 341.734 341.288 341.918 341.104C342.11 340.912 342.346 340.784 342.626 340.72C342.194 340.336 341.978 339.832 341.978 339.208C341.978 338.584 342.198 338.08 342.638 337.696C343.086 337.312 343.614 337.12 344.222 337.12C344.83 337.12 345.346 337.264 345.77 337.552C345.826 337.128 345.994 336.788 346.274 336.532C346.562 336.276 346.938 336.148 347.402 336.148L347.318 337.084C346.614 337.084 346.246 337.38 346.214 337.972C346.494 338.316 346.634 338.728 346.634 339.208C346.634 339.824 346.41 340.332 345.962 340.732C345.522 341.124 344.97 341.32 344.306 341.32C343.85 341.32 343.446 341.228 343.094 341.044C342.934 341.076 342.79 341.152 342.662 341.272C342.534 341.384 342.47 341.54 342.47 341.74C342.47 342.164 342.822 342.376 343.526 342.376H345.758C346.294 342.376 346.718 342.492 347.03 342.724C347.342 342.948 347.498 343.264 347.498 343.672C347.498 344.28 347.19 344.812 346.574 345.268C345.966 345.724 345.194 345.952 344.258 345.952C343.322 345.952 342.586 345.776 342.05 345.424C341.514 345.08 341.246 344.644 341.246 344.116C341.246 343.772 341.346 343.492 341.546 343.276C341.754 343.06 342.026 342.908 342.362 342.82ZM342.182 344.08C342.182 344.384 342.346 344.644 342.674 344.86C343.01 345.084 343.514 345.196 344.186 345.196C344.866 345.196 345.43 345.048 345.878 344.752C346.334 344.464 346.562 344.124 346.562 343.732C346.562 343.548 346.494 343.388 346.358 343.252C346.23 343.124 346.03 343.06 345.758 343.06H343.442C343.034 343.076 342.722 343.172 342.506 343.348C342.29 343.532 342.182 343.776 342.182 344.08ZM345.71 339.208C345.71 338.792 345.586 338.456 345.338 338.2C345.09 337.936 344.746 337.804 344.306 337.804C343.874 337.804 343.534 337.936 343.286 338.2C343.038 338.456 342.914 338.792 342.914 339.208C342.914 339.624 343.038 339.968 343.286 340.24C343.542 340.504 343.886 340.636 344.318 340.636C344.75 340.636 345.09 340.5 345.338 340.228C345.586 339.956 345.71 339.616 345.71 339.208Z" fill="#787878"/>
<path d="M122.101 149.452H123.253L125.785 157H124.801L124.153 155.08H121.153L120.505 157H119.509L122.101 149.452ZM121.405 154.336H123.913L122.665 150.616L121.405 154.336ZM128.054 152.368C128.43 151.536 129.074 151.12 129.986 151.12C130.666 151.12 131.194 151.344 131.57 151.792C131.954 152.24 132.146 152.852 132.146 153.628V157H131.21V153.628C131.21 153.076 131.078 152.66 130.814 152.38C130.558 152.1 130.19 151.96 129.71 151.96C129.23 151.96 128.842 152.156 128.546 152.548C128.25 152.94 128.094 153.484 128.078 154.18V157H127.13V151.264H127.946L128.054 152.368ZM133.051 158.668C133.443 158.972 133.855 159.124 134.287 159.124C134.607 159.124 134.883 158.964 135.115 158.644C135.283 158.412 135.435 158.06 135.571 157.588L135.739 157L133.387 151.264H134.443L136.183 155.836L137.539 151.264H138.499L136.351 158.14C136.167 158.724 135.923 159.172 135.619 159.484C135.323 159.796 134.943 159.952 134.479 159.952C134.023 159.952 133.547 159.812 133.051 159.532V158.668Z" fill="#2ABECC"/>
<path d="M168.837 149.452H173.421V150.268H169.785V152.776H173.169V153.592H169.785V157H168.837V149.452ZM176.6 156.364C177.392 156.364 177.844 156.016 177.956 155.32H178.928C178.84 155.896 178.584 156.344 178.16 156.664C177.744 156.976 177.224 157.132 176.6 157.132C175.832 157.132 175.208 156.86 174.728 156.316C174.248 155.764 174.008 155.032 174.008 154.12C174.008 153.208 174.248 152.48 174.728 151.936C175.216 151.392 175.86 151.12 176.66 151.12C177.468 151.12 178.068 151.432 178.46 152.056C178.86 152.68 179 153.44 178.88 154.336H174.956C174.956 154.928 175.1 155.416 175.388 155.8C175.676 156.176 176.08 156.364 176.6 156.364ZM177.296 152.02C177.112 151.924 176.888 151.876 176.624 151.876C176.136 151.876 175.748 152.044 175.46 152.38C175.18 152.708 175.016 153.12 174.968 153.616H178.028C178.028 152.816 177.784 152.284 177.296 152.02ZM181.539 152.368C181.915 151.536 182.559 151.12 183.471 151.12C183.967 151.12 184.383 151.244 184.719 151.492C185.055 151.732 185.299 152.068 185.451 152.5C185.811 151.58 186.479 151.12 187.455 151.12C188.143 151.12 188.675 151.344 189.051 151.792C189.427 152.24 189.615 152.852 189.615 153.628V157H188.679V153.628C188.679 153.076 188.547 152.66 188.283 152.38C188.027 152.1 187.655 151.96 187.167 151.96C186.679 151.96 186.299 152.16 186.027 152.56C185.763 152.96 185.631 153.512 185.631 154.216V157H184.695V153.628C184.695 153.076 184.563 152.66 184.299 152.38C184.043 152.1 183.675 151.96 183.195 151.96C182.715 151.96 182.327 152.156 182.031 152.548C181.735 152.94 181.579 153.484 181.563 154.18V157H180.615V151.264H181.431L181.539 152.368ZM195.224 153.28C195.224 152.76 195.116 152.388 194.9 152.164C194.684 151.94 194.368 151.828 193.952 151.828C193.544 151.828 193.212 151.912 192.956 152.08C192.708 152.24 192.584 152.496 192.584 152.848H191.54C191.54 151.968 192.012 151.424 192.956 151.216C193.244 151.152 193.556 151.12 193.892 151.12C194.604 151.12 195.16 151.3 195.56 151.66C195.96 152.02 196.16 152.568 196.16 153.304V157H195.344L195.248 156.04C194.896 156.768 194.26 157.132 193.34 157.132C192.724 157.132 192.228 156.96 191.852 156.616C191.484 156.272 191.3 155.844 191.3 155.332C191.3 154.82 191.504 154.42 191.912 154.132C192.328 153.844 192.844 153.7 193.46 153.7C194.076 153.7 194.664 153.804 195.224 154.012V153.28ZM195.224 154.612C194.656 154.452 194.16 154.372 193.736 154.372C193.312 154.372 192.968 154.448 192.704 154.6C192.44 154.752 192.308 154.992 192.308 155.32C192.308 156.04 192.716 156.4 193.532 156.4C193.996 156.4 194.392 156.236 194.72 155.908C195.056 155.572 195.224 155.14 195.224 154.612ZM198.218 148.828H199.166V157H198.218V148.828ZM203.392 156.364C204.184 156.364 204.636 156.016 204.748 155.32H205.72C205.632 155.896 205.376 156.344 204.952 156.664C204.536 156.976 204.016 157.132 203.392 157.132C202.624 157.132 202 156.86 201.52 156.316C201.04 155.764 200.8 155.032 200.8 154.12C200.8 153.208 201.04 152.48 201.52 151.936C202.008 151.392 202.652 151.12 203.452 151.12C204.26 151.12 204.86 151.432 205.252 152.056C205.652 152.68 205.792 153.44 205.672 154.336H201.748C201.748 154.928 201.892 155.416 202.18 155.8C202.468 156.176 202.872 156.364 203.392 156.364ZM204.088 152.02C203.904 151.924 203.68 151.876 203.416 151.876C202.928 151.876 202.54 152.044 202.252 152.38C201.972 152.708 201.808 153.12 201.76 153.616H204.82C204.82 152.816 204.576 152.284 204.088 152.02Z" fill="#787878"/>
<path d="M234.609 149.452L237.153 154.564L239.673 149.452H241.005V157H240.057V150.796L237.465 156.052H236.829L234.201 150.712V157H233.253V149.452H234.609ZM246.808 153.28C246.808 152.76 246.7 152.388 246.484 152.164C246.268 151.94 245.952 151.828 245.536 151.828C245.128 151.828 244.796 151.912 244.54 152.08C244.292 152.24 244.168 152.496 244.168 152.848H243.124C243.124 151.968 243.596 151.424 244.54 151.216C244.828 151.152 245.14 151.12 245.476 151.12C246.188 151.12 246.744 151.3 247.144 151.66C247.544 152.02 247.744 152.568 247.744 153.304V157H246.928L246.832 156.04C246.48 156.768 245.844 157.132 244.924 157.132C244.308 157.132 243.812 156.96 243.436 156.616C243.068 156.272 242.884 155.844 242.884 155.332C242.884 154.82 243.088 154.42 243.496 154.132C243.912 153.844 244.428 153.7 245.044 153.7C245.66 153.7 246.248 153.804 246.808 154.012V153.28ZM246.808 154.612C246.24 154.452 245.744 154.372 245.32 154.372C244.896 154.372 244.552 154.448 244.288 154.6C244.024 154.752 243.892 154.992 243.892 155.32C243.892 156.04 244.3 156.4 245.116 156.4C245.58 156.4 245.976 156.236 246.304 155.908C246.64 155.572 246.808 155.14 246.808 154.612ZM249.801 148.828H250.749V157H249.801V148.828ZM254.975 156.364C255.767 156.364 256.219 156.016 256.331 155.32H257.303C257.215 155.896 256.959 156.344 256.535 156.664C256.119 156.976 255.599 157.132 254.975 157.132C254.207 157.132 253.583 156.86 253.103 156.316C252.623 155.764 252.383 155.032 252.383 154.12C252.383 153.208 252.623 152.48 253.103 151.936C253.591 151.392 254.235 151.12 255.035 151.12C255.843 151.12 256.443 151.432 256.835 152.056C257.235 152.68 257.375 153.44 257.255 154.336H253.331C253.331 154.928 253.475 155.416 253.763 155.8C254.051 156.176 254.455 156.364 254.975 156.364ZM255.671 152.02C255.487 151.924 255.263 151.876 254.999 151.876C254.511 151.876 254.123 152.044 253.835 152.38C253.555 152.708 253.391 153.12 253.343 153.616H256.403C256.403 152.816 256.159 152.284 255.671 152.02Z" fill="#787878"/>
<path d="M239.375 138.375H231.875C231.185 138.375 230.625 137.815 230.625 137.125V129.625" stroke="#393939" stroke-width="1.1" stroke-linecap="round" stroke-linejoin="round"/>
<path d="M239.375 109.625H231.875C231.185 109.625 230.625 110.185 230.625 110.875V118.375" stroke="#393939" stroke-width="1.1" stroke-linecap="round" stroke-linejoin="round"/>
<path d="M250.625 138.375H258.125C258.815 138.375 259.375 137.815 259.375 137.125V129.625" stroke="#393939" stroke-width="1.1" stroke-linecap="round" stroke-linejoin="round"/>
<path d="M250.625 109.625H258.125C258.815 109.625 259.375 110.185 259.375 110.875V118.375" stroke="#393939" stroke-width="1.1" stroke-linecap="round" stroke-linejoin="round"/>
<path fill-rule="evenodd" clip-rule="evenodd" d="M251.875 132.125C251.875 128.328 248.797 125.25 245 125.25C241.203 125.25 238.125 128.328 238.125 132.125H251.875Z" stroke="#393939" stroke-width="1.1" stroke-linecap="round" stroke-linejoin="round"/>
<path d="M241.43 117.25C243.38 119.271 246.377 119.873 248.956 118.763" stroke="#393939" stroke-width="1.1" stroke-linecap="round" stroke-linejoin="round"/>
<path fill-rule="evenodd" clip-rule="evenodd" d="M244.93 123.375C247.174 123.375 248.992 121.556 248.992 119.312C248.992 117.069 247.174 115.25 244.93 115.25C242.686 115.25 240.867 117.069 240.867 119.312C240.867 121.556 242.686 123.375 244.93 123.375Z" stroke="#393939" stroke-width="1.1" stroke-linecap="round" stroke-linejoin="round"/>
<path d="M123.375 138.375H115.875C115.185 138.375 114.625 137.815 114.625 137.125V129.625" stroke="#2ABECC" stroke-width="1.1" stroke-linecap="round" stroke-linejoin="round"/>
<path d="M123.375 109.625H115.875C115.185 109.625 114.625 110.185 114.625 110.875V118.375" stroke="#2ABECC" stroke-width="1.1" stroke-linecap="round" stroke-linejoin="round"/>
<path d="M134.625 138.375H142.125C142.815 138.375 143.375 137.815 143.375 137.125V129.625" stroke="#2ABECC" stroke-width="1.1" stroke-linecap="round" stroke-linejoin="round"/>
<path d="M134.625 109.625H142.125C142.815 109.625 143.375 110.185 143.375 110.875V118.375" stroke="#2ABECC" stroke-width="1.1" stroke-linecap="round" stroke-linejoin="round"/>
<path fill-rule="evenodd" clip-rule="evenodd" d="M135.875 132.125C135.875 128.328 132.797 125.25 129 125.25C125.203 125.25 122.125 128.328 122.125 132.125H135.875Z" stroke="#2ABECC" stroke-width="1.1" stroke-linecap="round" stroke-linejoin="round"/>
<path fill-rule="evenodd" clip-rule="evenodd" d="M128.93 123.375C131.174 123.375 132.992 121.556 132.992 119.312C132.992 117.069 131.174 115.25 128.93 115.25C126.686 115.25 124.867 117.069 124.867 119.312C124.867 121.556 126.686 123.375 128.93 123.375Z" stroke="#2ABECC" stroke-width="1.1" stroke-linecap="round" stroke-linejoin="round"/>
<path d="M181.375 138.375H173.875C173.185 138.375 172.625 137.815 172.625 137.125V129.625" stroke="#393939" stroke-width="1.1" stroke-linecap="round" stroke-linejoin="round"/>
<path d="M181.375 109.625H173.875C173.185 109.625 172.625 110.185 172.625 110.875V118.375" stroke="#393939" stroke-width="1.1" stroke-linecap="round" stroke-linejoin="round"/>
<path d="M192.625 138.375H200.125C200.815 138.375 201.375 137.815 201.375 137.125V129.625" stroke="#393939" stroke-width="1.1" stroke-linecap="round" stroke-linejoin="round"/>
<path d="M192.625 109.625H200.125C200.815 109.625 201.375 110.185 201.375 110.875V118.375" stroke="#393939" stroke-width="1.1" stroke-linecap="round" stroke-linejoin="round"/>
<path d="M192.463 124.466C191.864 123.483 191.565 122.346 191.604 121.195V119.856C191.604 117.314 189.543 115.252 187 115.252C184.458 115.252 182.396 117.314 182.396 119.856V121.195C182.435 122.346 182.137 123.483 181.538 124.466" stroke="#393939" stroke-width="1.1" stroke-linecap="round" stroke-linejoin="round"/>
<path d="M182.396 120.616C184.164 120.614 185.844 119.844 187 118.506C188.156 119.844 189.836 120.614 191.604 120.616" stroke="#393939" stroke-width="1.1" stroke-linecap="round" stroke-linejoin="round"/>
<path d="M191.057 120.591C190.95 122.754 189.165 124.452 187 124.452C184.835 124.452 183.05 122.754 182.942 120.591" stroke="#393939" stroke-width="1.1" stroke-linecap="round" stroke-linejoin="round"/>
<path fill-rule="evenodd" clip-rule="evenodd" d="M193.875 133.375C193.875 129.578 190.797 126.5 187 126.5C183.203 126.5 180.125 129.578 180.125 133.375H193.875Z" stroke="#393939" stroke-width="1.1" stroke-linecap="round" stroke-linejoin="round"/>
<rect x="228.5" y="363.5" width="55" height="43" rx="2.5" fill="white" stroke="#C9C9C9"/>
<path d="M242.96 367.452H244.112L246.644 375H245.66L245.012 373.08H242.012L241.364 375H240.368L242.96 367.452ZM242.264 372.336H244.772L243.524 368.616L242.264 372.336ZM248.001 366.828H248.949V375H248.001V366.828ZM251.195 366.828H252.143V375H251.195V366.828ZM256.453 369.12C257.253 369.12 257.897 369.38 258.385 369.9C258.881 370.42 259.129 371.164 259.129 372.132C259.129 373.092 258.881 373.832 258.385 374.352C257.897 374.872 257.253 375.132 256.453 375.132C255.653 375.132 255.005 374.872 254.509 374.352C254.021 373.832 253.777 373.092 253.777 372.132C253.777 371.164 254.021 370.42 254.509 369.9C255.005 369.38 255.653 369.12 256.453 369.12ZM258.169 372.132C258.169 371.444 258.025 370.908 257.737 370.524C257.449 370.132 257.025 369.936 256.465 369.936C255.913 369.936 255.489 370.132 255.193 370.524C254.897 370.908 254.749 371.444 254.749 372.132C254.749 372.812 254.889 373.348 255.169 373.74C255.449 374.124 255.865 374.316 256.417 374.316C256.977 374.316 257.409 374.124 257.713 373.74C258.017 373.348 258.169 372.812 258.169 372.132ZM260.758 369.264L262.15 373.836L263.518 369.54H264.31L265.666 373.884L267.07 369.264H268.006L266.134 375H265.21L263.89 370.98L262.594 375H261.682L259.774 369.264H260.758ZM244.366 387.704C244.03 388.656 243.378 389.132 242.41 389.132C241.442 389.132 240.646 388.78 240.022 388.076C239.406 387.372 239.098 386.424 239.098 385.232C239.098 384.04 239.434 383.092 240.106 382.388C240.786 381.684 241.63 381.332 242.638 381.332C243.23 381.332 243.746 381.452 244.186 381.692C244.634 381.932 245.018 382.316 245.338 382.844L244.426 383.156C243.906 382.508 243.298 382.184 242.602 382.184C241.906 382.184 241.314 382.468 240.826 383.036C240.346 383.604 240.106 384.344 240.106 385.256C240.106 386.16 240.314 386.888 240.73 387.44C241.146 387.992 241.706 388.268 242.41 388.268C242.986 388.268 243.45 388.076 243.802 387.692C244.154 387.308 244.33 386.74 244.33 385.988V385.964L242.434 385.892V385.268H245.254V389H244.486L244.366 387.704ZM251.163 387.86C250.771 388.692 250.135 389.108 249.255 389.108C248.607 389.108 248.083 388.928 247.683 388.568C247.291 388.208 247.095 387.652 247.095 386.9V383.252H248.043V386.828C248.043 387.796 248.491 388.28 249.387 388.28C249.907 388.28 250.327 388.08 250.647 387.68C250.975 387.28 251.147 386.768 251.163 386.144V383.252H252.111V389H251.163V387.86ZM256.351 388.364C257.143 388.364 257.595 388.016 257.707 387.32H258.679C258.591 387.896 258.335 388.344 257.911 388.664C257.495 388.976 256.975 389.132 256.351 389.132C255.583 389.132 254.959 388.86 254.479 388.316C253.999 387.764 253.759 387.032 253.759 386.12C253.759 385.208 253.999 384.48 254.479 383.936C254.967 383.392 255.611 383.12 256.411 383.12C257.219 383.12 257.819 383.432 258.211 384.056C258.611 384.68 258.751 385.44 258.631 386.336H254.707C254.707 386.928 254.851 387.416 255.139 387.8C255.427 388.176 255.831 388.364 256.351 388.364ZM257.047 384.02C256.863 383.924 256.639 383.876 256.375 383.876C255.887 383.876 255.499 384.044 255.211 384.38C254.931 384.708 254.767 385.12 254.719 385.616H257.779C257.779 384.816 257.535 384.284 257.047 384.02ZM260.077 384.668C260.077 384.196 260.277 383.82 260.677 383.54C261.085 383.26 261.633 383.12 262.321 383.12C263.009 383.12 263.545 383.264 263.929 383.552C264.321 383.84 264.525 384.204 264.541 384.644H263.617C263.545 384.124 263.105 383.864 262.297 383.864C261.905 383.864 261.601 383.952 261.385 384.128C261.177 384.304 261.073 384.496 261.073 384.704C261.073 384.904 261.153 385.076 261.313 385.22C261.473 385.356 261.729 385.476 262.081 385.58L263.233 385.964C263.721 386.116 264.093 386.312 264.349 386.552C264.613 386.784 264.745 387.108 264.745 387.524C264.745 387.932 264.533 388.304 264.109 388.64C263.685 388.968 263.093 389.132 262.333 389.132C261.573 389.132 260.981 388.964 260.557 388.628C260.133 388.284 259.909 387.844 259.885 387.308H260.797C260.813 387.668 260.957 387.94 261.229 388.124C261.509 388.3 261.857 388.388 262.273 388.388C262.689 388.388 263.033 388.3 263.305 388.124C263.577 387.948 263.713 387.74 263.713 387.5C263.713 387.252 263.633 387.064 263.473 386.936C263.313 386.808 263.053 386.696 262.693 386.6L261.577 386.228C260.577 385.932 260.077 385.412 260.077 384.668ZM269.524 388.832C268.836 389.152 268.208 389.22 267.64 389.036C267.232 388.908 266.944 388.64 266.776 388.232C266.688 388.032 266.644 387.792 266.644 387.512V383.984H265.72V383.264H266.644V381.668H267.58V383.264H269.38V383.984H267.58V387.5C267.58 388.084 267.852 388.376 268.396 388.376C268.692 388.376 269.024 388.304 269.392 388.16L269.524 388.832ZM244.67 395.452L246.83 401.8L249.002 395.452H249.998L247.322 403H246.338L243.674 395.452H244.67ZM251.322 397.252H252.27V403H251.322V397.252ZM251.79 395.908C251.598 395.908 251.446 395.856 251.334 395.752C251.23 395.64 251.178 395.496 251.178 395.32C251.178 395.136 251.23 394.992 251.334 394.888C251.446 394.776 251.598 394.72 251.79 394.72C251.982 394.72 252.134 394.776 252.246 394.888C252.366 394.992 252.426 395.136 252.426 395.32C252.426 395.496 252.366 395.64 252.246 395.752C252.134 395.856 251.982 395.908 251.79 395.908ZM254.379 398.668C254.379 398.196 254.579 397.82 254.979 397.54C255.387 397.26 255.935 397.12 256.623 397.12C257.311 397.12 257.847 397.264 258.231 397.552C258.623 397.84 258.827 398.204 258.843 398.644H257.919C257.847 398.124 257.407 397.864 256.599 397.864C256.207 397.864 255.903 397.952 255.687 398.128C255.479 398.304 255.375 398.496 255.375 398.704C255.375 398.904 255.455 399.076 255.615 399.22C255.775 399.356 256.031 399.476 256.383 399.58L257.535 399.964C258.023 400.116 258.395 400.312 258.651 400.552C258.915 400.784 259.047 401.108 259.047 401.524C259.047 401.932 258.835 402.304 258.411 402.64C257.987 402.968 257.395 403.132 256.635 403.132C255.875 403.132 255.283 402.964 254.859 402.628C254.435 402.284 254.211 401.844 254.187 401.308H255.099C255.115 401.668 255.259 401.94 255.531 402.124C255.811 402.3 256.159 402.388 256.575 402.388C256.991 402.388 257.335 402.3 257.607 402.124C257.879 401.948 258.015 401.74 258.015 401.5C258.015 401.252 257.935 401.064 257.775 400.936C257.615 400.808 257.355 400.696 256.995 400.6L255.879 400.228C254.879 399.932 254.379 399.412 254.379 398.668ZM260.886 397.252H261.834V403H260.886V397.252ZM261.354 395.908C261.162 395.908 261.01 395.856 260.898 395.752C260.794 395.64 260.742 395.496 260.742 395.32C260.742 395.136 260.794 394.992 260.898 394.888C261.01 394.776 261.162 394.72 261.354 394.72C261.546 394.72 261.698 394.776 261.81 394.888C261.93 394.992 261.99 395.136 261.99 395.32C261.99 395.496 261.93 395.64 261.81 395.752C261.698 395.856 261.546 395.908 261.354 395.908ZM267.242 402.832C266.554 403.152 265.926 403.22 265.358 403.036C264.95 402.908 264.662 402.64 264.494 402.232C264.406 402.032 264.362 401.792 264.362 401.512V397.984H263.438V397.264H264.362V395.668H265.298V397.264H267.098V397.984H265.298V401.5C265.298 402.084 265.57 402.376 266.114 402.376C266.41 402.376 266.742 402.304 267.11 402.16L267.242 402.832Z" fill="#787878"/>
<rect x="296.5" y="363.5" width="55" height="43" rx="2.5" fill="white" stroke="#C9C9C9"/>
<path d="M311.46 374.452H312.612L315.144 382H314.16L313.512 380.08H310.512L309.864 382H308.868L311.46 374.452ZM310.764 379.336H313.272L312.024 375.616L310.764 379.336ZM316.501 373.828H317.449V382H316.501V373.828ZM319.695 373.828H320.643V382H319.695V373.828ZM324.953 376.12C325.753 376.12 326.397 376.38 326.885 376.9C327.381 377.42 327.629 378.164 327.629 379.132C327.629 380.092 327.381 380.832 326.885 381.352C326.397 381.872 325.753 382.132 324.953 382.132C324.153 382.132 323.505 381.872 323.009 381.352C322.521 380.832 322.277 380.092 322.277 379.132C322.277 378.164 322.521 377.42 323.009 376.9C323.505 376.38 324.153 376.12 324.953 376.12ZM326.669 379.132C326.669 378.444 326.525 377.908 326.237 377.524C325.949 377.132 325.525 376.936 324.965 376.936C324.413 376.936 323.989 377.132 323.693 377.524C323.397 377.908 323.249 378.444 323.249 379.132C323.249 379.812 323.389 380.348 323.669 380.74C323.949 381.124 324.365 381.316 324.917 381.316C325.477 381.316 325.909 381.124 326.213 380.74C326.517 380.348 326.669 379.812 326.669 379.132ZM329.258 376.264L330.65 380.836L332.018 376.54H332.81L334.166 380.884L335.57 376.264H336.506L334.634 382H333.71L332.39 377.98L331.094 382H330.182L328.274 376.264H329.258ZM305.918 388.32C306.726 388.32 307.374 388.524 307.862 388.932C308.358 389.332 308.698 389.856 308.882 390.504L307.862 390.708C307.702 390.236 307.45 389.864 307.106 389.592C306.77 389.312 306.374 389.172 305.918 389.172C305.286 389.172 304.762 389.436 304.346 389.964C303.93 390.492 303.722 391.228 303.722 392.172C303.722 393.108 303.906 393.86 304.274 394.428C304.65 394.996 305.198 395.28 305.918 395.28C306.518 395.28 306.99 395.124 307.334 394.812C307.686 394.492 307.862 394.072 307.862 393.552H308.882C308.882 394.344 308.61 394.972 308.066 395.436C307.53 395.9 306.79 396.132 305.846 396.132C304.91 396.132 304.15 395.772 303.566 395.052C302.99 394.332 302.702 393.368 302.702 392.16C302.702 390.952 303.002 390.012 303.602 389.34C304.202 388.66 304.974 388.32 305.918 388.32ZM312.556 390.12C313.356 390.12 314 390.38 314.488 390.9C314.984 391.42 315.232 392.164 315.232 393.132C315.232 394.092 314.984 394.832 314.488 395.352C314 395.872 313.356 396.132 312.556 396.132C311.756 396.132 311.108 395.872 310.612 395.352C310.124 394.832 309.88 394.092 309.88 393.132C309.88 392.164 310.124 391.42 310.612 390.9C311.108 390.38 311.756 390.12 312.556 390.12ZM314.272 393.132C314.272 392.444 314.128 391.908 313.84 391.524C313.552 391.132 313.128 390.936 312.568 390.936C312.016 390.936 311.592 391.132 311.296 391.524C311 391.908 310.852 392.444 310.852 393.132C310.852 393.812 310.992 394.348 311.272 394.74C311.552 395.124 311.968 395.316 312.52 395.316C313.08 395.316 313.512 395.124 313.816 394.74C314.12 394.348 314.272 393.812 314.272 393.132ZM318.938 390.12C319.738 390.12 320.382 390.38 320.87 390.9C321.366 391.42 321.614 392.164 321.614 393.132C321.614 394.092 321.366 394.832 320.87 395.352C320.382 395.872 319.738 396.132 318.938 396.132C318.138 396.132 317.49 395.872 316.994 395.352C316.506 394.832 316.262 394.092 316.262 393.132C316.262 392.164 316.506 391.42 316.994 390.9C317.49 390.38 318.138 390.12 318.938 390.12ZM320.654 393.132C320.654 392.444 320.51 391.908 320.222 391.524C319.934 391.132 319.51 390.936 318.95 390.936C318.398 390.936 317.974 391.132 317.678 391.524C317.382 391.908 317.234 392.444 317.234 393.132C317.234 393.812 317.374 394.348 317.654 394.74C317.934 395.124 318.35 395.316 318.902 395.316C319.462 395.316 319.894 395.124 320.198 394.74C320.502 394.348 320.654 393.812 320.654 393.132ZM324.971 392.964L324.203 393.588V396H323.255V387.828H324.203V392.58L326.975 390.264H328.295L325.655 392.412L328.427 396H327.263L324.971 392.964ZM329.919 390.252H330.867V396H329.919V390.252ZM330.387 388.908C330.195 388.908 330.043 388.856 329.931 388.752C329.827 388.64 329.775 388.496 329.775 388.32C329.775 388.136 329.827 387.992 329.931 387.888C330.043 387.776 330.195 387.72 330.387 387.72C330.579 387.72 330.731 387.776 330.843 387.888C330.963 387.992 331.023 388.136 331.023 388.32C331.023 388.496 330.963 388.64 330.843 388.752C330.731 388.856 330.579 388.908 330.387 388.908ZM334.188 391.368C334.564 390.536 335.208 390.12 336.12 390.12C336.8 390.12 337.328 390.344 337.704 390.792C338.088 391.24 338.28 391.852 338.28 392.628V396H337.344V392.628C337.344 392.076 337.212 391.66 336.948 391.38C336.692 391.1 336.324 390.96 335.844 390.96C335.364 390.96 334.976 391.156 334.68 391.548C334.384 391.94 334.228 392.484 334.212 393.18V396H333.264V390.264H334.08L334.188 391.368ZM340.577 395.82C340.097 395.588 339.857 395.232 339.857 394.752C339.857 394.504 339.949 394.288 340.133 394.104C340.325 393.912 340.561 393.784 340.841 393.72C340.409 393.336 340.193 392.832 340.193 392.208C340.193 391.584 340.413 391.08 340.853 390.696C341.301 390.312 341.829 390.12 342.437 390.12C343.045 390.12 343.561 390.264 343.985 390.552C344.041 390.128 344.209 389.788 344.489 389.532C344.777 389.276 345.153 389.148 345.617 389.148L345.533 390.084C344.829 390.084 344.461 390.38 344.429 390.972C344.709 391.316 344.849 391.728 344.849 392.208C344.849 392.824 344.625 393.332 344.177 393.732C343.737 394.124 343.185 394.32 342.521 394.32C342.065 394.32 341.661 394.228 341.309 394.044C341.149 394.076 341.005 394.152 340.877 394.272C340.749 394.384 340.685 394.54 340.685 394.74C340.685 395.164 341.037 395.376 341.741 395.376H343.973C344.509 395.376 344.933 395.492 345.245 395.724C345.557 395.948 345.713 396.264 345.713 396.672C345.713 397.28 345.405 397.812 344.789 398.268C344.181 398.724 343.409 398.952 342.473 398.952C341.537 398.952 340.801 398.776 340.265 398.424C339.729 398.08 339.461 397.644 339.461 397.116C339.461 396.772 339.561 396.492 339.761 396.276C339.969 396.06 340.241 395.908 340.577 395.82ZM340.397 397.08C340.397 397.384 340.561 397.644 340.889 397.86C341.225 398.084 341.729 398.196 342.401 398.196C343.081 398.196 343.645 398.048 344.093 397.752C344.549 397.464 344.777 397.124 344.777 396.732C344.777 396.548 344.709 396.388 344.573 396.252C344.445 396.124 344.245 396.06 343.973 396.06H341.657C341.249 396.076 340.937 396.172 340.721 396.348C340.505 396.532 340.397 396.776 340.397 397.08ZM343.925 392.208C343.925 391.792 343.801 391.456 343.553 391.2C343.305 390.936 342.961 390.804 342.521 390.804C342.089 390.804 341.749 390.936 341.501 391.2C341.253 391.456 341.129 391.792 341.129 392.208C341.129 392.624 341.253 392.968 341.501 393.24C341.757 393.504 342.101 393.636 342.533 393.636C342.965 393.636 343.305 393.5 343.553 393.228C343.801 392.956 343.925 392.616 343.925 392.208Z" fill="#787878"/>
<rect x="92.5" y="363.5" width="55" height="43" rx="2.5" fill="white" stroke="#C9C9C9"/>
<path d="M108.305 367.452H109.457L111.989 375H111.005L110.357 373.08H107.357L106.709 375H105.713L108.305 367.452ZM107.609 372.336H110.117L108.869 368.616L107.609 372.336ZM113.346 366.828H114.294V375H113.346V366.828ZM116.54 366.828H117.488V375H116.54V366.828ZM121.798 369.12C122.598 369.12 123.242 369.38 123.73 369.9C124.226 370.42 124.474 371.164 124.474 372.132C124.474 373.092 124.226 373.832 123.73 374.352C123.242 374.872 122.598 375.132 121.798 375.132C120.998 375.132 120.35 374.872 119.854 374.352C119.366 373.832 119.122 373.092 119.122 372.132C119.122 371.164 119.366 370.42 119.854 369.9C120.35 369.38 120.998 369.12 121.798 369.12ZM123.514 372.132C123.514 371.444 123.37 370.908 123.082 370.524C122.794 370.132 122.37 369.936 121.81 369.936C121.258 369.936 120.834 370.132 120.538 370.524C120.242 370.908 120.094 371.444 120.094 372.132C120.094 372.812 120.234 373.348 120.514 373.74C120.794 374.124 121.21 374.316 121.762 374.316C122.322 374.316 122.754 374.124 123.058 373.74C123.362 373.348 123.514 372.812 123.514 372.132ZM126.103 369.264L127.495 373.836L128.863 369.54H129.655L131.011 373.884L132.415 369.264H133.351L131.479 375H130.555L129.235 370.98L127.939 375H127.027L125.119 369.264H126.103ZM99.6024 381.452C100.434 381.452 101.066 381.664 101.498 382.088C101.938 382.504 102.158 383.068 102.158 383.78C102.158 384.492 101.938 385.056 101.498 385.472C101.066 385.88 100.434 386.084 99.6024 386.084H98.1144V389H97.1664V381.452H99.6024ZM99.6024 385.268C100.122 385.268 100.514 385.136 100.778 384.872C101.05 384.608 101.186 384.248 101.186 383.792C101.186 383.328 101.05 382.96 100.778 382.688C100.514 382.408 100.122 382.268 99.6024 382.268H98.1144V385.268H99.6024ZM107.218 385.28C107.218 384.76 107.11 384.388 106.894 384.164C106.678 383.94 106.362 383.828 105.946 383.828C105.538 383.828 105.206 383.912 104.95 384.08C104.702 384.24 104.578 384.496 104.578 384.848H103.534C103.534 383.968 104.006 383.424 104.95 383.216C105.238 383.152 105.55 383.12 105.886 383.12C106.598 383.12 107.154 383.3 107.554 383.66C107.954 384.02 108.154 384.568 108.154 385.304V389H107.338L107.242 388.04C106.89 388.768 106.254 389.132 105.334 389.132C104.718 389.132 104.222 388.96 103.846 388.616C103.478 388.272 103.294 387.844 103.294 387.332C103.294 386.82 103.498 386.42 103.906 386.132C104.322 385.844 104.838 385.7 105.454 385.7C106.07 385.7 106.658 385.804 107.218 386.012V385.28ZM107.218 386.612C106.65 386.452 106.154 386.372 105.73 386.372C105.306 386.372 104.962 386.448 104.698 386.6C104.434 386.752 104.302 386.992 104.302 387.32C104.302 388.04 104.71 388.4 105.526 388.4C105.99 388.4 106.386 388.236 106.714 387.908C107.05 387.572 107.218 387.14 107.218 386.612ZM112.551 384.068C111.647 384.068 111.179 384.78 111.147 386.204V389H110.199V383.252H111.147V384.356C111.435 383.556 111.943 383.156 112.671 383.156C112.903 383.156 113.123 383.192 113.331 383.264L113.283 384.188C113.043 384.108 112.799 384.068 112.551 384.068ZM117.612 388.832C116.924 389.152 116.296 389.22 115.728 389.036C115.32 388.908 115.032 388.64 114.864 388.232C114.776 388.032 114.732 387.792 114.732 387.512V383.984H113.808V383.264H114.732V381.668H115.668V383.264H117.468V383.984H115.668V387.5C115.668 388.084 115.94 388.376 116.484 388.376C116.78 388.376 117.112 388.304 117.48 388.16L117.612 388.832ZM117.802 390.668C118.194 390.972 118.606 391.124 119.038 391.124C119.358 391.124 119.634 390.964 119.866 390.644C120.034 390.412 120.186 390.06 120.322 389.588L120.49 389L118.138 383.264H119.194L120.934 387.836L122.29 383.264H123.25L121.102 390.14C120.918 390.724 120.674 391.172 120.37 391.484C120.074 391.796 119.694 391.952 119.23 391.952C118.774 391.952 118.298 391.812 117.802 391.532V390.668ZM124.645 389.06C124.461 389.044 124.309 388.984 124.189 388.88C124.069 388.776 124.009 388.636 124.009 388.46C124.009 388.284 124.069 388.136 124.189 388.016C124.317 387.896 124.493 387.836 124.717 387.836C124.949 387.836 125.141 387.928 125.293 388.112C125.445 388.288 125.521 388.512 125.521 388.784C125.521 389.056 125.433 389.332 125.257 389.612C125.081 389.9 124.813 390.132 124.453 390.308L123.745 389.96C124.241 389.72 124.541 389.42 124.645 389.06ZM130.741 381.452L134.485 387.512V381.452H135.433V389H134.377L130.573 382.856V389H129.613V381.452H130.741ZM139.747 383.12C140.547 383.12 141.191 383.38 141.679 383.9C142.175 384.42 142.423 385.164 142.423 386.132C142.423 387.092 142.175 387.832 141.679 388.352C141.191 388.872 140.547 389.132 139.747 389.132C138.947 389.132 138.299 388.872 137.803 388.352C137.315 387.832 137.071 387.092 137.071 386.132C137.071 385.164 137.315 384.42 137.803 383.9C138.299 383.38 138.947 383.12 139.747 383.12ZM141.463 386.132C141.463 385.444 141.319 384.908 141.031 384.524C140.743 384.132 140.319 383.936 139.759 383.936C139.207 383.936 138.783 384.132 138.487 384.524C138.191 384.908 138.043 385.444 138.043 386.132C138.043 386.812 138.183 387.348 138.463 387.74C138.743 388.124 139.159 388.316 139.711 388.316C140.271 388.316 140.703 388.124 141.007 387.74C141.311 387.348 141.463 386.812 141.463 386.132ZM95.3579 402.172H98.7179V403H94.4099V395.452H95.3579V402.172ZM103.406 399.28C103.406 398.76 103.298 398.388 103.082 398.164C102.866 397.94 102.55 397.828 102.134 397.828C101.726 397.828 101.394 397.912 101.138 398.08C100.89 398.24 100.766 398.496 100.766 398.848H99.7218C99.7218 397.968 100.194 397.424 101.138 397.216C101.426 397.152 101.738 397.12 102.074 397.12C102.786 397.12 103.342 397.3 103.742 397.66C104.142 398.02 104.342 398.568 104.342 399.304V403H103.526L103.43 402.04C103.078 402.768 102.442 403.132 101.522 403.132C100.906 403.132 100.41 402.96 100.034 402.616C99.6658 402.272 99.4818 401.844 99.4818 401.332C99.4818 400.82 99.6858 400.42 100.094 400.132C100.51 399.844 101.026 399.7 101.642 399.7C102.258 399.7 102.846 399.804 103.406 400.012V399.28ZM103.406 400.612C102.838 400.452 102.342 400.372 101.918 400.372C101.494 400.372 101.15 400.448 100.886 400.6C100.622 400.752 100.49 400.992 100.49 401.32C100.49 402.04 100.898 402.4 101.714 402.4C102.178 402.4 102.574 402.236 102.902 401.908C103.238 401.572 103.406 401.14 103.406 400.612ZM109.399 402.832C108.711 403.152 108.083 403.22 107.515 403.036C107.107 402.908 106.819 402.64 106.651 402.232C106.563 402.032 106.519 401.792 106.519 401.512V397.984H105.595V397.264H106.519V395.668H107.455V397.264H109.255V397.984H107.455V401.5C107.455 402.084 107.727 402.376 108.271 402.376C108.567 402.376 108.899 402.304 109.267 402.16L109.399 402.832ZM112.722 402.364C113.514 402.364 113.966 402.016 114.078 401.32H115.05C114.962 401.896 114.706 402.344 114.282 402.664C113.866 402.976 113.346 403.132 112.722 403.132C111.954 403.132 111.33 402.86 110.85 402.316C110.37 401.764 110.13 401.032 110.13 400.12C110.13 399.208 110.37 398.48 110.85 397.936C111.338 397.392 111.982 397.12 112.782 397.12C113.59 397.12 114.19 397.432 114.582 398.056C114.982 398.68 115.122 399.44 115.002 400.336H111.078C111.078 400.928 111.222 401.416 111.51 401.8C111.798 402.176 112.202 402.364 112.722 402.364ZM113.418 398.02C113.234 397.924 113.01 397.876 112.746 397.876C112.258 397.876 111.87 398.044 111.582 398.38C111.302 398.708 111.138 399.12 111.09 399.616H114.15C114.15 398.816 113.906 398.284 113.418 398.02ZM121.85 395.452C122.682 395.452 123.314 395.664 123.746 396.088C124.186 396.504 124.406 397.068 124.406 397.78C124.406 398.492 124.186 399.056 123.746 399.472C123.314 399.88 122.682 400.084 121.85 400.084H120.362V403H119.414V395.452H121.85ZM121.85 399.268C122.37 399.268 122.762 399.136 123.026 398.872C123.298 398.608 123.434 398.248 123.434 397.792C123.434 397.328 123.298 396.96 123.026 396.688C122.762 396.408 122.37 396.268 121.85 396.268H120.362V399.268H121.85ZM129.465 399.28C129.465 398.76 129.357 398.388 129.141 398.164C128.925 397.94 128.609 397.828 128.193 397.828C127.785 397.828 127.453 397.912 127.197 398.08C126.949 398.24 126.825 398.496 126.825 398.848H125.781C125.781 397.968 126.253 397.424 127.197 397.216C127.485 397.152 127.797 397.12 128.133 397.12C128.845 397.12 129.401 397.3 129.801 397.66C130.201 398.02 130.401 398.568 130.401 399.304V403H129.585L129.489 402.04C129.137 402.768 128.501 403.132 127.581 403.132C126.965 403.132 126.469 402.96 126.093 402.616C125.725 402.272 125.541 401.844 125.541 401.332C125.541 400.82 125.745 400.42 126.153 400.132C126.569 399.844 127.085 399.7 127.701 399.7C128.317 399.7 128.905 399.804 129.465 400.012V399.28ZM129.465 400.612C128.897 400.452 128.401 400.372 127.977 400.372C127.553 400.372 127.209 400.448 126.945 400.6C126.681 400.752 126.549 400.992 126.549 401.32C126.549 402.04 126.957 402.4 127.773 402.4C128.237 402.4 128.633 402.236 128.961 401.908C129.297 401.572 129.465 401.14 129.465 400.612ZM134.798 398.068C133.894 398.068 133.426 398.78 133.394 400.204V403H132.446V397.252H133.394V398.356C133.682 397.556 134.19 397.156 134.918 397.156C135.15 397.156 135.37 397.192 135.578 397.264L135.53 398.188C135.29 398.108 135.046 398.068 134.798 398.068ZM139.859 402.832C139.171 403.152 138.543 403.22 137.975 403.036C137.567 402.908 137.279 402.64 137.111 402.232C137.023 402.032 136.979 401.792 136.979 401.512V397.984H136.055V397.264H136.979V395.668H137.915V397.264H139.715V397.984H137.915V401.5C137.915 402.084 138.187 402.376 138.731 402.376C139.027 402.376 139.359 402.304 139.727 402.16L139.859 402.832ZM140.05 404.668C140.442 404.972 140.854 405.124 141.286 405.124C141.606 405.124 141.882 404.964 142.114 404.644C142.282 404.412 142.434 404.06 142.57 403.588L142.738 403L140.386 397.264H141.442L143.182 401.836L144.538 397.264H145.498L143.35 404.14C143.166 404.724 142.922 405.172 142.618 405.484C142.322 405.796 141.942 405.952 141.478 405.952C141.022 405.952 140.546 405.812 140.05 405.532V404.668Z" fill="#787878"/>
</svg>
