<svg width="151" height="325" viewBox="0 0 151 325" fill="none" xmlns="http://www.w3.org/2000/svg">
<g clip-path="url(#clip0)">
<rect width="150.092" height="325" fill="white"/>
<rect width="150.092" height="325" fill="white"/>
<path d="M75.2911 106.274L72.6199 101.747L78.0898 101.825L75.2911 106.274Z" fill="white"/>
<path d="M55.3574 64.833H54.5694L53.1857 60.2411C53.1201 60.0379 53.0466 59.7815 52.9653 59.4719C52.884 59.1623 52.8418 58.9763 52.8387 58.9137C52.7699 59.3265 52.6604 59.7783 52.5103 60.2693L51.1689 64.833H50.3809L48.5563 57.9757H49.4006L50.4841 62.2111C50.6342 62.8052 50.7436 63.343 50.8124 63.8246C50.8968 63.2523 51.0219 62.6926 51.1876 62.1454L52.4165 57.9757H53.2608L54.5506 62.1829C54.7007 62.6676 54.8274 63.2148 54.9306 63.8246C54.99 63.3806 55.1025 62.8396 55.2683 62.2017L56.3471 57.9757H57.1913L55.3574 64.833ZM60.3198 64.9268C59.56 64.9268 58.9596 64.6954 58.5187 64.2326C58.0809 63.7699 57.8621 63.1273 57.8621 62.3049C57.8621 61.4763 58.0653 60.818 58.4718 60.3302C58.8814 59.8424 59.4302 59.5985 60.1181 59.5985C60.7623 59.5985 61.272 59.8112 61.6472 60.2364C62.0224 60.6586 62.21 61.2167 62.21 61.9109V62.4034H58.6688C58.6844 63.0069 58.8361 63.465 59.1238 63.7777C59.4146 64.0904 59.8226 64.2467 60.348 64.2467C60.9014 64.2467 61.4486 64.131 61.9896 63.8996V64.5938C61.7144 64.7126 61.4533 64.797 61.2063 64.8471C60.9624 64.9002 60.6669 64.9268 60.3198 64.9268ZM60.1087 60.2505C59.696 60.2505 59.3661 60.385 59.1191 60.6539C58.8752 60.9228 58.7313 61.2949 58.6876 61.7702H61.3752C61.3752 61.2793 61.2657 60.904 61.0468 60.6445C60.8279 60.3818 60.5152 60.2505 60.1087 60.2505ZM64.3207 64.833H63.5421V57.5348H64.3207V64.833ZM68.0261 64.9268C67.2819 64.9268 66.705 64.6986 66.2954 64.242C65.8889 63.7824 65.6856 63.1335 65.6856 62.2955C65.6856 61.4356 65.892 60.7711 66.3047 60.3021C66.7206 59.8331 67.3116 59.5985 68.0777 59.5985C68.3247 59.5985 68.5718 59.6251 68.8188 59.6783C69.0658 59.7314 69.2597 59.794 69.4004 59.8659L69.1612 60.5272C68.9892 60.4584 68.8016 60.4022 68.5983 60.3584C68.3951 60.3115 68.2153 60.288 68.059 60.288C67.0146 60.288 66.4924 60.9541 66.4924 62.2861C66.4924 62.9178 66.619 63.4024 66.8723 63.7401C67.1287 64.0779 67.5071 64.2467 68.0074 64.2467C68.4357 64.2467 68.8751 64.1545 69.3254 63.97V64.6595C68.9814 64.8377 68.5483 64.9268 68.0261 64.9268ZM74.9867 62.258C74.9867 63.096 74.7756 63.7511 74.3534 64.2233C73.9313 64.6923 73.3481 64.9268 72.6039 64.9268C72.1443 64.9268 71.7362 64.8189 71.3797 64.6032C71.0233 64.3874 70.7481 64.0779 70.5542 63.6745C70.3604 63.2711 70.2634 62.7989 70.2634 62.258C70.2634 61.42 70.4729 60.768 70.8919 60.3021C71.311 59.8331 71.8926 59.5985 72.6368 59.5985C73.356 59.5985 73.9266 59.8377 74.3488 60.3162C74.774 60.7946 74.9867 61.4419 74.9867 62.258ZM71.0702 62.258C71.0702 62.9146 71.2015 63.4149 71.4642 63.7589C71.7268 64.1029 72.113 64.2749 72.6227 64.2749C73.1324 64.2749 73.5186 64.1044 73.7812 63.7636C74.047 63.4196 74.1799 62.9178 74.1799 62.258C74.1799 61.6045 74.047 61.1088 73.7812 60.7711C73.5186 60.4303 73.1293 60.2599 72.6133 60.2599C72.1036 60.2599 71.719 60.4272 71.4595 60.7618C71.1999 61.0963 71.0702 61.5951 71.0702 62.258ZM82.9087 64.833V61.4888C82.9087 61.0791 82.8212 60.7727 82.6461 60.5694C82.4709 60.3631 82.1989 60.2599 81.8299 60.2599C81.3453 60.2599 80.9872 60.399 80.7558 60.6773C80.5244 60.9556 80.4087 61.384 80.4087 61.9625V64.833H79.6301V61.4888C79.6301 61.0791 79.5426 60.7727 79.3675 60.5694C79.1924 60.3631 78.9188 60.2599 78.5467 60.2599C78.0589 60.2599 77.7008 60.4068 77.4726 60.7008C77.2474 60.9916 77.1348 61.47 77.1348 62.136V64.833H76.3562V59.6923H76.9894L77.1161 60.3959H77.1536C77.3006 60.1457 77.507 59.9503 77.7727 59.8096C78.0417 59.6689 78.3418 59.5985 78.6733 59.5985C79.4769 59.5985 80.0022 59.8893 80.2493 60.4709H80.2868C80.44 60.202 80.662 59.9894 80.9528 59.8331C81.2436 59.6767 81.5751 59.5985 81.9472 59.5985C82.5288 59.5985 82.9634 59.7486 83.2511 60.0488C83.5419 60.3459 83.6873 60.8227 83.6873 61.4794V64.833H82.9087ZM87.4678 64.9268C86.7079 64.9268 86.1076 64.6954 85.6667 64.2326C85.2289 63.7699 85.01 63.1273 85.01 62.3049C85.01 61.4763 85.2133 60.818 85.6198 60.3302C86.0294 59.8424 86.5782 59.5985 87.2661 59.5985C87.9102 59.5985 88.4199 59.8112 88.7951 60.2364C89.1704 60.6586 89.358 61.2167 89.358 61.9109V62.4034H85.8168C85.8324 63.0069 85.984 63.465 86.2717 63.7777C86.5625 64.0904 86.9706 64.2467 87.4959 64.2467C88.0494 64.2467 88.5966 64.131 89.1375 63.8996V64.5938C88.8624 64.7126 88.6013 64.797 88.3543 64.8471C88.1104 64.9002 87.8149 64.9268 87.4678 64.9268ZM87.2567 60.2505C86.8439 60.2505 86.5141 60.385 86.267 60.6539C86.0231 60.9228 85.8793 61.2949 85.8355 61.7702H88.5231C88.5231 61.2793 88.4137 60.904 88.1948 60.6445C87.9759 60.3818 87.6632 60.2505 87.2567 60.2505ZM94.8457 64.2842C94.9833 64.2842 95.1162 64.2749 95.2444 64.2561C95.3726 64.2342 95.4743 64.2123 95.5493 64.1904V64.7861C95.4649 64.8268 95.3398 64.8596 95.1741 64.8846C95.0115 64.9127 94.8645 64.9268 94.7332 64.9268C93.7388 64.9268 93.2416 64.4031 93.2416 63.3555V60.2974H92.5052V59.9222L93.2416 59.5985L93.57 58.501H94.0202V59.6923H95.5118V60.2974H94.0202V63.3227C94.0202 63.6323 94.0937 63.8699 94.2407 64.0356C94.3877 64.2014 94.5893 64.2842 94.8457 64.2842ZM101.018 62.258C101.018 63.096 100.807 63.7511 100.385 64.2233C99.963 64.6923 99.3798 64.9268 98.6356 64.9268C98.1759 64.9268 97.7679 64.8189 97.4114 64.6032C97.0549 64.3874 96.7797 64.0779 96.5859 63.6745C96.392 63.2711 96.2951 62.7989 96.2951 62.258C96.2951 61.42 96.5046 60.768 96.9236 60.3021C97.3426 59.8331 97.9242 59.5985 98.6684 59.5985C99.3876 59.5985 99.9583 59.8377 100.38 60.3162C100.806 60.7946 101.018 61.4419 101.018 62.258ZM97.1018 62.258C97.1018 62.9146 97.2332 63.4149 97.4958 63.7589C97.7585 64.1029 98.1446 64.2749 98.6543 64.2749C99.164 64.2749 99.5502 64.1044 99.8129 63.7636C100.079 63.4196 100.212 62.9178 100.212 62.258C100.212 61.6045 100.079 61.1088 99.8129 60.7711C99.5502 60.4303 99.1609 60.2599 98.645 60.2599C98.1353 60.2599 97.7507 60.4272 97.4911 60.7618C97.2316 61.0963 97.1018 61.5951 97.1018 62.258Z" fill="black"/>
<rect x="33.2207" y="128.879" width="83.2512" height="18.8116" rx="2.40148" fill="#8883BB" fill-opacity="0.85"/>
<rect x="33.2207" y="156.496" width="83.2512" height="18.8116" rx="2.40148" fill="#ED6A7C"/>
<path d="M56.1762 162.041H58.1133C59.0232 162.041 59.6814 162.177 60.0879 162.449C60.4944 162.721 60.6977 163.151 60.6977 163.739C60.6977 164.146 60.5836 164.482 60.3553 164.747C60.1302 165.01 59.8003 165.181 59.3656 165.259V165.306C60.4069 165.484 60.9275 166.031 60.9275 166.947C60.9275 167.56 60.7196 168.039 60.3037 168.382C59.891 168.726 59.3125 168.898 58.5683 168.898H56.1762V162.041ZM56.9735 164.977H58.2868C58.8497 164.977 59.2546 164.89 59.5016 164.715C59.7487 164.536 59.8722 164.238 59.8722 163.819C59.8722 163.434 59.7346 163.157 59.4594 162.989C59.1843 162.817 58.7465 162.731 58.1461 162.731H56.9735V164.977ZM56.9735 165.653V168.218H58.4041C58.9576 168.218 59.3734 168.112 59.6517 167.899C59.9332 167.684 60.0739 167.347 60.0739 166.891C60.0739 166.466 59.93 166.153 59.6424 165.953C59.3578 165.753 58.9232 165.653 58.3384 165.653H56.9735ZM63.0194 163.758V167.093C63.0194 167.512 63.1148 167.824 63.3056 168.031C63.4963 168.237 63.7949 168.34 64.2014 168.34C64.7392 168.34 65.1317 168.193 65.3787 167.899C65.6289 167.605 65.7539 167.125 65.7539 166.459V163.758H66.5325V168.898H65.89L65.7774 168.209H65.7352C65.5757 168.462 65.3537 168.656 65.0691 168.791C64.7877 168.925 64.4656 168.992 64.1029 168.992C63.4775 168.992 63.0085 168.844 62.6958 168.547C62.3862 168.25 62.2315 167.774 62.2315 167.121V163.758H63.0194ZM71.5043 167.496C71.5043 167.974 71.3261 168.343 70.9696 168.603C70.6132 168.862 70.1129 168.992 69.4687 168.992C68.787 168.992 68.2555 168.884 67.874 168.669V167.946C68.121 168.071 68.3852 168.17 68.6667 168.242C68.9512 168.314 69.2248 168.35 69.4875 168.35C69.894 168.35 70.2067 168.286 70.4256 168.157C70.6444 168.026 70.7539 167.827 70.7539 167.562C70.7539 167.362 70.6663 167.191 70.4912 167.05C70.3192 166.907 69.9815 166.738 69.4781 166.544C68.9997 166.366 68.6588 166.211 68.4556 166.08C68.2555 165.945 68.1054 165.793 68.0053 165.625C67.9084 165.456 67.8599 165.254 67.8599 165.019C67.8599 164.6 68.0303 164.271 68.3712 164.03C68.712 163.786 69.1795 163.664 69.7736 163.664C70.3271 163.664 70.868 163.777 71.3965 164.002L71.1197 164.635C70.6038 164.422 70.1363 164.316 69.7173 164.316C69.3483 164.316 69.07 164.374 68.8824 164.489C68.6948 164.605 68.601 164.765 68.601 164.968C68.601 165.105 68.6354 165.223 68.7042 165.32C68.7761 165.417 68.8902 165.509 69.0466 165.596C69.2029 165.684 69.5031 165.811 69.9471 165.976C70.5569 166.198 70.9681 166.422 71.1807 166.647C71.3965 166.872 71.5043 167.155 71.5043 167.496ZM73.554 168.898H72.7754V163.758H73.554V168.898ZM72.7098 162.365C72.7098 162.186 72.7536 162.057 72.8411 161.975C72.9287 161.891 73.0381 161.849 73.1694 161.849C73.2945 161.849 73.4024 161.891 73.4931 161.975C73.5838 162.06 73.6291 162.19 73.6291 162.365C73.6291 162.54 73.5838 162.671 73.4931 162.759C73.4024 162.843 73.2945 162.885 73.1694 162.885C73.0381 162.885 72.9287 162.843 72.8411 162.759C72.7536 162.671 72.7098 162.54 72.7098 162.365ZM78.7229 168.898V165.573C78.7229 165.154 78.6275 164.841 78.4367 164.635C78.246 164.428 77.9474 164.325 77.5409 164.325C77.003 164.325 76.609 164.471 76.3589 164.762C76.1087 165.052 75.9837 165.532 75.9837 166.201V168.898H75.2051V163.758H75.8383L75.9649 164.461H76.0024C76.1619 164.208 76.3855 164.013 76.6732 163.875C76.9608 163.734 77.2813 163.664 77.6347 163.664C78.2538 163.664 78.7197 163.814 79.0324 164.114C79.3451 164.411 79.5015 164.888 79.5015 165.545V168.898H78.7229ZM83.2772 168.992C82.5174 168.992 81.917 168.761 81.4761 168.298C81.0383 167.835 80.8195 167.193 80.8195 166.37C80.8195 165.542 81.0227 164.883 81.4292 164.396C81.8388 163.908 82.3876 163.664 83.0755 163.664C83.7197 163.664 84.2294 163.877 84.6046 164.302C84.9798 164.724 85.1674 165.282 85.1674 165.976V166.469H81.6262C81.6418 167.072 81.7935 167.53 82.0812 167.843C82.372 168.156 82.78 168.312 83.3054 168.312C83.8588 168.312 84.406 168.196 84.947 167.965V168.659C84.6718 168.778 84.4107 168.862 84.1637 168.913C83.9198 168.966 83.6243 168.992 83.2772 168.992ZM83.0661 164.316C82.6534 164.316 82.3235 164.45 82.0765 164.719C81.8326 164.988 81.6887 165.36 81.645 165.836H84.3326C84.3326 165.345 84.2231 164.969 84.0042 164.71C83.7853 164.447 83.4726 164.316 83.0661 164.316ZM89.8156 167.496C89.8156 167.974 89.6374 168.343 89.2809 168.603C88.9244 168.862 88.4241 168.992 87.78 168.992C87.0983 168.992 86.5667 168.884 86.1853 168.669V167.946C86.4323 168.071 86.6965 168.17 86.9779 168.242C87.2625 168.314 87.5361 168.35 87.7987 168.35C88.2052 168.35 88.5179 168.286 88.7368 168.157C88.9557 168.026 89.0652 167.827 89.0652 167.562C89.0652 167.362 88.9776 167.191 88.8025 167.05C88.6305 166.907 88.2928 166.738 87.7894 166.544C87.3109 166.366 86.9701 166.211 86.7669 166.08C86.5667 165.945 86.4166 165.793 86.3166 165.625C86.2197 165.456 86.1712 165.254 86.1712 165.019C86.1712 164.6 86.3416 164.271 86.6824 164.03C87.0233 163.786 87.4907 163.664 88.0849 163.664C88.6383 163.664 89.1793 163.777 89.7077 164.002L89.431 164.635C88.9151 164.422 88.4476 164.316 88.0286 164.316C87.6596 164.316 87.3813 164.374 87.1937 164.489C87.0061 164.605 86.9123 164.765 86.9123 164.968C86.9123 165.105 86.9467 165.223 87.0155 165.32C87.0874 165.417 87.2015 165.509 87.3579 165.596C87.5142 165.684 87.8144 165.811 88.2584 165.976C88.8682 166.198 89.2793 166.422 89.492 166.647C89.7077 166.872 89.8156 167.155 89.8156 167.496ZM94.4028 167.496C94.4028 167.974 94.2246 168.343 93.8681 168.603C93.5116 168.862 93.0113 168.992 92.3672 168.992C91.6855 168.992 91.1539 168.884 90.7725 168.669V167.946C91.0195 168.071 91.2837 168.17 91.5651 168.242C91.8497 168.314 92.1233 168.35 92.3859 168.35C92.7924 168.35 93.1051 168.286 93.324 168.157C93.5429 168.026 93.6523 167.827 93.6523 167.562C93.6523 167.362 93.5648 167.191 93.3897 167.05C93.2177 166.907 92.88 166.738 92.3766 166.544C91.8981 166.366 91.5573 166.211 91.3541 166.08C91.1539 165.945 91.0038 165.793 90.9038 165.625C90.8068 165.456 90.7584 165.254 90.7584 165.019C90.7584 164.6 90.9288 164.271 91.2696 164.03C91.6105 163.786 92.0779 163.664 92.6721 163.664C93.2255 163.664 93.7665 163.777 94.2949 164.002L94.0182 164.635C93.5023 164.422 93.0348 164.316 92.6158 164.316C92.2468 164.316 91.9685 164.374 91.7809 164.489C91.5933 164.605 91.4995 164.765 91.4995 164.968C91.4995 165.105 91.5339 165.223 91.6027 165.32C91.6746 165.417 91.7887 165.509 91.945 165.596C92.1014 165.684 92.4016 165.811 92.8456 165.976C93.4554 166.198 93.8665 166.422 94.0792 166.647C94.2949 166.872 94.4028 167.155 94.4028 167.496Z" fill="white"/>
<path d="M60.5242 136.422C60.5242 137.116 60.2865 137.651 59.8112 138.026C59.339 138.398 58.6621 138.584 57.7803 138.584H56.9735V141.281H56.1762V134.424H57.9538C59.6674 134.424 60.5242 135.09 60.5242 136.422ZM56.9735 137.899H57.6912C58.3978 137.899 58.9091 137.785 59.2249 137.557C59.5407 137.329 59.6986 136.963 59.6986 136.46C59.6986 136.006 59.5501 135.668 59.2531 135.446C58.956 135.224 58.4932 135.113 57.8647 135.113H56.9735V137.899ZM64.0185 141.375C63.2586 141.375 62.6583 141.144 62.2174 140.681C61.7796 140.218 61.5607 139.576 61.5607 138.753C61.5607 137.924 61.764 137.266 62.1705 136.778C62.5801 136.291 63.1289 136.047 63.8168 136.047C64.461 136.047 64.9706 136.259 65.3459 136.685C65.7211 137.107 65.9087 137.665 65.9087 138.359V138.852H62.3675C62.3831 139.455 62.5348 139.913 62.8224 140.226C63.1132 140.539 63.5213 140.695 64.0466 140.695C64.6001 140.695 65.1473 140.579 65.6883 140.348V141.042C65.4131 141.161 65.152 141.245 64.905 141.295C64.6611 141.348 64.3656 141.375 64.0185 141.375ZM63.8074 136.699C63.3947 136.699 63.0648 136.833 62.8178 137.102C62.5739 137.371 62.43 137.743 62.3862 138.218H65.0738C65.0738 137.728 64.9644 137.352 64.7455 137.093C64.5266 136.83 64.2139 136.699 63.8074 136.699ZM69.586 136.047C69.8142 136.047 70.0191 136.066 70.2004 136.103L70.0925 136.825C69.8799 136.778 69.6923 136.755 69.5297 136.755C69.1138 136.755 68.7573 136.924 68.4603 137.262C68.1664 137.599 68.0194 138.02 68.0194 138.523V141.281H67.2408V136.141H67.8834L67.9725 137.093H68.01C68.2008 136.758 68.4306 136.5 68.6995 136.319C68.9684 136.137 69.2639 136.047 69.586 136.047ZM74.4781 139.879C74.4781 140.357 74.2998 140.726 73.9433 140.986C73.5869 141.245 73.0866 141.375 72.4424 141.375C71.7608 141.375 71.2292 141.267 70.8477 141.051V140.329C71.0947 140.454 71.3589 140.553 71.6404 140.625C71.9249 140.697 72.1985 140.732 72.4612 140.732C72.8677 140.732 73.1804 140.668 73.3993 140.54C73.6181 140.409 73.7276 140.21 73.7276 139.944C73.7276 139.744 73.64 139.574 73.4649 139.433C73.2929 139.289 72.9552 139.121 72.4518 138.927C71.9734 138.748 71.6326 138.594 71.4293 138.462C71.2292 138.328 71.0791 138.176 70.979 138.007C70.8821 137.839 70.8336 137.637 70.8336 137.402C70.8336 136.983 71.004 136.653 71.3449 136.413C71.6857 136.169 72.1532 136.047 72.7473 136.047C73.3008 136.047 73.8417 136.159 74.3702 136.384L74.0934 137.018C73.5775 136.805 73.11 136.699 72.691 136.699C72.322 136.699 72.0437 136.757 71.8561 136.872C71.6685 136.988 71.5747 137.147 71.5747 137.351C71.5747 137.488 71.6091 137.606 71.6779 137.702C71.7498 137.799 71.8639 137.892 72.0203 137.979C72.1766 138.067 72.4768 138.193 72.9208 138.359C73.5306 138.581 73.9418 138.805 74.1544 139.03C74.3702 139.255 74.4781 139.538 74.4781 139.879ZM80.1863 138.706C80.1863 139.544 79.9752 140.199 79.553 140.671C79.1309 141.141 78.5477 141.375 77.8035 141.375C77.3439 141.375 76.9358 141.267 76.5793 141.051C76.2229 140.836 75.9477 140.526 75.7538 140.123C75.56 139.719 75.463 139.247 75.463 138.706C75.463 137.868 75.6725 137.216 76.0915 136.75C76.5106 136.281 77.0922 136.047 77.8364 136.047C78.5556 136.047 79.1262 136.286 79.5484 136.764C79.9736 137.243 80.1863 137.89 80.1863 138.706ZM76.2698 138.706C76.2698 139.363 76.4011 139.863 76.6638 140.207C76.9264 140.551 77.3126 140.723 77.8223 140.723C78.332 140.723 78.7182 140.553 78.9808 140.212C79.2466 139.868 79.3795 139.366 79.3795 138.706C79.3795 138.053 79.2466 137.557 78.9808 137.219C78.7182 136.879 78.3289 136.708 77.8129 136.708C77.3032 136.708 76.9186 136.875 76.6591 137.21C76.3995 137.545 76.2698 138.043 76.2698 138.706ZM85.0736 141.281V137.956C85.0736 137.537 84.9783 137.224 84.7875 137.018C84.5968 136.811 84.2982 136.708 83.8917 136.708C83.3538 136.708 82.9598 136.854 82.7097 137.144C82.4595 137.435 82.3344 137.915 82.3344 138.584V141.281H81.5558V136.141H82.189L82.3157 136.844H82.3532C82.5127 136.591 82.7363 136.395 83.0239 136.258C83.3116 136.117 83.6321 136.047 83.9855 136.047C84.6046 136.047 85.0705 136.197 85.3832 136.497C85.6959 136.794 85.8522 137.271 85.8522 137.928V141.281H85.0736ZM90.6177 141.281L90.4629 140.55H90.4254C90.169 140.872 89.9125 141.091 89.6561 141.206C89.4029 141.319 89.0855 141.375 88.704 141.375C88.1943 141.375 87.7941 141.244 87.5033 140.981C87.2156 140.718 87.0717 140.345 87.0717 139.86C87.0717 138.822 87.9019 138.278 89.5623 138.228L90.4347 138.2V137.881C90.4347 137.477 90.3472 137.18 90.1721 136.99C90.0001 136.796 89.7234 136.699 89.3419 136.699C88.9135 136.699 88.4288 136.83 87.8879 137.093L87.6487 136.497C87.9019 136.359 88.1787 136.252 88.4789 136.173C88.7822 136.095 89.0855 136.056 89.3888 136.056C90.0017 136.056 90.4551 136.192 90.749 136.464C91.0461 136.736 91.1946 137.172 91.1946 137.773V141.281H90.6177ZM88.8588 140.732C89.3434 140.732 89.7234 140.6 89.9985 140.334C90.2768 140.068 90.416 139.696 90.416 139.217V138.753L89.6374 138.786C89.0182 138.808 88.5711 138.905 88.2959 139.077C88.0239 139.246 87.8879 139.51 87.8879 139.869C87.8879 140.151 87.9723 140.365 88.1411 140.512C88.3131 140.659 88.5523 140.732 88.8588 140.732ZM93.582 141.281H92.8034V133.983H93.582V141.281Z" fill="white"/>
<rect x="32.4199" y="72.0449" width="85.6527" height="24.3872" fill="white"/>
<path d="M51.5229 80.6437L48.6352 89.209H47.6808L45.1724 81.904L42.6518 89.209H41.7096L38.8219 80.6437H39.7518L42.2235 88.0098L44.7809 80.6437H45.6251L48.1458 88.0466L50.6542 80.6437H51.5229ZM58.1138 86.2601H52.7299C52.7789 86.929 53.0358 87.4715 53.5008 87.8875C53.9658 88.2954 54.5531 88.4993 55.2628 88.4993C55.6625 88.4993 56.0296 88.43 56.364 88.2913C56.6985 88.1444 56.9881 87.9324 57.2328 87.655L57.7223 88.2179C57.4367 88.5605 57.0778 88.8215 56.6455 89.001C56.2213 89.1804 55.7522 89.2702 55.2383 89.2702C54.5776 89.2702 53.9902 89.1315 53.4763 88.8541C52.9706 88.5686 52.5749 88.1771 52.2894 87.6795C52.0039 87.1819 51.8612 86.619 51.8612 85.9909C51.8612 85.3628 51.9958 84.7999 52.265 84.3023C52.5423 83.8047 52.9175 83.4172 53.3907 83.1399C53.872 82.8625 54.4103 82.7239 55.0058 82.7239C55.6013 82.7239 56.1356 82.8625 56.6088 83.1399C57.0819 83.4172 57.4531 83.8047 57.7223 84.3023C57.9914 84.7918 58.126 85.3546 58.126 85.9909L58.1138 86.2601ZM55.0058 83.4703C54.3859 83.4703 53.8638 83.6701 53.4396 84.0698C53.0236 84.4614 52.787 84.9753 52.7299 85.6116H57.294C57.2369 84.9753 56.9962 84.4614 56.5721 84.0698C56.156 83.6701 55.634 83.4703 55.0058 83.4703Z" fill="black"/>
<path d="M80.8725 89.2824C80.0241 89.2824 79.2573 89.0948 78.5721 88.7195C77.8951 88.3443 77.3607 87.8263 76.9692 87.1656C76.5858 86.4966 76.3941 85.7502 76.3941 84.9263C76.3941 84.1025 76.5858 83.3601 76.9692 82.6994C77.3607 82.0305 77.8991 81.5084 78.5844 81.1332C79.2696 80.7579 80.0364 80.5703 80.8847 80.5703C81.521 80.5703 82.1083 80.6763 82.6467 80.8884C83.1851 81.1005 83.6419 81.4105 84.0172 81.8184L83.4421 82.3935C82.7732 81.7164 81.9289 81.3779 80.9092 81.3779C80.2321 81.3779 79.6163 81.5329 79.0616 81.8429C78.5069 82.1528 78.0704 82.577 77.7523 83.1154C77.4423 83.6538 77.2873 84.2574 77.2873 84.9263C77.2873 85.5953 77.4423 86.1989 77.7523 86.7373C78.0704 87.2757 78.5069 87.6999 79.0616 88.0098C79.6163 88.3198 80.2321 88.4748 80.9092 88.4748C81.937 88.4748 82.7813 88.1322 83.4421 87.447L84.0172 88.0221C83.6419 88.43 83.181 88.744 82.6345 88.9643C82.0961 89.1764 81.5088 89.2824 80.8725 89.2824ZM85.7639 80.1298H86.6326V89.209H85.7639V80.1298ZM91.6807 89.2702C91.0607 89.2702 90.502 89.1315 90.0044 88.8541C89.5068 88.5686 89.1152 88.1771 88.8297 87.6795C88.5442 87.1819 88.4014 86.619 88.4014 85.9909C88.4014 85.3628 88.5442 84.7999 88.8297 84.3023C89.1152 83.8047 89.5068 83.4172 90.0044 83.1399C90.502 82.8625 91.0607 82.7239 91.6807 82.7239C92.3007 82.7239 92.8595 82.8625 93.3571 83.1399C93.8547 83.4172 94.2421 83.8047 94.5195 84.3023C94.805 84.7999 94.9477 85.3628 94.9477 85.9909C94.9477 86.619 94.805 87.1819 94.5195 87.6795C94.2421 88.1771 93.8547 88.5686 93.3571 88.8541C92.8595 89.1315 92.3007 89.2702 91.6807 89.2702ZM91.6807 88.4993C92.1375 88.4993 92.5454 88.3973 92.9043 88.1934C93.2714 87.9813 93.5569 87.6836 93.7608 87.3002C93.9648 86.9168 94.0667 86.4803 94.0667 85.9909C94.0667 85.5014 93.9648 85.065 93.7608 84.6816C93.5569 84.2982 93.2714 84.0046 92.9043 83.8006C92.5454 83.5885 92.1375 83.4825 91.6807 83.4825C91.2239 83.4825 90.8119 83.5885 90.4449 83.8006C90.0859 84.0046 89.8004 84.2982 89.5883 84.6816C89.3844 85.065 89.2824 85.5014 89.2824 85.9909C89.2824 86.4803 89.3844 86.9168 89.5883 87.3002C89.8004 87.6836 90.0859 87.9813 90.4449 88.1934C90.8119 88.3973 91.2239 88.4993 91.6807 88.4993ZM102.521 82.7728V89.209H101.689V88.0343C101.461 88.4259 101.147 88.7318 100.747 88.952C100.347 89.1641 99.8906 89.2702 99.3766 89.2702C98.5364 89.2702 97.8716 89.0377 97.3822 88.5727C96.9009 88.0996 96.6602 87.4103 96.6602 86.5048V82.7728H97.529V86.4192C97.529 87.0962 97.6962 87.6101 98.0307 87.9609C98.3651 88.3117 98.8423 88.4871 99.4623 88.4871C100.139 88.4871 100.674 88.2831 101.065 87.8752C101.457 87.4592 101.653 86.8841 101.653 86.15V82.7728H102.521ZM110.828 80.1298V89.209H109.996V87.9364C109.735 88.3688 109.388 88.6991 108.956 88.9276C108.532 89.156 108.05 89.2702 107.512 89.2702C106.908 89.2702 106.362 89.1315 105.872 88.8541C105.383 88.5768 104.999 88.1893 104.722 87.6917C104.445 87.1941 104.306 86.6272 104.306 85.9909C104.306 85.3546 104.445 84.7877 104.722 84.2901C104.999 83.7925 105.383 83.4091 105.872 83.1399C106.362 82.8625 106.908 82.7239 107.512 82.7239C108.034 82.7239 108.503 82.834 108.919 83.0542C109.343 83.2663 109.69 83.5804 109.959 83.9964V80.1298H110.828ZM107.585 88.4993C108.034 88.4993 108.438 88.3973 108.797 88.1934C109.164 87.9813 109.449 87.6836 109.653 87.3002C109.865 86.9168 109.971 86.4803 109.971 85.9909C109.971 85.5014 109.865 85.065 109.653 84.6816C109.449 84.2982 109.164 84.0046 108.797 83.8006C108.438 83.5885 108.034 83.4825 107.585 83.4825C107.128 83.4825 106.716 83.5885 106.349 83.8006C105.99 84.0046 105.705 84.2982 105.493 84.6816C105.289 85.065 105.187 85.5014 105.187 85.9909C105.187 86.4803 105.289 86.9168 105.493 87.3002C105.705 87.6836 105.99 87.9813 106.349 88.1934C106.716 88.3973 107.128 88.4993 107.585 88.4993Z" fill="black"/>
<path fill-rule="evenodd" clip-rule="evenodd" d="M73.0962 80.5998C74.7893 80.3401 75.9513 78.757 75.6915 77.0639C75.4317 75.3708 73.8486 74.2088 72.1555 74.4686C70.8861 74.6633 69.9153 75.602 69.6183 76.7731L69.5649 76.6977C69.3544 78.0338 68.7415 80.4872 67.9504 81.1587C67.5271 81.5181 66.5302 82.0435 65.5143 82.4715C64.8312 82.1299 64.0394 81.9891 63.227 82.1137C61.1396 82.4339 59.7071 84.3857 60.0273 86.4731C60.3475 88.5605 62.2993 89.9931 64.3867 89.6728C65.0658 89.5686 65.6755 89.2918 66.1781 88.8938C66.8495 88.9238 67.433 89.0323 67.7811 89.2735C68.6129 89.759 69.275 90.9822 69.7678 91.8927C69.8624 92.0675 69.9508 92.2308 70.0329 92.3751L70.0852 92.2649C70.6187 93.3155 71.7829 93.9546 73.0111 93.7662C74.5418 93.5313 75.5924 92.1 75.3575 90.5693C75.1227 89.0385 73.6914 87.988 72.1606 88.2228C72.1027 88.2317 72.0456 88.2423 71.9891 88.2545L72.0297 88.1689C70.8915 88.5011 68.7241 88.886 68.1635 88.5938C67.819 88.5315 67.4551 88.2342 67.1099 87.82C67.5364 87.0899 67.7246 86.2143 67.5864 85.3134C67.4992 84.7446 67.2908 84.2245 66.9915 83.7752C67.1157 83.049 67.4306 82.3345 68.4178 81.6686C70.1256 80.5167 71.0735 80.5943 71.969 80.6677C72.0744 80.6763 72.179 80.6849 72.2841 80.6914L72.4033 80.6284C72.63 80.6445 72.862 80.6358 73.0962 80.5998Z" fill="url(#paint0_linear)"/>
<circle cx="63.8204" cy="85.978" r="3.82378" transform="rotate(-8.72217 63.8204 85.978)" fill="#8883BB"/>
<circle cx="72.6332" cy="91.0303" r="2.93157" transform="rotate(-8.72217 72.6332 91.0303)" fill="#ED6A7C"/>
<circle cx="72.5893" cy="77.583" r="3.144" transform="rotate(-8.72217 72.5893 77.583)" fill="#9BDFF9"/>
</g>
<defs>
<linearGradient id="paint0_linear" x1="60.3453" y1="75.3778" x2="59.6972" y2="95.8087" gradientUnits="userSpaceOnUse">
<stop offset="0.209564" stop-color="#9BDFF9"/>
<stop offset="0.35677" stop-color="#8883BB"/>
<stop offset="0.618577" stop-color="#8883BB"/>
<stop offset="0.699704" stop-color="#ED6A7C"/>
</linearGradient>
<clipPath id="clip0">
<rect width="150.092" height="325" fill="white"/>
</clipPath>
</defs>
</svg>
