<svg width="254" height="447" viewBox="0 0 254 447" fill="none" xmlns="http://www.w3.org/2000/svg">
<mask id="mask0" mask-type="alpha" maskUnits="userSpaceOnUse" x="0" y="0" width="254" height="447">
<rect width="254" height="447" fill="#C4C4C4"/>
</mask>
<g mask="url(#mask0)">
<g clip-path="url(#clip0)">
<rect width="1440" height="1024" transform="translate(-2)" fill="white"/>
<rect x="-2" width="1440" height="1024" fill="#FFFDFD"/>
<rect x="-2" width="1440" height="38" fill="#D7D7D7"/>
<circle cx="23.5" cy="18.5" r="7.5" fill="#FF564F"/>
<circle cx="47.5" cy="18.5" r="7.5" fill="#FFB639"/>
<circle cx="71.5" cy="18.5" r="7.5" fill="#23C747"/>
<rect x="-2" y="38" width="116" height="986" fill="#424141"/>
<rect x="113" y="38" width="222" height="986" fill="#8883BB"/>
<path d="M56.8404 191.458C56.5804 191.203 56.1649 191.2 55.9019 191.452L42.0123 204.755V221.679C42.0123 223.168 43.2198 224.376 44.7093 224.376H51.0473V211.767C51.0473 210.278 52.2548 209.07 53.7443 209.07H58.6664C60.1559 209.07 61.3634 210.278 61.3634 211.767V224.376H67.7014C69.1909 224.376 70.3984 223.168 70.3984 221.679V204.755L56.8404 191.458Z" fill="white"/>
<path d="M35 204.755H42.0123M42.0123 204.755L55.9019 191.452C56.1649 191.2 56.5804 191.203 56.8404 191.458L70.3984 204.755M42.0123 204.755V221.679C42.0123 223.168 43.2198 224.376 44.7093 224.376H51.0473M70.3984 204.755V221.679C70.3984 223.168 69.1909 224.376 67.7014 224.376H61.3634M70.3984 204.755H77.3967M51.0473 224.376V211.767C51.0473 210.278 52.2548 209.07 53.7443 209.07H58.6664C60.1559 209.07 61.3634 210.278 61.3634 211.767V224.376M51.0473 224.376H60.9588H61.3634" stroke="white" stroke-width="2"/>
<path d="M40.1463 302.396L36.2818 277.797C36.1338 276.855 36.8621 276.004 37.8157 276.004H46.8697C47.3802 276.004 47.8526 276.261 48.2055 276.63C49.0699 277.533 50.5855 278.636 52.2084 278.737C55.1148 278.86 56.2798 276.012 56.1855 276.004C56.1007 275.996 62.2665 276.002 66.2467 276.003C66.9669 276.004 67.5913 276.499 67.7568 277.2L69.0765 282.79M40.1463 302.396L45.4767 283.913C45.6684 283.248 46.2768 282.79 46.9687 282.79H56.2027C56.859 282.79 57.4181 283.223 57.7841 283.768C58.6464 285.052 59.9498 285.361 60.5953 285.335C62.7911 285.335 64.1167 284.519 64.8173 283.736C65.263 283.238 65.8521 282.79 66.5205 282.79H69.0765M40.1463 302.396H70.8455C71.1927 302.396 71.4977 302.166 71.5924 301.832L76.4317 284.767C76.7128 283.775 75.9682 282.79 74.9379 282.79H69.0765" stroke="white" stroke-width="3"/>
<path d="M138.465 134V119.684H144.549C146.079 119.684 147.189 119.814 147.879 120.074C148.576 120.328 149.132 120.784 149.549 121.441C149.965 122.099 150.174 122.851 150.174 123.697C150.174 124.771 149.858 125.66 149.227 126.363C148.595 127.06 147.651 127.499 146.395 127.682C147.02 128.046 147.534 128.447 147.938 128.883C148.348 129.319 148.898 130.094 149.588 131.207L151.336 134H147.879L145.789 130.885C145.047 129.771 144.539 129.072 144.266 128.785C143.992 128.492 143.702 128.294 143.396 128.189C143.09 128.079 142.605 128.023 141.941 128.023H141.355V134H138.465ZM141.355 125.738H143.494C144.881 125.738 145.747 125.68 146.092 125.562C146.437 125.445 146.707 125.243 146.902 124.957C147.098 124.671 147.195 124.312 147.195 123.883C147.195 123.401 147.065 123.014 146.805 122.721C146.551 122.421 146.189 122.232 145.721 122.154C145.486 122.122 144.783 122.105 143.611 122.105H141.355V125.738ZM159.295 130.699L162.029 131.158C161.677 132.161 161.121 132.926 160.359 133.453C159.604 133.974 158.657 134.234 157.517 134.234C155.714 134.234 154.379 133.645 153.513 132.467C152.83 131.523 152.488 130.331 152.488 128.893C152.488 127.174 152.937 125.829 153.836 124.859C154.734 123.883 155.87 123.395 157.244 123.395C158.787 123.395 160.004 123.906 160.896 124.928C161.788 125.943 162.214 127.503 162.175 129.605H155.3C155.32 130.419 155.541 131.054 155.964 131.51C156.388 131.959 156.915 132.184 157.546 132.184C157.976 132.184 158.337 132.066 158.63 131.832C158.923 131.598 159.145 131.22 159.295 130.699ZM159.451 127.926C159.431 127.132 159.226 126.529 158.836 126.119C158.445 125.702 157.97 125.494 157.41 125.494C156.811 125.494 156.316 125.712 155.925 126.148C155.535 126.585 155.343 127.177 155.349 127.926H159.451ZM173.864 126.695L171.159 127.184C171.068 126.643 170.86 126.236 170.534 125.963C170.215 125.689 169.799 125.553 169.284 125.553C168.601 125.553 168.054 125.79 167.644 126.266C167.24 126.734 167.038 127.522 167.038 128.629C167.038 129.859 167.243 130.729 167.654 131.236C168.07 131.744 168.627 131.998 169.323 131.998C169.844 131.998 170.271 131.852 170.603 131.559C170.935 131.259 171.169 130.748 171.306 130.025L174.001 130.484C173.721 131.721 173.184 132.656 172.39 133.287C171.596 133.919 170.531 134.234 169.196 134.234C167.68 134.234 166.469 133.756 165.564 132.799C164.665 131.842 164.216 130.517 164.216 128.824C164.216 127.112 164.668 125.781 165.573 124.83C166.478 123.873 167.702 123.395 169.245 123.395C170.508 123.395 171.511 123.668 172.253 124.215C173.002 124.755 173.539 125.582 173.864 126.695ZM182.36 130.699L185.095 131.158C184.743 132.161 184.186 132.926 183.425 133.453C182.669 133.974 181.722 134.234 180.583 134.234C178.779 134.234 177.445 133.645 176.579 132.467C175.895 131.523 175.554 130.331 175.554 128.893C175.554 127.174 176.003 125.829 176.901 124.859C177.8 123.883 178.936 123.395 180.309 123.395C181.852 123.395 183.07 123.906 183.962 124.928C184.854 125.943 185.28 127.503 185.241 129.605H178.366C178.386 130.419 178.607 131.054 179.03 131.51C179.453 131.959 179.981 132.184 180.612 132.184C181.042 132.184 181.403 132.066 181.696 131.832C181.989 131.598 182.21 131.22 182.36 130.699ZM182.516 127.926C182.497 127.132 182.292 126.529 181.901 126.119C181.511 125.702 181.035 125.494 180.475 125.494C179.876 125.494 179.382 125.712 178.991 126.148C178.6 126.585 178.408 127.177 178.415 127.926H182.516ZM197.321 134H194.577V128.707C194.577 127.587 194.518 126.865 194.401 126.539C194.284 126.207 194.092 125.95 193.825 125.768C193.564 125.585 193.248 125.494 192.877 125.494C192.402 125.494 191.976 125.624 191.598 125.885C191.22 126.145 190.96 126.49 190.817 126.92C190.68 127.35 190.612 128.144 190.612 129.303V134H187.868V123.629H190.416V125.152C191.321 123.98 192.461 123.395 193.834 123.395C194.44 123.395 194.993 123.505 195.495 123.727C195.996 123.941 196.373 124.218 196.627 124.557C196.888 124.895 197.067 125.279 197.164 125.709C197.269 126.139 197.321 126.754 197.321 127.555V134ZM205.27 123.629V125.816H203.395V129.996C203.395 130.842 203.411 131.337 203.443 131.48C203.482 131.617 203.564 131.731 203.688 131.822C203.818 131.913 203.974 131.959 204.156 131.959C204.41 131.959 204.778 131.871 205.26 131.695L205.494 133.824C204.856 134.098 204.133 134.234 203.326 134.234C202.831 134.234 202.385 134.153 201.988 133.99C201.591 133.821 201.298 133.606 201.109 133.346C200.927 133.079 200.8 132.721 200.729 132.271C200.67 131.952 200.641 131.308 200.641 130.338V125.816H199.381V123.629H200.641V121.568L203.395 119.967V123.629H205.27ZM225.728 134H222.583L221.333 130.748H215.611L214.429 134H211.363L216.939 119.684H219.995L225.728 134ZM220.405 128.336L218.433 123.023L216.499 128.336H220.405ZM236.694 126.695L233.989 127.184C233.898 126.643 233.69 126.236 233.364 125.963C233.045 125.689 232.628 125.553 232.114 125.553C231.43 125.553 230.884 125.79 230.473 126.266C230.07 126.734 229.868 127.522 229.868 128.629C229.868 129.859 230.073 130.729 230.483 131.236C230.9 131.744 231.457 131.998 232.153 131.998C232.674 131.998 233.1 131.852 233.432 131.559C233.764 131.259 233.999 130.748 234.136 130.025L236.831 130.484C236.551 131.721 236.014 132.656 235.22 133.287C234.425 133.919 233.361 134.234 232.026 134.234C230.509 134.234 229.298 133.756 228.393 132.799C227.495 131.842 227.046 130.517 227.046 128.824C227.046 127.112 227.498 125.781 228.403 124.83C229.308 123.873 230.532 123.395 232.075 123.395C233.338 123.395 234.341 123.668 235.083 124.215C235.832 124.755 236.369 125.582 236.694 126.695ZM243.94 123.629V125.816H242.065V129.996C242.065 130.842 242.081 131.337 242.114 131.48C242.153 131.617 242.234 131.731 242.358 131.822C242.488 131.913 242.644 131.959 242.827 131.959C243.08 131.959 243.448 131.871 243.93 131.695L244.164 133.824C243.526 134.098 242.804 134.234 241.996 134.234C241.502 134.234 241.056 134.153 240.659 133.99C240.261 133.821 239.968 133.606 239.78 133.346C239.597 133.079 239.47 132.721 239.399 132.271C239.34 131.952 239.311 131.308 239.311 130.338V125.816H238.051V123.629H239.311V121.568L242.065 119.967V123.629H243.94ZM246.244 122.223V119.684H248.988V122.223H246.244ZM246.244 134V123.629H248.988V134H246.244ZM255.062 134L250.882 123.629H253.763L255.716 128.922L256.283 130.689C256.433 130.24 256.527 129.944 256.566 129.801C256.657 129.508 256.755 129.215 256.859 128.922L258.832 123.629H261.654L257.533 134H255.062ZM263.743 122.223V119.684H266.488V122.223H263.743ZM263.743 134V123.629H266.488V134H263.743ZM274.466 123.629V125.816H272.591V129.996C272.591 130.842 272.607 131.337 272.639 131.48C272.679 131.617 272.76 131.731 272.884 131.822C273.014 131.913 273.17 131.959 273.352 131.959C273.606 131.959 273.974 131.871 274.456 131.695L274.69 133.824C274.052 134.098 273.33 134.234 272.522 134.234C272.027 134.234 271.582 134.153 271.184 133.99C270.787 133.821 270.494 133.606 270.305 133.346C270.123 133.079 269.996 132.721 269.925 132.271C269.866 131.952 269.837 131.308 269.837 130.338V125.816H268.577V123.629H269.837V121.568L272.591 119.967V123.629H274.466ZM276.77 122.223V119.684H279.514V122.223H276.77ZM276.77 134V123.629H279.514V134H276.77ZM288.742 130.699L291.477 131.158C291.125 132.161 290.568 132.926 289.807 133.453C289.051 133.974 288.104 134.234 286.965 134.234C285.161 134.234 283.827 133.645 282.961 132.467C282.277 131.523 281.936 130.331 281.936 128.893C281.936 127.174 282.385 125.829 283.283 124.859C284.182 123.883 285.318 123.395 286.691 123.395C288.234 123.395 289.452 123.906 290.344 124.928C291.236 125.943 291.662 127.503 291.623 129.605H284.748C284.768 130.419 284.989 131.054 285.412 131.51C285.835 131.959 286.363 132.184 286.994 132.184C287.424 132.184 287.785 132.066 288.078 131.832C288.371 131.598 288.592 131.22 288.742 130.699ZM288.898 127.926C288.879 127.132 288.674 126.529 288.283 126.119C287.893 125.702 287.417 125.494 286.857 125.494C286.258 125.494 285.764 125.712 285.373 126.148C284.982 126.585 284.79 127.177 284.797 127.926H288.898ZM293.302 131.041L296.056 130.621C296.173 131.155 296.411 131.562 296.769 131.842C297.127 132.115 297.629 132.252 298.273 132.252C298.983 132.252 299.517 132.122 299.875 131.861C300.115 131.679 300.236 131.435 300.236 131.129C300.236 130.921 300.171 130.748 300.041 130.611C299.904 130.481 299.598 130.361 299.123 130.25C296.909 129.762 295.506 129.316 294.914 128.912C294.093 128.352 293.683 127.574 293.683 126.578C293.683 125.68 294.038 124.924 294.748 124.312C295.457 123.701 296.558 123.395 298.048 123.395C299.468 123.395 300.522 123.626 301.212 124.088C301.903 124.55 302.378 125.234 302.638 126.139L300.05 126.617C299.94 126.214 299.728 125.904 299.416 125.689C299.11 125.475 298.67 125.367 298.097 125.367C297.375 125.367 296.857 125.468 296.545 125.67C296.336 125.813 296.232 125.999 296.232 126.227C296.232 126.422 296.323 126.588 296.505 126.725C296.753 126.907 297.606 127.164 299.064 127.496C300.529 127.828 301.551 128.235 302.13 128.717C302.703 129.205 302.99 129.885 302.99 130.758C302.99 131.708 302.593 132.525 301.798 133.209C301.004 133.893 299.829 134.234 298.273 134.234C296.86 134.234 295.74 133.948 294.914 133.375C294.093 132.802 293.556 132.024 293.302 131.041Z" fill="white"/>
<path d="M137.723 209.342L140.535 209.068C140.704 210.012 141.046 210.706 141.561 211.148C142.081 211.591 142.781 211.812 143.66 211.812C144.591 211.812 145.291 211.617 145.76 211.227C146.235 210.829 146.473 210.367 146.473 209.84C146.473 209.501 146.372 209.215 146.17 208.98C145.975 208.74 145.63 208.531 145.135 208.355C144.796 208.238 144.025 208.03 142.82 207.73C141.271 207.346 140.184 206.874 139.559 206.314C138.68 205.527 138.24 204.566 138.24 203.434C138.24 202.704 138.445 202.024 138.855 201.393C139.272 200.755 139.868 200.27 140.643 199.938C141.424 199.605 142.365 199.439 143.465 199.439C145.262 199.439 146.613 199.833 147.518 200.621C148.429 201.409 148.908 202.46 148.953 203.775L146.062 203.902C145.939 203.167 145.672 202.639 145.262 202.32C144.858 201.995 144.249 201.832 143.436 201.832C142.596 201.832 141.938 202.005 141.463 202.35C141.157 202.571 141.004 202.867 141.004 203.238C141.004 203.577 141.147 203.867 141.434 204.107C141.798 204.413 142.684 204.732 144.09 205.064C145.496 205.396 146.535 205.742 147.205 206.1C147.882 206.451 148.41 206.936 148.787 207.555C149.171 208.167 149.363 208.925 149.363 209.83C149.363 210.65 149.135 211.419 148.68 212.135C148.224 212.851 147.579 213.385 146.746 213.736C145.913 214.081 144.874 214.254 143.631 214.254C141.821 214.254 140.431 213.837 139.461 213.004C138.491 212.164 137.911 210.943 137.723 209.342ZM156.931 203.629V205.816H155.056V209.996C155.056 210.842 155.073 211.337 155.105 211.48C155.144 211.617 155.226 211.731 155.349 211.822C155.479 211.913 155.636 211.959 155.818 211.959C156.072 211.959 156.44 211.871 156.921 211.695L157.156 213.824C156.518 214.098 155.795 214.234 154.988 214.234C154.493 214.234 154.047 214.153 153.65 213.99C153.253 213.821 152.96 213.606 152.771 213.346C152.589 213.079 152.462 212.721 152.39 212.271C152.332 211.952 152.302 211.308 152.302 210.338V205.816H151.043V203.629H152.302V201.568L155.056 199.967V203.629H156.931ZM161.286 206.793L158.796 206.344C159.076 205.341 159.558 204.599 160.241 204.117C160.925 203.635 161.941 203.395 163.288 203.395C164.512 203.395 165.424 203.541 166.023 203.834C166.622 204.12 167.042 204.488 167.282 204.938C167.53 205.38 167.654 206.197 167.654 207.389L167.624 210.592C167.624 211.503 167.667 212.177 167.751 212.613C167.842 213.043 168.008 213.505 168.249 214H165.534C165.463 213.818 165.375 213.548 165.271 213.189C165.225 213.027 165.193 212.919 165.173 212.867C164.704 213.323 164.203 213.665 163.669 213.893C163.135 214.12 162.566 214.234 161.96 214.234C160.892 214.234 160.049 213.945 159.431 213.365C158.819 212.786 158.513 212.053 158.513 211.168C158.513 210.582 158.653 210.061 158.933 209.605C159.213 209.143 159.603 208.792 160.105 208.551C160.612 208.303 161.342 208.089 162.292 207.906C163.575 207.665 164.463 207.441 164.958 207.232V206.959C164.958 206.432 164.828 206.057 164.568 205.836C164.307 205.608 163.816 205.494 163.093 205.494C162.605 205.494 162.224 205.592 161.95 205.787C161.677 205.976 161.456 206.311 161.286 206.793ZM164.958 209.02C164.607 209.137 164.05 209.277 163.288 209.439C162.527 209.602 162.029 209.762 161.794 209.918C161.436 210.172 161.257 210.494 161.257 210.885C161.257 211.269 161.4 211.601 161.687 211.881C161.973 212.161 162.338 212.301 162.78 212.301C163.275 212.301 163.747 212.138 164.196 211.812C164.529 211.565 164.747 211.262 164.851 210.904C164.922 210.67 164.958 210.224 164.958 209.566V209.02ZM173.395 214H170.651V203.629H173.2V205.104C173.636 204.407 174.027 203.948 174.372 203.727C174.723 203.505 175.121 203.395 175.563 203.395C176.188 203.395 176.79 203.567 177.37 203.912L176.52 206.305C176.058 206.005 175.628 205.855 175.231 205.855C174.847 205.855 174.522 205.963 174.255 206.178C173.988 206.386 173.776 206.767 173.62 207.32C173.47 207.874 173.395 209.033 173.395 210.797V214ZM181.588 214H178.844V203.629H181.393V205.104C181.829 204.407 182.22 203.948 182.565 203.727C182.916 203.505 183.314 203.395 183.756 203.395C184.381 203.395 184.983 203.567 185.563 203.912L184.713 206.305C184.251 206.005 183.821 205.855 183.424 205.855C183.04 205.855 182.715 205.963 182.448 206.178C182.181 206.386 181.969 206.767 181.813 207.32C181.663 207.874 181.588 209.033 181.588 210.797V214ZM193.16 210.699L195.895 211.158C195.543 212.161 194.986 212.926 194.225 213.453C193.469 213.974 192.522 214.234 191.383 214.234C189.579 214.234 188.245 213.645 187.379 212.467C186.695 211.523 186.354 210.331 186.354 208.893C186.354 207.174 186.803 205.829 187.701 204.859C188.6 203.883 189.736 203.395 191.109 203.395C192.652 203.395 193.87 203.906 194.762 204.928C195.654 205.943 196.08 207.503 196.041 209.605H189.166C189.186 210.419 189.407 211.054 189.83 211.51C190.253 211.959 190.781 212.184 191.412 212.184C191.842 212.184 192.203 212.066 192.496 211.832C192.789 211.598 193.01 211.22 193.16 210.699ZM193.316 207.926C193.297 207.132 193.092 206.529 192.701 206.119C192.311 205.702 191.835 205.494 191.275 205.494C190.676 205.494 190.182 205.712 189.791 206.148C189.4 206.585 189.208 207.177 189.215 207.926H193.316ZM208.199 214H205.65V212.477C205.227 213.069 204.726 213.512 204.146 213.805C203.573 214.091 202.994 214.234 202.408 214.234C201.216 214.234 200.194 213.756 199.341 212.799C198.495 211.835 198.072 210.494 198.072 208.775C198.072 207.018 198.485 205.683 199.312 204.771C200.139 203.854 201.184 203.395 202.447 203.395C203.606 203.395 204.608 203.876 205.455 204.84V199.684H208.199V214ZM200.875 208.59C200.875 209.697 201.028 210.497 201.334 210.992C201.776 211.708 202.395 212.066 203.189 212.066C203.821 212.066 204.358 211.799 204.8 211.266C205.243 210.725 205.464 209.921 205.464 208.854C205.464 207.662 205.25 206.806 204.82 206.285C204.39 205.758 203.84 205.494 203.17 205.494C202.518 205.494 201.972 205.755 201.529 206.275C201.093 206.79 200.875 207.561 200.875 208.59ZM217.319 214V199.684H227.134V202.105H220.21V205.494H226.186V207.916H220.21V214H217.319ZM229.907 202.223V199.684H232.651V202.223H229.907ZM229.907 214V203.629H232.651V214H229.907ZM235.873 214V199.684H238.617V214H235.873ZM247.845 210.699L250.58 211.158C250.228 212.161 249.671 212.926 248.91 213.453C248.155 213.974 247.207 214.234 246.068 214.234C244.265 214.234 242.93 213.645 242.064 212.467C241.38 211.523 241.039 210.331 241.039 208.893C241.039 207.174 241.488 205.829 242.386 204.859C243.285 203.883 244.421 203.395 245.795 203.395C247.338 203.395 248.555 203.906 249.447 204.928C250.339 205.943 250.765 207.503 250.726 209.605H243.851C243.871 210.419 244.092 211.054 244.515 211.51C244.938 211.959 245.466 212.184 246.097 212.184C246.527 212.184 246.888 212.066 247.181 211.832C247.474 211.598 247.696 211.22 247.845 210.699ZM248.002 207.926C247.982 207.132 247.777 206.529 247.386 206.119C246.996 205.702 246.52 205.494 245.961 205.494C245.362 205.494 244.867 205.712 244.476 206.148C244.086 206.585 243.893 207.177 243.9 207.926H248.002ZM252.405 211.041L255.159 210.621C255.277 211.155 255.514 211.562 255.872 211.842C256.23 212.115 256.732 212.252 257.376 212.252C258.086 212.252 258.62 212.122 258.978 211.861C259.219 211.679 259.339 211.435 259.339 211.129C259.339 210.921 259.274 210.748 259.144 210.611C259.007 210.481 258.701 210.361 258.226 210.25C256.012 209.762 254.609 209.316 254.017 208.912C253.196 208.352 252.786 207.574 252.786 206.578C252.786 205.68 253.141 204.924 253.851 204.312C254.56 203.701 255.661 203.395 257.152 203.395C258.571 203.395 259.626 203.626 260.316 204.088C261.006 204.55 261.481 205.234 261.741 206.139L259.154 206.617C259.043 206.214 258.831 205.904 258.519 205.689C258.213 205.475 257.773 205.367 257.2 205.367C256.478 205.367 255.96 205.468 255.648 205.67C255.439 205.813 255.335 205.999 255.335 206.227C255.335 206.422 255.426 206.588 255.609 206.725C255.856 206.907 256.709 207.164 258.167 207.496C259.632 207.828 260.654 208.235 261.234 208.717C261.807 209.205 262.093 209.885 262.093 210.758C262.093 211.708 261.696 212.525 260.902 213.209C260.107 213.893 258.932 214.234 257.376 214.234C255.963 214.234 254.844 213.948 254.017 213.375C253.196 212.802 252.659 212.024 252.405 211.041Z" fill="#212128"/>
<rect x="10" y="110" width="92" height="41" rx="20.5" fill="#FEEC00"/>
<line x1="32.8522" y1="120.536" x2="32.7201" y2="140.488" stroke="#5A5874" stroke-width="3.76504"/>
<line x1="22.5239" y1="130.003" x2="42.4763" y2="130.003" stroke="#5A5874" stroke-width="3.76504"/>
<ellipse cx="32.7078" cy="120.524" rx="1.73193" ry="1.5241" fill="#5A5874"/>
<ellipse cx="32.5693" cy="140.476" rx="1.73193" ry="1.5241" fill="#5A5874"/>
<ellipse cx="22.5241" cy="130.154" rx="1.73193" ry="1.5241" transform="rotate(-90 22.5241 130.154)" fill="#5A5874"/>
<ellipse cx="42.476" cy="130.154" rx="1.73193" ry="1.5241" transform="rotate(-90 42.476 130.154)" fill="#5A5874"/>
<path d="M52.3359 137V124.115H54.8672L60.1406 132.72V124.115H62.5576V137H59.9473L54.7529 128.598V137H52.3359ZM70.7051 134.029L73.166 134.442C72.8496 135.345 72.3486 136.033 71.6631 136.508C70.9834 136.977 70.1309 137.211 69.1055 137.211C67.4824 137.211 66.2812 136.681 65.502 135.62C64.8867 134.771 64.5791 133.698 64.5791 132.403C64.5791 130.856 64.9834 129.646 65.792 128.773C66.6006 127.895 67.623 127.455 68.8594 127.455C70.248 127.455 71.3438 127.915 72.1465 128.835C72.9492 129.749 73.333 131.152 73.2979 133.045H67.1104C67.1279 133.777 67.3271 134.349 67.708 134.759C68.0889 135.163 68.5635 135.365 69.1318 135.365C69.5186 135.365 69.8438 135.26 70.1074 135.049C70.3711 134.838 70.5703 134.498 70.7051 134.029ZM70.8457 131.533C70.8281 130.818 70.6436 130.276 70.292 129.907C69.9404 129.532 69.5127 129.345 69.0088 129.345C68.4697 129.345 68.0244 129.541 67.6729 129.934C67.3213 130.326 67.1484 130.859 67.1543 131.533H70.8457ZM77.0596 137L74.1064 127.666H76.5059L78.2549 133.783L79.8633 127.666H82.2451L83.8008 133.783L85.585 127.666H88.0195L85.0225 137H82.6494L81.041 130.997L79.459 137H77.0596Z" fill="#5A5874"/>
<path d="M61.3581 361.328C61.3581 364.564 58.7715 367.156 55.6194 367.156C52.4672 367.156 49.8806 364.564 49.8806 361.328C49.8806 358.092 52.4672 355.5 55.6194 355.5C58.7715 355.5 61.3581 358.092 61.3581 361.328Z" stroke="white" stroke-width="3"/>
<path d="M69.4195 383.457C59.5152 388.983 46.3051 386.136 41.5947 383.402C41.2413 383.197 41.0217 382.827 41.0065 382.419C40.7559 375.699 47.8332 371.154 49.9531 370.821C50.2106 370.78 50.4393 370.922 50.6386 371.09C51.5152 371.828 53.2718 372.767 55.4404 372.767C57.027 372.767 59.0017 372.023 60.1433 371.312C60.5752 371.044 61.1057 370.909 61.5747 371.106C64.3924 372.29 69.6705 375.866 70.0723 382.279C70.1026 382.764 69.8438 383.22 69.4195 383.457Z" stroke="white" stroke-width="3"/>
<rect x="-2" y="35" width="1440" height="51" fill="#ECEBEF"/>
<path d="M43.3753 69.5098L39.7622 55.8934H41.6106L43.6818 64.8193C43.9047 65.7543 44.0967 66.6831 44.2577 67.6057C44.6044 66.1506 44.8088 65.3115 44.8707 65.0886L47.4621 55.8934H49.6355L51.586 62.7852C52.0751 64.4942 52.4281 66.101 52.6448 67.6057C52.8182 66.745 53.0442 65.7574 53.3229 64.6428L55.4591 55.8934H57.2703L53.5365 69.5098H51.7996L48.9296 59.135C48.6881 58.2681 48.5457 57.7356 48.5023 57.5374C48.3599 58.1628 48.2268 58.6953 48.1029 59.135L45.2143 69.5098H43.3753ZM65.1466 66.3332L66.8742 66.5469C66.6017 67.5562 66.0971 68.3395 65.3602 68.8968C64.6234 69.454 63.6822 69.7327 62.5366 69.7327C61.0939 69.7327 59.9484 69.2899 59.1 68.4045C58.2579 67.5128 57.8369 66.2651 57.8369 64.6614C57.8369 63.0019 58.2641 61.714 59.1186 60.7975C59.9731 59.8811 61.0815 59.4229 62.4438 59.4229C63.7627 59.4229 64.8401 59.8718 65.676 60.7697C66.5119 61.6675 66.9299 62.9307 66.9299 64.5592C66.9299 64.6583 66.9268 64.8069 66.9206 65.005H59.5644C59.6264 66.0887 59.9329 66.9184 60.484 67.4942C61.0351 68.0701 61.7224 68.358 62.5459 68.358C63.1589 68.358 63.6822 68.197 64.1156 67.8751C64.5491 67.5531 64.8927 67.0391 65.1466 66.3332ZM59.6573 63.6304H65.1652C65.0909 62.8007 64.8803 62.1784 64.5336 61.7635C64.0011 61.1195 63.3106 60.7975 62.4623 60.7975C61.6945 60.7975 61.0474 61.0545 60.5211 61.5684C60.001 62.0824 59.7131 62.7697 59.6573 63.6304Z" fill="black"/>
<path d="M106.722 64.7357L108.524 65.1908C108.146 66.6707 107.465 67.8008 106.48 68.581C105.502 69.355 104.304 69.742 102.886 69.742C101.418 69.742 100.223 69.4447 99.3007 68.8503C98.3843 68.2497 97.6846 67.3828 97.2016 66.2496C96.7248 65.1165 96.4864 63.8998 96.4864 62.5994C96.4864 61.1814 96.7558 59.9461 97.2945 58.8935C97.8394 57.8346 98.6103 57.0328 99.6072 56.4879C100.61 55.9368 101.713 55.6612 102.914 55.6612C104.276 55.6612 105.422 56.008 106.35 56.7015C107.279 57.395 107.926 58.3702 108.292 59.6272L106.518 60.0452C106.202 59.0545 105.744 58.3331 105.143 57.8811C104.542 57.4291 103.787 57.203 102.877 57.203C101.83 57.203 100.954 57.4538 100.248 57.9554C99.5484 58.4569 99.0562 59.1319 98.7713 59.9802C98.4865 60.8223 98.3441 61.6923 98.3441 62.5901C98.3441 63.7481 98.5113 64.7605 98.8456 65.6273C99.1862 66.488 99.7125 67.132 100.425 67.5593C101.137 67.9865 101.908 68.2001 102.737 68.2001C103.747 68.2001 104.601 67.9091 105.301 67.3271C106.001 66.745 106.474 65.8812 106.722 64.7357ZM117.004 69.5098V68.0608C116.236 69.1754 115.193 69.7327 113.874 69.7327C113.292 69.7327 112.747 69.6212 112.239 69.3983C111.738 69.1754 111.363 68.8968 111.115 68.5624C110.874 68.2218 110.703 67.8069 110.604 67.3178C110.536 66.9896 110.502 66.4695 110.502 65.7574V59.6458H112.174V65.1165C112.174 65.9896 112.208 66.5778 112.276 66.8812C112.381 67.3209 112.604 67.6676 112.945 67.9215C113.286 68.1692 113.707 68.293 114.208 68.293C114.71 68.293 115.18 68.1661 115.62 67.9122C116.06 67.6521 116.369 67.3023 116.549 66.8627C116.734 66.4168 116.827 65.7729 116.827 64.9307V59.6458H118.499V69.5098H117.004ZM122.67 69.5098H121.118V55.8934H122.79V60.7511C123.496 59.8656 124.397 59.4229 125.493 59.4229C126.1 59.4229 126.673 59.5467 127.211 59.7944C127.756 60.0359 128.202 60.3796 128.549 60.8254C128.902 61.265 129.177 61.7976 129.376 62.4229C129.574 63.0483 129.673 63.7171 129.673 64.4292C129.673 66.1196 129.255 67.4261 128.419 68.3488C127.583 69.2714 126.58 69.7327 125.41 69.7327C124.245 69.7327 123.332 69.2466 122.67 68.2744V69.5098ZM122.651 64.5035C122.651 65.6862 122.812 66.5407 123.134 67.067C123.66 67.9277 124.372 68.358 125.27 68.358C126.001 68.358 126.633 68.0422 127.165 67.4107C127.698 66.7729 127.964 65.8255 127.964 64.5685C127.964 63.2805 127.707 62.3301 127.193 61.7171C126.685 61.104 126.069 60.7975 125.345 60.7975C124.614 60.7975 123.982 61.1164 123.45 61.7542C122.917 62.3858 122.651 63.3022 122.651 64.5035ZM138.469 66.3332L140.196 66.5469C139.924 67.5562 139.419 68.3395 138.682 68.8968C137.945 69.454 137.004 69.7327 135.859 69.7327C134.416 69.7327 133.27 69.2899 132.422 68.4045C131.58 67.5128 131.159 66.2651 131.159 64.6614C131.159 63.0019 131.586 61.714 132.441 60.7975C133.295 59.8811 134.404 59.4229 135.766 59.4229C137.085 59.4229 138.162 59.8718 138.998 60.7697C139.834 61.6675 140.252 62.9307 140.252 64.5592C140.252 64.6583 140.249 64.8069 140.243 65.005H132.886C132.948 66.0887 133.255 66.9184 133.806 67.4942C134.357 68.0701 135.044 68.358 135.868 68.358C136.481 68.358 137.004 68.197 137.438 67.8751C137.871 67.5531 138.215 67.0391 138.469 66.3332ZM132.979 63.6304H138.487C138.413 62.8007 138.202 62.1784 137.856 61.7635C137.323 61.1195 136.633 60.7975 135.784 60.7975C135.017 60.7975 134.369 61.0545 133.843 61.5684C133.323 62.0824 133.035 62.7697 132.979 63.6304Z" fill="black"/>
<path fill-rule="evenodd" clip-rule="evenodd" d="M92.0388 56.398C94.7017 56.398 96.8603 54.2393 96.8603 51.5764C96.8603 48.9136 94.7017 46.7549 92.0388 46.7549C89.4676 46.7549 87.3665 48.7674 87.2249 51.3031C86.4168 53.2825 85.2095 55.6313 84.1783 56.2659C83.45 56.714 81.7714 57.2216 80.0795 57.582C79.0868 56.8377 77.8534 56.3968 76.5171 56.3968C73.2341 56.3968 70.5728 59.0581 70.5728 62.3411C70.5728 65.6241 73.2341 68.2855 76.5171 68.2855C77.5972 68.2855 78.61 67.9975 79.4829 67.494C80.6071 67.7005 81.568 68.0126 82.0655 68.4838C83.0424 69.2747 83.8664 71.1578 84.4683 72.7252C84.7049 74.9095 86.5548 76.6097 88.802 76.6097C91.2095 76.6097 93.1612 74.658 93.1612 72.2505C93.1612 69.843 91.2095 67.8913 88.802 67.8913C88.2706 67.8913 87.7614 67.9864 87.2905 68.1605C85.3386 68.2244 82.9717 68.1137 82.3957 67.6912C81.8855 67.5159 81.4165 66.9652 81.0092 66.2344C81.914 65.1915 82.4615 63.8302 82.4615 62.3411C82.4615 61.3876 82.237 60.4866 81.838 59.6879C82.166 58.5658 82.7876 57.5097 84.4425 56.7282C86.9658 55.5367 88.7664 55.7213 90.1573 56.0171C90.7354 56.2623 91.3713 56.398 92.0388 56.398Z" fill="url(#paint0_linear)"/>
<circle cx="76.5171" cy="62.4751" r="5.94438" fill="#8883BB"/>
<circle cx="88.8684" cy="72.3166" r="4.55736" fill="#ED6A7C"/>
<circle cx="91.9728" cy="51.6425" r="4.8876" fill="#FEF79C"/>
</g>
</g>
<defs>
<linearGradient id="paint0_linear" x1="73.6771" y1="45.3678" x2="67.8645" y2="76.6097" gradientUnits="userSpaceOnUse">
<stop offset="0.209564" stop-color="#FEF79C"/>
<stop offset="0.35677" stop-color="#8883BB"/>
<stop offset="0.618577" stop-color="#8883BB"/>
<stop offset="0.699704" stop-color="#ED6A7C"/>
</linearGradient>
<clipPath id="clip0">
<rect width="1440" height="1024" fill="white" transform="translate(-2)"/>
</clipPath>
</defs>
</svg>
