<svg width="271" height="377" viewBox="0 0 271 377" fill="none" xmlns="http://www.w3.org/2000/svg">
<g clip-path="url(#clip0_306_1231)">
<rect width="271" height="377" fill="white"/>
<rect width="1440" height="1024" fill="white"/>
<rect x="30" y="54" width="189" height="48" rx="10" fill="#ED6A7C"/>
<path d="M60 75L69 68L78 75V86C78 86.5304 77.7893 87.0391 77.4142 87.4142C77.0391 87.7893 76.5304 88 76 88H62C61.4696 88 60.9609 87.7893 60.5858 87.4142C60.2107 87.0391 60 86.5304 60 86V75Z" stroke="white" stroke-width="2" stroke-linecap="round" stroke-linejoin="round"/>
<path d="M66 88V78H72V88" stroke="white" stroke-width="2" stroke-linecap="round" stroke-linejoin="round"/>
<path d="M101.068 82.624V74.524H103.084C103.78 74.524 104.362 74.626 104.83 74.83C105.31 75.022 105.694 75.304 105.982 75.676C106.27 76.048 106.474 76.498 106.594 77.026C106.726 77.542 106.792 78.124 106.792 78.772C106.792 79.48 106.702 80.08 106.522 80.572C106.342 81.064 106.102 81.466 105.802 81.778C105.502 82.078 105.16 82.294 104.776 82.426C104.392 82.558 103.996 82.624 103.588 82.624H101.068ZM98.242 72.148V85H103.786C104.77 85 105.622 84.838 106.342 84.514C107.074 84.178 107.68 83.722 108.16 83.146C108.652 82.57 109.018 81.886 109.258 81.094C109.498 80.302 109.618 79.438 109.618 78.502C109.618 77.434 109.468 76.504 109.168 75.712C108.88 74.92 108.472 74.26 107.944 73.732C107.428 73.204 106.81 72.808 106.09 72.544C105.382 72.28 104.614 72.148 103.786 72.148H98.242ZM111.206 78.556C111.242 77.956 111.392 77.458 111.656 77.062C111.92 76.666 112.256 76.348 112.664 76.108C113.072 75.868 113.528 75.7 114.032 75.604C114.548 75.496 115.064 75.442 115.58 75.442C116.048 75.442 116.522 75.478 117.002 75.55C117.482 75.61 117.92 75.736 118.316 75.928C118.712 76.12 119.036 76.39 119.288 76.738C119.54 77.074 119.666 77.524 119.666 78.088V82.93C119.666 83.35 119.69 83.752 119.738 84.136C119.786 84.52 119.87 84.808 119.99 85H117.398C117.35 84.856 117.308 84.712 117.272 84.568C117.248 84.412 117.23 84.256 117.218 84.1C116.81 84.52 116.33 84.814 115.778 84.982C115.226 85.15 114.662 85.234 114.086 85.234C113.642 85.234 113.228 85.18 112.844 85.072C112.46 84.964 112.124 84.796 111.836 84.568C111.548 84.34 111.32 84.052 111.152 83.704C110.996 83.356 110.918 82.942 110.918 82.462C110.918 81.934 111.008 81.502 111.188 81.166C111.38 80.818 111.62 80.542 111.908 80.338C112.208 80.134 112.544 79.984 112.916 79.888C113.3 79.78 113.684 79.696 114.068 79.636C114.452 79.576 114.83 79.528 115.202 79.492C115.574 79.456 115.904 79.402 116.192 79.33C116.48 79.258 116.708 79.156 116.876 79.024C117.044 78.88 117.122 78.676 117.11 78.412C117.11 78.136 117.062 77.92 116.966 77.764C116.882 77.596 116.762 77.47 116.606 77.386C116.462 77.29 116.288 77.23 116.084 77.206C115.892 77.17 115.682 77.152 115.454 77.152C114.95 77.152 114.554 77.26 114.266 77.476C113.978 77.692 113.81 78.052 113.762 78.556H111.206ZM117.11 80.446C117.002 80.542 116.864 80.62 116.696 80.68C116.54 80.728 116.366 80.77 116.174 80.806C115.994 80.842 115.802 80.872 115.598 80.896C115.394 80.92 115.19 80.95 114.986 80.986C114.794 81.022 114.602 81.07 114.41 81.13C114.23 81.19 114.068 81.274 113.924 81.382C113.792 81.478 113.684 81.604 113.6 81.76C113.516 81.916 113.474 82.114 113.474 82.354C113.474 82.582 113.516 82.774 113.6 82.93C113.684 83.086 113.798 83.212 113.942 83.308C114.086 83.392 114.254 83.452 114.446 83.488C114.638 83.524 114.836 83.542 115.04 83.542C115.544 83.542 115.934 83.458 116.21 83.29C116.486 83.122 116.69 82.924 116.822 82.696C116.954 82.456 117.032 82.216 117.056 81.976C117.092 81.736 117.11 81.544 117.11 81.4V80.446ZM123.63 81.976H121.2C121.224 82.6 121.362 83.122 121.614 83.542C121.878 83.95 122.208 84.28 122.604 84.532C123.012 84.784 123.474 84.964 123.99 85.072C124.506 85.18 125.034 85.234 125.574 85.234C126.102 85.234 126.618 85.18 127.122 85.072C127.638 84.976 128.094 84.802 128.49 84.55C128.886 84.298 129.204 83.968 129.444 83.56C129.696 83.14 129.822 82.624 129.822 82.012C129.822 81.58 129.738 81.22 129.57 80.932C129.402 80.632 129.18 80.386 128.904 80.194C128.628 79.99 128.31 79.828 127.95 79.708C127.602 79.588 127.242 79.486 126.87 79.402C126.51 79.318 126.156 79.24 125.808 79.168C125.46 79.096 125.148 79.018 124.872 78.934C124.608 78.838 124.392 78.718 124.224 78.574C124.056 78.43 123.972 78.244 123.972 78.016C123.972 77.824 124.02 77.674 124.116 77.566C124.212 77.446 124.326 77.356 124.458 77.296C124.602 77.236 124.758 77.2 124.926 77.188C125.094 77.164 125.25 77.152 125.394 77.152C125.85 77.152 126.246 77.242 126.582 77.422C126.918 77.59 127.104 77.92 127.14 78.412H129.57C129.522 77.836 129.372 77.362 129.12 76.99C128.88 76.606 128.574 76.3 128.202 76.072C127.83 75.844 127.404 75.682 126.924 75.586C126.456 75.49 125.97 75.442 125.466 75.442C124.962 75.442 124.47 75.49 123.99 75.586C123.51 75.67 123.078 75.826 122.694 76.054C122.31 76.27 121.998 76.57 121.758 76.954C121.53 77.338 121.416 77.83 121.416 78.43C121.416 78.838 121.5 79.186 121.668 79.474C121.836 79.75 122.058 79.984 122.334 80.176C122.61 80.356 122.922 80.506 123.27 80.626C123.63 80.734 123.996 80.83 124.368 80.914C125.28 81.106 125.988 81.298 126.492 81.49C127.008 81.682 127.266 81.97 127.266 82.354C127.266 82.582 127.212 82.774 127.104 82.93C126.996 83.074 126.858 83.194 126.69 83.29C126.534 83.374 126.354 83.44 126.15 83.488C125.958 83.524 125.772 83.542 125.592 83.542C125.34 83.542 125.094 83.512 124.854 83.452C124.626 83.392 124.422 83.302 124.242 83.182C124.062 83.05 123.912 82.888 123.792 82.696C123.684 82.492 123.63 82.252 123.63 81.976ZM131.318 72.148V85H133.874V80.122C133.874 79.174 134.03 78.496 134.342 78.088C134.654 77.668 135.158 77.458 135.854 77.458C136.466 77.458 136.892 77.65 137.132 78.034C137.372 78.406 137.492 78.976 137.492 79.744V85H140.048V79.276C140.048 78.7 139.994 78.178 139.886 77.71C139.79 77.23 139.616 76.828 139.364 76.504C139.112 76.168 138.764 75.91 138.32 75.73C137.888 75.538 137.33 75.442 136.646 75.442C136.166 75.442 135.674 75.568 135.17 75.82C134.666 76.06 134.252 76.45 133.928 76.99H133.874V72.148H131.318ZM148.81 80.356C148.81 80.74 148.768 81.112 148.684 81.472C148.6 81.832 148.468 82.15 148.288 82.426C148.108 82.702 147.88 82.924 147.604 83.092C147.34 83.248 147.016 83.326 146.632 83.326C146.26 83.326 145.936 83.248 145.66 83.092C145.384 82.924 145.156 82.702 144.976 82.426C144.796 82.15 144.664 81.832 144.58 81.472C144.496 81.112 144.454 80.74 144.454 80.356C144.454 79.96 144.496 79.582 144.58 79.222C144.664 78.862 144.796 78.544 144.976 78.268C145.156 77.992 145.384 77.776 145.66 77.62C145.936 77.452 146.26 77.368 146.632 77.368C147.016 77.368 147.34 77.452 147.604 77.62C147.88 77.776 148.108 77.992 148.288 78.268C148.468 78.544 148.6 78.862 148.684 79.222C148.768 79.582 148.81 79.96 148.81 80.356ZM141.988 72.148V85H144.418V83.812H144.454C144.73 84.328 145.138 84.694 145.678 84.91C146.218 85.126 146.83 85.234 147.514 85.234C147.982 85.234 148.444 85.138 148.9 84.946C149.356 84.754 149.764 84.46 150.124 84.064C150.496 83.668 150.796 83.164 151.024 82.552C151.252 81.928 151.366 81.19 151.366 80.338C151.366 79.486 151.252 78.754 151.024 78.142C150.796 77.518 150.496 77.008 150.124 76.612C149.764 76.216 149.356 75.922 148.9 75.73C148.444 75.538 147.982 75.442 147.514 75.442C146.938 75.442 146.38 75.556 145.84 75.784C145.312 76 144.892 76.348 144.58 76.828H144.544V72.148H141.988ZM155.26 80.356C155.26 79.984 155.296 79.618 155.368 79.258C155.44 78.898 155.56 78.58 155.728 78.304C155.908 78.028 156.142 77.806 156.43 77.638C156.718 77.458 157.078 77.368 157.51 77.368C157.942 77.368 158.302 77.458 158.59 77.638C158.89 77.806 159.124 78.028 159.292 78.304C159.472 78.58 159.598 78.898 159.67 79.258C159.742 79.618 159.778 79.984 159.778 80.356C159.778 80.728 159.742 81.094 159.67 81.454C159.598 81.802 159.472 82.12 159.292 82.408C159.124 82.684 158.89 82.906 158.59 83.074C158.302 83.242 157.942 83.326 157.51 83.326C157.078 83.326 156.718 83.242 156.43 83.074C156.142 82.906 155.908 82.684 155.728 82.408C155.56 82.12 155.44 81.802 155.368 81.454C155.296 81.094 155.26 80.728 155.26 80.356ZM152.704 80.356C152.704 81.1 152.818 81.772 153.046 82.372C153.274 82.972 153.598 83.488 154.018 83.92C154.438 84.34 154.942 84.664 155.53 84.892C156.118 85.12 156.778 85.234 157.51 85.234C158.242 85.234 158.902 85.12 159.49 84.892C160.09 84.664 160.6 84.34 161.02 83.92C161.44 83.488 161.764 82.972 161.992 82.372C162.22 81.772 162.334 81.1 162.334 80.356C162.334 79.612 162.22 78.94 161.992 78.34C161.764 77.728 161.44 77.212 161.02 76.792C160.6 76.36 160.09 76.03 159.49 75.802C158.902 75.562 158.242 75.442 157.51 75.442C156.778 75.442 156.118 75.562 155.53 75.802C154.942 76.03 154.438 76.36 154.018 76.792C153.598 77.212 153.274 77.728 153.046 78.34C152.818 78.94 152.704 79.612 152.704 80.356ZM163.887 78.556C163.923 77.956 164.073 77.458 164.337 77.062C164.601 76.666 164.937 76.348 165.345 76.108C165.753 75.868 166.209 75.7 166.713 75.604C167.229 75.496 167.745 75.442 168.261 75.442C168.729 75.442 169.203 75.478 169.683 75.55C170.163 75.61 170.601 75.736 170.997 75.928C171.393 76.12 171.717 76.39 171.969 76.738C172.221 77.074 172.347 77.524 172.347 78.088V82.93C172.347 83.35 172.371 83.752 172.419 84.136C172.467 84.52 172.551 84.808 172.671 85H170.079C170.031 84.856 169.989 84.712 169.953 84.568C169.929 84.412 169.911 84.256 169.899 84.1C169.491 84.52 169.011 84.814 168.459 84.982C167.907 85.15 167.343 85.234 166.767 85.234C166.323 85.234 165.909 85.18 165.525 85.072C165.141 84.964 164.805 84.796 164.517 84.568C164.229 84.34 164.001 84.052 163.833 83.704C163.677 83.356 163.599 82.942 163.599 82.462C163.599 81.934 163.689 81.502 163.869 81.166C164.061 80.818 164.301 80.542 164.589 80.338C164.889 80.134 165.225 79.984 165.597 79.888C165.981 79.78 166.365 79.696 166.749 79.636C167.133 79.576 167.511 79.528 167.883 79.492C168.255 79.456 168.585 79.402 168.873 79.33C169.161 79.258 169.389 79.156 169.557 79.024C169.725 78.88 169.803 78.676 169.791 78.412C169.791 78.136 169.743 77.92 169.647 77.764C169.563 77.596 169.443 77.47 169.287 77.386C169.143 77.29 168.969 77.23 168.765 77.206C168.573 77.17 168.363 77.152 168.135 77.152C167.631 77.152 167.235 77.26 166.947 77.476C166.659 77.692 166.491 78.052 166.443 78.556H163.887ZM169.791 80.446C169.683 80.542 169.545 80.62 169.377 80.68C169.221 80.728 169.047 80.77 168.855 80.806C168.675 80.842 168.483 80.872 168.279 80.896C168.075 80.92 167.871 80.95 167.667 80.986C167.475 81.022 167.283 81.07 167.091 81.13C166.911 81.19 166.749 81.274 166.605 81.382C166.473 81.478 166.365 81.604 166.281 81.76C166.197 81.916 166.155 82.114 166.155 82.354C166.155 82.582 166.197 82.774 166.281 82.93C166.365 83.086 166.479 83.212 166.623 83.308C166.767 83.392 166.935 83.452 167.127 83.488C167.319 83.524 167.517 83.542 167.721 83.542C168.225 83.542 168.615 83.458 168.891 83.29C169.167 83.122 169.371 82.924 169.503 82.696C169.635 82.456 169.713 82.216 169.737 81.976C169.773 81.736 169.791 81.544 169.791 81.4V80.446ZM174.331 75.694V85H176.887V80.806C176.887 80.386 176.929 79.996 177.013 79.636C177.097 79.276 177.235 78.964 177.427 78.7C177.631 78.424 177.895 78.208 178.219 78.052C178.543 77.896 178.939 77.818 179.407 77.818C179.563 77.818 179.725 77.83 179.893 77.854C180.061 77.866 180.205 77.884 180.325 77.908V75.532C180.121 75.472 179.935 75.442 179.767 75.442C179.443 75.442 179.131 75.49 178.831 75.586C178.531 75.682 178.249 75.82 177.985 76C177.721 76.168 177.487 76.378 177.283 76.63C177.079 76.87 176.917 77.134 176.797 77.422H176.761V75.694H174.331ZM187.617 80.32C187.617 80.704 187.581 81.076 187.509 81.436C187.437 81.796 187.317 82.12 187.149 82.408C186.981 82.684 186.753 82.906 186.465 83.074C186.189 83.242 185.841 83.326 185.421 83.326C185.025 83.326 184.683 83.242 184.395 83.074C184.119 82.894 183.885 82.666 183.693 82.39C183.513 82.102 183.381 81.778 183.297 81.418C183.213 81.058 183.171 80.698 183.171 80.338C183.171 79.954 183.207 79.588 183.279 79.24C183.363 78.88 183.489 78.562 183.657 78.286C183.837 78.01 184.071 77.788 184.359 77.62C184.647 77.452 185.001 77.368 185.421 77.368C185.841 77.368 186.189 77.452 186.465 77.62C186.741 77.788 186.963 78.01 187.131 78.286C187.311 78.55 187.437 78.862 187.509 79.222C187.581 79.57 187.617 79.936 187.617 80.32ZM187.653 83.812V85H190.083V72.148H187.527V76.828H187.491C187.203 76.372 186.807 76.03 186.303 75.802C185.811 75.562 185.289 75.442 184.737 75.442C184.053 75.442 183.453 75.58 182.937 75.856C182.421 76.12 181.989 76.474 181.641 76.918C181.305 77.362 181.047 77.878 180.867 78.466C180.699 79.042 180.615 79.642 180.615 80.266C180.615 80.914 180.699 81.538 180.867 82.138C181.047 82.738 181.305 83.272 181.641 83.74C181.989 84.196 182.427 84.562 182.955 84.838C183.483 85.102 184.095 85.234 184.791 85.234C185.403 85.234 185.949 85.126 186.429 84.91C186.921 84.682 187.317 84.316 187.617 83.812H187.653Z" fill="white"/>
<rect x="30" y="132" width="189" height="48" rx="10" fill="white"/>
<path d="M79 163C79 163.53 78.7893 164.039 78.4142 164.414C78.0391 164.789 77.5304 165 77 165H61C60.4696 165 59.9609 164.789 59.5858 164.414C59.2107 164.039 59 163.53 59 163V149C59 148.47 59.2107 147.961 59.5858 147.586C59.9609 147.211 60.4696 147 61 147H66L68 150H77C77.5304 150 78.0391 150.211 78.4142 150.586C78.7893 150.961 79 151.47 79 152V163Z" stroke="#191B21" stroke-width="2" stroke-linecap="round" stroke-linejoin="round"/>
<path d="M98.242 150.148V163H101.068V157.69H106.45V155.494H101.068V152.524H107.278V150.148H98.242ZM111.27 152.254V150.148H108.714V152.254H111.27ZM108.714 153.694V163H111.27V153.694H108.714ZM113.355 150.148V163H115.911V150.148H113.355ZM124.187 157.348H120.029C120.041 157.168 120.077 156.964 120.137 156.736C120.209 156.508 120.323 156.292 120.479 156.088C120.647 155.884 120.863 155.716 121.127 155.584C121.403 155.44 121.745 155.368 122.153 155.368C122.777 155.368 123.239 155.536 123.539 155.872C123.851 156.208 124.067 156.7 124.187 157.348ZM120.029 158.968H126.743C126.791 158.248 126.731 157.558 126.563 156.898C126.395 156.238 126.119 155.65 125.735 155.134C125.363 154.618 124.883 154.21 124.295 153.91C123.707 153.598 123.017 153.442 122.225 153.442C121.517 153.442 120.869 153.568 120.281 153.82C119.705 154.072 119.207 154.42 118.787 154.864C118.367 155.296 118.043 155.812 117.815 156.412C117.587 157.012 117.473 157.66 117.473 158.356C117.473 159.076 117.581 159.736 117.797 160.336C118.025 160.936 118.343 161.452 118.751 161.884C119.159 162.316 119.657 162.652 120.245 162.892C120.833 163.12 121.493 163.234 122.225 163.234C123.281 163.234 124.181 162.994 124.925 162.514C125.669 162.034 126.221 161.236 126.581 160.12H124.331C124.247 160.408 124.019 160.684 123.647 160.948C123.275 161.2 122.831 161.326 122.315 161.326C121.595 161.326 121.043 161.14 120.659 160.768C120.275 160.396 120.065 159.796 120.029 158.968ZM130.239 159.976H127.809C127.833 160.6 127.971 161.122 128.223 161.542C128.487 161.95 128.817 162.28 129.213 162.532C129.621 162.784 130.083 162.964 130.599 163.072C131.115 163.18 131.643 163.234 132.183 163.234C132.711 163.234 133.227 163.18 133.731 163.072C134.247 162.976 134.703 162.802 135.099 162.55C135.495 162.298 135.813 161.968 136.053 161.56C136.305 161.14 136.431 160.624 136.431 160.012C136.431 159.58 136.347 159.22 136.179 158.932C136.011 158.632 135.789 158.386 135.513 158.194C135.237 157.99 134.919 157.828 134.559 157.708C134.211 157.588 133.851 157.486 133.479 157.402C133.119 157.318 132.765 157.24 132.417 157.168C132.069 157.096 131.757 157.018 131.481 156.934C131.217 156.838 131.001 156.718 130.833 156.574C130.665 156.43 130.581 156.244 130.581 156.016C130.581 155.824 130.629 155.674 130.725 155.566C130.821 155.446 130.935 155.356 131.067 155.296C131.211 155.236 131.367 155.2 131.535 155.188C131.703 155.164 131.859 155.152 132.003 155.152C132.459 155.152 132.855 155.242 133.191 155.422C133.527 155.59 133.713 155.92 133.749 156.412H136.179C136.131 155.836 135.981 155.362 135.729 154.99C135.489 154.606 135.183 154.3 134.811 154.072C134.439 153.844 134.013 153.682 133.533 153.586C133.065 153.49 132.579 153.442 132.075 153.442C131.571 153.442 131.079 153.49 130.599 153.586C130.119 153.67 129.687 153.826 129.303 154.054C128.919 154.27 128.607 154.57 128.367 154.954C128.139 155.338 128.025 155.83 128.025 156.43C128.025 156.838 128.109 157.186 128.277 157.474C128.445 157.75 128.667 157.984 128.943 158.176C129.219 158.356 129.531 158.506 129.879 158.626C130.239 158.734 130.605 158.83 130.977 158.914C131.889 159.106 132.597 159.298 133.101 159.49C133.617 159.682 133.875 159.97 133.875 160.354C133.875 160.582 133.821 160.774 133.713 160.93C133.605 161.074 133.467 161.194 133.299 161.29C133.143 161.374 132.963 161.44 132.759 161.488C132.567 161.524 132.381 161.542 132.201 161.542C131.949 161.542 131.703 161.512 131.463 161.452C131.235 161.392 131.031 161.302 130.851 161.182C130.671 161.05 130.521 160.888 130.401 160.696C130.293 160.492 130.239 160.252 130.239 159.976Z" fill="#191B21"/>
<rect x="30" y="210" width="189" height="48" rx="10" fill="white"/>
<path d="M77 243V241C77 239.939 76.5786 238.922 75.8284 238.172C75.0783 237.421 74.0609 237 73 237H65C63.9391 237 62.9217 237.421 62.1716 238.172C61.4214 238.922 61 239.939 61 241V243" stroke="#191B21" stroke-width="2" stroke-linecap="round" stroke-linejoin="round"/>
<path d="M69 233C71.2091 233 73 231.209 73 229C73 226.791 71.2091 225 69 225C66.7909 225 65 226.791 65 229C65 231.209 66.7909 233 69 233Z" stroke="black" stroke-width="2" stroke-linecap="round" stroke-linejoin="round"/>
<path d="M101.068 234.196V230.344H103.264C103.588 230.344 103.9 230.368 104.2 230.416C104.5 230.464 104.764 230.56 104.992 230.704C105.22 230.836 105.4 231.028 105.532 231.28C105.676 231.532 105.748 231.862 105.748 232.27C105.748 232.678 105.676 233.008 105.532 233.26C105.4 233.512 105.22 233.71 104.992 233.854C104.764 233.986 104.5 234.076 104.2 234.124C103.9 234.172 103.588 234.196 103.264 234.196H101.068ZM98.242 228.148V241H101.068V236.392H104.038C104.842 236.392 105.526 236.278 106.09 236.05C106.654 235.81 107.11 235.498 107.458 235.114C107.818 234.73 108.076 234.292 108.232 233.8C108.4 233.296 108.484 232.786 108.484 232.27C108.484 231.742 108.4 231.232 108.232 230.74C108.076 230.248 107.818 229.81 107.458 229.426C107.11 229.042 106.654 228.736 106.09 228.508C105.526 228.268 104.842 228.148 104.038 228.148H98.242ZM109.978 231.694V241H112.534V236.806C112.534 236.386 112.576 235.996 112.66 235.636C112.744 235.276 112.882 234.964 113.074 234.7C113.278 234.424 113.542 234.208 113.866 234.052C114.19 233.896 114.586 233.818 115.054 233.818C115.21 233.818 115.372 233.83 115.54 233.854C115.708 233.866 115.852 233.884 115.972 233.908V231.532C115.768 231.472 115.582 231.442 115.414 231.442C115.09 231.442 114.778 231.49 114.478 231.586C114.178 231.682 113.896 231.82 113.632 232C113.368 232.168 113.134 232.378 112.93 232.63C112.726 232.87 112.564 233.134 112.444 233.422H112.408V231.694H109.978ZM118.926 236.356C118.926 235.984 118.962 235.618 119.034 235.258C119.106 234.898 119.226 234.58 119.394 234.304C119.574 234.028 119.808 233.806 120.096 233.638C120.384 233.458 120.744 233.368 121.176 233.368C121.608 233.368 121.968 233.458 122.256 233.638C122.556 233.806 122.79 234.028 122.958 234.304C123.138 234.58 123.264 234.898 123.336 235.258C123.408 235.618 123.444 235.984 123.444 236.356C123.444 236.728 123.408 237.094 123.336 237.454C123.264 237.802 123.138 238.12 122.958 238.408C122.79 238.684 122.556 238.906 122.256 239.074C121.968 239.242 121.608 239.326 121.176 239.326C120.744 239.326 120.384 239.242 120.096 239.074C119.808 238.906 119.574 238.684 119.394 238.408C119.226 238.12 119.106 237.802 119.034 237.454C118.962 237.094 118.926 236.728 118.926 236.356ZM116.37 236.356C116.37 237.1 116.484 237.772 116.712 238.372C116.94 238.972 117.264 239.488 117.684 239.92C118.104 240.34 118.608 240.664 119.196 240.892C119.784 241.12 120.444 241.234 121.176 241.234C121.908 241.234 122.568 241.12 123.156 240.892C123.756 240.664 124.266 240.34 124.686 239.92C125.106 239.488 125.43 238.972 125.658 238.372C125.886 237.772 126 237.1 126 236.356C126 235.612 125.886 234.94 125.658 234.34C125.43 233.728 125.106 233.212 124.686 232.792C124.266 232.36 123.756 232.03 123.156 231.802C122.568 231.562 121.908 231.442 121.176 231.442C120.444 231.442 119.784 231.562 119.196 231.802C118.608 232.03 118.104 232.36 117.684 232.792C117.264 233.212 116.94 233.728 116.712 234.34C116.484 234.94 116.37 235.612 116.37 236.356ZM128.219 233.404V241H130.775V233.404H132.539V231.694H130.775V231.136C130.775 230.752 130.847 230.482 130.991 230.326C131.147 230.158 131.399 230.074 131.747 230.074C132.071 230.074 132.383 230.092 132.683 230.128V228.22C132.467 228.208 132.245 228.196 132.017 228.184C131.789 228.16 131.561 228.148 131.333 228.148C130.289 228.148 129.509 228.412 128.993 228.94C128.477 229.468 128.219 230.146 128.219 230.974V231.694H126.689V233.404H128.219ZM134.087 231.694V241H136.643V231.694H134.087ZM136.643 230.254V228.148H134.087V230.254H136.643ZM138.737 228.148V241H141.293V228.148H138.737ZM149.57 235.348H145.412C145.424 235.168 145.46 234.964 145.52 234.736C145.592 234.508 145.706 234.292 145.862 234.088C146.03 233.884 146.246 233.716 146.51 233.584C146.786 233.44 147.128 233.368 147.536 233.368C148.16 233.368 148.622 233.536 148.922 233.872C149.234 234.208 149.45 234.7 149.57 235.348ZM145.412 236.968H152.126C152.174 236.248 152.114 235.558 151.946 234.898C151.778 234.238 151.502 233.65 151.118 233.134C150.746 232.618 150.266 232.21 149.678 231.91C149.09 231.598 148.4 231.442 147.608 231.442C146.9 231.442 146.252 231.568 145.664 231.82C145.088 232.072 144.59 232.42 144.17 232.864C143.75 233.296 143.426 233.812 143.198 234.412C142.97 235.012 142.856 235.66 142.856 236.356C142.856 237.076 142.964 237.736 143.18 238.336C143.408 238.936 143.726 239.452 144.134 239.884C144.542 240.316 145.04 240.652 145.628 240.892C146.216 241.12 146.876 241.234 147.608 241.234C148.664 241.234 149.564 240.994 150.308 240.514C151.052 240.034 151.604 239.236 151.964 238.12H149.714C149.63 238.408 149.402 238.684 149.03 238.948C148.658 239.2 148.214 239.326 147.698 239.326C146.978 239.326 146.426 239.14 146.042 238.768C145.658 238.396 145.448 237.796 145.412 236.968Z" fill="#191B21"/>
<rect x="30" y="288" width="189" height="48" rx="10" fill="white"/>
<path d="M69 315C70.6569 315 72 313.657 72 312C72 310.343 70.6569 309 69 309C67.3431 309 66 310.343 66 312C66 313.657 67.3431 315 69 315Z" stroke="#191B21" stroke-width="2" stroke-linecap="round" stroke-linejoin="round"/>
<path d="M76.4 315C76.2669 315.302 76.2272 315.636 76.286 315.961C76.3448 316.285 76.4995 316.584 76.73 316.82L76.79 316.88C76.976 317.066 77.1235 317.286 77.2241 317.529C77.3248 317.772 77.3766 318.032 77.3766 318.295C77.3766 318.558 77.3248 318.818 77.2241 319.061C77.1235 319.304 76.976 319.524 76.79 319.71C76.6043 319.896 76.3837 320.043 76.1409 320.144C75.8981 320.245 75.6378 320.297 75.375 320.297C75.1122 320.297 74.8519 320.245 74.6091 320.144C74.3663 320.043 74.1457 319.896 73.96 319.71L73.9 319.65C73.6643 319.419 73.365 319.265 73.0406 319.206C72.7162 319.147 72.3816 319.187 72.08 319.32C71.7842 319.447 71.532 319.657 71.3543 319.926C71.1766 320.194 71.0813 320.508 71.08 320.83V321C71.08 321.53 70.8693 322.039 70.4942 322.414C70.1191 322.789 69.6104 323 69.08 323C68.5496 323 68.0409 322.789 67.6658 322.414C67.2907 322.039 67.08 321.53 67.08 321V320.91C67.0723 320.579 66.9651 320.258 66.7725 319.989C66.5799 319.719 66.3107 319.514 66 319.4C65.6984 319.267 65.3638 319.227 65.0394 319.286C64.715 319.345 64.4157 319.499 64.18 319.73L64.12 319.79C63.9343 319.976 63.7137 320.123 63.4709 320.224C63.2281 320.325 62.9678 320.377 62.705 320.377C62.4422 320.377 62.1819 320.325 61.9391 320.224C61.6963 320.123 61.4757 319.976 61.29 319.79C61.104 319.604 60.9565 319.384 60.8559 319.141C60.7552 318.898 60.7034 318.638 60.7034 318.375C60.7034 318.112 60.7552 317.852 60.8559 317.609C60.9565 317.366 61.104 317.146 61.29 316.96L61.35 316.9C61.5805 316.664 61.7352 316.365 61.794 316.041C61.8528 315.716 61.8131 315.382 61.68 315.08C61.5532 314.784 61.3428 314.532 61.0745 314.354C60.8062 314.177 60.4918 314.081 60.17 314.08H60C59.4696 314.08 58.9609 313.869 58.5858 313.494C58.2107 313.119 58 312.61 58 312.08C58 311.55 58.2107 311.041 58.5858 310.666C58.9609 310.291 59.4696 310.08 60 310.08H60.09C60.421 310.072 60.742 309.965 61.0113 309.773C61.2806 309.58 61.4857 309.311 61.6 309C61.7331 308.698 61.7728 308.364 61.714 308.039C61.6552 307.715 61.5005 307.416 61.27 307.18L61.21 307.12C61.024 306.934 60.8765 306.714 60.7759 306.471C60.6752 306.228 60.6234 305.968 60.6234 305.705C60.6234 305.442 60.6752 305.182 60.7759 304.939C60.8765 304.696 61.024 304.476 61.21 304.29C61.3957 304.104 61.6163 303.957 61.8591 303.856C62.1019 303.755 62.3622 303.703 62.625 303.703C62.8878 303.703 63.1481 303.755 63.3909 303.856C63.6337 303.957 63.8543 304.104 64.04 304.29L64.1 304.35C64.3357 304.581 64.635 304.735 64.9594 304.794C65.2838 304.853 65.6184 304.813 65.92 304.68H66C66.2958 304.553 66.548 304.343 66.7257 304.074C66.9034 303.806 66.9987 303.492 67 303.17V303C67 302.47 67.2107 301.961 67.5858 301.586C67.9609 301.211 68.4696 301 69 301C69.5304 301 70.0391 301.211 70.4142 301.586C70.7893 301.961 71 302.47 71 303V303.09C71.0013 303.412 71.0966 303.726 71.2743 303.994C71.452 304.263 71.7042 304.473 72 304.6C72.3016 304.733 72.6362 304.773 72.9606 304.714C73.285 304.655 73.5843 304.501 73.82 304.27L73.88 304.21C74.0657 304.024 74.2863 303.877 74.5291 303.776C74.7719 303.675 75.0322 303.623 75.295 303.623C75.5578 303.623 75.8181 303.675 76.0609 303.776C76.3037 303.877 76.5243 304.024 76.71 304.21C76.896 304.396 77.0435 304.616 77.1441 304.859C77.2448 305.102 77.2966 305.362 77.2966 305.625C77.2966 305.888 77.2448 306.148 77.1441 306.391C77.0435 306.634 76.896 306.854 76.71 307.04L76.65 307.1C76.4195 307.336 76.2648 307.635 76.206 307.959C76.1472 308.284 76.1869 308.618 76.32 308.92V309C76.4468 309.296 76.6572 309.548 76.9255 309.726C77.1938 309.903 77.5082 309.999 77.83 310H78C78.5304 310 79.0391 310.211 79.4142 310.586C79.7893 310.961 80 311.47 80 312C80 312.53 79.7893 313.039 79.4142 313.414C79.0391 313.789 78.5304 314 78 314H77.91C77.5882 314.001 77.2738 314.097 77.0055 314.274C76.7372 314.452 76.5268 314.704 76.4 315V315Z" stroke="#191B21" stroke-width="2" stroke-linecap="round" stroke-linejoin="round"/>
<path d="M100.168 314.734H97.432C97.42 315.526 97.564 316.21 97.864 316.786C98.164 317.362 98.566 317.836 99.07 318.208C99.586 318.58 100.174 318.85 100.834 319.018C101.506 319.198 102.196 319.288 102.904 319.288C103.78 319.288 104.548 319.186 105.208 318.982C105.88 318.778 106.438 318.496 106.882 318.136C107.338 317.764 107.68 317.326 107.908 316.822C108.136 316.318 108.25 315.772 108.25 315.184C108.25 314.464 108.094 313.876 107.782 313.42C107.482 312.952 107.122 312.58 106.702 312.304C106.282 312.028 105.856 311.83 105.424 311.71C105.004 311.578 104.674 311.488 104.434 311.44C103.63 311.236 102.976 311.068 102.472 310.936C101.98 310.804 101.59 310.672 101.302 310.54C101.026 310.408 100.84 310.264 100.744 310.108C100.648 309.952 100.6 309.748 100.6 309.496C100.6 309.22 100.66 308.992 100.78 308.812C100.9 308.632 101.05 308.482 101.23 308.362C101.422 308.242 101.632 308.158 101.86 308.11C102.088 308.062 102.316 308.038 102.544 308.038C102.892 308.038 103.21 308.068 103.498 308.128C103.798 308.188 104.062 308.29 104.29 308.434C104.518 308.578 104.698 308.776 104.83 309.028C104.974 309.28 105.058 309.598 105.082 309.982H107.818C107.818 309.238 107.674 308.608 107.386 308.092C107.11 307.564 106.732 307.132 106.252 306.796C105.772 306.46 105.22 306.22 104.596 306.076C103.984 305.92 103.342 305.842 102.67 305.842C102.094 305.842 101.518 305.92 100.942 306.076C100.366 306.232 99.85 306.472 99.394 306.796C98.938 307.12 98.566 307.528 98.278 308.02C98.002 308.5 97.864 309.07 97.864 309.73C97.864 310.318 97.972 310.822 98.188 311.242C98.416 311.65 98.71 311.992 99.07 312.268C99.43 312.544 99.838 312.772 100.294 312.952C100.75 313.12 101.218 313.264 101.698 313.384C102.166 313.516 102.628 313.636 103.084 313.744C103.54 313.852 103.948 313.978 104.308 314.122C104.668 314.266 104.956 314.446 105.172 314.662C105.4 314.878 105.514 315.16 105.514 315.508C105.514 315.832 105.43 316.102 105.262 316.318C105.094 316.522 104.884 316.684 104.632 316.804C104.38 316.924 104.11 317.008 103.822 317.056C103.534 317.092 103.264 317.11 103.012 317.11C102.64 317.11 102.28 317.068 101.932 316.984C101.584 316.888 101.278 316.75 101.014 316.57C100.762 316.378 100.558 316.132 100.402 315.832C100.246 315.532 100.168 315.166 100.168 314.734ZM115.925 313.348H111.767C111.779 313.168 111.815 312.964 111.875 312.736C111.947 312.508 112.061 312.292 112.217 312.088C112.385 311.884 112.601 311.716 112.865 311.584C113.141 311.44 113.483 311.368 113.891 311.368C114.515 311.368 114.977 311.536 115.277 311.872C115.589 312.208 115.805 312.7 115.925 313.348ZM111.767 314.968H118.481C118.529 314.248 118.469 313.558 118.301 312.898C118.133 312.238 117.857 311.65 117.473 311.134C117.101 310.618 116.621 310.21 116.033 309.91C115.445 309.598 114.755 309.442 113.963 309.442C113.255 309.442 112.607 309.568 112.019 309.82C111.443 310.072 110.945 310.42 110.525 310.864C110.105 311.296 109.781 311.812 109.553 312.412C109.325 313.012 109.211 313.66 109.211 314.356C109.211 315.076 109.319 315.736 109.535 316.336C109.763 316.936 110.081 317.452 110.489 317.884C110.897 318.316 111.395 318.652 111.983 318.892C112.571 319.12 113.231 319.234 113.963 319.234C115.019 319.234 115.919 318.994 116.663 318.514C117.407 318.034 117.959 317.236 118.319 316.12H116.069C115.985 316.408 115.757 316.684 115.385 316.948C115.013 317.2 114.569 317.326 114.053 317.326C113.333 317.326 112.781 317.14 112.397 316.768C112.013 316.396 111.803 315.796 111.767 314.968ZM123.237 309.694V306.904H120.681V309.694H119.133V311.404H120.681V316.894C120.681 317.362 120.759 317.74 120.915 318.028C121.071 318.316 121.281 318.538 121.545 318.694C121.821 318.85 122.133 318.952 122.481 319C122.841 319.06 123.219 319.09 123.615 319.09C123.867 319.09 124.125 319.084 124.389 319.072C124.653 319.06 124.893 319.036 125.109 319V317.02C124.989 317.044 124.863 317.062 124.731 317.074C124.599 317.086 124.461 317.092 124.317 317.092C123.885 317.092 123.597 317.02 123.453 316.876C123.309 316.732 123.237 316.444 123.237 316.012V311.404H125.109V309.694H123.237ZM129.566 309.694V306.904H127.01V309.694H125.462V311.404H127.01V316.894C127.01 317.362 127.088 317.74 127.244 318.028C127.4 318.316 127.61 318.538 127.874 318.694C128.15 318.85 128.462 318.952 128.81 319C129.17 319.06 129.548 319.09 129.944 319.09C130.196 319.09 130.454 319.084 130.718 319.072C130.982 319.06 131.222 319.036 131.438 319V317.02C131.318 317.044 131.192 317.062 131.06 317.074C130.928 317.086 130.79 317.092 130.646 317.092C130.214 317.092 129.926 317.02 129.782 316.876C129.638 316.732 129.566 316.444 129.566 316.012V311.404H131.438V309.694H129.566ZM135.282 308.254V306.148H132.726V308.254H135.282ZM132.726 309.694V319H135.282V309.694H132.726ZM137.294 309.694V319H139.85V314.122C139.85 313.174 140.006 312.496 140.318 312.088C140.63 311.668 141.134 311.458 141.83 311.458C142.442 311.458 142.868 311.65 143.108 312.034C143.348 312.406 143.468 312.976 143.468 313.744V319H146.024V313.276C146.024 312.7 145.97 312.178 145.862 311.71C145.766 311.23 145.592 310.828 145.34 310.504C145.088 310.168 144.74 309.91 144.296 309.73C143.864 309.538 143.306 309.442 142.622 309.442C142.082 309.442 141.554 309.568 141.038 309.82C140.522 310.06 140.102 310.45 139.778 310.99H139.724V309.694H137.294ZM152.302 316.804C151.906 316.804 151.576 316.72 151.312 316.552C151.048 316.384 150.832 316.168 150.664 315.904C150.508 315.64 150.394 315.346 150.322 315.022C150.262 314.686 150.232 314.35 150.232 314.014C150.232 313.666 150.268 313.336 150.34 313.024C150.424 312.7 150.55 312.418 150.718 312.178C150.898 311.926 151.114 311.728 151.366 311.584C151.63 311.44 151.942 311.368 152.302 311.368C152.722 311.368 153.07 311.446 153.346 311.602C153.622 311.758 153.844 311.968 154.012 312.232C154.18 312.496 154.3 312.802 154.372 313.15C154.444 313.486 154.48 313.846 154.48 314.23C154.48 314.566 154.432 314.89 154.336 315.202C154.252 315.502 154.12 315.772 153.94 316.012C153.76 316.252 153.532 316.444 153.256 316.588C152.98 316.732 152.662 316.804 152.302 316.804ZM156.91 318.406V309.694H154.48V310.936H154.444C154.132 310.396 153.742 310.012 153.274 309.784C152.818 309.556 152.284 309.442 151.672 309.442C151.024 309.442 150.448 309.568 149.944 309.82C149.452 310.072 149.038 310.414 148.702 310.846C148.366 311.266 148.108 311.758 147.928 312.322C147.76 312.874 147.676 313.45 147.676 314.05C147.676 314.686 147.748 315.292 147.892 315.868C148.048 316.432 148.288 316.93 148.612 317.362C148.936 317.782 149.35 318.118 149.854 318.37C150.358 318.61 150.958 318.73 151.654 318.73C152.218 318.73 152.752 318.616 153.256 318.388C153.772 318.148 154.168 317.782 154.444 317.29H154.48V318.514C154.492 319.174 154.33 319.72 153.994 320.152C153.67 320.584 153.148 320.8 152.428 320.8C151.972 320.8 151.57 320.704 151.222 320.512C150.874 320.332 150.64 320.002 150.52 319.522H147.982C148.018 320.05 148.162 320.5 148.414 320.872C148.678 321.256 149.002 321.568 149.386 321.808C149.782 322.048 150.214 322.222 150.682 322.33C151.162 322.45 151.63 322.51 152.086 322.51C153.154 322.51 154.006 322.366 154.642 322.078C155.278 321.79 155.764 321.436 156.1 321.016C156.436 320.608 156.652 320.164 156.748 319.684C156.856 319.204 156.91 318.778 156.91 318.406ZM160.948 315.976H158.518C158.542 316.6 158.68 317.122 158.932 317.542C159.196 317.95 159.526 318.28 159.922 318.532C160.33 318.784 160.792 318.964 161.308 319.072C161.824 319.18 162.352 319.234 162.892 319.234C163.42 319.234 163.936 319.18 164.44 319.072C164.956 318.976 165.412 318.802 165.808 318.55C166.204 318.298 166.522 317.968 166.762 317.56C167.014 317.14 167.14 316.624 167.14 316.012C167.14 315.58 167.056 315.22 166.888 314.932C166.72 314.632 166.498 314.386 166.222 314.194C165.946 313.99 165.628 313.828 165.268 313.708C164.92 313.588 164.56 313.486 164.188 313.402C163.828 313.318 163.474 313.24 163.126 313.168C162.778 313.096 162.466 313.018 162.19 312.934C161.926 312.838 161.71 312.718 161.542 312.574C161.374 312.43 161.29 312.244 161.29 312.016C161.29 311.824 161.338 311.674 161.434 311.566C161.53 311.446 161.644 311.356 161.776 311.296C161.92 311.236 162.076 311.2 162.244 311.188C162.412 311.164 162.568 311.152 162.712 311.152C163.168 311.152 163.564 311.242 163.9 311.422C164.236 311.59 164.422 311.92 164.458 312.412H166.888C166.84 311.836 166.69 311.362 166.438 310.99C166.198 310.606 165.892 310.3 165.52 310.072C165.148 309.844 164.722 309.682 164.242 309.586C163.774 309.49 163.288 309.442 162.784 309.442C162.28 309.442 161.788 309.49 161.308 309.586C160.828 309.67 160.396 309.826 160.012 310.054C159.628 310.27 159.316 310.57 159.076 310.954C158.848 311.338 158.734 311.83 158.734 312.43C158.734 312.838 158.818 313.186 158.986 313.474C159.154 313.75 159.376 313.984 159.652 314.176C159.928 314.356 160.24 314.506 160.588 314.626C160.948 314.734 161.314 314.83 161.686 314.914C162.598 315.106 163.306 315.298 163.81 315.49C164.326 315.682 164.584 315.97 164.584 316.354C164.584 316.582 164.53 316.774 164.422 316.93C164.314 317.074 164.176 317.194 164.008 317.29C163.852 317.374 163.672 317.44 163.468 317.488C163.276 317.524 163.09 317.542 162.91 317.542C162.658 317.542 162.412 317.512 162.172 317.452C161.944 317.392 161.74 317.302 161.56 317.182C161.38 317.05 161.23 316.888 161.11 316.696C161.002 316.492 160.948 316.252 160.948 315.976Z" fill="#191B21"/>
</g>
<defs>
<clipPath id="clip0_306_1231">
<rect width="271" height="377" fill="white"/>
</clipPath>
</defs>
</svg>
