<svg width="150" height="325" viewBox="0 0 150 325" fill="none" xmlns="http://www.w3.org/2000/svg">
<g clip-path="url(#clip0)">
<rect width="150" height="324.8" fill="white"/>
<rect width="150" height="324.8" fill="white"/>
<path d="M75.2443 106.209L72.5746 101.685L78.0412 101.763L75.2443 106.209Z" fill="white"/>
<rect x="24.7998" y="76.4004" width="100.4" height="120.304" fill="white"/>
<path d="M51.7391 174.486L47.318 187.6H45.8568L42.0164 176.416L38.1573 187.6H36.7148L32.2937 174.486H33.7175L37.5016 185.764L41.417 174.486H42.7096L46.5687 185.82L50.4091 174.486H51.7391ZM61.8298 183.085H53.587C53.662 184.109 54.0554 184.939 54.7672 185.576C55.4791 186.201 56.3783 186.513 57.4649 186.513C58.0768 186.513 58.6388 186.407 59.1509 186.195C59.6629 185.97 60.1063 185.645 60.481 185.22L61.2303 186.082C60.7932 186.607 60.2437 187.006 59.5817 187.281C58.9323 187.556 58.2142 187.693 57.4274 187.693C56.4158 187.693 55.5166 187.481 54.7298 187.056C53.9554 186.619 53.3497 186.02 52.9126 185.258C52.4755 184.496 52.2569 183.634 52.2569 182.673C52.2569 181.711 52.463 180.849 52.8751 180.087C53.2998 179.326 53.8743 178.732 54.5986 178.308C55.3355 177.883 56.1598 177.671 57.0715 177.671C57.9832 177.671 58.8012 177.883 59.5255 178.308C60.2499 178.732 60.8182 179.326 61.2303 180.087C61.6424 180.837 61.8485 181.699 61.8485 182.673L61.8298 183.085ZM57.0715 178.814C56.1223 178.814 55.323 179.12 54.6736 179.732C54.0366 180.331 53.6744 181.118 53.587 182.092H60.5746C60.4872 181.118 60.1188 180.331 59.4693 179.732C58.8324 179.12 58.0331 178.814 57.0715 178.814ZM70.5318 187.712C69.2329 187.712 68.059 187.425 67.0099 186.85C65.9733 186.276 65.1553 185.483 64.5558 184.471C63.9688 183.447 63.6753 182.304 63.6753 181.043C63.6753 179.781 63.9688 178.645 64.5558 177.633C65.1553 176.609 65.9795 175.81 67.0286 175.235C68.0777 174.661 69.2517 174.374 70.5505 174.374C71.5247 174.374 72.4239 174.536 73.2481 174.861C74.0724 175.186 74.7718 175.66 75.3463 176.285L74.4658 177.165C73.4417 176.128 72.1491 175.61 70.588 175.61C69.5514 175.61 68.6085 175.847 67.7592 176.322C66.91 176.797 66.2418 177.446 65.7547 178.27C65.2802 179.095 65.0429 180.019 65.0429 181.043C65.0429 182.067 65.2802 182.991 65.7547 183.815C66.2418 184.64 66.91 185.289 67.7592 185.764C68.6085 186.238 69.5514 186.476 70.588 186.476C72.1616 186.476 73.4542 185.951 74.4658 184.902L75.3463 185.782C74.7718 186.407 74.0662 186.888 73.2294 187.225C72.4051 187.55 71.5059 187.712 70.5318 187.712ZM78.0205 173.699H79.3506V187.6H78.0205V173.699ZM87.0792 187.693C86.13 187.693 85.2745 187.481 84.5127 187.056C83.7509 186.619 83.1514 186.02 82.7143 185.258C82.2772 184.496 82.0586 183.634 82.0586 182.673C82.0586 181.711 82.2772 180.849 82.7143 180.087C83.1514 179.326 83.7509 178.732 84.5127 178.308C85.2745 177.883 86.13 177.671 87.0792 177.671C88.0284 177.671 88.8839 177.883 89.6457 178.308C90.4075 178.732 91.0008 179.326 91.4254 180.087C91.8625 180.849 92.0811 181.711 92.0811 182.673C92.0811 183.634 91.8625 184.496 91.4254 185.258C91.0008 186.02 90.4075 186.619 89.6457 187.056C88.8839 187.481 88.0284 187.693 87.0792 187.693ZM87.0792 186.513C87.7786 186.513 88.403 186.357 88.9526 186.045C89.5146 185.72 89.9517 185.264 90.2639 184.677C90.5761 184.09 90.7322 183.422 90.7322 182.673C90.7322 181.923 90.5761 181.255 90.2639 180.668C89.9517 180.081 89.5146 179.632 88.9526 179.319C88.403 178.995 87.7786 178.832 87.0792 178.832C86.3798 178.832 85.7491 178.995 85.1871 179.319C84.6376 179.632 84.2005 180.081 83.8758 180.668C83.5635 181.255 83.4074 181.923 83.4074 182.673C83.4074 183.422 83.5635 184.09 83.8758 184.677C84.2005 185.264 84.6376 185.72 85.1871 186.045C85.7491 186.357 86.3798 186.513 87.0792 186.513ZM103.676 177.746V187.6H102.402V185.801C102.053 186.401 101.572 186.869 100.96 187.206C100.348 187.531 99.6485 187.693 98.8617 187.693C97.5753 187.693 96.5575 187.337 95.8082 186.625C95.0713 185.901 94.7029 184.846 94.7029 183.459V177.746H96.033V183.328C96.033 184.365 96.289 185.152 96.801 185.689C97.3131 186.226 98.0437 186.494 98.9929 186.494C100.029 186.494 100.847 186.182 101.447 185.558C102.046 184.921 102.346 184.04 102.346 182.916V177.746H103.676ZM116.394 173.699V187.6H115.12V185.651C114.72 186.313 114.189 186.819 113.527 187.169C112.878 187.518 112.141 187.693 111.317 187.693C110.393 187.693 109.556 187.481 108.806 187.056C108.057 186.632 107.47 186.038 107.045 185.277C106.621 184.515 106.409 183.647 106.409 182.673C106.409 181.699 106.621 180.831 107.045 180.069C107.47 179.307 108.057 178.72 108.806 178.308C109.556 177.883 110.393 177.671 111.317 177.671C112.116 177.671 112.834 177.839 113.471 178.177C114.121 178.501 114.651 178.982 115.063 179.619V173.699H116.394ZM111.429 186.513C112.116 186.513 112.734 186.357 113.284 186.045C113.846 185.72 114.283 185.264 114.595 184.677C114.92 184.09 115.082 183.422 115.082 182.673C115.082 181.923 114.92 181.255 114.595 180.668C114.283 180.081 113.846 179.632 113.284 179.319C112.734 178.995 112.116 178.832 111.429 178.832C110.73 178.832 110.099 178.995 109.537 179.319C108.988 179.632 108.55 180.081 108.226 180.668C107.913 181.255 107.757 181.923 107.757 182.673C107.757 183.422 107.913 184.09 108.226 184.677C108.55 185.264 108.988 185.72 109.537 186.045C110.099 186.357 110.73 186.513 111.429 186.513Z" fill="black"/>
<path fill-rule="evenodd" clip-rule="evenodd" d="M91.4557 114.069C97.288 113.174 101.291 107.721 100.396 101.888C99.5012 96.0561 94.0477 92.0534 88.2154 92.9482C83.843 93.619 80.4988 96.8519 79.4757 100.886L79.2934 100.628C78.5682 105.231 76.4568 113.682 73.7318 115.996C72.2738 117.233 68.8398 119.043 65.3405 120.518C62.9871 119.34 60.259 118.855 57.4602 119.284C50.2696 120.388 45.3348 127.111 46.4379 134.302C47.5411 141.492 54.2645 146.427 61.4551 145.324C63.7936 144.965 65.8935 144.012 67.6247 142.641C69.9367 142.745 71.9465 143.119 73.1453 143.949C76.0105 145.622 78.2913 149.835 79.9889 152.972C80.3148 153.574 80.6192 154.136 80.9021 154.633L81.0812 154.256C82.92 157.873 86.9289 160.072 91.1581 159.424C96.4312 158.615 100.05 153.684 99.2411 148.411C98.4321 143.138 93.5016 139.519 88.2285 140.328C88.0307 140.358 87.8352 140.395 87.6422 140.436L87.7809 140.144C83.8599 141.289 76.3937 142.615 74.4625 141.608C73.2762 141.393 72.023 140.37 70.8343 138.944C72.3044 136.428 72.9536 133.411 72.4773 130.307C72.1768 128.348 71.4591 126.556 70.4285 125.009C70.8565 122.507 71.941 120.046 75.3418 117.752C81.2247 113.784 84.4899 114.051 87.575 114.304L87.575 114.304L87.575 114.304L87.5751 114.304C87.9379 114.334 88.2983 114.363 88.6601 114.386L89.0729 114.168C89.8526 114.223 90.6505 114.193 91.4557 114.069Z" fill="url(#paint0_linear)"/>
<circle cx="59.5025" cy="132.594" r="13.172" transform="rotate(-8.72217 59.5025 132.594)" fill="#8883BB"/>
<circle cx="89.8608" cy="149.999" r="10.0985" transform="rotate(-8.72217 89.8608 149.999)" fill="#ED6A7C"/>
<circle cx="89.7146" cy="103.676" r="10.8303" transform="rotate(-8.72217 89.7146 103.676)" fill="#9BDFF9"/>
</g>
<defs>
<linearGradient id="paint0_linear" x1="47.5332" y1="96.0801" x2="45.3005" y2="166.459" gradientUnits="userSpaceOnUse">
<stop offset="0.209564" stop-color="#9BDFF9"/>
<stop offset="0.35677" stop-color="#8883BB"/>
<stop offset="0.618577" stop-color="#8883BB"/>
<stop offset="0.699704" stop-color="#ED6A7C"/>
</linearGradient>
<clipPath id="clip0">
<rect width="150" height="324.8" fill="white"/>
</clipPath>
</defs>
</svg>
