<svg width="254" height="447" viewBox="0 0 254 447" fill="none" xmlns="http://www.w3.org/2000/svg">
<mask id="mask0" mask-type="alpha" maskUnits="userSpaceOnUse" x="0" y="0" width="254" height="447">
<rect width="254" height="447" fill="#C4C4C4"/>
</mask>
<g mask="url(#mask0)">
<g clip-path="url(#clip0)">
<rect width="1440" height="1024" fill="white"/>
<rect width="1440" height="1024" fill="#FFFDFD"/>
<rect width="1440" height="38" fill="#D7D7D7"/>
<circle cx="25.5" cy="18.5" r="7.5" fill="#FF564F"/>
<circle cx="49.5" cy="18.5" r="7.5" fill="#FFB639"/>
<circle cx="73.5" cy="18.5" r="7.5" fill="#23C747"/>
<rect y="38" width="116" height="986" fill="#424141"/>
<rect x="115" y="38" width="222" height="986" fill="#8883BB"/>
<path d="M58.8404 191.458C58.5804 191.203 58.1649 191.2 57.9019 191.452L44.0123 204.755V221.679C44.0123 223.168 45.2198 224.376 46.7093 224.376H53.0473V211.767C53.0473 210.278 54.2548 209.07 55.7443 209.07H60.6664C62.1559 209.07 63.3634 210.278 63.3634 211.767V224.376H69.7014C71.1909 224.376 72.3984 223.168 72.3984 221.679V204.755L58.8404 191.458Z" fill="#ED6A7C"/>
<path d="M37 204.755H44.0123M44.0123 204.755L57.9019 191.452C58.1649 191.2 58.5804 191.203 58.8404 191.458L72.3984 204.755M44.0123 204.755V221.679C44.0123 223.168 45.2198 224.376 46.7093 224.376H53.0473M72.3984 204.755V221.679C72.3984 223.168 71.1909 224.376 69.7014 224.376H63.3634M72.3984 204.755H79.3967M53.0473 224.376V211.767C53.0473 210.278 54.2548 209.07 55.7443 209.07H60.6664C62.1559 209.07 63.3634 210.278 63.3634 211.767V224.376M53.0473 224.376H62.9588H63.3634" stroke="#ED6A7C" stroke-width="2"/>
<path d="M42.1463 302.396L38.2818 277.797C38.1338 276.855 38.8621 276.004 39.8157 276.004H48.8697C49.3802 276.004 49.8526 276.261 50.2055 276.63C51.0699 277.533 52.5855 278.636 54.2084 278.737C57.1148 278.86 58.2798 276.012 58.1855 276.004C58.1007 275.996 64.2665 276.002 68.2467 276.003C68.9669 276.004 69.5913 276.499 69.7568 277.2L71.0765 282.79M42.1463 302.396L47.4767 283.913C47.6684 283.248 48.2768 282.79 48.9687 282.79H58.2027C58.859 282.79 59.4181 283.223 59.7841 283.768C60.6464 285.052 61.9498 285.361 62.5953 285.335C64.7911 285.335 66.1167 284.519 66.8173 283.736C67.263 283.238 67.8521 282.79 68.5205 282.79H71.0765M42.1463 302.396H72.8455C73.1927 302.396 73.4977 302.166 73.5924 301.832L78.4317 284.767C78.7128 283.775 77.9682 282.79 76.9379 282.79H71.0765" stroke="white" stroke-width="3"/>
<path d="M140.465 134V119.684H146.549C148.079 119.684 149.189 119.814 149.879 120.074C150.576 120.328 151.132 120.784 151.549 121.441C151.965 122.099 152.174 122.851 152.174 123.697C152.174 124.771 151.858 125.66 151.227 126.363C150.595 127.06 149.651 127.499 148.395 127.682C149.02 128.046 149.534 128.447 149.938 128.883C150.348 129.319 150.898 130.094 151.588 131.207L153.336 134H149.879L147.789 130.885C147.047 129.771 146.539 129.072 146.266 128.785C145.992 128.492 145.702 128.294 145.396 128.189C145.09 128.079 144.605 128.023 143.941 128.023H143.355V134H140.465ZM143.355 125.738H145.494C146.881 125.738 147.747 125.68 148.092 125.562C148.437 125.445 148.707 125.243 148.902 124.957C149.098 124.671 149.195 124.312 149.195 123.883C149.195 123.401 149.065 123.014 148.805 122.721C148.551 122.421 148.189 122.232 147.721 122.154C147.486 122.122 146.783 122.105 145.611 122.105H143.355V125.738ZM161.295 130.699L164.029 131.158C163.677 132.161 163.121 132.926 162.359 133.453C161.604 133.974 160.657 134.234 159.517 134.234C157.714 134.234 156.379 133.645 155.513 132.467C154.83 131.523 154.488 130.331 154.488 128.893C154.488 127.174 154.937 125.829 155.836 124.859C156.734 123.883 157.87 123.395 159.244 123.395C160.787 123.395 162.004 123.906 162.896 124.928C163.788 125.943 164.214 127.503 164.175 129.605H157.3C157.32 130.419 157.541 131.054 157.964 131.51C158.388 131.959 158.915 132.184 159.546 132.184C159.976 132.184 160.337 132.066 160.63 131.832C160.923 131.598 161.145 131.22 161.295 130.699ZM161.451 127.926C161.431 127.132 161.226 126.529 160.836 126.119C160.445 125.702 159.97 125.494 159.41 125.494C158.811 125.494 158.316 125.712 157.925 126.148C157.535 126.585 157.343 127.177 157.349 127.926H161.451ZM175.864 126.695L173.159 127.184C173.068 126.643 172.86 126.236 172.534 125.963C172.215 125.689 171.799 125.553 171.284 125.553C170.601 125.553 170.054 125.79 169.644 126.266C169.24 126.734 169.038 127.522 169.038 128.629C169.038 129.859 169.243 130.729 169.654 131.236C170.07 131.744 170.627 131.998 171.323 131.998C171.844 131.998 172.271 131.852 172.603 131.559C172.935 131.259 173.169 130.748 173.306 130.025L176.001 130.484C175.721 131.721 175.184 132.656 174.39 133.287C173.596 133.919 172.531 134.234 171.196 134.234C169.68 134.234 168.469 133.756 167.564 132.799C166.665 131.842 166.216 130.517 166.216 128.824C166.216 127.112 166.668 125.781 167.573 124.83C168.478 123.873 169.702 123.395 171.245 123.395C172.508 123.395 173.511 123.668 174.253 124.215C175.002 124.755 175.539 125.582 175.864 126.695ZM184.36 130.699L187.095 131.158C186.743 132.161 186.186 132.926 185.425 133.453C184.669 133.974 183.722 134.234 182.583 134.234C180.779 134.234 179.445 133.645 178.579 132.467C177.895 131.523 177.554 130.331 177.554 128.893C177.554 127.174 178.003 125.829 178.901 124.859C179.8 123.883 180.936 123.395 182.309 123.395C183.852 123.395 185.07 123.906 185.962 124.928C186.854 125.943 187.28 127.503 187.241 129.605H180.366C180.386 130.419 180.607 131.054 181.03 131.51C181.453 131.959 181.981 132.184 182.612 132.184C183.042 132.184 183.403 132.066 183.696 131.832C183.989 131.598 184.21 131.22 184.36 130.699ZM184.516 127.926C184.497 127.132 184.292 126.529 183.901 126.119C183.511 125.702 183.035 125.494 182.475 125.494C181.876 125.494 181.382 125.712 180.991 126.148C180.6 126.585 180.408 127.177 180.415 127.926H184.516ZM199.321 134H196.577V128.707C196.577 127.587 196.518 126.865 196.401 126.539C196.284 126.207 196.092 125.95 195.825 125.768C195.564 125.585 195.248 125.494 194.877 125.494C194.402 125.494 193.976 125.624 193.598 125.885C193.22 126.145 192.96 126.49 192.817 126.92C192.68 127.35 192.612 128.144 192.612 129.303V134H189.868V123.629H192.416V125.152C193.321 123.98 194.461 123.395 195.834 123.395C196.44 123.395 196.993 123.505 197.495 123.727C197.996 123.941 198.373 124.218 198.627 124.557C198.888 124.895 199.067 125.279 199.164 125.709C199.269 126.139 199.321 126.754 199.321 127.555V134ZM207.27 123.629V125.816H205.395V129.996C205.395 130.842 205.411 131.337 205.443 131.48C205.482 131.617 205.564 131.731 205.688 131.822C205.818 131.913 205.974 131.959 206.156 131.959C206.41 131.959 206.778 131.871 207.26 131.695L207.494 133.824C206.856 134.098 206.133 134.234 205.326 134.234C204.831 134.234 204.385 134.153 203.988 133.99C203.591 133.821 203.298 133.606 203.109 133.346C202.927 133.079 202.8 132.721 202.729 132.271C202.67 131.952 202.641 131.308 202.641 130.338V125.816H201.381V123.629H202.641V121.568L205.395 119.967V123.629H207.27ZM227.728 134H224.583L223.333 130.748H217.611L216.429 134H213.363L218.939 119.684H221.995L227.728 134ZM222.405 128.336L220.433 123.023L218.499 128.336H222.405ZM238.694 126.695L235.989 127.184C235.898 126.643 235.69 126.236 235.364 125.963C235.045 125.689 234.628 125.553 234.114 125.553C233.43 125.553 232.884 125.79 232.473 126.266C232.07 126.734 231.868 127.522 231.868 128.629C231.868 129.859 232.073 130.729 232.483 131.236C232.9 131.744 233.457 131.998 234.153 131.998C234.674 131.998 235.1 131.852 235.432 131.559C235.764 131.259 235.999 130.748 236.136 130.025L238.831 130.484C238.551 131.721 238.014 132.656 237.22 133.287C236.425 133.919 235.361 134.234 234.026 134.234C232.509 134.234 231.298 133.756 230.393 132.799C229.495 131.842 229.046 130.517 229.046 128.824C229.046 127.112 229.498 125.781 230.403 124.83C231.308 123.873 232.532 123.395 234.075 123.395C235.338 123.395 236.341 123.668 237.083 124.215C237.832 124.755 238.369 125.582 238.694 126.695ZM245.94 123.629V125.816H244.065V129.996C244.065 130.842 244.081 131.337 244.114 131.48C244.153 131.617 244.234 131.731 244.358 131.822C244.488 131.913 244.644 131.959 244.827 131.959C245.08 131.959 245.448 131.871 245.93 131.695L246.164 133.824C245.526 134.098 244.804 134.234 243.996 134.234C243.502 134.234 243.056 134.153 242.659 133.99C242.261 133.821 241.968 133.606 241.78 133.346C241.597 133.079 241.47 132.721 241.399 132.271C241.34 131.952 241.311 131.308 241.311 130.338V125.816H240.051V123.629H241.311V121.568L244.065 119.967V123.629H245.94ZM248.244 122.223V119.684H250.988V122.223H248.244ZM248.244 134V123.629H250.988V134H248.244ZM257.062 134L252.882 123.629H255.763L257.716 128.922L258.283 130.689C258.433 130.24 258.527 129.944 258.566 129.801C258.657 129.508 258.755 129.215 258.859 128.922L260.832 123.629H263.654L259.533 134H257.062ZM265.743 122.223V119.684H268.488V122.223H265.743ZM265.743 134V123.629H268.488V134H265.743ZM276.466 123.629V125.816H274.591V129.996C274.591 130.842 274.607 131.337 274.639 131.48C274.679 131.617 274.76 131.731 274.884 131.822C275.014 131.913 275.17 131.959 275.352 131.959C275.606 131.959 275.974 131.871 276.456 131.695L276.69 133.824C276.052 134.098 275.33 134.234 274.522 134.234C274.027 134.234 273.582 134.153 273.184 133.99C272.787 133.821 272.494 133.606 272.305 133.346C272.123 133.079 271.996 132.721 271.925 132.271C271.866 131.952 271.837 131.308 271.837 130.338V125.816H270.577V123.629H271.837V121.568L274.591 119.967V123.629H276.466ZM278.77 122.223V119.684H281.514V122.223H278.77ZM278.77 134V123.629H281.514V134H278.77ZM290.742 130.699L293.477 131.158C293.125 132.161 292.568 132.926 291.807 133.453C291.051 133.974 290.104 134.234 288.965 134.234C287.161 134.234 285.827 133.645 284.961 132.467C284.277 131.523 283.936 130.331 283.936 128.893C283.936 127.174 284.385 125.829 285.283 124.859C286.182 123.883 287.318 123.395 288.691 123.395C290.234 123.395 291.452 123.906 292.344 124.928C293.236 125.943 293.662 127.503 293.623 129.605H286.748C286.768 130.419 286.989 131.054 287.412 131.51C287.835 131.959 288.363 132.184 288.994 132.184C289.424 132.184 289.785 132.066 290.078 131.832C290.371 131.598 290.592 131.22 290.742 130.699ZM290.898 127.926C290.879 127.132 290.674 126.529 290.283 126.119C289.893 125.702 289.417 125.494 288.857 125.494C288.258 125.494 287.764 125.712 287.373 126.148C286.982 126.585 286.79 127.177 286.797 127.926H290.898ZM295.302 131.041L298.056 130.621C298.173 131.155 298.411 131.562 298.769 131.842C299.127 132.115 299.629 132.252 300.273 132.252C300.983 132.252 301.517 132.122 301.875 131.861C302.115 131.679 302.236 131.435 302.236 131.129C302.236 130.921 302.171 130.748 302.041 130.611C301.904 130.481 301.598 130.361 301.123 130.25C298.909 129.762 297.506 129.316 296.914 128.912C296.093 128.352 295.683 127.574 295.683 126.578C295.683 125.68 296.038 124.924 296.748 124.312C297.457 123.701 298.558 123.395 300.048 123.395C301.468 123.395 302.522 123.626 303.212 124.088C303.903 124.55 304.378 125.234 304.638 126.139L302.05 126.617C301.94 126.214 301.728 125.904 301.416 125.689C301.11 125.475 300.67 125.367 300.097 125.367C299.375 125.367 298.857 125.468 298.545 125.67C298.336 125.813 298.232 125.999 298.232 126.227C298.232 126.422 298.323 126.588 298.505 126.725C298.753 126.907 299.606 127.164 301.064 127.496C302.529 127.828 303.551 128.235 304.13 128.717C304.703 129.205 304.99 129.885 304.99 130.758C304.99 131.708 304.593 132.525 303.798 133.209C303.004 133.893 301.829 134.234 300.273 134.234C298.86 134.234 297.74 133.948 296.914 133.375C296.093 132.802 295.556 132.024 295.302 131.041Z" fill="white"/>
<path d="M139.723 209.342L142.535 209.068C142.704 210.012 143.046 210.706 143.561 211.148C144.081 211.591 144.781 211.812 145.66 211.812C146.591 211.812 147.291 211.617 147.76 211.227C148.235 210.829 148.473 210.367 148.473 209.84C148.473 209.501 148.372 209.215 148.17 208.98C147.975 208.74 147.63 208.531 147.135 208.355C146.796 208.238 146.025 208.03 144.82 207.73C143.271 207.346 142.184 206.874 141.559 206.314C140.68 205.527 140.24 204.566 140.24 203.434C140.24 202.704 140.445 202.024 140.855 201.393C141.272 200.755 141.868 200.27 142.643 199.938C143.424 199.605 144.365 199.439 145.465 199.439C147.262 199.439 148.613 199.833 149.518 200.621C150.429 201.409 150.908 202.46 150.953 203.775L148.062 203.902C147.939 203.167 147.672 202.639 147.262 202.32C146.858 201.995 146.249 201.832 145.436 201.832C144.596 201.832 143.938 202.005 143.463 202.35C143.157 202.571 143.004 202.867 143.004 203.238C143.004 203.577 143.147 203.867 143.434 204.107C143.798 204.413 144.684 204.732 146.09 205.064C147.496 205.396 148.535 205.742 149.205 206.1C149.882 206.451 150.41 206.936 150.787 207.555C151.171 208.167 151.363 208.925 151.363 209.83C151.363 210.65 151.135 211.419 150.68 212.135C150.224 212.851 149.579 213.385 148.746 213.736C147.913 214.081 146.874 214.254 145.631 214.254C143.821 214.254 142.431 213.837 141.461 213.004C140.491 212.164 139.911 210.943 139.723 209.342ZM158.931 203.629V205.816H157.056V209.996C157.056 210.842 157.073 211.337 157.105 211.48C157.144 211.617 157.226 211.731 157.349 211.822C157.479 211.913 157.636 211.959 157.818 211.959C158.072 211.959 158.44 211.871 158.921 211.695L159.156 213.824C158.518 214.098 157.795 214.234 156.988 214.234C156.493 214.234 156.047 214.153 155.65 213.99C155.253 213.821 154.96 213.606 154.771 213.346C154.589 213.079 154.462 212.721 154.39 212.271C154.332 211.952 154.302 211.308 154.302 210.338V205.816H153.043V203.629H154.302V201.568L157.056 199.967V203.629H158.931ZM163.286 206.793L160.796 206.344C161.076 205.341 161.558 204.599 162.241 204.117C162.925 203.635 163.941 203.395 165.288 203.395C166.512 203.395 167.424 203.541 168.023 203.834C168.622 204.12 169.042 204.488 169.282 204.938C169.53 205.38 169.654 206.197 169.654 207.389L169.624 210.592C169.624 211.503 169.667 212.177 169.751 212.613C169.842 213.043 170.008 213.505 170.249 214H167.534C167.463 213.818 167.375 213.548 167.271 213.189C167.225 213.027 167.193 212.919 167.173 212.867C166.704 213.323 166.203 213.665 165.669 213.893C165.135 214.12 164.566 214.234 163.96 214.234C162.892 214.234 162.049 213.945 161.431 213.365C160.819 212.786 160.513 212.053 160.513 211.168C160.513 210.582 160.653 210.061 160.933 209.605C161.213 209.143 161.603 208.792 162.105 208.551C162.612 208.303 163.342 208.089 164.292 207.906C165.575 207.665 166.463 207.441 166.958 207.232V206.959C166.958 206.432 166.828 206.057 166.568 205.836C166.307 205.608 165.816 205.494 165.093 205.494C164.605 205.494 164.224 205.592 163.95 205.787C163.677 205.976 163.456 206.311 163.286 206.793ZM166.958 209.02C166.607 209.137 166.05 209.277 165.288 209.439C164.527 209.602 164.029 209.762 163.794 209.918C163.436 210.172 163.257 210.494 163.257 210.885C163.257 211.269 163.4 211.601 163.687 211.881C163.973 212.161 164.338 212.301 164.78 212.301C165.275 212.301 165.747 212.138 166.196 211.812C166.529 211.565 166.747 211.262 166.851 210.904C166.922 210.67 166.958 210.224 166.958 209.566V209.02ZM175.395 214H172.651V203.629H175.2V205.104C175.636 204.407 176.027 203.948 176.372 203.727C176.723 203.505 177.121 203.395 177.563 203.395C178.188 203.395 178.79 203.567 179.37 203.912L178.52 206.305C178.058 206.005 177.628 205.855 177.231 205.855C176.847 205.855 176.522 205.963 176.255 206.178C175.988 206.386 175.776 206.767 175.62 207.32C175.47 207.874 175.395 209.033 175.395 210.797V214ZM183.588 214H180.844V203.629H183.393V205.104C183.829 204.407 184.22 203.948 184.565 203.727C184.916 203.505 185.314 203.395 185.756 203.395C186.381 203.395 186.983 203.567 187.563 203.912L186.713 206.305C186.251 206.005 185.821 205.855 185.424 205.855C185.04 205.855 184.715 205.963 184.448 206.178C184.181 206.386 183.969 206.767 183.813 207.32C183.663 207.874 183.588 209.033 183.588 210.797V214ZM195.16 210.699L197.895 211.158C197.543 212.161 196.986 212.926 196.225 213.453C195.469 213.974 194.522 214.234 193.383 214.234C191.579 214.234 190.245 213.645 189.379 212.467C188.695 211.523 188.354 210.331 188.354 208.893C188.354 207.174 188.803 205.829 189.701 204.859C190.6 203.883 191.736 203.395 193.109 203.395C194.652 203.395 195.87 203.906 196.762 204.928C197.654 205.943 198.08 207.503 198.041 209.605H191.166C191.186 210.419 191.407 211.054 191.83 211.51C192.253 211.959 192.781 212.184 193.412 212.184C193.842 212.184 194.203 212.066 194.496 211.832C194.789 211.598 195.01 211.22 195.16 210.699ZM195.316 207.926C195.297 207.132 195.092 206.529 194.701 206.119C194.311 205.702 193.835 205.494 193.275 205.494C192.676 205.494 192.182 205.712 191.791 206.148C191.4 206.585 191.208 207.177 191.215 207.926H195.316ZM210.199 214H207.65V212.477C207.227 213.069 206.726 213.512 206.146 213.805C205.573 214.091 204.994 214.234 204.408 214.234C203.216 214.234 202.194 213.756 201.341 212.799C200.495 211.835 200.072 210.494 200.072 208.775C200.072 207.018 200.485 205.683 201.312 204.771C202.139 203.854 203.184 203.395 204.447 203.395C205.606 203.395 206.608 203.876 207.455 204.84V199.684H210.199V214ZM202.875 208.59C202.875 209.697 203.028 210.497 203.334 210.992C203.776 211.708 204.395 212.066 205.189 212.066C205.821 212.066 206.358 211.799 206.8 211.266C207.243 210.725 207.464 209.921 207.464 208.854C207.464 207.662 207.25 206.806 206.82 206.285C206.39 205.758 205.84 205.494 205.17 205.494C204.518 205.494 203.972 205.755 203.529 206.275C203.093 206.79 202.875 207.561 202.875 208.59ZM219.319 214V199.684H229.134V202.105H222.21V205.494H228.186V207.916H222.21V214H219.319ZM231.907 202.223V199.684H234.651V202.223H231.907ZM231.907 214V203.629H234.651V214H231.907ZM237.873 214V199.684H240.617V214H237.873ZM249.845 210.699L252.58 211.158C252.228 212.161 251.671 212.926 250.91 213.453C250.155 213.974 249.207 214.234 248.068 214.234C246.265 214.234 244.93 213.645 244.064 212.467C243.38 211.523 243.039 210.331 243.039 208.893C243.039 207.174 243.488 205.829 244.386 204.859C245.285 203.883 246.421 203.395 247.795 203.395C249.338 203.395 250.555 203.906 251.447 204.928C252.339 205.943 252.765 207.503 252.726 209.605H245.851C245.871 210.419 246.092 211.054 246.515 211.51C246.938 211.959 247.466 212.184 248.097 212.184C248.527 212.184 248.888 212.066 249.181 211.832C249.474 211.598 249.696 211.22 249.845 210.699ZM250.002 207.926C249.982 207.132 249.777 206.529 249.386 206.119C248.996 205.702 248.52 205.494 247.961 205.494C247.362 205.494 246.867 205.712 246.476 206.148C246.086 206.585 245.893 207.177 245.9 207.926H250.002ZM254.405 211.041L257.159 210.621C257.277 211.155 257.514 211.562 257.872 211.842C258.23 212.115 258.732 212.252 259.376 212.252C260.086 212.252 260.62 212.122 260.978 211.861C261.219 211.679 261.339 211.435 261.339 211.129C261.339 210.921 261.274 210.748 261.144 210.611C261.007 210.481 260.701 210.361 260.226 210.25C258.012 209.762 256.609 209.316 256.017 208.912C255.196 208.352 254.786 207.574 254.786 206.578C254.786 205.68 255.141 204.924 255.851 204.312C256.56 203.701 257.661 203.395 259.152 203.395C260.571 203.395 261.626 203.626 262.316 204.088C263.006 204.55 263.481 205.234 263.741 206.139L261.154 206.617C261.043 206.214 260.831 205.904 260.519 205.689C260.213 205.475 259.773 205.367 259.2 205.367C258.478 205.367 257.96 205.468 257.648 205.67C257.439 205.813 257.335 205.999 257.335 206.227C257.335 206.422 257.426 206.588 257.609 206.725C257.856 206.907 258.709 207.164 260.167 207.496C261.632 207.828 262.654 208.235 263.234 208.717C263.807 209.205 264.093 209.885 264.093 210.758C264.093 211.708 263.696 212.525 262.902 213.209C262.107 213.893 260.932 214.234 259.376 214.234C257.963 214.234 256.844 213.948 256.017 213.375C255.196 212.802 254.659 212.024 254.405 211.041Z" fill="#212128"/>
<rect x="12" y="110" width="92" height="41" rx="20.5" fill="#FEEC00"/>
<line x1="34.8521" y1="120.536" x2="34.72" y2="140.488" stroke="#5A5874" stroke-width="3.76504"/>
<line x1="24.5239" y1="130.003" x2="44.4763" y2="130.003" stroke="#5A5874" stroke-width="3.76504"/>
<ellipse cx="34.7076" cy="120.524" rx="1.73193" ry="1.5241" fill="#5A5874"/>
<ellipse cx="34.5695" cy="140.476" rx="1.73193" ry="1.5241" fill="#5A5874"/>
<ellipse cx="24.5241" cy="130.154" rx="1.73193" ry="1.5241" transform="rotate(-90 24.5241 130.154)" fill="#5A5874"/>
<ellipse cx="44.476" cy="130.154" rx="1.73193" ry="1.5241" transform="rotate(-90 44.476 130.154)" fill="#5A5874"/>
<path d="M54.3359 137V124.115H56.8672L62.1406 132.72V124.115H64.5576V137H61.9473L56.7529 128.598V137H54.3359ZM72.7051 134.029L75.166 134.442C74.8496 135.345 74.3486 136.033 73.6631 136.508C72.9834 136.977 72.1309 137.211 71.1055 137.211C69.4824 137.211 68.2812 136.681 67.502 135.62C66.8867 134.771 66.5791 133.698 66.5791 132.403C66.5791 130.856 66.9834 129.646 67.792 128.773C68.6006 127.895 69.623 127.455 70.8594 127.455C72.248 127.455 73.3438 127.915 74.1465 128.835C74.9492 129.749 75.333 131.152 75.2979 133.045H69.1104C69.1279 133.777 69.3271 134.349 69.708 134.759C70.0889 135.163 70.5635 135.365 71.1318 135.365C71.5186 135.365 71.8438 135.26 72.1074 135.049C72.3711 134.838 72.5703 134.498 72.7051 134.029ZM72.8457 131.533C72.8281 130.818 72.6436 130.276 72.292 129.907C71.9404 129.532 71.5127 129.345 71.0088 129.345C70.4697 129.345 70.0244 129.541 69.6729 129.934C69.3213 130.326 69.1484 130.859 69.1543 131.533H72.8457ZM79.0596 137L76.1064 127.666H78.5059L80.2549 133.783L81.8633 127.666H84.2451L85.8008 133.783L87.585 127.666H90.0195L87.0225 137H84.6494L83.041 130.997L81.459 137H79.0596Z" fill="#5A5874"/>
<path d="M63.3582 361.328C63.3582 364.564 60.7716 367.156 57.6195 367.156C54.4674 367.156 51.8807 364.564 51.8807 361.328C51.8807 358.092 54.4674 355.5 57.6195 355.5C60.7716 355.5 63.3582 358.092 63.3582 361.328Z" stroke="white" stroke-width="3"/>
<path d="M71.4195 383.457C61.5152 388.983 48.3051 386.136 43.5947 383.402C43.2413 383.197 43.0217 382.827 43.0065 382.419C42.7559 375.699 49.8332 371.154 51.9531 370.821C52.2106 370.78 52.4393 370.922 52.6386 371.09C53.5152 371.828 55.2718 372.767 57.4404 372.767C59.027 372.767 61.0017 372.023 62.1433 371.312C62.5752 371.044 63.1057 370.909 63.5747 371.106C66.3924 372.29 71.6705 375.866 72.0723 382.279C72.1026 382.764 71.8438 383.22 71.4195 383.457Z" stroke="white" stroke-width="3"/>
<rect y="35" width="1440" height="51" fill="#ECEBEF"/>
<path d="M45.3754 69.5098L41.7623 55.8934H43.6106L45.6819 64.8193C45.9048 65.7543 46.0967 66.6831 46.2577 67.6057C46.6045 66.1506 46.8088 65.3115 46.8707 65.0886L49.4621 55.8934H51.6355L53.586 62.7852C54.0752 64.4942 54.4282 66.101 54.6449 67.6057C54.8183 66.745 55.0443 65.7574 55.3229 64.6428L57.4592 55.8934H59.2704L55.5365 69.5098H53.7997L50.9296 59.135C50.6882 58.2681 50.5457 57.7356 50.5024 57.5374C50.36 58.1628 50.2268 58.6953 50.103 59.135L47.2144 69.5098H45.3754ZM67.1467 66.3332L68.8742 66.5469C68.6018 67.5562 68.0971 68.3395 67.3603 68.8968C66.6234 69.454 65.6822 69.7327 64.5367 69.7327C63.094 69.7327 61.9484 69.2899 61.1001 68.4045C60.258 67.5128 59.8369 66.2651 59.8369 64.6614C59.8369 63.0019 60.2642 61.714 61.1187 60.7975C61.9732 59.8811 63.0816 59.4229 64.4438 59.4229C65.7627 59.4229 66.8401 59.8718 67.6761 60.7697C68.512 61.6675 68.93 62.9307 68.93 64.5592C68.93 64.6583 68.9269 64.8069 68.9207 65.005H61.5645C61.6264 66.0887 61.9329 66.9184 62.484 67.4942C63.0351 68.0701 63.7224 68.358 64.546 68.358C65.159 68.358 65.6822 68.197 66.1157 67.8751C66.5491 67.5531 66.8928 67.0391 67.1467 66.3332ZM61.6574 63.6304H67.1652C67.0909 62.8007 66.8804 62.1784 66.5336 61.7635C66.0011 61.1195 65.3107 60.7975 64.4624 60.7975C63.6946 60.7975 63.0475 61.0545 62.5212 61.5684C62.0011 62.0824 61.7131 62.7697 61.6574 63.6304Z" fill="black"/>
<path d="M108.722 64.7357L110.524 65.1908C110.146 66.6707 109.465 67.8008 108.48 68.581C107.502 69.355 106.304 69.742 104.886 69.742C103.418 69.742 102.223 69.4447 101.301 68.8503C100.384 68.2497 99.6846 67.3828 99.2016 66.2496C98.7248 65.1165 98.4864 63.8998 98.4864 62.5994C98.4864 61.1814 98.7558 59.9461 99.2945 58.8935C99.8394 57.8346 100.61 57.0328 101.607 56.4879C102.61 55.9368 103.713 55.6612 104.914 55.6612C106.276 55.6612 107.422 56.008 108.35 56.7015C109.279 57.395 109.926 58.3702 110.292 59.6272L108.518 60.0452C108.202 59.0545 107.744 58.3331 107.143 57.8811C106.542 57.4291 105.787 57.203 104.877 57.203C103.83 57.203 102.954 57.4538 102.248 57.9554C101.548 58.4569 101.056 59.1319 100.771 59.9802C100.486 60.8223 100.344 61.6923 100.344 62.5901C100.344 63.7481 100.511 64.7605 100.846 65.6273C101.186 66.488 101.713 67.132 102.425 67.5593C103.137 67.9865 103.908 68.2001 104.737 68.2001C105.747 68.2001 106.601 67.9091 107.301 67.3271C108.001 66.745 108.474 65.8812 108.722 64.7357ZM119.004 69.5098V68.0608C118.236 69.1754 117.193 69.7327 115.874 69.7327C115.292 69.7327 114.747 69.6212 114.239 69.3983C113.738 69.1754 113.363 68.8968 113.115 68.5624C112.874 68.2218 112.703 67.8069 112.604 67.3178C112.536 66.9896 112.502 66.4695 112.502 65.7574V59.6458H114.174V65.1165C114.174 65.9896 114.208 66.5778 114.276 66.8812C114.381 67.3209 114.604 67.6676 114.945 67.9215C115.286 68.1692 115.707 68.293 116.208 68.293C116.71 68.293 117.18 68.1661 117.62 67.9122C118.06 67.6521 118.369 67.3023 118.549 66.8627C118.734 66.4168 118.827 65.7729 118.827 64.9307V59.6458H120.499V69.5098H119.004ZM124.67 69.5098H123.118V55.8934H124.79V60.7511C125.496 59.8656 126.397 59.4229 127.493 59.4229C128.1 59.4229 128.673 59.5467 129.211 59.7944C129.756 60.0359 130.202 60.3796 130.549 60.8254C130.902 61.265 131.177 61.7976 131.376 62.4229C131.574 63.0483 131.673 63.7171 131.673 64.4292C131.673 66.1196 131.255 67.4261 130.419 68.3488C129.583 69.2714 128.58 69.7327 127.41 69.7327C126.245 69.7327 125.332 69.2466 124.67 68.2744V69.5098ZM124.651 64.5035C124.651 65.6862 124.812 66.5407 125.134 67.067C125.66 67.9277 126.372 68.358 127.27 68.358C128.001 68.358 128.633 68.0422 129.165 67.4107C129.698 66.7729 129.964 65.8255 129.964 64.5685C129.964 63.2805 129.707 62.3301 129.193 61.7171C128.685 61.104 128.069 60.7975 127.345 60.7975C126.614 60.7975 125.982 61.1164 125.45 61.7542C124.917 62.3858 124.651 63.3022 124.651 64.5035ZM140.469 66.3332L142.196 66.5469C141.924 67.5562 141.419 68.3395 140.682 68.8968C139.945 69.454 139.004 69.7327 137.859 69.7327C136.416 69.7327 135.27 69.2899 134.422 68.4045C133.58 67.5128 133.159 66.2651 133.159 64.6614C133.159 63.0019 133.586 61.714 134.441 60.7975C135.295 59.8811 136.404 59.4229 137.766 59.4229C139.085 59.4229 140.162 59.8718 140.998 60.7697C141.834 61.6675 142.252 62.9307 142.252 64.5592C142.252 64.6583 142.249 64.8069 142.243 65.005H134.886C134.948 66.0887 135.255 66.9184 135.806 67.4942C136.357 68.0701 137.044 68.358 137.868 68.358C138.481 68.358 139.004 68.197 139.438 67.8751C139.871 67.5531 140.215 67.0391 140.469 66.3332ZM134.979 63.6304H140.487C140.413 62.8007 140.202 62.1784 139.856 61.7635C139.323 61.1195 138.633 60.7975 137.784 60.7975C137.017 60.7975 136.369 61.0545 135.843 61.5684C135.323 62.0824 135.035 62.7697 134.979 63.6304Z" fill="black"/>
<path fill-rule="evenodd" clip-rule="evenodd" d="M94.0388 56.398C96.7017 56.398 98.8603 54.2393 98.8603 51.5764C98.8603 48.9136 96.7017 46.7549 94.0388 46.7549C91.4676 46.7549 89.3665 48.7674 89.2249 51.3031C88.4168 53.2825 87.2095 55.6313 86.1783 56.2659C85.45 56.714 83.7714 57.2216 82.0795 57.582C81.0868 56.8377 79.8534 56.3968 78.5171 56.3968C75.2341 56.3968 72.5728 59.0581 72.5728 62.3411C72.5728 65.6241 75.2341 68.2855 78.5171 68.2855C79.5972 68.2855 80.61 67.9975 81.4829 67.494C82.6071 67.7005 83.568 68.0126 84.0655 68.4838C85.0424 69.2747 85.8664 71.1578 86.4683 72.7252C86.7049 74.9095 88.5548 76.6097 90.802 76.6097C93.2095 76.6097 95.1612 74.658 95.1612 72.2505C95.1612 69.843 93.2095 67.8913 90.802 67.8913C90.2706 67.8913 89.7614 67.9864 89.2905 68.1605C87.3386 68.2244 84.9717 68.1137 84.3957 67.6912C83.8855 67.5159 83.4165 66.9652 83.0092 66.2344C83.914 65.1915 84.4615 63.8302 84.4615 62.3411C84.4615 61.3876 84.237 60.4866 83.838 59.6879C84.166 58.5658 84.7876 57.5097 86.4425 56.7282C88.9658 55.5367 90.7664 55.7213 92.1573 56.0171C92.7354 56.2623 93.3713 56.398 94.0388 56.398Z" fill="url(#paint0_linear)"/>
<circle cx="78.5171" cy="62.4751" r="5.94438" fill="#8883BB"/>
<circle cx="90.8683" cy="72.3166" r="4.55736" fill="#ED6A7C"/>
<circle cx="93.9729" cy="51.6425" r="4.8876" fill="#FEF79C"/>
</g>
</g>
<defs>
<linearGradient id="paint0_linear" x1="75.6771" y1="45.3678" x2="69.8645" y2="76.6097" gradientUnits="userSpaceOnUse">
<stop offset="0.209564" stop-color="#FEF79C"/>
<stop offset="0.35677" stop-color="#8883BB"/>
<stop offset="0.618577" stop-color="#8883BB"/>
<stop offset="0.699704" stop-color="#ED6A7C"/>
</linearGradient>
<clipPath id="clip0">
<rect width="1440" height="1024" fill="white"/>
</clipPath>
</defs>
</svg>
