<svg width="375" height="812" viewBox="0 0 375 812" fill="none" xmlns="http://www.w3.org/2000/svg">
<rect width="375" height="812" fill="white"/>
<rect width="375" height="812" fill="white"/>
<path d="M188.109 265.522L181.435 254.212L195.102 254.406L188.109 265.522Z" fill="white"/>
<path d="M65.352 205.5L69.936 188.364H67.656L64.176 202.62H64.128L60.336 188.364H57.864L54.024 202.62H53.976L50.616 188.364H48.288L52.68 205.5H55.056L59.016 191.1H59.064L62.976 205.5H65.352ZM79.0114 198.108H71.8834C71.9154 197.628 72.0194 197.18 72.1954 196.764C72.3714 196.332 72.6114 195.956 72.9154 195.636C73.2194 195.316 73.5794 195.068 73.9954 194.892C74.4274 194.7 74.9074 194.604 75.4354 194.604C75.9474 194.604 76.4114 194.7 76.8274 194.892C77.2594 195.068 77.6274 195.316 77.9314 195.636C78.2514 195.94 78.4994 196.308 78.6754 196.74C78.8674 197.172 78.9794 197.628 79.0114 198.108ZM80.9794 201.564H78.9634C78.7874 202.38 78.4194 202.988 77.8594 203.388C77.3154 203.788 76.6114 203.988 75.7474 203.988C75.0754 203.988 74.4914 203.876 73.9954 203.652C73.4994 203.428 73.0914 203.132 72.7714 202.764C72.4514 202.38 72.2194 201.948 72.0754 201.468C71.9314 200.972 71.8674 200.452 71.8834 199.908H81.1714C81.2034 199.156 81.1314 198.364 80.9554 197.532C80.7954 196.7 80.4914 195.932 80.0434 195.228C79.6114 194.524 79.0274 193.948 78.2914 193.5C77.5714 193.036 76.6594 192.804 75.5554 192.804C74.7074 192.804 73.9234 192.964 73.2034 193.284C72.4994 193.604 71.8834 194.052 71.3554 194.628C70.8434 195.204 70.4434 195.884 70.1554 196.668C69.8674 197.452 69.7234 198.316 69.7234 199.26C69.7554 200.204 69.8914 201.076 70.1314 201.876C70.3874 202.676 70.7634 203.364 71.2594 203.94C71.7554 204.516 72.3634 204.964 73.0834 205.284C73.8194 205.604 74.6834 205.764 75.6754 205.764C77.0834 205.764 78.2514 205.412 79.1794 204.708C80.1074 204.004 80.7074 202.956 80.9794 201.564ZM83.406 188.364V205.5H85.446V188.364H83.406ZM97.0303 197.076H99.1423C99.0623 196.34 98.8703 195.708 98.5663 195.18C98.2623 194.636 97.8703 194.188 97.3903 193.836C96.9263 193.484 96.3823 193.228 95.7583 193.068C95.1503 192.892 94.4943 192.804 93.7903 192.804C92.8143 192.804 91.9583 192.98 91.2223 193.332C90.4863 193.668 89.8703 194.14 89.3743 194.748C88.8943 195.34 88.5343 196.044 88.2943 196.86C88.0543 197.66 87.9343 198.524 87.9343 199.452C87.9343 200.38 88.0543 201.236 88.2943 202.02C88.5503 202.788 88.9183 203.452 89.3983 204.012C89.8943 204.572 90.5023 205.004 91.2223 205.308C91.9583 205.612 92.7983 205.764 93.7423 205.764C95.3263 205.764 96.5743 205.348 97.4863 204.516C98.4143 203.684 98.9903 202.5 99.2143 200.964H97.1263C96.9983 201.924 96.6463 202.668 96.0703 203.196C95.5103 203.724 94.7263 203.988 93.7183 203.988C93.0783 203.988 92.5263 203.86 92.0623 203.604C91.5983 203.348 91.2223 203.012 90.9343 202.596C90.6463 202.164 90.4303 201.676 90.2863 201.132C90.1583 200.588 90.0943 200.028 90.0943 199.452C90.0943 198.828 90.1583 198.228 90.2863 197.652C90.4143 197.06 90.6223 196.54 90.9103 196.092C91.2143 195.644 91.6143 195.284 92.1103 195.012C92.6063 194.74 93.2223 194.604 93.9583 194.604C94.8223 194.604 95.5103 194.82 96.0223 195.252C96.5343 195.684 96.8703 196.292 97.0303 197.076ZM102.985 199.308C102.985 198.556 103.081 197.892 103.273 197.316C103.481 196.724 103.761 196.228 104.113 195.828C104.465 195.428 104.873 195.124 105.337 194.916C105.817 194.708 106.321 194.604 106.849 194.604C107.377 194.604 107.873 194.708 108.337 194.916C108.817 195.124 109.233 195.428 109.585 195.828C109.937 196.228 110.209 196.724 110.401 197.316C110.609 197.892 110.713 198.556 110.713 199.308C110.713 200.06 110.609 200.732 110.401 201.324C110.209 201.9 109.937 202.388 109.585 202.788C109.233 203.172 108.817 203.468 108.337 203.676C107.873 203.884 107.377 203.988 106.849 203.988C106.321 203.988 105.817 203.884 105.337 203.676C104.873 203.468 104.465 203.172 104.113 202.788C103.761 202.388 103.481 201.9 103.273 201.324C103.081 200.732 102.985 200.06 102.985 199.308ZM100.825 199.308C100.825 200.22 100.953 201.068 101.209 201.852C101.465 202.636 101.849 203.324 102.361 203.916C102.873 204.492 103.505 204.948 104.257 205.284C105.009 205.604 105.873 205.764 106.849 205.764C107.841 205.764 108.705 205.604 109.441 205.284C110.193 204.948 110.825 204.492 111.337 203.916C111.849 203.324 112.233 202.636 112.489 201.852C112.745 201.068 112.873 200.22 112.873 199.308C112.873 198.396 112.745 197.548 112.489 196.764C112.233 195.964 111.849 195.276 111.337 194.7C110.825 194.108 110.193 193.644 109.441 193.308C108.705 192.972 107.841 192.804 106.849 192.804C105.873 192.804 105.009 192.972 104.257 193.308C103.505 193.644 102.873 194.108 102.361 194.7C101.849 195.276 101.465 195.964 101.209 196.764C100.953 197.548 100.825 198.396 100.825 199.308ZM115.278 193.092V205.5H117.318V197.772C117.318 197.532 117.374 197.236 117.486 196.884C117.614 196.516 117.806 196.164 118.062 195.828C118.334 195.492 118.678 195.204 119.094 194.964C119.526 194.724 120.038 194.604 120.63 194.604C121.094 194.604 121.47 194.676 121.758 194.82C122.062 194.948 122.302 195.14 122.478 195.396C122.654 195.636 122.774 195.924 122.838 196.26C122.918 196.596 122.958 196.964 122.958 197.364V205.5H124.998V197.772C124.998 196.812 125.286 196.044 125.862 195.468C126.438 194.892 127.23 194.604 128.238 194.604C128.734 194.604 129.134 194.676 129.438 194.82C129.758 194.964 130.006 195.164 130.182 195.42C130.358 195.66 130.478 195.948 130.542 196.284C130.606 196.62 130.638 196.98 130.638 197.364V205.5H132.678V196.404C132.678 195.764 132.574 195.22 132.366 194.772C132.174 194.308 131.894 193.932 131.526 193.644C131.174 193.356 130.742 193.148 130.23 193.02C129.734 192.876 129.174 192.804 128.55 192.804C127.734 192.804 126.982 192.988 126.294 193.356C125.622 193.724 125.078 194.244 124.662 194.916C124.406 194.148 123.966 193.604 123.342 193.284C122.718 192.964 122.022 192.804 121.254 192.804C119.51 192.804 118.174 193.508 117.246 194.916H117.198V193.092H115.278ZM144.355 198.108H137.227C137.259 197.628 137.363 197.18 137.539 196.764C137.715 196.332 137.955 195.956 138.259 195.636C138.563 195.316 138.923 195.068 139.339 194.892C139.771 194.7 140.251 194.604 140.779 194.604C141.291 194.604 141.755 194.7 142.171 194.892C142.603 195.068 142.971 195.316 143.275 195.636C143.595 195.94 143.843 196.308 144.019 196.74C144.211 197.172 144.323 197.628 144.355 198.108ZM146.323 201.564H144.307C144.131 202.38 143.763 202.988 143.203 203.388C142.659 203.788 141.955 203.988 141.091 203.988C140.419 203.988 139.835 203.876 139.339 203.652C138.843 203.428 138.435 203.132 138.115 202.764C137.795 202.38 137.563 201.948 137.419 201.468C137.275 200.972 137.211 200.452 137.227 199.908H146.515C146.547 199.156 146.475 198.364 146.299 197.532C146.139 196.7 145.835 195.932 145.387 195.228C144.955 194.524 144.371 193.948 143.635 193.5C142.915 193.036 142.003 192.804 140.899 192.804C140.051 192.804 139.267 192.964 138.547 193.284C137.843 193.604 137.227 194.052 136.699 194.628C136.187 195.204 135.787 195.884 135.499 196.668C135.211 197.452 135.067 198.316 135.067 199.26C135.099 200.204 135.235 201.076 135.475 201.876C135.731 202.676 136.107 203.364 136.603 203.94C137.099 204.516 137.707 204.964 138.427 205.284C139.163 205.604 140.027 205.764 141.019 205.764C142.427 205.764 143.595 205.412 144.523 204.708C145.451 204.004 146.051 202.956 146.323 201.564ZM158.141 193.092V189.372H156.101V193.092H153.989V194.892H156.101V202.788C156.101 203.364 156.157 203.828 156.269 204.18C156.381 204.532 156.549 204.804 156.773 204.996C157.013 205.188 157.317 205.324 157.685 205.404C158.069 205.468 158.525 205.5 159.053 205.5H160.613V203.7H159.677C159.357 203.7 159.093 203.692 158.885 203.676C158.693 203.644 158.541 203.588 158.429 203.508C158.317 203.428 158.237 203.316 158.189 203.172C158.157 203.028 158.141 202.836 158.141 202.596V194.892H160.613V193.092H158.141ZM164.368 199.308C164.368 198.556 164.464 197.892 164.656 197.316C164.864 196.724 165.144 196.228 165.496 195.828C165.848 195.428 166.256 195.124 166.72 194.916C167.2 194.708 167.704 194.604 168.232 194.604C168.76 194.604 169.256 194.708 169.72 194.916C170.2 195.124 170.616 195.428 170.968 195.828C171.32 196.228 171.592 196.724 171.784 197.316C171.992 197.892 172.096 198.556 172.096 199.308C172.096 200.06 171.992 200.732 171.784 201.324C171.592 201.9 171.32 202.388 170.968 202.788C170.616 203.172 170.2 203.468 169.72 203.676C169.256 203.884 168.76 203.988 168.232 203.988C167.704 203.988 167.2 203.884 166.72 203.676C166.256 203.468 165.848 203.172 165.496 202.788C165.144 202.388 164.864 201.9 164.656 201.324C164.464 200.732 164.368 200.06 164.368 199.308ZM162.208 199.308C162.208 200.22 162.336 201.068 162.592 201.852C162.848 202.636 163.232 203.324 163.744 203.916C164.256 204.492 164.888 204.948 165.64 205.284C166.392 205.604 167.256 205.764 168.232 205.764C169.224 205.764 170.088 205.604 170.824 205.284C171.576 204.948 172.208 204.492 172.72 203.916C173.232 203.324 173.616 202.636 173.872 201.852C174.128 201.068 174.256 200.22 174.256 199.308C174.256 198.396 174.128 197.548 173.872 196.764C173.616 195.964 173.232 195.276 172.72 194.7C172.208 194.108 171.576 193.644 170.824 193.308C170.088 192.972 169.224 192.804 168.232 192.804C167.256 192.804 166.392 192.972 165.64 193.308C164.888 193.644 164.256 194.108 163.744 194.7C163.232 195.276 162.848 195.964 162.592 196.764C162.336 197.548 162.208 198.396 162.208 199.308Z" fill="black"/>
<rect x="176" y="172" width="150.348" height="50" fill="white"/>
<path d="M191.002 207.544L186.237 189.586H188.675L191.406 201.358C191.7 202.591 191.953 203.816 192.166 205.033C192.623 203.114 192.893 202.007 192.974 201.713L196.392 189.586H199.258L201.831 198.675C202.476 200.929 202.941 203.048 203.227 205.033C203.456 203.898 203.754 202.595 204.121 201.125L206.939 189.586H209.327L204.403 207.544H202.112L198.327 193.861C198.009 192.718 197.821 192.016 197.764 191.754C197.576 192.579 197.4 193.281 197.237 193.861L193.427 207.544H191.002ZM219.715 203.355L221.993 203.636C221.634 204.967 220.969 206.001 219.997 206.735C219.025 207.47 217.784 207.838 216.273 207.838C214.37 207.838 212.859 207.254 211.74 206.086C210.63 204.91 210.075 203.265 210.075 201.15C210.075 198.961 210.638 197.262 211.765 196.054C212.892 194.845 214.354 194.241 216.15 194.241C217.89 194.241 219.311 194.833 220.413 196.017C221.516 197.201 222.067 198.867 222.067 201.015C222.067 201.146 222.063 201.342 222.055 201.603H212.353C212.435 203.032 212.839 204.126 213.566 204.886C214.292 205.645 215.199 206.025 216.285 206.025C217.094 206.025 217.784 205.813 218.355 205.388C218.927 204.963 219.38 204.286 219.715 203.355ZM212.475 199.79H219.739C219.641 198.696 219.364 197.875 218.906 197.328C218.204 196.479 217.294 196.054 216.175 196.054C215.162 196.054 214.309 196.393 213.615 197.071C212.929 197.748 212.549 198.655 212.475 199.79Z" fill="black"/>
<path d="M274.748 201.704L277.125 202.304C276.627 204.256 275.728 205.746 274.43 206.775C273.14 207.796 271.56 208.306 269.689 208.306C267.754 208.306 266.178 207.914 264.961 207.13C263.752 206.338 262.83 205.195 262.193 203.7C261.564 202.206 261.249 200.601 261.249 198.886C261.249 197.016 261.605 195.387 262.315 193.999C263.034 192.602 264.051 191.545 265.365 190.826C266.688 190.099 268.142 189.736 269.726 189.736C271.523 189.736 273.034 190.193 274.258 191.108C275.483 192.022 276.337 193.309 276.819 194.966L274.479 195.518C274.063 194.211 273.458 193.26 272.666 192.664C271.874 192.067 270.878 191.769 269.677 191.769C268.297 191.769 267.141 192.1 266.211 192.762C265.288 193.423 264.639 194.313 264.263 195.432C263.887 196.543 263.699 197.69 263.699 198.874C263.699 200.401 263.92 201.736 264.361 202.88C264.81 204.015 265.504 204.864 266.443 205.428C267.382 205.991 268.399 206.273 269.493 206.273C270.825 206.273 271.951 205.889 272.874 205.121C273.797 204.354 274.422 203.215 274.748 201.704ZM279.734 208V190.042H281.939V208H279.734ZM284.548 201.495C284.548 199.086 285.218 197.302 286.557 196.142C287.676 195.179 289.04 194.697 290.648 194.697C292.437 194.697 293.899 195.285 295.034 196.461C296.169 197.629 296.736 199.246 296.736 201.312C296.736 202.986 296.483 204.305 295.977 205.268C295.479 206.224 294.748 206.967 293.784 207.498C292.829 208.029 291.784 208.294 290.648 208.294C288.827 208.294 287.353 207.71 286.226 206.542C285.108 205.375 284.548 203.692 284.548 201.495ZM286.814 201.495C286.814 203.161 287.178 204.411 287.905 205.244C288.631 206.069 289.546 206.481 290.648 206.481C291.743 206.481 292.653 206.065 293.38 205.232C294.107 204.399 294.47 203.129 294.47 201.422C294.47 199.813 294.103 198.596 293.368 197.772C292.641 196.939 291.735 196.522 290.648 196.522C289.546 196.522 288.631 196.935 287.905 197.759C287.178 198.584 286.814 199.83 286.814 201.495ZM307.859 208V206.089C306.846 207.559 305.47 208.294 303.731 208.294C302.963 208.294 302.245 208.147 301.575 207.853C300.914 207.559 300.419 207.192 300.093 206.751C299.774 206.301 299.55 205.754 299.419 205.109C299.329 204.676 299.284 203.99 299.284 203.051V194.991H301.489V202.206C301.489 203.357 301.534 204.133 301.624 204.533C301.763 205.113 302.057 205.571 302.506 205.905C302.955 206.232 303.51 206.395 304.172 206.395C304.833 206.395 305.454 206.228 306.034 205.893C306.614 205.55 307.022 205.089 307.259 204.509C307.504 203.921 307.626 203.072 307.626 201.961V194.991H309.831V208H307.859ZM321.738 208V206.359C320.913 207.649 319.7 208.294 318.1 208.294C317.063 208.294 316.107 208.008 315.233 207.437C314.368 206.865 313.694 206.069 313.212 205.048C312.738 204.019 312.502 202.839 312.502 201.508C312.502 200.209 312.718 199.033 313.151 197.98C313.584 196.918 314.233 196.106 315.099 195.542C315.964 194.979 316.932 194.697 318.002 194.697C318.786 194.697 319.484 194.864 320.096 195.199C320.709 195.526 321.207 195.955 321.591 196.485V190.042H323.783V208H321.738ZM314.768 201.508C314.768 203.174 315.119 204.419 315.821 205.244C316.524 206.069 317.352 206.481 318.308 206.481C319.272 206.481 320.088 206.089 320.758 205.305C321.436 204.513 321.775 203.308 321.775 201.691C321.775 199.911 321.432 198.605 320.746 197.772C320.06 196.939 319.214 196.522 318.21 196.522C317.23 196.522 316.409 196.922 315.748 197.723C315.094 198.523 314.768 199.785 314.768 201.508Z" fill="black"/>
<path fill-rule="evenodd" clip-rule="evenodd" d="M255.181 190.99C258.693 190.99 261.54 188.143 261.54 184.631C261.54 181.119 258.693 178.272 255.181 178.272C251.79 178.272 249.019 180.926 248.833 184.271C247.767 186.881 246.175 189.979 244.815 190.816C243.854 191.407 241.639 192.076 239.407 192.552C238.098 191.571 236.472 190.99 234.711 190.99C230.381 190.99 226.871 194.5 226.871 198.829C226.871 203.159 230.381 206.669 234.711 206.669C236.135 206.669 237.471 206.289 238.623 205.625C240.105 205.897 241.372 206.309 242.028 206.931C243.317 207.974 244.404 210.458 245.198 212.525C245.511 215.404 247.95 217.645 250.913 217.645C254.088 217.645 256.662 215.071 256.662 211.896C256.662 208.721 254.088 206.147 250.913 206.147C250.209 206.147 249.535 206.273 248.912 206.504C246.339 206.588 243.223 206.442 242.464 205.885C241.791 205.654 241.173 204.928 240.635 203.964C241.828 202.588 242.551 200.793 242.551 198.829C242.551 197.572 242.254 196.383 241.728 195.33C242.16 193.849 242.98 192.456 245.163 191.425C248.491 189.854 250.866 190.097 252.7 190.487C253.462 190.811 254.301 190.99 255.181 190.99Z" fill="url(#paint0_linear_303_1751)"/>
<circle cx="234.711" cy="199.004" r="7.83972" fill="#8883BB"/>
<circle cx="251" cy="211.983" r="6.01045" fill="#ED6A7C"/>
<circle cx="255.094" cy="184.718" r="6.44599" fill="#FEF79C"/>
<rect x="31" y="287" width="314" height="61" rx="20" fill="#1700FF"/>
<path d="M145.152 316.753V310.465H149.616C150.912 310.465 151.856 310.737 152.448 311.281C153.056 311.809 153.36 312.585 153.36 313.609C153.36 314.633 153.056 315.417 152.448 315.961C151.856 316.505 150.912 316.769 149.616 316.753H145.152ZM142.872 308.545V325.681H145.152V318.673H150.384C152.112 318.689 153.416 318.249 154.296 317.353C155.192 316.457 155.64 315.209 155.64 313.609C155.64 312.009 155.192 310.769 154.296 309.889C153.416 308.993 152.112 308.545 150.384 308.545H142.872ZM166.715 318.289H159.587C159.619 317.809 159.723 317.361 159.899 316.945C160.075 316.513 160.315 316.137 160.619 315.817C160.923 315.497 161.283 315.249 161.699 315.073C162.131 314.881 162.611 314.785 163.139 314.785C163.651 314.785 164.115 314.881 164.531 315.073C164.963 315.249 165.331 315.497 165.635 315.817C165.955 316.121 166.203 316.489 166.379 316.921C166.571 317.353 166.683 317.809 166.715 318.289ZM168.682 321.745H166.667C166.491 322.561 166.123 323.169 165.563 323.569C165.019 323.969 164.315 324.169 163.451 324.169C162.779 324.169 162.195 324.057 161.699 323.833C161.203 323.609 160.795 323.313 160.475 322.945C160.155 322.561 159.923 322.129 159.779 321.649C159.635 321.153 159.571 320.633 159.587 320.089H168.875C168.907 319.337 168.835 318.545 168.659 317.713C168.499 316.881 168.195 316.113 167.747 315.409C167.315 314.705 166.731 314.129 165.995 313.681C165.275 313.217 164.363 312.985 163.259 312.985C162.411 312.985 161.627 313.145 160.907 313.465C160.203 313.785 159.587 314.233 159.059 314.809C158.547 315.385 158.147 316.065 157.859 316.849C157.571 317.633 157.427 318.497 157.427 319.441C157.459 320.385 157.595 321.257 157.835 322.057C158.091 322.857 158.467 323.545 158.963 324.121C159.459 324.697 160.067 325.145 160.787 325.465C161.523 325.785 162.387 325.945 163.379 325.945C164.787 325.945 165.955 325.593 166.883 324.889C167.811 324.185 168.411 323.137 168.682 321.745ZM170.917 313.273V325.681H172.957V320.161C172.957 319.361 173.037 318.657 173.197 318.049C173.357 317.425 173.613 316.897 173.965 316.465C174.317 316.033 174.781 315.705 175.357 315.481C175.933 315.257 176.629 315.145 177.445 315.145V312.985C176.341 312.953 175.429 313.177 174.709 313.657C173.989 314.137 173.381 314.881 172.885 315.889H172.837V313.273H170.917ZM180.229 321.769H178.189C178.221 322.537 178.381 323.193 178.669 323.737C178.957 324.265 179.341 324.697 179.821 325.033C180.301 325.353 180.853 325.585 181.477 325.729C182.101 325.873 182.757 325.945 183.445 325.945C184.069 325.945 184.693 325.881 185.317 325.753C185.957 325.641 186.525 325.433 187.021 325.129C187.533 324.825 187.941 324.425 188.245 323.929C188.565 323.433 188.725 322.809 188.725 322.057C188.725 321.465 188.605 320.969 188.365 320.569C188.141 320.169 187.837 319.841 187.453 319.585C187.085 319.313 186.653 319.097 186.157 318.937C185.677 318.777 185.181 318.641 184.669 318.529C184.189 318.417 183.709 318.313 183.229 318.217C182.749 318.105 182.317 317.977 181.933 317.833C181.549 317.673 181.229 317.481 180.973 317.257C180.733 317.017 180.613 316.721 180.613 316.369C180.613 316.049 180.693 315.793 180.853 315.601C181.013 315.393 181.221 315.233 181.477 315.121C181.733 314.993 182.013 314.905 182.317 314.857C182.637 314.809 182.949 314.785 183.253 314.785C183.589 314.785 183.917 314.825 184.237 314.905C184.573 314.969 184.877 315.081 185.149 315.241C185.421 315.401 185.645 315.617 185.821 315.889C185.997 316.145 186.101 316.473 186.133 316.873H188.173C188.125 316.121 187.965 315.497 187.693 315.001C187.421 314.489 187.053 314.089 186.589 313.801C186.141 313.497 185.621 313.289 185.029 313.177C184.437 313.049 183.789 312.985 183.085 312.985C182.541 312.985 181.989 313.057 181.429 313.201C180.885 313.329 180.389 313.537 179.941 313.825C179.509 314.097 179.149 314.457 178.861 314.905C178.589 315.353 178.453 315.889 178.453 316.513C178.453 317.313 178.653 317.937 179.053 318.385C179.453 318.833 179.949 319.185 180.541 319.441C181.149 319.681 181.805 319.873 182.509 320.017C183.213 320.145 183.861 320.297 184.453 320.473C185.061 320.633 185.565 320.849 185.965 321.121C186.365 321.393 186.565 321.793 186.565 322.321C186.565 322.705 186.469 323.025 186.277 323.281C186.085 323.521 185.837 323.705 185.533 323.833C185.245 323.961 184.925 324.049 184.573 324.097C184.221 324.145 183.885 324.169 183.565 324.169C183.149 324.169 182.741 324.129 182.341 324.049C181.957 323.969 181.605 323.841 181.285 323.665C180.981 323.473 180.733 323.225 180.541 322.921C180.349 322.601 180.245 322.217 180.229 321.769ZM192.469 319.489C192.469 318.737 192.565 318.073 192.757 317.497C192.965 316.905 193.245 316.409 193.597 316.009C193.949 315.609 194.357 315.305 194.821 315.097C195.301 314.889 195.805 314.785 196.333 314.785C196.861 314.785 197.357 314.889 197.821 315.097C198.301 315.305 198.717 315.609 199.069 316.009C199.421 316.409 199.693 316.905 199.885 317.497C200.093 318.073 200.197 318.737 200.197 319.489C200.197 320.241 200.093 320.913 199.885 321.505C199.693 322.081 199.421 322.569 199.069 322.969C198.717 323.353 198.301 323.649 197.821 323.857C197.357 324.065 196.861 324.169 196.333 324.169C195.805 324.169 195.301 324.065 194.821 323.857C194.357 323.649 193.949 323.353 193.597 322.969C193.245 322.569 192.965 322.081 192.757 321.505C192.565 320.913 192.469 320.241 192.469 319.489ZM190.309 319.489C190.309 320.401 190.437 321.249 190.693 322.033C190.949 322.817 191.333 323.505 191.845 324.097C192.357 324.673 192.989 325.129 193.741 325.465C194.493 325.785 195.357 325.945 196.333 325.945C197.325 325.945 198.189 325.785 198.925 325.465C199.677 325.129 200.309 324.673 200.821 324.097C201.333 323.505 201.717 322.817 201.973 322.033C202.229 321.249 202.357 320.401 202.357 319.489C202.357 318.577 202.229 317.729 201.973 316.945C201.717 316.145 201.333 315.457 200.821 314.881C200.309 314.289 199.677 313.825 198.925 313.489C198.189 313.153 197.325 312.985 196.333 312.985C195.357 312.985 194.493 313.153 193.741 313.489C192.989 313.825 192.357 314.289 191.845 314.881C191.333 315.457 190.949 316.145 190.693 316.945C190.437 317.729 190.309 318.577 190.309 319.489ZM204.763 313.273V325.681H206.803V318.673C206.803 318.113 206.875 317.601 207.019 317.137C207.179 316.657 207.411 316.241 207.715 315.889C208.019 315.537 208.395 315.265 208.843 315.073C209.307 314.881 209.851 314.785 210.475 314.785C211.259 314.785 211.875 315.009 212.323 315.457C212.771 315.905 212.995 316.513 212.995 317.281V325.681H215.035V317.521C215.035 316.849 214.963 316.241 214.819 315.697C214.691 315.137 214.459 314.657 214.123 314.257C213.787 313.857 213.347 313.545 212.803 313.321C212.259 313.097 211.579 312.985 210.763 312.985C208.923 312.985 207.579 313.737 206.731 315.241H206.683V313.273H204.763ZM229.091 325.633C228.739 325.841 228.251 325.945 227.627 325.945C227.099 325.945 226.675 325.801 226.355 325.513C226.051 325.209 225.899 324.721 225.899 324.049C225.339 324.721 224.683 325.209 223.931 325.513C223.195 325.801 222.395 325.945 221.531 325.945C220.971 325.945 220.435 325.881 219.923 325.753C219.427 325.625 218.995 325.425 218.627 325.153C218.259 324.881 217.963 324.529 217.739 324.097C217.531 323.649 217.427 323.113 217.427 322.489C217.427 321.785 217.547 321.209 217.787 320.761C218.027 320.313 218.339 319.953 218.723 319.681C219.123 319.393 219.571 319.177 220.067 319.033C220.579 318.889 221.099 318.769 221.627 318.673C222.187 318.561 222.715 318.481 223.211 318.433C223.723 318.369 224.171 318.289 224.555 318.193C224.939 318.081 225.243 317.929 225.467 317.737C225.691 317.529 225.803 317.233 225.803 316.849C225.803 316.401 225.715 316.041 225.539 315.769C225.379 315.497 225.163 315.289 224.891 315.145C224.635 315.001 224.339 314.905 224.003 314.857C223.683 314.809 223.363 314.785 223.043 314.785C222.179 314.785 221.459 314.953 220.883 315.289C220.307 315.609 219.995 316.225 219.947 317.137H217.907C217.939 316.369 218.099 315.721 218.387 315.193C218.675 314.665 219.059 314.241 219.539 313.921C220.019 313.585 220.563 313.345 221.171 313.201C221.795 313.057 222.459 312.985 223.163 312.985C223.723 312.985 224.275 313.025 224.819 313.105C225.379 313.185 225.883 313.353 226.331 313.609C226.779 313.849 227.139 314.193 227.411 314.641C227.683 315.089 227.819 315.673 227.819 316.393V322.777C227.819 323.257 227.843 323.609 227.891 323.833C227.955 324.057 228.147 324.169 228.467 324.169C228.643 324.169 228.851 324.129 229.091 324.049V325.633ZM225.779 319.273C225.523 319.465 225.187 319.609 224.771 319.705C224.355 319.785 223.915 319.857 223.451 319.921C223.003 319.969 222.547 320.033 222.083 320.113C221.619 320.177 221.203 320.289 220.835 320.449C220.467 320.609 220.163 320.841 219.923 321.145C219.699 321.433 219.587 321.833 219.587 322.345C219.587 322.681 219.651 322.969 219.779 323.209C219.923 323.433 220.099 323.617 220.307 323.761C220.531 323.905 220.787 324.009 221.075 324.073C221.363 324.137 221.667 324.169 221.987 324.169C222.659 324.169 223.235 324.081 223.715 323.905C224.195 323.713 224.587 323.481 224.891 323.209C225.195 322.921 225.419 322.617 225.563 322.297C225.707 321.961 225.779 321.649 225.779 321.361V319.273ZM231.109 308.545V325.681H233.149V308.545H231.109Z" fill="white"/>
<rect x="31" y="390" width="314" height="61" rx="20" fill="#ED6A7C"/>
<path d="M143.152 420.211V414.763H147.712C148.208 414.763 148.672 414.795 149.104 414.859C149.552 414.907 149.944 415.027 150.28 415.219C150.616 415.411 150.88 415.683 151.072 416.035C151.264 416.387 151.36 416.867 151.36 417.475C151.36 418.387 151.072 419.075 150.496 419.539C149.936 419.987 149.008 420.211 147.712 420.211H143.152ZM140.872 412.843V429.979H149.152C150 429.979 150.744 429.843 151.384 429.571C152.04 429.283 152.584 428.915 153.016 428.467C153.464 428.003 153.8 427.475 154.024 426.883C154.248 426.291 154.36 425.683 154.36 425.059C154.36 424.003 154.08 423.107 153.52 422.371C152.96 421.635 152.152 421.155 151.096 420.931V420.883C151.912 420.563 152.536 420.075 152.968 419.419C153.416 418.747 153.64 417.955 153.64 417.043C153.64 416.179 153.44 415.451 153.04 414.859C152.656 414.267 152.184 413.803 151.624 413.467C151.368 413.307 151.056 413.187 150.688 413.107C150.336 413.027 149.952 412.971 149.536 412.939C149.12 412.891 148.696 412.867 148.264 412.867C147.848 412.851 147.456 412.843 147.088 412.843H140.872ZM143.152 428.059V422.131H148.36C148.84 422.131 149.304 422.179 149.752 422.275C150.2 422.355 150.592 422.507 150.928 422.731C151.28 422.939 151.56 423.227 151.768 423.595C151.976 423.963 152.08 424.427 152.08 424.987C152.08 425.947 151.792 426.699 151.216 427.243C150.656 427.787 149.872 428.059 148.864 428.059H143.152ZM167.238 429.979V417.571H165.198V424.579C165.198 425.139 165.118 425.659 164.958 426.139C164.814 426.603 164.59 427.011 164.286 427.363C163.982 427.715 163.598 427.987 163.134 428.179C162.686 428.371 162.15 428.467 161.526 428.467C160.742 428.467 160.126 428.243 159.678 427.795C159.23 427.347 159.006 426.739 159.006 425.971V417.571H156.966V425.731C156.966 426.403 157.03 427.019 157.158 427.579C157.302 428.123 157.542 428.595 157.878 428.995C158.214 429.395 158.654 429.707 159.198 429.931C159.742 430.139 160.422 430.243 161.238 430.243C162.15 430.243 162.942 430.067 163.614 429.715C164.286 429.347 164.838 428.779 165.27 428.011H165.318V429.979H167.238ZM171.55 426.067H169.51C169.542 426.835 169.702 427.491 169.99 428.035C170.278 428.563 170.662 428.995 171.142 429.331C171.622 429.651 172.174 429.883 172.798 430.027C173.422 430.171 174.078 430.243 174.766 430.243C175.39 430.243 176.014 430.179 176.638 430.051C177.278 429.939 177.846 429.731 178.342 429.427C178.854 429.123 179.262 428.723 179.566 428.227C179.886 427.731 180.046 427.107 180.046 426.355C180.046 425.763 179.926 425.267 179.686 424.867C179.462 424.467 179.158 424.139 178.774 423.883C178.406 423.611 177.974 423.395 177.478 423.235C176.998 423.075 176.502 422.939 175.99 422.827C175.51 422.715 175.03 422.611 174.55 422.515C174.07 422.403 173.638 422.275 173.254 422.131C172.87 421.971 172.55 421.779 172.294 421.555C172.054 421.315 171.934 421.019 171.934 420.667C171.934 420.347 172.014 420.091 172.174 419.899C172.334 419.691 172.542 419.531 172.798 419.419C173.054 419.291 173.334 419.203 173.638 419.155C173.958 419.107 174.27 419.083 174.574 419.083C174.91 419.083 175.238 419.123 175.558 419.203C175.894 419.267 176.198 419.379 176.47 419.539C176.742 419.699 176.966 419.915 177.142 420.187C177.318 420.443 177.422 420.771 177.454 421.171H179.494C179.446 420.419 179.286 419.795 179.014 419.299C178.742 418.787 178.374 418.387 177.91 418.099C177.462 417.795 176.942 417.587 176.35 417.475C175.758 417.347 175.11 417.283 174.406 417.283C173.862 417.283 173.31 417.355 172.75 417.499C172.206 417.627 171.71 417.835 171.262 418.123C170.83 418.395 170.47 418.755 170.182 419.203C169.91 419.651 169.774 420.187 169.774 420.811C169.774 421.611 169.974 422.235 170.374 422.683C170.774 423.131 171.27 423.483 171.862 423.739C172.47 423.979 173.126 424.171 173.83 424.315C174.534 424.443 175.182 424.595 175.774 424.771C176.382 424.931 176.886 425.147 177.286 425.419C177.686 425.691 177.886 426.091 177.886 426.619C177.886 427.003 177.79 427.323 177.598 427.579C177.406 427.819 177.158 428.003 176.854 428.131C176.566 428.259 176.246 428.347 175.894 428.395C175.542 428.443 175.206 428.467 174.886 428.467C174.47 428.467 174.062 428.427 173.662 428.347C173.278 428.267 172.926 428.139 172.606 427.963C172.302 427.771 172.054 427.523 171.862 427.219C171.67 426.899 171.566 426.515 171.55 426.067ZM184.462 415.339V412.843H182.422V415.339H184.462ZM182.422 417.571V429.979H184.462V417.571H182.422ZM187.622 417.571V429.979H189.662V422.971C189.662 422.411 189.734 421.899 189.878 421.435C190.038 420.955 190.27 420.539 190.574 420.187C190.878 419.835 191.254 419.563 191.702 419.371C192.166 419.179 192.71 419.083 193.334 419.083C194.118 419.083 194.734 419.307 195.182 419.755C195.63 420.203 195.854 420.811 195.854 421.579V429.979H197.894V421.819C197.894 421.147 197.822 420.539 197.678 419.995C197.55 419.435 197.318 418.955 196.982 418.555C196.646 418.155 196.206 417.843 195.662 417.619C195.118 417.395 194.438 417.283 193.622 417.283C191.782 417.283 190.438 418.035 189.59 419.539H189.542V417.571H187.622ZM209.574 422.587H202.446C202.478 422.107 202.582 421.659 202.758 421.243C202.934 420.811 203.174 420.435 203.478 420.115C203.782 419.795 204.142 419.547 204.558 419.371C204.99 419.179 205.47 419.083 205.998 419.083C206.51 419.083 206.974 419.179 207.39 419.371C207.822 419.547 208.19 419.795 208.494 420.115C208.814 420.419 209.062 420.787 209.238 421.219C209.43 421.651 209.542 422.107 209.574 422.587ZM211.542 426.043H209.526C209.35 426.859 208.982 427.467 208.422 427.867C207.878 428.267 207.174 428.467 206.31 428.467C205.638 428.467 205.054 428.355 204.558 428.131C204.062 427.907 203.654 427.611 203.334 427.243C203.014 426.859 202.782 426.427 202.638 425.947C202.494 425.451 202.43 424.931 202.446 424.387H211.734C211.766 423.635 211.694 422.843 211.518 422.011C211.358 421.179 211.054 420.411 210.606 419.707C210.174 419.003 209.59 418.427 208.854 417.979C208.134 417.515 207.222 417.283 206.118 417.283C205.27 417.283 204.486 417.443 203.766 417.763C203.062 418.083 202.446 418.531 201.918 419.107C201.406 419.683 201.006 420.363 200.718 421.147C200.43 421.931 200.286 422.795 200.286 423.739C200.318 424.683 200.454 425.555 200.694 426.355C200.95 427.155 201.326 427.843 201.822 428.419C202.318 428.995 202.926 429.443 203.646 429.763C204.382 430.083 205.246 430.243 206.238 430.243C207.646 430.243 208.814 429.891 209.742 429.187C210.67 428.483 211.27 427.435 211.542 426.043ZM215.097 426.067H213.057C213.089 426.835 213.249 427.491 213.537 428.035C213.825 428.563 214.209 428.995 214.689 429.331C215.169 429.651 215.721 429.883 216.345 430.027C216.969 430.171 217.625 430.243 218.312 430.243C218.937 430.243 219.561 430.179 220.185 430.051C220.825 429.939 221.393 429.731 221.889 429.427C222.401 429.123 222.809 428.723 223.113 428.227C223.433 427.731 223.593 427.107 223.593 426.355C223.593 425.763 223.473 425.267 223.233 424.867C223.009 424.467 222.705 424.139 222.321 423.883C221.953 423.611 221.521 423.395 221.025 423.235C220.545 423.075 220.049 422.939 219.537 422.827C219.057 422.715 218.577 422.611 218.097 422.515C217.617 422.403 217.185 422.275 216.801 422.131C216.417 421.971 216.097 421.779 215.84 421.555C215.6 421.315 215.48 421.019 215.48 420.667C215.48 420.347 215.561 420.091 215.721 419.899C215.881 419.691 216.089 419.531 216.345 419.419C216.601 419.291 216.881 419.203 217.185 419.155C217.505 419.107 217.817 419.083 218.121 419.083C218.457 419.083 218.785 419.123 219.105 419.203C219.441 419.267 219.745 419.379 220.017 419.539C220.289 419.699 220.513 419.915 220.689 420.187C220.865 420.443 220.969 420.771 221.001 421.171H223.041C222.993 420.419 222.833 419.795 222.561 419.299C222.289 418.787 221.921 418.387 221.457 418.099C221.009 417.795 220.489 417.587 219.897 417.475C219.305 417.347 218.657 417.283 217.953 417.283C217.409 417.283 216.857 417.355 216.297 417.499C215.753 417.627 215.257 417.835 214.809 418.123C214.377 418.395 214.017 418.755 213.729 419.203C213.457 419.651 213.321 420.187 213.321 420.811C213.321 421.611 213.521 422.235 213.921 422.683C214.321 423.131 214.817 423.483 215.409 423.739C216.017 423.979 216.673 424.171 217.377 424.315C218.081 424.443 218.729 424.595 219.321 424.771C219.929 424.931 220.433 425.147 220.833 425.419C221.233 425.691 221.433 426.091 221.433 426.619C221.433 427.003 221.337 427.323 221.145 427.579C220.953 427.819 220.705 428.003 220.401 428.131C220.113 428.259 219.793 428.347 219.441 428.395C219.089 428.443 218.753 428.467 218.433 428.467C218.017 428.467 217.609 428.427 217.209 428.347C216.825 428.267 216.473 428.139 216.153 427.963C215.849 427.771 215.601 427.523 215.409 427.219C215.217 426.899 215.113 426.515 215.097 426.067ZM227.097 426.067H225.057C225.089 426.835 225.249 427.491 225.537 428.035C225.825 428.563 226.209 428.995 226.689 429.331C227.169 429.651 227.721 429.883 228.345 430.027C228.969 430.171 229.625 430.243 230.312 430.243C230.937 430.243 231.561 430.179 232.185 430.051C232.825 429.939 233.393 429.731 233.889 429.427C234.401 429.123 234.809 428.723 235.113 428.227C235.433 427.731 235.593 427.107 235.593 426.355C235.593 425.763 235.473 425.267 235.233 424.867C235.009 424.467 234.705 424.139 234.321 423.883C233.953 423.611 233.521 423.395 233.025 423.235C232.545 423.075 232.049 422.939 231.537 422.827C231.057 422.715 230.577 422.611 230.097 422.515C229.617 422.403 229.185 422.275 228.801 422.131C228.417 421.971 228.097 421.779 227.84 421.555C227.6 421.315 227.48 421.019 227.48 420.667C227.48 420.347 227.561 420.091 227.721 419.899C227.881 419.691 228.089 419.531 228.345 419.419C228.601 419.291 228.881 419.203 229.185 419.155C229.505 419.107 229.817 419.083 230.121 419.083C230.457 419.083 230.785 419.123 231.105 419.203C231.441 419.267 231.745 419.379 232.017 419.539C232.289 419.699 232.513 419.915 232.689 420.187C232.865 420.443 232.969 420.771 233.001 421.171H235.041C234.993 420.419 234.833 419.795 234.561 419.299C234.289 418.787 233.921 418.387 233.457 418.099C233.009 417.795 232.489 417.587 231.897 417.475C231.305 417.347 230.657 417.283 229.953 417.283C229.409 417.283 228.857 417.355 228.297 417.499C227.753 417.627 227.257 417.835 226.809 418.123C226.377 418.395 226.017 418.755 225.729 419.203C225.457 419.651 225.321 420.187 225.321 420.811C225.321 421.611 225.521 422.235 225.921 422.683C226.321 423.131 226.817 423.483 227.409 423.739C228.017 423.979 228.673 424.171 229.377 424.315C230.081 424.443 230.729 424.595 231.321 424.771C231.929 424.931 232.433 425.147 232.833 425.419C233.233 425.691 233.433 426.091 233.433 426.619C233.433 427.003 233.337 427.323 233.145 427.579C232.953 427.819 232.705 428.003 232.401 428.131C232.113 428.259 231.793 428.347 231.441 428.395C231.089 428.443 230.753 428.467 230.433 428.467C230.017 428.467 229.609 428.427 229.209 428.347C228.825 428.267 228.473 428.139 228.153 427.963C227.849 427.771 227.601 427.523 227.409 427.219C227.217 426.899 227.113 426.515 227.097 426.067Z" fill="white"/>
<defs>
<linearGradient id="paint0_linear_303_1751" x1="230.965" y1="176.443" x2="223.3" y2="217.645" gradientUnits="userSpaceOnUse">
<stop offset="0.209564" stop-color="#FEF79C"/>
<stop offset="0.35677" stop-color="#8883BB"/>
<stop offset="0.618577" stop-color="#8883BB"/>
<stop offset="0.699704" stop-color="#ED6A7C"/>
</linearGradient>
</defs>
</svg>
