<svg width="375" height="812" viewBox="0 0 375 812" fill="none" xmlns="http://www.w3.org/2000/svg">
<rect width="375" height="812" fill="white"/>
<rect width="375" height="812" fill="white"/>
<path d="M188.109 265.522L181.435 254.212L195.102 254.406L188.109 265.522Z" fill="white"/>
<path fill-rule="evenodd" clip-rule="evenodd" d="M227.256 276.487C239.817 276.487 250 266.305 250 253.744C250 241.183 239.817 231 227.256 231C215.124 231 205.21 240.499 204.547 252.466C200.736 261.801 195.043 272.872 190.181 275.864C186.745 277.979 178.822 280.374 170.839 282.074C166.157 278.566 160.341 276.487 154.04 276.487C138.554 276.487 126 289.041 126 304.528C126 320.014 138.554 332.568 154.04 332.568C159.135 332.568 163.913 331.209 168.031 328.834C173.333 329.808 177.865 331.28 180.211 333.502C184.822 337.235 188.711 346.125 191.55 353.521C192.675 363.814 201.397 371.824 211.99 371.824C223.347 371.824 232.553 362.618 232.553 351.261C232.553 339.905 223.347 330.698 211.99 330.698C209.474 330.698 207.063 331.151 204.834 331.978C195.632 332.278 184.484 331.755 181.769 329.764C179.363 328.937 177.151 326.339 175.23 322.893C179.497 317.973 182.08 311.552 182.08 304.528C182.08 300.03 181.022 295.78 179.14 292.013C180.687 286.718 183.618 281.733 191.427 278.045C203.325 272.427 211.817 273.295 218.377 274.689C221.105 275.847 224.106 276.487 227.256 276.487Z" fill="url(#paint0_linear_303_1736)"/>
<circle cx="154.04" cy="305.151" r="28.0402" fill="#8883BB"/>
<circle cx="212.302" cy="351.573" r="21.4975" fill="#ED6A7C"/>
<circle cx="226.944" cy="254.055" r="23.0553" fill="#FEF79C"/>
<path d="M98.7031 455L89.5859 420.641H94.25L99.4766 443.164C100.039 445.523 100.523 447.867 100.93 450.195C101.805 446.523 102.32 444.406 102.477 443.844L109.016 420.641H114.5L119.422 438.031C120.656 442.344 121.547 446.398 122.094 450.195C122.531 448.023 123.102 445.531 123.805 442.719L129.195 420.641H133.766L124.344 455H119.961L112.719 428.82C112.109 426.633 111.75 425.289 111.641 424.789C111.281 426.367 110.945 427.711 110.633 428.82L103.344 455H98.7031ZM153.641 446.984L158 447.523C157.312 450.07 156.039 452.047 154.18 453.453C152.32 454.859 149.945 455.562 147.055 455.562C143.414 455.562 140.523 454.445 138.383 452.211C136.258 449.961 135.195 446.812 135.195 442.766C135.195 438.578 136.273 435.328 138.43 433.016C140.586 430.703 143.383 429.547 146.82 429.547C150.148 429.547 152.867 430.68 154.977 432.945C157.086 435.211 158.141 438.398 158.141 442.508C158.141 442.758 158.133 443.133 158.117 443.633H139.555C139.711 446.367 140.484 448.461 141.875 449.914C143.266 451.367 145 452.094 147.078 452.094C148.625 452.094 149.945 451.688 151.039 450.875C152.133 450.062 153 448.766 153.641 446.984ZM139.789 440.164H153.688C153.5 438.07 152.969 436.5 152.094 435.453C150.75 433.828 149.008 433.016 146.867 433.016C144.93 433.016 143.297 433.664 141.969 434.961C140.656 436.258 139.93 437.992 139.789 440.164ZM188.375 442.953L192.922 444.102C191.969 447.836 190.25 450.688 187.766 452.656C185.297 454.609 182.273 455.586 178.695 455.586C174.992 455.586 171.977 454.836 169.648 453.336C167.336 451.82 165.57 449.633 164.352 446.773C163.148 443.914 162.547 440.844 162.547 437.562C162.547 433.984 163.227 430.867 164.586 428.211C165.961 425.539 167.906 423.516 170.422 422.141C172.953 420.75 175.734 420.055 178.766 420.055C182.203 420.055 185.094 420.93 187.438 422.68C189.781 424.43 191.414 426.891 192.336 430.062L187.859 431.117C187.062 428.617 185.906 426.797 184.391 425.656C182.875 424.516 180.969 423.945 178.672 423.945C176.031 423.945 173.82 424.578 172.039 425.844C170.273 427.109 169.031 428.812 168.312 430.953C167.594 433.078 167.234 435.273 167.234 437.539C167.234 440.461 167.656 443.016 168.5 445.203C169.359 447.375 170.688 449 172.484 450.078C174.281 451.156 176.227 451.695 178.32 451.695C180.867 451.695 183.023 450.961 184.789 449.492C186.555 448.023 187.75 445.844 188.375 442.953ZM197.914 455V420.641H202.133V455H197.914ZM207.125 442.555C207.125 437.945 208.406 434.531 210.969 432.312C213.109 430.469 215.719 429.547 218.797 429.547C222.219 429.547 225.016 430.672 227.188 432.922C229.359 435.156 230.445 438.25 230.445 442.203C230.445 445.406 229.961 447.93 228.992 449.773C228.039 451.602 226.641 453.023 224.797 454.039C222.969 455.055 220.969 455.562 218.797 455.562C215.312 455.562 212.492 454.445 210.336 452.211C208.195 449.977 207.125 446.758 207.125 442.555ZM211.461 442.555C211.461 445.742 212.156 448.133 213.547 449.727C214.938 451.305 216.688 452.094 218.797 452.094C220.891 452.094 222.633 451.297 224.023 449.703C225.414 448.109 226.109 445.68 226.109 442.414C226.109 439.336 225.406 437.008 224 435.43C222.609 433.836 220.875 433.039 218.797 433.039C216.688 433.039 214.938 433.828 213.547 435.406C212.156 436.984 211.461 439.367 211.461 442.555ZM251.727 455V451.344C249.789 454.156 247.156 455.562 243.828 455.562C242.359 455.562 240.984 455.281 239.703 454.719C238.438 454.156 237.492 453.453 236.867 452.609C236.258 451.75 235.828 450.703 235.578 449.469C235.406 448.641 235.32 447.328 235.32 445.531V430.109H239.539V443.914C239.539 446.117 239.625 447.602 239.797 448.367C240.062 449.477 240.625 450.352 241.484 450.992C242.344 451.617 243.406 451.93 244.672 451.93C245.938 451.93 247.125 451.609 248.234 450.969C249.344 450.312 250.125 449.43 250.578 448.32C251.047 447.195 251.281 445.57 251.281 443.445V430.109H255.5V455H251.727ZM278.281 455V451.859C276.703 454.328 274.383 455.562 271.32 455.562C269.336 455.562 267.508 455.016 265.836 453.922C264.18 452.828 262.891 451.305 261.969 449.352C261.062 447.383 260.609 445.125 260.609 442.578C260.609 440.094 261.023 437.844 261.852 435.828C262.68 433.797 263.922 432.242 265.578 431.164C267.234 430.086 269.086 429.547 271.133 429.547C272.633 429.547 273.969 429.867 275.141 430.508C276.312 431.133 277.266 431.953 278 432.969V420.641H282.195V455H278.281ZM264.945 442.578C264.945 445.766 265.617 448.148 266.961 449.727C268.305 451.305 269.891 452.094 271.719 452.094C273.562 452.094 275.125 451.344 276.406 449.844C277.703 448.328 278.352 446.023 278.352 442.93C278.352 439.523 277.695 437.023 276.383 435.43C275.07 433.836 273.453 433.039 271.531 433.039C269.656 433.039 268.086 433.805 266.82 435.336C265.57 436.867 264.945 439.281 264.945 442.578Z" fill="black"/>
<defs>
<linearGradient id="paint0_linear_303_1736" x1="140.643" y1="224.457" x2="113.226" y2="371.824" gradientUnits="userSpaceOnUse">
<stop offset="0.209564" stop-color="#FEF79C"/>
<stop offset="0.35677" stop-color="#8883BB"/>
<stop offset="0.618577" stop-color="#8883BB"/>
<stop offset="0.699704" stop-color="#ED6A7C"/>
</linearGradient>
</defs>
</svg>
