<svg width="720" height="443" viewBox="0 0 720 443" fill="none" xmlns="http://www.w3.org/2000/svg">
<rect width="720" height="443" fill="white"/>
<rect x="189.103" y="53" width="489.186" height="139.42" fill="white"/>
<path d="M298.305 101.666L281.796 150.633H276.34L261.999 108.871L247.589 150.633H242.203L225.694 101.666H231.01L245.141 143.777L259.761 101.666H264.588L278.998 143.987L293.338 101.666H298.305ZM335.985 133.774H305.205C305.485 137.598 306.954 140.699 309.612 143.078C312.271 145.41 315.628 146.576 319.686 146.576C321.971 146.576 324.069 146.179 325.981 145.386C327.893 144.547 329.549 143.334 330.948 141.749L333.746 144.967C332.114 146.925 330.062 148.418 327.59 149.444C325.165 150.47 322.484 150.983 319.546 150.983C315.768 150.983 312.41 150.19 309.472 148.604C306.581 146.972 304.319 144.733 302.687 141.889C301.055 139.044 300.239 135.826 300.239 132.235C300.239 128.644 301.008 125.426 302.547 122.582C304.133 119.737 306.278 117.522 308.983 115.936C311.734 114.35 314.812 113.558 318.217 113.558C321.621 113.558 324.676 114.35 327.38 115.936C330.085 117.522 332.207 119.737 333.746 122.582C335.285 125.38 336.055 128.598 336.055 132.235L335.985 133.774ZM318.217 117.825C314.672 117.825 311.688 118.967 309.263 121.253C306.884 123.491 305.532 126.429 305.205 130.067H331.298C330.971 126.429 329.596 123.491 327.171 121.253C324.792 118.967 321.807 117.825 318.217 117.825Z" fill="black"/>
<path d="M466.091 151.053C461.241 151.053 456.857 149.98 452.94 147.835C449.069 145.689 446.014 142.728 443.776 138.951C441.584 135.127 440.488 130.859 440.488 126.149C440.488 121.439 441.584 117.195 443.776 113.418C446.014 109.594 449.092 106.609 453.01 104.464C456.927 102.319 461.311 101.246 466.161 101.246C469.798 101.246 473.156 101.852 476.234 103.065C479.312 104.277 481.924 106.049 484.069 108.381L480.781 111.669C476.957 107.798 472.13 105.863 466.301 105.863C462.43 105.863 458.909 106.749 455.738 108.521C452.567 110.293 450.072 112.718 448.253 115.796C446.481 118.874 445.595 122.325 445.595 126.149C445.595 129.973 446.481 133.424 448.253 136.502C450.072 139.58 452.567 142.005 455.738 143.777C458.909 145.55 462.43 146.436 466.301 146.436C472.177 146.436 477.004 144.477 480.781 140.56L484.069 143.847C481.924 146.179 479.289 147.975 476.164 149.234C473.086 150.446 469.729 151.053 466.091 151.053ZM494.055 98.7276H499.021V150.633H494.055V98.7276ZM527.881 150.983C524.337 150.983 521.142 150.19 518.297 148.604C515.453 146.972 513.214 144.733 511.582 141.889C509.95 139.044 509.133 135.826 509.133 132.235C509.133 128.644 509.95 125.426 511.582 122.582C513.214 119.737 515.453 117.522 518.297 115.936C521.142 114.35 524.337 113.558 527.881 113.558C531.425 113.558 534.62 114.35 537.464 115.936C540.309 117.522 542.524 119.737 544.11 122.582C545.742 125.426 546.558 128.644 546.558 132.235C546.558 135.826 545.742 139.044 544.11 141.889C542.524 144.733 540.309 146.972 537.464 148.604C534.62 150.19 531.425 150.983 527.881 150.983ZM527.881 146.576C530.492 146.576 532.824 145.993 534.876 144.827C536.975 143.614 538.607 141.912 539.773 139.72C540.939 137.528 541.522 135.033 541.522 132.235C541.522 129.437 540.939 126.942 539.773 124.75C538.607 122.558 536.975 120.879 534.876 119.714C532.824 118.501 530.492 117.895 527.881 117.895C525.269 117.895 522.914 118.501 520.816 119.714C518.764 120.879 517.131 122.558 515.919 124.75C514.753 126.942 514.17 129.437 514.17 132.235C514.17 135.033 514.753 137.528 515.919 139.72C517.131 141.912 518.764 143.614 520.816 144.827C522.914 145.993 525.269 146.576 527.881 146.576ZM589.856 113.837V150.633H585.099V143.917C583.793 146.156 581.998 147.905 579.713 149.164C577.428 150.376 574.816 150.983 571.878 150.983C567.075 150.983 563.274 149.653 560.476 146.995C557.724 144.29 556.348 140.35 556.348 135.173V113.837H561.315V134.684C561.315 138.554 562.271 141.492 564.183 143.498C566.095 145.503 568.823 146.506 572.368 146.506C576.238 146.506 579.293 145.34 581.532 143.008C583.77 140.63 584.889 137.342 584.889 133.145V113.837H589.856ZM637.344 98.7276V150.633H632.587V143.358C631.095 145.829 629.113 147.718 626.641 149.024C624.216 150.33 621.464 150.983 618.386 150.983C614.935 150.983 611.811 150.19 609.013 148.604C606.215 147.019 604.023 144.803 602.437 141.959C600.852 139.114 600.059 135.873 600.059 132.235C600.059 128.598 600.852 125.356 602.437 122.512C604.023 119.667 606.215 117.475 609.013 115.936C611.811 114.35 614.935 113.558 618.386 113.558C621.371 113.558 624.053 114.187 626.431 115.446C628.856 116.659 630.838 118.454 632.377 120.833V98.7276H637.344ZM618.806 146.576C621.371 146.576 623.68 145.993 625.732 144.827C627.83 143.614 629.462 141.912 630.628 139.72C631.841 137.528 632.447 135.033 632.447 132.235C632.447 129.437 631.841 126.942 630.628 124.75C629.462 122.558 627.83 120.879 625.732 119.714C623.68 118.501 621.371 117.895 618.806 117.895C616.195 117.895 613.84 118.501 611.741 119.714C609.689 120.879 608.057 122.558 606.844 124.75C605.678 126.942 605.095 129.437 605.095 132.235C605.095 135.033 605.678 137.528 606.844 139.72C608.057 141.912 609.689 143.614 611.741 144.827C613.84 145.993 616.195 146.576 618.806 146.576Z" fill="black"/>
<path fill-rule="evenodd" clip-rule="evenodd" d="M421.576 102.027C431.255 100.542 437.898 91.4912 436.413 81.8118C434.928 72.1324 425.878 65.4896 416.198 66.9745C408.941 68.0879 403.391 73.4539 401.693 80.1493L401.389 79.7193C400.185 87.3579 396.681 101.384 392.159 105.223C389.739 107.277 384.041 110.28 378.234 112.727C374.328 110.774 369.801 109.968 365.156 110.681C353.222 112.512 345.032 123.67 346.863 135.604C348.694 147.537 359.852 155.727 371.786 153.896C375.667 153.301 379.152 151.719 382.025 149.444C385.862 149.616 389.197 150.236 391.187 151.615C395.942 154.39 399.727 161.384 402.544 166.589C403.085 167.588 403.59 168.521 404.06 169.346L404.357 168.72C407.409 174.723 414.062 178.374 421.081 177.297C429.833 175.954 435.839 167.772 434.496 159.02C433.153 150.269 424.971 144.263 416.219 145.606C415.891 145.656 415.566 145.716 415.245 145.786L415.476 145.3C408.969 147.199 396.578 149.4 393.373 147.729C391.404 147.373 389.324 145.674 387.352 143.308C389.791 139.133 390.869 134.126 390.078 128.974C389.579 125.722 388.388 122.748 386.677 120.179C387.388 116.028 389.188 111.944 394.831 108.138C404.594 101.552 410.013 101.996 415.133 102.416L415.133 102.416L415.133 102.416L415.133 102.416C415.736 102.465 416.334 102.514 416.934 102.551L417.617 102.19C418.913 102.282 420.238 102.232 421.576 102.027Z" fill="black"/>
<circle cx="368.545" cy="132.768" r="21.8603" transform="rotate(-8.72217 368.545 132.768)" fill="black"/>
<circle cx="418.929" cy="161.654" r="16.7596" transform="rotate(-8.72217 418.929 161.654)" fill="black"/>
<circle cx="418.684" cy="84.7759" r="17.9741" transform="rotate(-8.72217 418.684 84.7759)" fill="black"/>
<rect x="40" y="250.513" width="116.184" height="139.217" fill="white"/>
<path d="M71.4334 360.666L66.3172 375.841H64.6263L60.1822 362.899L55.7164 375.841H54.0472L48.931 360.666H50.5786L54.9577 373.716L59.4885 360.666H60.9843L65.4501 373.781L69.8942 360.666H71.4334ZM83.1103 370.616H73.5718C73.6585 371.801 74.1137 372.762 74.9375 373.5C75.7613 374.222 76.8019 374.583 78.0592 374.583C78.7674 374.583 79.4178 374.461 80.0103 374.215C80.6029 373.955 81.1159 373.579 81.5495 373.088L82.4166 374.085C81.9108 374.692 81.2749 375.154 80.5089 375.472C79.7574 375.79 78.9264 375.949 78.0159 375.949C76.8452 375.949 75.8047 375.704 74.8942 375.212C73.9981 374.706 73.2972 374.013 72.7913 373.131C72.2855 372.249 72.0326 371.252 72.0326 370.139C72.0326 369.027 72.2711 368.029 72.748 367.148C73.2394 366.266 73.9042 365.58 74.7424 365.088C75.5951 364.597 76.549 364.351 77.604 364.351C78.659 364.351 79.6056 364.597 80.4439 365.088C81.2821 365.58 81.9397 366.266 82.4166 367.148C82.8936 368.015 83.132 369.012 83.132 370.139L83.1103 370.616ZM77.604 365.674C76.5056 365.674 75.5807 366.028 74.8291 366.736C74.0921 367.43 73.6729 368.34 73.5718 369.467H81.6579C81.5567 368.34 81.1304 367.43 80.3788 366.736C79.6418 366.028 78.7168 365.674 77.604 365.674ZM93.1804 375.971C91.6773 375.971 90.3188 375.638 89.1048 374.974C87.9053 374.309 86.9586 373.391 86.2649 372.22C85.5857 371.035 85.246 369.713 85.246 368.253C85.246 366.794 85.5857 365.478 86.2649 364.308C86.9586 363.123 87.9125 362.198 89.1265 361.533C90.3405 360.868 91.699 360.536 93.2021 360.536C94.3294 360.536 95.3699 360.724 96.3238 361.099C97.2776 361.475 98.087 362.024 98.7518 362.747L97.7329 363.766C96.5478 362.566 95.052 361.967 93.2454 361.967C92.0459 361.967 90.9547 362.241 89.972 362.79C88.9892 363.34 88.216 364.091 87.6523 365.045C87.1032 365.999 86.8286 367.068 86.8286 368.253C86.8286 369.438 87.1032 370.508 87.6523 371.462C88.216 372.416 88.9892 373.167 89.972 373.716C90.9547 374.266 92.0459 374.54 93.2454 374.54C95.0664 374.54 96.5622 373.933 97.7329 372.719L98.7518 373.738C98.087 374.461 97.2704 375.017 96.3021 375.407C95.3482 375.783 94.3077 375.971 93.1804 375.971ZM101.846 359.755H103.386V375.841H101.846V359.755ZM112.329 375.949C111.231 375.949 110.241 375.704 109.359 375.212C108.478 374.706 107.784 374.013 107.278 373.131C106.772 372.249 106.519 371.252 106.519 370.139C106.519 369.027 106.772 368.029 107.278 367.148C107.784 366.266 108.478 365.58 109.359 365.088C110.241 364.597 111.231 364.351 112.329 364.351C113.428 364.351 114.418 364.597 115.299 365.088C116.181 365.58 116.867 366.266 117.359 367.148C117.864 368.029 118.117 369.027 118.117 370.139C118.117 371.252 117.864 372.249 117.359 373.131C116.867 374.013 116.181 374.706 115.299 375.212C114.418 375.704 113.428 375.949 112.329 375.949ZM112.329 374.583C113.139 374.583 113.861 374.403 114.497 374.041C115.147 373.666 115.653 373.138 116.015 372.459C116.376 371.78 116.557 371.006 116.557 370.139C116.557 369.272 116.376 368.499 116.015 367.82C115.653 367.14 115.147 366.62 114.497 366.259C113.861 365.883 113.139 365.695 112.329 365.695C111.52 365.695 110.79 365.883 110.14 366.259C109.504 366.62 108.998 367.14 108.622 367.82C108.261 368.499 108.08 369.272 108.08 370.139C108.08 371.006 108.261 371.78 108.622 372.459C108.998 373.138 109.504 373.666 110.14 374.041C110.79 374.403 111.52 374.583 112.329 374.583ZM131.535 364.438V375.841H130.061V373.76C129.657 374.453 129.1 374.995 128.392 375.386C127.684 375.761 126.874 375.949 125.964 375.949C124.475 375.949 123.298 375.537 122.43 374.714C121.578 373.875 121.151 372.654 121.151 371.05V364.438H122.691V370.898C122.691 372.098 122.987 373.008 123.579 373.63C124.172 374.251 125.017 374.562 126.116 374.562C127.315 374.562 128.262 374.2 128.956 373.478C129.649 372.741 129.996 371.722 129.996 370.421V364.438H131.535ZM146.252 359.755V375.841H144.778V373.586C144.315 374.352 143.701 374.938 142.935 375.342C142.184 375.747 141.331 375.949 140.377 375.949C139.308 375.949 138.339 375.704 137.472 375.212C136.605 374.721 135.926 374.034 135.434 373.153C134.943 372.271 134.697 371.267 134.697 370.139C134.697 369.012 134.943 368.008 135.434 367.126C135.926 366.244 136.605 365.565 137.472 365.088C138.339 364.597 139.308 364.351 140.377 364.351C141.302 364.351 142.133 364.546 142.87 364.936C143.622 365.312 144.236 365.869 144.713 366.606V359.755H146.252ZM140.507 374.583C141.302 374.583 142.017 374.403 142.653 374.041C143.304 373.666 143.809 373.138 144.171 372.459C144.547 371.78 144.734 371.006 144.734 370.139C144.734 369.272 144.547 368.499 144.171 367.82C143.809 367.14 143.304 366.62 142.653 366.259C142.017 365.883 141.302 365.695 140.507 365.695C139.698 365.695 138.968 365.883 138.318 366.259C137.682 366.62 137.176 367.14 136.8 367.82C136.439 368.499 136.258 369.272 136.258 370.139C136.258 371.006 136.439 371.78 136.8 372.459C137.176 373.138 137.682 373.666 138.318 374.041C138.968 374.403 139.698 374.583 140.507 374.583Z" fill="black"/>
<path fill-rule="evenodd" clip-rule="evenodd" d="M117.125 294.104C123.874 293.069 128.506 286.758 127.47 280.009C126.435 273.259 120.124 268.627 113.375 269.663C108.315 270.439 104.445 274.18 103.261 278.848L103.049 278.549C102.21 283.875 99.7668 293.655 96.6135 296.332C94.9261 297.765 90.9516 299.859 86.9018 301.565C84.1789 300.204 81.0229 299.643 77.7849 300.14C69.464 301.416 63.7533 309.197 65.0299 317.518C66.3065 325.839 74.0869 331.549 82.4079 330.273C85.1141 329.857 87.5442 328.754 89.5476 327.168C92.2228 327.288 94.5483 327.72 95.9354 328.682C99.251 330.617 101.89 335.493 103.855 339.123C104.232 339.819 104.584 340.47 104.912 341.046L105.12 340.608C107.247 344.793 111.887 347.338 116.781 346.587C122.883 345.651 127.071 339.946 126.134 333.844C125.198 327.742 119.493 323.554 113.391 324.49C113.162 324.525 112.935 324.567 112.712 324.615L112.872 324.278C108.334 325.603 99.6945 327.137 97.4597 325.972C96.0871 325.724 94.6369 324.54 93.2615 322.89C94.9628 319.979 95.714 316.487 95.1629 312.895C94.815 310.627 93.9841 308.553 92.7909 306.762C93.2861 303.867 94.5411 301.019 98.4765 298.364C105.284 293.772 109.063 294.082 112.633 294.375L112.633 294.375L112.633 294.375L112.633 294.375C113.053 294.409 113.47 294.443 113.889 294.469L114.364 294.218C115.267 294.282 116.192 294.247 117.125 294.104Z" fill="url(#paint0_linear)"/>
<circle cx="80.1484" cy="315.541" r="15.2428" transform="rotate(-8.72217 80.1484 315.541)" fill="#8883BB"/>
<circle cx="115.279" cy="335.681" r="11.6861" transform="rotate(-8.72217 115.279 335.681)" fill="#ED6A7C"/>
<circle cx="115.109" cy="282.076" r="12.5329" transform="rotate(-8.72217 115.109 282.076)" fill="#9BDFF9"/>
<rect x="189.103" y="250.513" width="489.908" height="139.488" fill="white"/>
<path d="M298.359 299.056L281.842 348.047H276.383L262.036 306.265L247.618 348.047H242.229L225.713 299.056H231.032L245.169 341.188L259.796 299.056H264.625L279.043 341.398L293.39 299.056H298.359ZM336.057 331.18H305.262C305.542 335.006 307.012 338.109 309.672 340.488C312.331 342.821 315.69 343.988 319.75 343.988C322.036 343.988 324.136 343.591 326.049 342.798C327.961 341.958 329.618 340.745 331.018 339.159L333.817 342.378C332.184 344.338 330.131 345.831 327.658 346.857C325.232 347.884 322.549 348.397 319.61 348.397C315.83 348.397 312.471 347.604 309.532 346.017C306.639 344.384 304.376 342.145 302.743 339.299C301.11 336.452 300.293 333.233 300.293 329.64C300.293 326.048 301.063 322.828 302.603 319.982C304.189 317.136 306.336 314.92 309.042 313.333C311.795 311.747 314.874 310.954 318.28 310.954C321.686 310.954 324.742 311.747 327.448 313.333C330.154 314.92 332.277 317.136 333.817 319.982C335.357 322.782 336.127 326.001 336.127 329.64L336.057 331.18ZM318.28 315.223C314.734 315.223 311.748 316.366 309.322 318.652C306.942 320.892 305.589 323.831 305.262 327.471H331.368C331.041 323.831 329.664 320.892 327.238 318.652C324.859 316.366 321.873 315.223 318.28 315.223Z" fill="black"/>
<path d="M466.227 348.467C461.375 348.467 456.989 347.394 453.07 345.247C449.197 343.101 446.141 340.138 443.901 336.359C441.708 332.533 440.612 328.264 440.612 323.551C440.612 318.839 441.708 314.593 443.901 310.814C446.141 306.988 449.22 304.002 453.14 301.856C457.059 299.709 461.445 298.636 466.297 298.636C469.936 298.636 473.296 299.243 476.375 300.456C479.455 301.669 482.068 303.442 484.214 305.775L480.924 309.064C477.098 305.192 472.269 303.255 466.437 303.255C462.565 303.255 459.042 304.142 455.869 305.915C452.696 307.688 450.2 310.114 448.381 313.193C446.608 316.273 445.721 319.726 445.721 323.551C445.721 327.377 446.608 330.83 448.381 333.91C450.2 336.989 452.696 339.415 455.869 341.188C459.042 342.961 462.565 343.848 466.437 343.848C472.316 343.848 477.145 341.888 480.924 337.969L484.214 341.258C482.068 343.591 479.431 345.387 476.305 346.647C473.226 347.86 469.866 348.467 466.227 348.467ZM494.204 296.117H499.173V348.047H494.204V296.117ZM528.047 348.397C524.501 348.397 521.305 347.604 518.459 346.017C515.613 344.384 513.373 342.145 511.74 339.299C510.107 336.452 509.29 333.233 509.29 329.64C509.29 326.048 510.107 322.828 511.74 319.982C513.373 317.136 515.613 314.92 518.459 313.333C521.305 311.747 524.501 310.954 528.047 310.954C531.593 310.954 534.789 311.747 537.635 313.333C540.481 314.92 542.697 317.136 544.284 319.982C545.917 322.828 546.733 326.048 546.733 329.64C546.733 333.233 545.917 336.452 544.284 339.299C542.697 342.145 540.481 344.384 537.635 346.017C534.789 347.604 531.593 348.397 528.047 348.397ZM528.047 343.988C530.66 343.988 532.993 343.404 535.046 342.238C537.145 341.025 538.778 339.322 539.945 337.129C541.111 334.936 541.694 332.44 541.694 329.64C541.694 326.841 541.111 324.345 539.945 322.152C538.778 319.959 537.145 318.279 535.046 317.113C532.993 315.9 530.66 315.293 528.047 315.293C525.434 315.293 523.078 315.9 520.978 317.113C518.925 318.279 517.292 319.959 516.079 322.152C514.913 324.345 514.329 326.841 514.329 329.64C514.329 332.44 514.913 334.936 516.079 337.129C517.292 339.322 518.925 341.025 520.978 342.238C523.078 343.404 525.434 343.988 528.047 343.988ZM590.052 311.234V348.047H585.293V341.328C583.986 343.568 582.19 345.317 579.904 346.577C577.618 347.79 575.005 348.397 572.065 348.397C567.26 348.397 563.457 347.067 560.657 344.408C557.905 341.701 556.528 337.759 556.528 332.58V311.234H561.497V332.09C561.497 335.962 562.454 338.902 564.367 340.908C566.28 342.915 569.009 343.918 572.555 343.918C576.428 343.918 579.484 342.751 581.723 340.418C583.963 338.039 585.083 334.749 585.083 330.55V311.234H590.052ZM637.563 296.117V348.047H632.803V340.768C631.31 343.241 629.327 345.131 626.855 346.437C624.428 347.744 621.676 348.397 618.596 348.397C615.143 348.397 612.017 347.604 609.218 346.017C606.418 344.431 604.225 342.215 602.639 339.369C601.053 336.522 600.26 333.28 600.26 329.64C600.26 326.001 601.053 322.758 602.639 319.912C604.225 317.066 606.418 314.873 609.218 313.333C612.017 311.747 615.143 310.954 618.596 310.954C621.582 310.954 624.265 311.584 626.645 312.844C629.071 314.057 631.054 315.853 632.593 318.232V296.117H637.563ZM619.016 343.988C621.582 343.988 623.892 343.404 625.945 342.238C628.044 341.025 629.677 339.322 630.844 337.129C632.057 334.936 632.663 332.44 632.663 329.64C632.663 326.841 632.057 324.345 630.844 322.152C629.677 319.959 628.044 318.279 625.945 317.113C623.892 315.9 621.582 315.293 619.016 315.293C616.403 315.293 614.047 315.9 611.947 317.113C609.894 318.279 608.261 319.959 607.048 322.152C605.882 324.345 605.299 326.841 605.299 329.64C605.299 332.44 605.882 334.936 607.048 337.129C608.261 339.322 609.894 341.025 611.947 342.238C614.047 343.404 616.403 343.988 619.016 343.988Z" fill="black"/>
<path fill-rule="evenodd" clip-rule="evenodd" d="M421.756 299.445C431.44 297.959 438.086 288.904 436.601 279.22C435.115 269.536 426.06 262.89 416.376 264.376C409.114 265.49 403.561 270.86 401.863 277.559L401.558 277.128C400.354 284.771 396.848 298.803 392.324 302.644C389.902 304.7 384.199 307.706 378.388 310.154C374.481 308.201 369.953 307.396 365.307 308.109C353.368 309.94 345.174 321.104 347.006 333.043C348.838 344.983 360.001 353.176 371.94 351.345C375.825 350.749 379.314 349.165 382.189 346.887C386.027 347.059 389.363 347.68 391.352 349.059C396.11 351.836 399.897 358.832 402.716 364.04L402.716 364.04L402.717 364.042C403.257 365.041 403.762 365.974 404.232 366.799L404.529 366.173C407.582 372.179 414.239 375.831 421.262 374.754C430.017 373.411 436.026 365.224 434.683 356.469C433.34 347.713 425.153 341.704 416.397 343.048C416.068 343.098 415.743 343.158 415.422 343.228L415.653 342.741C409.143 344.641 396.746 346.842 393.54 345.171C391.57 344.815 389.489 343.115 387.516 340.748C389.955 336.572 391.032 331.563 390.242 326.41C389.743 323.157 388.551 320.181 386.839 317.611C387.549 313.457 389.35 309.37 394.997 305.561C404.765 298.972 410.187 299.416 415.309 299.836C415.912 299.885 416.51 299.934 417.111 299.971L417.798 299.608C419.093 299.7 420.419 299.65 421.756 299.445Z" fill="url(#paint1_linear)"/>
<circle cx="368.697" cy="330.206" r="21.8709" transform="rotate(-8.72217 368.697 330.206)" fill="#8883BB"/>
<circle cx="419.107" cy="359.104" r="16.7677" transform="rotate(-8.72217 419.107 359.104)" fill="#ED6A7C"/>
<circle cx="418.863" cy="282.188" r="17.9827" transform="rotate(-8.72217 418.863 282.188)" fill="#9BDFF9"/>
<rect x="40" y="53" width="116.184" height="139.217" fill="white"/>
<path d="M71.4334 162.815L66.3172 177.99H64.6263L60.1822 165.048L55.7164 177.99H54.0472L48.931 162.815H50.5786L54.9577 175.865L59.4885 162.815H60.9843L65.4501 175.93L69.8942 162.815H71.4334ZM83.1103 172.765H73.5718C73.6585 173.95 74.1137 174.911 74.9375 175.648C75.7613 176.371 76.8019 176.732 78.0592 176.732C78.7674 176.732 79.4178 176.61 80.0103 176.364C80.6029 176.104 81.1159 175.728 81.5495 175.237L82.4166 176.234C81.9108 176.841 81.2749 177.303 80.5089 177.621C79.7574 177.939 78.9264 178.098 78.0159 178.098C76.8452 178.098 75.8047 177.852 74.8942 177.361C73.9981 176.855 73.2972 176.162 72.7913 175.28C72.2855 174.398 72.0326 173.401 72.0326 172.288C72.0326 171.175 72.2711 170.178 72.748 169.297C73.2394 168.415 73.9042 167.729 74.7424 167.237C75.5951 166.746 76.549 166.5 77.604 166.5C78.659 166.5 79.6056 166.746 80.4439 167.237C81.2821 167.729 81.9397 168.415 82.4166 169.297C82.8936 170.164 83.132 171.161 83.132 172.288L83.1103 172.765ZM77.604 167.822C76.5056 167.822 75.5807 168.177 74.8291 168.885C74.0921 169.578 73.6729 170.489 73.5718 171.616H81.6579C81.5567 170.489 81.1304 169.578 80.3788 168.885C79.6418 168.177 78.7168 167.822 77.604 167.822ZM93.1804 178.12C91.6773 178.12 90.3188 177.787 89.1048 177.123C87.9053 176.458 86.9586 175.54 86.2649 174.369C85.5857 173.184 85.246 171.862 85.246 170.402C85.246 168.943 85.5857 167.627 86.2649 166.457C86.9586 165.272 87.9125 164.347 89.1265 163.682C90.3405 163.017 91.699 162.685 93.2021 162.685C94.3294 162.685 95.3699 162.873 96.3238 163.248C97.2776 163.624 98.087 164.173 98.7518 164.896L97.7329 165.915C96.5478 164.715 95.052 164.115 93.2454 164.115C92.0459 164.115 90.9547 164.39 89.972 164.939C88.9892 165.488 88.216 166.24 87.6523 167.194C87.1032 168.148 86.8286 169.217 86.8286 170.402C86.8286 171.587 87.1032 172.657 87.6523 173.611C88.216 174.565 88.9892 175.316 89.972 175.865C90.9547 176.414 92.0459 176.689 93.2454 176.689C95.0664 176.689 96.5622 176.082 97.7329 174.868L98.7518 175.887C98.087 176.61 97.2704 177.166 96.3021 177.556C95.3482 177.932 94.3077 178.12 93.1804 178.12ZM101.846 161.904H103.386V177.99H101.846V161.904ZM112.329 178.098C111.231 178.098 110.241 177.852 109.359 177.361C108.478 176.855 107.784 176.162 107.278 175.28C106.772 174.398 106.519 173.401 106.519 172.288C106.519 171.175 106.772 170.178 107.278 169.297C107.784 168.415 108.478 167.729 109.359 167.237C110.241 166.746 111.231 166.5 112.329 166.5C113.428 166.5 114.418 166.746 115.299 167.237C116.181 167.729 116.867 168.415 117.359 169.297C117.864 170.178 118.117 171.175 118.117 172.288C118.117 173.401 117.864 174.398 117.359 175.28C116.867 176.162 116.181 176.855 115.299 177.361C114.418 177.852 113.428 178.098 112.329 178.098ZM112.329 176.732C113.139 176.732 113.861 176.552 114.497 176.19C115.147 175.815 115.653 175.287 116.015 174.608C116.376 173.929 116.557 173.155 116.557 172.288C116.557 171.421 116.376 170.648 116.015 169.969C115.653 169.289 115.147 168.769 114.497 168.408C113.861 168.032 113.139 167.844 112.329 167.844C111.52 167.844 110.79 168.032 110.14 168.408C109.504 168.769 108.998 169.289 108.622 169.969C108.261 170.648 108.08 171.421 108.08 172.288C108.08 173.155 108.261 173.929 108.622 174.608C108.998 175.287 109.504 175.815 110.14 176.19C110.79 176.552 111.52 176.732 112.329 176.732ZM131.535 166.587V177.99H130.061V175.909C129.657 176.602 129.1 177.144 128.392 177.534C127.684 177.91 126.874 178.098 125.964 178.098C124.475 178.098 123.298 177.686 122.43 176.862C121.578 176.024 121.151 174.803 121.151 173.199V166.587H122.691V173.047C122.691 174.247 122.987 175.157 123.579 175.779C124.172 176.4 125.017 176.711 126.116 176.711C127.315 176.711 128.262 176.349 128.956 175.627C129.649 174.89 129.996 173.871 129.996 172.57V166.587H131.535ZM146.252 161.904V177.99H144.778V175.735C144.315 176.501 143.701 177.086 142.935 177.491C142.184 177.896 141.331 178.098 140.377 178.098C139.308 178.098 138.339 177.852 137.472 177.361C136.605 176.87 135.926 176.183 135.434 175.302C134.943 174.42 134.697 173.416 134.697 172.288C134.697 171.161 134.943 170.157 135.434 169.275C135.926 168.393 136.605 167.714 137.472 167.237C138.339 166.746 139.308 166.5 140.377 166.5C141.302 166.5 142.133 166.695 142.87 167.085C143.622 167.461 144.236 168.018 144.713 168.755V161.904H146.252ZM140.507 176.732C141.302 176.732 142.017 176.552 142.653 176.19C143.304 175.815 143.809 175.287 144.171 174.608C144.547 173.929 144.734 173.155 144.734 172.288C144.734 171.421 144.547 170.648 144.171 169.969C143.809 169.289 143.304 168.769 142.653 168.408C142.017 168.032 141.302 167.844 140.507 167.844C139.698 167.844 138.968 168.032 138.318 168.408C137.682 168.769 137.176 169.289 136.8 169.969C136.439 170.648 136.258 171.421 136.258 172.288C136.258 173.155 136.439 173.929 136.8 174.608C137.176 175.287 137.682 175.815 138.318 176.19C138.968 176.552 139.698 176.732 140.507 176.732Z" fill="black"/>
<path fill-rule="evenodd" clip-rule="evenodd" d="M117.124 96.5919C123.874 95.5565 128.506 89.2457 127.47 82.4965C126.435 75.7472 120.124 71.1153 113.375 72.1507C108.315 72.927 104.445 76.6682 103.261 81.3363L103.049 81.0372C102.21 86.3634 99.7666 96.1434 96.6134 98.8204C94.9262 100.253 90.9527 102.347 86.9035 104.053C84.1802 102.691 81.0234 102.129 77.7848 102.626C69.4638 103.903 63.7532 111.683 65.0298 120.004C66.3063 128.325 74.0867 134.036 82.4077 132.759C85.1139 132.344 87.544 131.241 89.5475 129.655C92.2226 129.775 94.5481 130.207 95.9352 131.169C99.2509 133.104 101.89 137.98 103.855 141.609L103.855 141.61L103.855 141.61L103.856 141.611C104.233 142.307 104.584 142.957 104.911 143.532L105.119 143.095C107.246 147.282 111.886 149.827 116.781 149.076C122.883 148.14 127.07 142.435 126.134 136.333C125.198 130.231 119.492 126.043 113.39 126.979C113.161 127.014 112.934 127.056 112.71 127.104L112.872 126.765C108.334 128.09 99.6943 129.624 97.4595 128.459C96.0869 128.211 94.6367 127.026 93.2613 125.376C94.9626 122.465 95.7138 118.974 95.1627 115.381C94.8148 113.114 93.984 111.04 92.7909 109.249C93.2863 106.355 94.5416 103.507 98.4764 100.853C105.284 96.2609 109.063 96.5704 112.633 96.8629C113.053 96.8973 113.47 96.9315 113.888 96.9574L114.365 96.7059C115.268 96.7699 116.192 96.735 117.124 96.5919Z" fill="black"/>
<circle cx="80.1475" cy="118.028" r="15.2428" transform="rotate(-8.72217 80.1475 118.028)" fill="black"/>
<circle cx="115.279" cy="138.169" r="11.6861" transform="rotate(-8.72217 115.279 138.169)" fill="black"/>
<circle cx="115.109" cy="84.5636" r="12.5329" transform="rotate(-8.72217 115.109 84.5636)" fill="black"/>
<defs>
<linearGradient id="paint0_linear" x1="66.2974" y1="273.287" x2="63.7138" y2="354.729" gradientUnits="userSpaceOnUse">
<stop offset="0.209564" stop-color="#9BDFF9"/>
<stop offset="0.35677" stop-color="#8883BB"/>
<stop offset="0.618577" stop-color="#8883BB"/>
<stop offset="0.699704" stop-color="#ED6A7C"/>
</linearGradient>
<linearGradient id="paint1_linear" x1="348.824" y1="269.576" x2="345.117" y2="386.436" gradientUnits="userSpaceOnUse">
<stop offset="0.209564" stop-color="#9BDFF9"/>
<stop offset="0.35677" stop-color="#8883BB"/>
<stop offset="0.618577" stop-color="#8883BB"/>
<stop offset="0.699704" stop-color="#ED6A7C"/>
</linearGradient>
</defs>
</svg>
